<svg width="45" height="45" viewBox="0 0 45 45" fill="none" xmlns="http://www.w3.org/2000/svg">
<path d="M10.742 -0.000244141C16.5241 -0.000244141 33.8786 1.25432 33.8786 1.25432C39.5963 1.25432 44.2269 5.76291 44.2269 11.33C44.2269 11.33 45.9664 28.4862 44.2269 33.8573C42.3666 39.6205 39.5963 43.9331 33.8786 43.9331C33.8786 43.9331 17.8609 44.8034 10.742 43.9331C5.07258 43.2352 1.31177 39.6205 0.393709 33.8573C-0.492136 28.2902 0.393709 11.33 0.393709 11.33C0.393709 5.76291 5.02426 -0.000244141 10.742 -0.000244141Z" fill="#DCF343"/>
<path d="M33.798 15.1173H37.1561C37.6152 15.1173 37.9937 14.7488 37.9937 14.3019V7.7703C37.9937 7.32336 37.6152 6.95483 37.1561 6.95483H32.1229C27.0334 6.95483 22.8941 10.9851 22.8941 15.9407V20.0886H17.0233C16.5643 20.0886 16.1858 20.4571 16.1858 20.904V27.3729C16.1858 27.8198 16.5643 28.1883 17.0233 28.1883H22.3142V40.4439C22.3142 40.8908 22.6927 41.2593 23.1518 41.2593H30.158C30.617 41.2593 30.9955 40.8908 30.9955 40.4439V28.1883H35.4086C35.7871 28.1883 36.1253 27.9374 36.222 27.5767L37.9695 21.0452C38.0339 20.8021 37.9856 20.5433 37.8246 20.3395C37.6635 20.1434 37.4219 20.018 37.1642 20.018H31.2935V17.5637C31.2935 16.2151 32.4209 15.1095 33.8141 15.1095L33.798 15.1173ZM30.3593 21.7117H35.8435L34.563 26.4868H30.0774C29.6265 26.4868 29.2641 26.8475 29.2641 27.2788V39.2128H24.0779V27.2788C24.0779 26.8397 23.7074 26.4868 23.2645 26.4868H18.1105V21.7744H23.8282C24.2792 21.7744 24.6416 21.4137 24.6416 20.9824V16.1445C24.6416 12.1926 27.9434 8.98566 31.9941 8.98566H36.077V13.7608H33.6289C31.374 13.7608 29.5459 15.5486 29.5459 17.7363V20.9197C29.5459 21.3588 29.9164 21.7117 30.3593 21.7117Z" fill="#1D3568"/>
</svg>
