<svg version="1.2" xmlns="http://www.w3.org/2000/svg" viewBox="0 0 30 31" width="30" height="31">
	<title>facebook (1)</title>
	<style>
		.s0 { fill: #074bb6 } 
		.s1 { fill: #dcf343 } 
	</style>
	<path class="s0" d="m7.2 0.4c3.8 0 15.4 0.8 15.4 0.8 3.8 0 6.9 3.1 6.9 6.9 0 0 1.1 11.7 0 15.4-1.3 3.9-3.1 6.9-6.9 6.9 0 0-10.7 0.5-15.4 0-3.8-0.5-6.3-3-6.9-6.9-0.6-3.8 0-15.4 0-15.4 0-3.8 3.1-7.7 6.9-7.7z"/>
	<path class="s1" d="m22.5 10.7h2.3c0.3 0 0.5-0.2 0.5-0.5v-4.5c0-0.3-0.2-0.6-0.5-0.6h-3.4c-3.4 0-6.1 2.8-6.1 6.2v2.8h-3.9c-0.4 0-0.6 0.2-0.6 0.5v4.5c0 0.2 0.2 0.5 0.6 0.5h3.5v8.4c0 0.3 0.2 0.5 0.5 0.5h4.7c0.3 0 0.6-0.2 0.6-0.5v-8.4h2.9c0.2 0 0.5-0.1 0.5-0.4l1.2-4.4c0-0.2 0-0.4-0.1-0.5-0.1-0.2-0.3-0.2-0.5-0.2h-3.9v-1.8c0-0.9 0.8-1.6 1.8-1.6zm-2.3 4.4h3.8l-1 3.4h-3c-0.3 0-0.5 0.3-0.5 0.5v8.4h-3.6v-8.4c0-0.2-0.3-0.5-0.6-0.5h-3.5v-3.3h3.9c0.3 0 0.6-0.2 0.6-0.6v-3.3c0-2.8 2.2-5 5-5h2.8v3.3h-1.7c-1.5 0-2.8 1.3-2.8 2.7v2.3c0 0.3 0.3 0.5 0.6 0.5z"/>
</svg>