<svg width="62" height="62" viewBox="0 0 62 62" fill="none" xmlns="http://www.w3.org/2000/svg">
<g clip-path="url(#clip0_2253_20)">
<path d="M61.07 27.2201C60.96 20.8701 59.53 14.9901 58.15 10.7401C56.77 6.49005 53.26 3.71005 49.01 3.12005C40.62 1.96005 26.51 0.160054 21.51 0.390054C12.76 0.800054 5.57997 7.47005 4.44997 16.1501C3.91997 20.2601 3.37997 24.2001 3.03997 26.3201C1.66997 34.7801 3.66997 44.6701 8.92997 51.4301C13.86 57.7601 31.31 58.1101 43.35 57.5301C50.86 57.1701 57.4 52.2201 59.7 45.0601C61.5 39.4401 61.16 32.7201 61.07 27.2101V27.2201Z" fill="#074BB6"/>
<path d="M2.00001 17.55C1.83001 18.36 1.74001 19 1.64001 19.71C1.54001 20.4 1.46001 21.1 1.37001 21.79C0.740006 27.36 0.680007 32.99 1.18001 38.57C1.31001 39.96 1.47001 41.36 1.66001 42.74L1.98001 44.81C2.12001 45.5 2.25001 46.33 2.48001 47.06C3.31001 50.07 4.94001 52.84 7.10001 55.08C9.38001 57.4 12.25 59.17 15.39 60.04C16.15 60.28 17.01 60.42 17.74 60.56C18.46 60.68 19.19 60.79 19.91 60.88C21.36 61.08 22.81 61.23 24.27 61.35C30.1 61.81 35.98 61.67 41.78 60.88C42.5 60.79 43.23 60.67 43.95 60.56C44.68 60.42 45.54 60.28 46.3 60.04C47.87 59.6 49.39 58.96 50.78 58.11C53.57 56.43 55.94 54.03 57.51 51.17C58.3 49.75 58.92 48.23 59.32 46.65C59.71 44.99 59.88 43.64 60.08 42.17C60.46 39.27 60.67 36.35 60.73 33.43C60.77 31.51 60.9 29.1 60.63 27.17C60.37 25.24 59.76 23.81 58.5 23.82C57.14 23.83 56.8 25.24 56.76 27.08C56.73 28.91 56.96 31.19 56.91 32.94C56.84 35.67 56.64 38.38 56.3 41.08C56.12 42.41 55.93 43.83 55.67 45.07C55.4 46.3 55.01 47.51 54.43 48.63C53.3 50.88 51.6 52.85 49.51 54.26C48.47 54.97 47.35 55.56 46.16 55.98C44.95 56.41 43.8 56.65 42.4 56.85C37.02 57.67 31.55 57.91 26.12 57.59C23.41 57.42 20.68 57.12 18.02 56.67C15.54 56.22 13.15 55.18 11.21 53.56C10.24 52.76 9.36001 51.84 8.61001 50.83C7.88001 49.81 7.27001 48.69 6.81001 47.52C6.57001 46.93 6.39001 46.34 6.23001 45.73C6.09001 45.11 5.96001 44.52 5.87001 43.83C5.67001 42.49 5.50001 41.14 5.37001 39.78C4.85001 34.36 4.91001 28.9 5.58001 23.51C5.74001 22.16 5.95001 20.82 6.19001 19.49C6.43001 18.2 6.74001 17.06 7.25001 15.93C8.26001 13.69 9.81001 11.71 11.77 10.29C13.71 8.83 16.01 7.94999 18.39 7.64999C21.05 7.30999 23.74 7.10999 26.42 7.06999C28.93 7.01999 31.96 7.11999 34.39 6.91999C36.81 6.69999 38.68 6.12999 38.78 4.41999C38.86 3.01999 37.08 2.20999 34.62 1.80999C32.17 1.40999 29.07 1.49999 26.61 1.62999C23.8 1.76999 21.01 2.06999 18.24 2.49999C17.58 2.59999 16.78 2.76999 16 2.92999C15.24 3.14999 14.47 3.34999 13.74 3.65999C12.27 4.23999 10.84 4.96999 9.57001 5.90999C6.99001 7.75999 4.89001 10.24 3.53001 13.1C2.83001 14.52 2.34001 16.04 2.03001 17.58H2.04001L2.00001 17.55Z" fill="#DCF343"/>
<path d="M26.91 24.6199C27.72 24.2899 28.69 24.0799 29.44 23.6199C29.63 23.5099 29.82 23.3699 29.98 23.1899C30.15 23.0299 30.3 22.8499 30.43 22.6099C30.69 22.1499 30.87 21.5099 30.86 20.6599C30.85 19.9699 30.62 19.4699 30.21 19.1199C29.8 18.7599 29.22 18.5999 28.56 18.5699C27.23 18.5199 25.66 19.1199 24.51 19.7399C21.88 21.1399 19.71 23.4199 18.53 26.1699C17.32 28.9099 17.08 32.0199 17.84 34.8799C18.56 37.7599 20.31 40.3099 22.61 42.0999C24.91 43.8999 27.83 44.8899 30.73 44.9199C33.77 44.9399 36.83 43.8999 39.19 41.9599C41.55 40.0399 43.23 37.2899 43.83 34.2999C44.42 31.3099 43.96 28.1299 42.51 25.4299C41.05 22.7499 38.67 20.6099 35.85 19.4599C34.92 19.0999 33.75 18.5699 32.71 18.5999C31.68 18.5999 30.91 19.0799 30.87 20.3199C30.83 21.6799 31.38 22.1699 32.05 22.3999C32.72 22.6399 33.62 22.6699 34.25 22.9499C36.19 23.7599 37.88 25.1999 38.9 27.0399C39.94 28.8499 40.36 31.0099 40.04 33.0899C39.52 37.2699 35.73 40.7999 31.5 40.9799C29.39 41.1499 27.28 40.4899 25.59 39.2799C23.89 38.0699 22.68 36.2299 22.18 34.2599C21.68 32.2899 21.93 30.1499 22.81 28.3999C23.7 26.6599 25.2 25.2599 26.92 24.5799V24.5999L26.91 24.6199Z" fill="#DCF343"/>
<path d="M50.42 7.86998C49.94 12.62 57.65 12.01 56.3 7.64998C55.71 4.24998 50.65 4.37998 50.42 7.86998Z" fill="#DCF343"/>
</g>
<defs>
<clipPath id="clip0_2253_20">
<rect width="62" height="62" fill="white"/>
</clipPath>
</defs>
</svg>
