<svg version="1.2" xmlns="http://www.w3.org/2000/svg" viewBox="0 0 30 30" width="30" height="30">
	<title>instagram (1)</title>
	<style>
		.s0 { fill: #074bb6 } 
		.s1 { fill: #dcf343 } 
	</style>
	<path class="s0" d="m30 12.9c0-3.1-0.7-6-1.4-8.1-0.7-2.1-2.4-3.5-4.5-3.8-4.1-0.5-11.1-1.4-13.5-1.3-4.3 0.2-7.9 3.5-8.4 7.8-0.3 2-0.5 3.9-0.7 5-0.7 4.1 0.3 9 2.9 12.3 2.4 3.1 11 3.3 16.9 3 3.7-0.2 6.9-2.6 8.1-6.1 0.8-2.8 0.7-6.1 0.6-8.8z"/>
	<g>
		<path class="s1" d="m1 8.1c-0.1 0.4-0.1 0.8-0.2 1.1q-0.1 0.5-0.1 1-0.5 4.1-0.1 8.3 0.1 1 0.2 2l0.2 1c0 0.4 0.1 0.8 0.2 1.2 0.4 1.4 1.2 2.8 2.3 3.9 1.1 1.1 2.5 2 4.1 2.4 0.3 0.2 0.8 0.2 1.1 0.3q0.6 0.1 1.1 0.1 1.1 0.2 2.1 0.3c2.9 0.2 5.8 0.1 8.6-0.3q0.6 0 1.1-0.1c0.4-0.1 0.8-0.1 1.2-0.3q1.1-0.3 2.2-0.9c1.3-0.8 2.5-2 3.3-3.4q0.6-1.1 0.9-2.2c0.2-0.9 0.2-1.5 0.3-2.3q0.3-2.1 0.4-4.3c0-0.9 0.1-2.1-0.1-3-0.1-1-0.4-1.7-1-1.7-0.7 0-0.9 0.7-0.9 1.6 0 0.9 0.1 2 0.1 2.9q-0.1 2-0.3 4c-0.1 0.7-0.2 1.4-0.3 2q-0.2 0.9-0.6 1.7c-0.6 1.1-1.4 2.1-2.5 2.8q-0.7 0.5-1.6 0.8c-0.6 0.3-1.2 0.4-1.8 0.5-2.7 0.4-5.4 0.5-8.1 0.3q-2-0.1-3.9-0.4c-1.3-0.2-2.4-0.8-3.4-1.6q-0.7-0.5-1.3-1.3-0.5-0.8-0.9-1.6-0.1-0.5-0.2-0.9c-0.1-0.3-0.2-0.6-0.2-0.9q-0.2-1-0.3-2-0.3-4 0.1-8 0.2-1 0.3-2c0.2-0.6 0.3-1.2 0.6-1.8 0.5-1.1 1.2-2 2.2-2.7 0.9-0.7 2.1-1.2 3.2-1.3q2-0.3 4-0.3c1.2 0 2.7 0 3.9-0.1 1.2-0.1 2.1-0.4 2.2-1.2 0-0.7-0.9-1.1-2.1-1.3-1.2-0.2-2.7-0.2-3.9-0.1q-2.1 0.1-4.1 0.4c-0.4 0.1-0.7 0.2-1.1 0.2-0.4 0.2-0.8 0.3-1.1 0.4-0.8 0.3-1.5 0.7-2.1 1.1-1.3 0.9-2.3 2.1-3 3.6q-0.5 1-0.7 2.2z"/>
		<path class="s1" d="m13.2 11.6c0.4-0.1 0.9-0.2 1.3-0.5q0.1-0.1 0.2-0.2 0.2-0.1 0.3-0.3 0.2-0.3 0.2-0.9 0-0.5-0.3-0.8-0.4-0.2-0.9-0.3c-0.6 0-1.4 0.3-1.9 0.6-1.3 0.7-2.4 1.8-3 3.2-0.6 1.3-0.7 2.9-0.3 4.3 0.3 1.4 1.2 2.6 2.3 3.5 1.2 0.9 2.6 1.4 4 1.4 1.5 0 3-0.5 4.2-1.5 1.1-0.9 2-2.3 2.3-3.7 0.2-1.5 0-3.1-0.7-4.4-0.7-1.3-1.9-2.4-3.3-2.9-0.4-0.2-1-0.5-1.5-0.4-0.5 0-0.9 0.2-0.9 0.8 0 0.7 0.2 0.9 0.6 1 0.3 0.1 0.7 0.2 1 0.3 1 0.4 1.8 1.1 2.3 2 0.5 0.9 0.7 2 0.6 3-0.3 2-2.1 3.8-4.2 3.9-1 0-2.1-0.3-2.9-0.9-0.9-0.6-1.4-1.5-1.7-2.4-0.2-1-0.1-2.1 0.3-2.9 0.5-0.9 1.2-1.6 2-1.9z"/>
		<path class="s1" d="m24.8 3.4c-0.2 2.3 3.6 2 2.9-0.1-0.3-1.7-2.8-1.6-2.9 0.1z"/>
	</g>
</svg>