<svg width="48" height="48" viewBox="0 0 48 48" fill="none" xmlns="http://www.w3.org/2000/svg">
<path d="M47.9325 20.8072C47.8449 15.8863 46.7068 11.3297 45.6084 8.03617C44.5101 4.74268 41.7165 2.58834 38.3339 2.13113C31.6563 1.2322 20.4261 -0.162692 16.4466 0.0155446C9.48244 0.33327 3.76787 5.50212 2.8685 12.2286C2.44667 15.4136 2.01689 18.4669 1.74628 20.1097C0.655894 26.6657 2.2477 34.3299 6.43414 39.5685C10.3579 44.4738 24.2464 44.7451 33.8291 44.2956C39.8063 44.0166 45.0115 40.1807 46.8421 34.6321C48.2747 30.2769 48.0041 25.0693 47.9325 20.7994V20.8072Z" fill="#DCF343"/>
<path d="M0.91842 13.3136C0.783117 13.9413 0.711486 14.4372 0.631896 14.9874C0.552306 15.5221 0.488633 16.0646 0.417002 16.5993C-0.0844159 20.9157 -0.13217 25.2786 0.265781 29.6028C0.369248 30.68 0.496592 31.7649 0.647814 32.8343L0.902502 34.4384C1.01393 34.9731 1.1174 35.6163 1.30045 36.182C1.96105 38.5146 3.25837 40.6612 4.97752 42.3971C6.79218 44.1949 9.07641 45.5666 11.5755 46.2408C12.1804 46.4267 12.8649 46.5352 13.4459 46.6437C14.019 46.7367 14.6 46.822 15.173 46.8917C16.3271 47.0467 17.4811 47.1629 18.6432 47.2559C23.2833 47.6124 27.9632 47.5039 32.5794 46.8917C33.1524 46.822 33.7335 46.729 34.3065 46.6437C34.8875 46.5352 35.572 46.4267 36.1769 46.2408C37.4264 45.8998 38.6362 45.4038 39.7425 44.7451C41.9631 43.4432 43.8494 41.5834 45.0989 39.367C45.7277 38.2666 46.2211 37.0887 46.5395 35.8643C46.8499 34.5779 46.9852 33.5317 47.1444 32.3926C47.4468 30.1453 47.614 27.8824 47.6617 25.6196C47.6936 24.1317 47.797 22.2641 47.5821 20.7685C47.3752 19.2729 46.8897 18.1647 45.8869 18.1724C44.8044 18.1802 44.5338 19.2729 44.502 20.6987C44.4781 22.1169 44.6612 23.8837 44.6214 25.2399C44.5657 27.3555 44.4065 29.4556 44.1359 31.5479C43.9926 32.5786 43.8414 33.679 43.6345 34.6399C43.4196 35.5931 43.1092 36.5308 42.6476 37.3987C41.7482 39.1423 40.3951 40.6689 38.7317 41.7616C37.904 42.3118 37.0126 42.769 36.0654 43.0945C35.1024 43.4277 34.1871 43.6137 33.0729 43.7687C28.7909 44.4041 24.4373 44.5901 20.1156 44.3422C17.9587 44.2104 15.7859 43.9779 13.6688 43.6292C11.6949 43.2805 9.79272 42.4746 8.24867 41.2191C7.47665 40.5992 6.77626 39.8863 6.17933 39.1036C5.59832 38.3131 5.11282 37.4452 4.74671 36.5385C4.55569 36.0813 4.41243 35.6241 4.28508 35.1514C4.17366 34.6709 4.07019 34.2137 3.99856 33.679C3.83938 32.6406 3.70408 31.5944 3.60061 30.5405C3.18674 26.3403 3.23449 22.1091 3.76775 17.9322C3.89509 16.886 4.06223 15.8476 4.25325 14.8169C4.44426 13.8173 4.69099 12.9338 5.0969 12.0582C5.90077 10.3223 7.13441 8.78792 8.69438 7.6875C10.2384 6.55609 12.069 5.87415 13.9632 5.64166C16.0803 5.37818 18.2213 5.2232 20.3543 5.1922C22.3521 5.15345 24.7636 5.23095 26.6977 5.07596C28.6238 4.90547 30.1121 4.46376 30.1917 3.13861C30.2554 2.05369 28.8387 1.42599 26.8807 1.11602C24.9308 0.80604 22.4635 0.875784 20.5056 0.976526C18.2691 1.08502 16.0485 1.3175 13.8439 1.65072C13.3186 1.72822 12.6818 1.85996 12.061 1.98395C11.4562 2.15443 10.8433 2.30942 10.2623 2.54965C9.09233 2.99912 7.95419 3.56482 6.9434 4.29327C4.88997 5.72691 3.21858 7.64876 2.13615 9.86508C1.57902 10.9655 1.18903 12.1434 0.942297 13.3368H0.950256L0.91842 13.3136Z" fill="#1D3568"/>
<path d="M20.7444 18.7925C21.3891 18.5367 22.1611 18.374 22.758 18.0175C22.9092 17.9323 23.0605 17.8238 23.1878 17.6843C23.3231 17.5603 23.4425 17.4208 23.546 17.2348C23.7529 16.8784 23.8961 16.3824 23.8882 15.7237C23.8802 15.189 23.6972 14.8015 23.3709 14.5303C23.0445 14.2513 22.5829 14.1273 22.0576 14.1041C20.9991 14.0653 19.7495 14.5303 18.8342 15.0108C16.741 16.0957 15.0139 17.8625 14.0747 19.9936C13.1117 22.1169 12.9207 24.527 13.5255 26.7433C14.0986 28.9752 15.4914 30.9513 17.322 32.3384C19.1526 33.7333 21.4766 34.5005 23.7847 34.5237C26.2043 34.5392 28.6397 33.7333 30.5181 32.2299C32.3964 30.742 33.7335 28.6109 34.211 26.2939C34.6806 23.9768 34.3145 21.5125 33.1604 19.4202C31.9984 17.3433 30.1042 15.6849 27.8597 14.7938C27.1196 14.5148 26.1883 14.1041 25.3606 14.1273C24.5408 14.1273 23.928 14.4993 23.8961 15.4602C23.8643 16.5141 24.3021 16.8939 24.8353 17.0721C25.3686 17.2581 26.0849 17.2813 26.5863 17.4983C28.1303 18.126 29.4754 19.2419 30.2872 20.6678C31.115 22.0705 31.4493 23.7443 31.1946 25.3562C30.7807 28.5954 27.7642 31.331 24.3976 31.4705C22.7182 31.6022 21.0389 31.0907 19.6938 30.1531C18.3408 29.2154 17.3777 27.7895 16.9798 26.2629C16.5818 24.7362 16.7808 23.0779 17.4812 21.7217C18.1895 20.3733 19.3834 19.2884 20.7523 18.7615V18.777L20.7444 18.7925Z" fill="#1D3568"/>
<path d="M39.4561 5.81217C39.0741 9.49314 45.2105 9.02042 44.136 5.64169C43.6664 3.00689 39.6392 3.10763 39.4561 5.81217Z" fill="#1D3568"/>
</svg>
