<svg width="45" height="45" viewBox="0 0 45 45" fill="none" xmlns="http://www.w3.org/2000/svg">
<path d="M34.2471 44.306C28.4668 44.306 11.1178 43.0519 11.1178 43.0519C5.40193 43.0519 0.772855 38.5447 0.772855 32.9793C0.772855 32.9793 -0.966068 15.8286 0.772855 10.4592C2.63254 4.6979 5.40193 0.386701 11.1178 0.386701C11.1178 0.386701 27.1304 -0.483377 34.2471 0.386701C39.9147 1.08433 43.6743 4.6979 44.5921 10.4592C45.5099 16.2205 44.5921 32.9793 44.5921 32.9793C44.5921 38.5447 39.963 44.306 34.2471 44.306Z" fill="#DCF343"/>
<path d="M39.2304 37.659H32.3471V25.9325C32.3149 22.9695 30.6646 21.0726 27.4765 21.9349C25.5524 22.4522 25.0292 24.2707 24.852 26.0109V37.6668H18.0493V16.4479H24.5461V19.3481C25.2143 18.4075 25.9469 17.5766 26.9693 16.9809C28.7405 15.954 30.729 15.7502 32.7577 16.0089C37.2902 16.5811 38.7956 19.7087 39.1499 23.7769C39.3189 28.3938 39.1821 33.0342 39.2304 37.659Z" fill="#1D3568"/>
<path d="M13.8472 16.4402H7.04443V37.6591H13.8472V16.4402Z" fill="#1D3568"/>
<path d="M10.4496 13.6182C12.6416 13.6182 14.4186 11.8881 14.4186 9.7538C14.4186 7.61956 12.6416 5.8894 10.4496 5.8894C8.25766 5.8894 6.48071 7.61956 6.48071 9.7538C6.48071 11.8881 8.25766 13.6182 10.4496 13.6182Z" fill="#1D3568"/>
</svg>
