<svg version="1.2" xmlns="http://www.w3.org/2000/svg" viewBox="0 0 30 31" width="30" height="31">
	<title>linkedin</title>
	<style>
		.s0 { fill: #074bb6 } 
		.s1 { fill: #dcf343 } 
	</style>
	<path class="s0" d="m22.8 30.6c-3.8 0-15.4-0.9-15.4-0.9-3.8 0-6.9-3-6.9-6.8 0 0-1.1-11.7 0-15.4 1.3-3.9 3.1-6.8 6.9-6.8 0 0 10.7-0.6 15.4 0 3.8 0.4 6.3 2.9 6.9 6.8 0.6 4 0 15.4 0 15.4 0 3.8-3.1 7.7-6.9 7.7z"/>
	<path class="s1" d="m26.1 26.1h-4.5v-8c-0.1-2-1.2-3.3-3.3-2.7-1.3 0.3-1.6 1.5-1.7 2.7v8h-4.6v-14.5h4.4v2c0.4-0.7 0.9-1.2 1.6-1.6 1.2-0.7 2.5-0.9 3.8-0.7 3 0.4 4 2.5 4.3 5.3 0.1 3.2 0 6.3 0 9.5z"/>
	<path fill-rule="evenodd" class="s1" d="m9.2 11.6v14.5h-4.5v-14.5z"/>
	<path fill-rule="evenodd" class="s1" d="m7 9.7c-1.5 0-2.7-1.2-2.7-2.7 0-1.4 1.2-2.6 2.7-2.6 1.4 0 2.6 1.2 2.6 2.6 0 1.5-1.2 2.7-2.6 2.7z"/>
</svg>