<?xml version="1.0" encoding="UTF-8"?>
<svg id="Layer_1" data-name="Layer 1" xmlns="http://www.w3.org/2000/svg" viewBox="0 0 117.97 114.9">
  <defs>
    <style>
      .cls-1 {
        fill: #d5f300;
      }
    </style>
  </defs>
  <path class="cls-1" d="M82.41,33.46c-3.3,5.98-22.85,36.75-26.77,39.3-1.99,1.3-3.5,1.93-3.44-1.18.16-8.15,15.15-31.36,20.43-38.78,1.89-2.65,6.66-9.45,8.84-11.23,1.29-1.05,4.16-1.67,4.8.25,1.34,4.03-2.06,8.37-3.86,11.64Z"/>
  <path class="cls-1" d="M30.12,70.98c-.07-1.05-.04-2.07.18-3.11,1.02-4.83,17.4-32.87,21.09-38.62,1.17-1.83,8.24-11.37,9.43-11.92,2.65-1.22,3.88-.02,3.51,2.73-.91,6.62-11.65,23.26-15.64,29.69-4.27,6.88-9.1,13.43-13.09,20.5-1.44,1.32-3.65.61-5.48.73Z"/>
  <path class="cls-1" d="M98.8,32.29c-.01,1.77.18,3.55-.18,5.3-1.51,7.53-12.52,19.79-17.07,26.37-1.88,2.72-6.62,12.84-9.06,13.97-4.82,2.23-2.68-4.74-1.81-6.94,4.18-10.49,12.92-19.47,19.08-28.74,2.18-3.28,3.57-11.3,9.04-9.96Z"/>
  <path class="cls-1" d="M22.31,85.03c.38-.31,1.42-.04,1.76-.34,1.13-.97.69-3.97,5.1-4.07,7.06-.16-4.34,18.83-9.68,14.5-1.41-1.76,1.72-9.19,2.82-10.08Z"/>
  <path class="cls-1" d="M37.53,97.16c-2.03-3.22,6.31-16.82,10.12-14.9,3.19,1.61-.67,8.66-2.31,10.87-1.16,1.56-6.14,6.69-7.81,4.04Z"/>
  <path class="cls-1" d="M62.75,84.97c9.96-3.48.02,14.14-3.75,13.02-3.47-1.03.97-12.05,3.75-13.02Z"/>
</svg>