<?xml version="1.0" encoding="UTF-8"?>
<svg id="Layer_1" data-name="Layer 1" xmlns="http://www.w3.org/2000/svg" viewBox="0 0 1081.26 194.9">
  <defs>
    <style>
      .cls-1 {
        fill: #dcf343;
      }
    </style>
  </defs>
  <path class="cls-1" d="M1037.28,146.96c.88.95.98.2,1.55-.51,2.88-3.64,8.16-14.83,10.23-19.48,1.09-2.44,5.91-16.44,6.83-17.02,3.02-1.91,11.73,1.47,13.07,4.61,1.14,2.67-2.41,10.96-3.61,13.89-7.34,17.9-18.94,33.69-25.12,52.52-.44,1.35-1.95,9.07-2.31,9.39-.51.45-2.36.26-3.15.15-.94-.13-8.96-3.5-9.27-3.9-.43-.57-.12-1.82-.4-2.6-.2-.56-1.19-.34-1.59-1.06-1.93-3.42-3.75-10-5.53-13.98-8.6-19.25-18.21-37.83-28.8-56.05,2.18-3.93,10.62-.45,13.01,2.24s2.67,5.2,3.94,7.88c.32.68,1.45.57,1.92,1.35,5.8,9.69,10.78,20.32,15.73,30.47,1.12.03.44-1.51.38-2.27-.74-10.1,13.13-5.63,13.13-5.63Z"/>
  <g>
    <path class="cls-1" d="M1040.9,159.56c-6.34-60.74-42.37-101.79-107.1-122.03-34.28-10.72-73.44-14.72-112.19-15.71.18,0,.37,0,.55,0l-.34-.12c-4.19-.08-7.36-.09-5.88-.01-3.71-.07-7.42-.11-11.11-.13,6.65-.14,1.27-.8-5.81-1.15-.27.09-.27.17-9.1.33,1.55.02,6.45.09,10.03.14,3.58.08,5.84.19,2.12.25-11.7.14-9.59-.06-15.27-.08,4.29.14-10.75.51-12.39.83-6.09.14-12.12.32-18.05.52-17.25.59-34.92,1.5-52.84,2.67.43-.06.36-.08-.52-.06l-6.57.47c-6.06.18,12.35-1.11,4.02-.67,8.81-.74,18.69-1.59,31.13-2.08l2.35.19c-.27-.07-8.14.19-11.62.5,2.58-.23,7.36-.35,12.19-.51,4.83-.18,9.72-.35,12.55-.65-2.91.05-5.82.07-8.73.16,8.86-.55,19.82-1.3,30.85-1.5-5.03-.17-2.54.11-10.39,0,6.81.15-28.21,1.08-17.28,1.1-8.05-.01-13.92.45-24.44.73.33.08,3.73-.02-5.52.46-.42.04-1.4.15-2.02.21-.28.02-.38.02-.62.03.19,0,.32-.01.51-.02-.4.04-.44.05.19,0,2.2-.1,3.99-.13,4.72-.12-2.29.23-7.11.6-11.97.97-4.87.35-9.78.72-12.26.97-5.48.36,2.28-.28-.72-.17l-7.41.73c-.75-.2-14.58.8-1.69-.38l-11.62.93c-6.85.41-16.25,1.25-22.04,1.87-5.48.49-13.79,1.6-9.05.96-6.06.62-12.11,1.34-18.16,2.02l-.17-.04c-17.93,1.92-36.83,4.61-57.31,7.01-6.01.88-12.21,1.78-22.26,3.25l-1.99.09c-3.85.62-9.64,1.48-14.88,2.25-5.24.81-9.92,1.57-11.55,1.94-4.19.41-13.53,1.97-23.49,3.78-9.96,1.8-20.54,3.9-27.28,5.19l-.46.35c-9.26,1.82-18.12,3.69-29.54,6.3l.75.06c-9.84,2.29-25.37,5.51-40.87,9.43,1.03-.34,4.96-1.33,7.77-1.95-18.68,4-38.9,10.44-55.57,15.09-4.11,1.31-7.11,2.2-10,3.08.38-.13.72-.24,1.02-.33-.42.13-1.05.33-1.69.53-1.83.54-3.71,1.09-5.75,1.69,1.74-.5,3.4-.99,4.85-1.41-1.58.51-3.58,1.15-5.76,1.85-2.17.74-4.54,1.55-6.88,2.35l-2.08.43c-.38.13-.69.23-1.08.37-4.62,1.5-3.65,1.39-1.15.71-1.17.43-2.29.84-3.32,1.22-.52.19-1.01.38-1.48.56-.21.08-.42.16-.63.24-.12.05-.25.1-.36.15-.47.06-1.05.25-1.58.37.24-.52.47-1.06.68-1.65.18-.53.37-1.08.56-1.63.19-.64.39-1.29.58-1.93.73-2.59,1.24-5.19,1.63-7.28.05-.85.24-2.87.15-5.46-.06-2.59-.47-5.75-1.29-8.78-.8-3.04-2.05-5.91-3.26-8.08-.63-1.08-1.18-2.01-1.71-2.7-.25-.36-.47-.66-.66-.91-1.5-2.22-3.2-4.3-5.03-6.16-1.94-1.91-3.98-3.61-6.04-5.03-.57-.55-1.18-1.06-1.77-1.6-1.73-1.08-3.51-2.05-5.33-2.95-1.82-.88-3.71-1.62-5.55-2.44-6.74-2.9-9.62-4.03-2.68-1.65-8.34-3-11.89-3.6-15.03-4.37-.79-.18-1.56-.36-2.38-.56-.83-.15-1.72-.3-2.74-.48-2.04-.34-4.59-.85-8.31-1.23l.75-.09c-1.33-.18-2.85-.38-4.44-.59-1.59-.18-3.26-.28-4.86-.43-1.6-.12-3.13-.29-4.46-.37-1.33-.08-2.47-.16-3.27-.25-1.49-.11-3.53-.35-6.02-.42-2.49-.06-5.43-.22-8.73-.22-1.65.01-3.38.03-5.19.04-.9.01-1.83.02-2.76.03-.94.04-1.89.08-2.86.12-1.94.08-3.94.17-6,.26-2.05.15-4.15.3-6.28.46-17.09,1.2-36.29,4.52-51.27,7.8,2.97-.34-.54.29-4.88,1.3-4.33,1.03-9.56,2.21-10.07,2.65-1.75.36-5.88,1.46-1.14-.02-15.03,4.37-22.56,6.73-32.54,10.91-1.72.52,3.05-1.4,1.54-.9-1.16.48-4.59,1.92-6.14,2.43-1.52.5,2.09-.94,4.39-1.9-3.73,1.45-6.61,2.6-8.81,3.63-2.21,1-3.78,1.74-4.92,2.31-2.29,1.13-2.81,1.66-3.26,2.07-3.7,1.64-6.5,2.82-8.94,4.09-2.45,1.26-4.62,2.44-7.17,3.88-1.28.59-2.94,1.47-3.23,1.55-.14.04.07-.1.86-.56.4-.23.93-.54,1.64-.94.72-.38,1.62-.84,2.73-1.42-.62.31-1.57.79-2.74,1.39-1.16.63-2.54,1.39-4.06,2.22-1.52.84-3.19,1.73-4.89,2.7-1.68,1.01-3.41,2.04-5.11,3.06-6.77,4.1-12.73,8.3-12.85,8.62-1.47.96-6.39,4.49-7.48,5.5-2.46,1.94-4.42,3.37-5.98,4.72-1.57,1.34-2.86,2.44-4.15,3.54-.64.55-1.29,1.09-1.95,1.68-.65.61-1.32,1.25-2.06,1.94-1.46,1.41-3.24,3-5.4,5.18.81-.79,1.63-1.57,2.48-2.34-.98,1.06-1.98,2.15-3.13,3.32-1.19,1.21-2.27,2.26-4.2,4.15,1.06,1.09,2.22,2.27,3.5,3.58,1.18,1.19,2.46,2.49,3.88,3.92l-.23-.17c2.25,2.31,4.03,4.15,5.44,5.59,2.47-2.44,3.98-3.92,5.08-5.01,1-1.01,1.63-1.65,2.44-2.41,1.62-1.51,3.71-3.76,11.25-9.87-.37.19-.72.4-1.08.6.3-.46,1.45-1.42,3.16-2.74,1.72-1.31,3.91-3.07,6.55-4.81,1.3-.89,2.67-1.83,4.08-2.79,1.41-.97,2.92-1.86,4.39-2.82,1.49-.93,2.95-1.92,4.43-2.81,1.48-.9,2.93-1.78,4.31-2.62l-4.09,2.29c3-1.89,7.31-4.34,11.78-6.47,1.11-.55,2.22-1.1,3.31-1.64,1.11-.5,2.2-1,3.24-1.48,2.1-.95,4.02-1.86,5.61-2.63,1.41-.64-2.16,1.14-4.07,2.16,4.16-2.06,6.44-3.03,7.62-3.6,1.18-.57,1.3-.68,1.28-.74s-.18-.07.45-.43c.31-.18.83-.45,1.65-.86.41-.2.91-.44,1.49-.72.59-.26,1.28-.56,2.08-.9,2.42-.84-2.86,1.68,5.73-1.93,1.08-.43,3.19-1.27,5.93-2.37,1.37-.55,2.89-1.17,4.53-1.83,1.65-.61,3.42-1.26,5.24-1.94,7.28-2.74,15.69-5.33,21.86-6.88-2.73.64-5.45,1.28.72-.58,4.77-1.29,11.26-2.87,17.69-4.15,1.61-.33,3.2-.69,4.76-.99,1.57-.3,3.1-.59,4.56-.87,2.93-.58,5.59-1.11,7.79-1.55,1.25-.17,1.72-.21,1.77-.19.93-.16,2-.35,3.18-.56,1.18-.2,2.47-.37,3.82-.57,2.7-.38,5.63-.86,8.5-1.16,5.71-.74,11.08-1.18,13.34-1.48,1.75.03,5.56-.02,10.27-.25,2.36-.05,4.95-.1,7.63-.16,2.68,0,5.44.02,8.15.03,2.71.08,5.35.2,7.81.3,2.45.16,4.69.37,6.6.53,3.81.4,6.23.85,6.16,1.01,7.63,1.07,15.22,2.63,22.45,5.2l-.59-.14c6.94,2.45,11.29,4.89,14.32,7.06,1.52,1.09,2.74,2.08,3.76,3.07.54.47.97.98,1.44,1.45.42.5.86.97,1.24,1.47.95,1.38.98,1.62.85,1.43-.12-.19-.53-.73-.63-.83,1.47,2.17,2.36,4.34,2.83,6.36.47,2.02.51,3.9.44,5.59-.24,3.4-1.05,6.11-2.01,8.63-.99,2.51-2.16,4.85-3.75,7.47-1.61,2.6-3.64,5.49-6.6,8.92l-1.47,1.21c-.41.48-1.02,1.13-1.95,2.04-.31.31-.64.64-.98.98-.15.17-.4.34-.48.53.14.21.28.43.43.66.48.74,1,1.54,1.55,2.4,1.96,3.04,4.43,6.89,7.19,11.19l.38.58.19.29c.02.08.08.04.14.02l.16-.06c.44-.17.87-.33,1.31-.5.66-.25,1.33-.5,2-.76,1.21-.46,2.44-.93,3.69-1.4,2.5-.96,5.07-1.94,7.66-2.94,1.29-.5,2.59-1,3.89-1.5,1.31-.46,2.63-.93,3.93-1.39,2.61-.94,5.19-1.86,7.69-2.77-.19.1-.59.29-2.17.88,2.82-1,5.78-2.06,8.82-3.14,3.04-1.06,6.22-1.99,9.38-3,3.17-.98,6.36-1.97,9.49-2.94,1.57-.48,3.12-.96,4.66-1.43,1.55-.43,3.07-.86,4.57-1.28,5.99-1.68,11.52-3.26,16.07-4.61,2.27-.7,4.31-1.28,6.03-1.79,1.73-.52,3.14-.98,4.17-1.37l15.24-4.26c-19.81,5.17,2.85-1.16-5.33.85,7.75-2.21,20.27-4.77,10.66-2.43l-1.52.32c-3.42,1.31,24.77-5.82,24.31-5.38,39.24-9.15,77.92-16.1,115.2-21.91l-4.35.33,13-2.08c1.72-.2,2.88-.29,2.44-.17-.43.12-2.46.44-7.09,1.2,1.23-.15,2.81-.39,4.5-.67,1.69-.27,3.49-.55,5.15-.82,3.31-.55,6.03-1.06,6.16-1.11,18.23-2.45-7.05,1.44-1.46.65l7.58-1.11-1.71.2c6.12-1.02,6.65-1.26,17.83-2.83,7.1-.81,3.67-.23,6.46-.56,0,0,.05,0,.19,0,.14-.02.36-.04.69-.08.65-.08,1.73-.22,3.4-.44l16.46-2-6.62.53c7.28-1.04,15.48-1.9,7.85-1.28,1.4-.11,3.41-.31,5.87-.57,2.46-.23,5.38-.51,8.58-.81,6.4-.65,13.96-1.42,21.39-2.18,1.86-.19,3.7-.39,5.52-.58,1.82-.16,3.61-.32,5.36-.47,3.49-.3,6.78-.58,9.72-.83,5.87-.5,10.31-.87,12.04-.98,10.24-1.18,20.39-1.7,32.95-2.52-3.13.14-5.02-.06,5.82-.73-1.96.48,3,.18,9.56-.13,6.23-.23,13.89-.55,18.41-.54-2.04-.04,5.03-.37,11.63-.7,7.15-.4,13.75-.58,7.59-.63,9.06-.23.56.23,7.43.17,21.55-.86,47.53-.82,74.11.58.42-.07-4.03-.43,1.69-.27,4.67.39,9.33.93,13.99,1.41,2.62.22,3.83.21,5.59.29,1.75.1,4.05.2,8.8.95-1.34-.23-3.34-.58.17-.2,12.94,1.59,25.96,3.68,38.88,6.64,12.91,2.96,25.72,6.8,38.01,12.01,12.27,5.19,24.04,11.78,34.38,20.16,10.37,8.32,19.13,18.58,25.56,30.02-3.53-6.18-.98-2.18,1.67,2.57-1.64-3.13.23-.04,0-.7,3.43,6.51,6.26,13.33,8.35,20.38.77,1.86,2.47,7.54,3.59,13.14,1.16,5.59,1.81,11.05,2.1,12.18-.27-2.32-.65-4.62-1.03-6.93.45,2.29.6,2.62.58,1.85-.02-.77-.17-2.65-.48-4.77-.05-.38-.1-.77-.15-1.17.83,4.25,1.49,8.63,1.96,13.14l.88,8.45,16.91-1.76-.88-8.45ZM802.41,21.56c-4.84-.01-9.66.01-14.45.07,3.62-.12,9.19-.2,14.45-.07ZM784.72,21.67s0,0,0,0c-.06,0-.12,0-.18,0,.06,0,.12,0,.18,0ZM659.71,27.25c-.12.02-.21.03-.31.04-6.43.48-4.15.32.31-.04ZM605.28,33.33c14.27-1.73,6.22-.43,8.69-.78,13.42-1.42,19.12-2.2,24.26-2.84,5.14-.66,9.71-1.25,20.89-2.09,8.88-.53.45.5,2.43.51-5.82.58-10.3.93-14.31,1.25-4.01.34-7.55.62-11.49,1.01l9.73-.83c-3.7.46-11.47,1.26-15.71,1.64.89-.07,2.24-.18,3.93-.33-18.37,1.86-36.77,3.98-55.06,6.34,1.24-.22,2.72-.48,4.41-.76,5.5-.86,13.25-2.01,22.23-3.13ZM517.87,45.8c-.42.14.88.02,1.9-.09-3.8.61-7.59,1.23-11.35,1.86,3.07-.62,6.47-1.26,9.45-1.77ZM441.32,59.51c1.39-.3,20.93-3.94,25.52-4.58.77-.11,1.22-.16,1.44-.17-4.65.89-9.26,1.8-13.83,2.72l-.35-.31-1.56.69c-4.57.93-9.1,1.87-13.59,2.82-.09-.28.67-.7,2.37-1.18ZM375.34,75.25c4.11-1.13,8.21-2.32,12.34-3.4-1.91.59-4.67,1.45-7.93,2.46-2.25.71-4.74,1.46-7.33,2.27-6.95,1.87-13.75,3.77-20.4,5.71,5.78-2.01,12.78-4.3,20.19-6.38l3.14-.65ZM303.32,57.33c-.18-.24-.34-.42-.46-.53-.07-.15-.8-1.27.46.53ZM278.39,38.68c-.83-.19-.52.08-.07.44-2.59-1.08-5.34-2.08-8.23-2.99,2.79.74,5.56,1.57,8.3,2.55ZM67.13,64.81c2.33-1.26,4.74-2.38,7.13-3.53,1.76-.76.36.01-1.95,1.23.97-.48,1.89-.94,2.61-1.3,1.94-.85,2.79-1.19,2.91-1.19-2.35,1.06-4.68,2.15-6.98,3.26.5-.27,1-.53,1.46-.77-.8.4-1.65.82-2.55,1.27-.19.1-.4.21-.59.32-1.46.72-2.91,1.44-4.35,2.17-1.92.88-3.56,1.63-4.74,2.24,2.32-1.28,4.69-2.47,7.04-3.7ZM583.83,54.56l-2.59.26c5.82-.79,4.2-.52,2.59-.26Z"/>
    <path class="cls-1" d="M1027.8,170.7c-3.54.35-2.25.43-2.77.52,5.91-.66,2.62-.56,2.77-.52Z"/>
    <path class="cls-1" d="M1033.88,124.26l.42.96c-.98-2.73-2.13-5.4-3.27-8.06.51,1.17.98,2.35,1.47,3.53.5,1.17.95,2.37,1.38,3.57Z"/>
    <path class="cls-1" d="M1023.13,101.36l.76,1.43c.86,1.21,1.59,2.5,2.39,3.75-2.8-5.28-6.51-11.1-10.41-16.21-3.86-5.14-7.93-9.54-10.84-12.58,1.73,1.96,5.12,5.62,8.63,9.95,3.54,4.3,7.02,9.4,9.47,13.66Z"/>
    <path class="cls-1" d="M987.41,61.69c-.96-.71-2.34-1.61-4.64-3.21.71.57-.62-.31-.77-.38-.15-.08.97.53,6.39,4.36-.53-.41-.68-.53-.98-.77Z"/>
    <path class="cls-1" d="M987.41,61.69c4.71,3.45-3.02-2.35,0,0h0Z"/>
    <path class="cls-1" d="M964.24,48.04l3.46,1.66,3.41,1.76c-.69-.41-2.52-1.47-3.93-2.19-1.41-.73-2.37-1.23-1.22-.69-1.77-.86-3-1.48-3.82-1.82-.41-.17-.7-.3-.9-.38-.2-.08-.29-.11-.3-.1-.02.02.31.2.9.5.59.29,1.42.74,2.4,1.27Z"/>
    <path class="cls-1" d="M957.56,45.19l3.63,1.61c-.62-.32-1.57-.77-3.63-1.61Z"/>
    <path class="cls-1" d="M968.77,50.45c-1.23-.67-2.52-1.24-3.78-1.86-1.27-.61-2.52-1.23-3.81-1.79.98.52,1.05.65,3.5,1.65-.67-.2.89.41,4.09,2Z"/>
    <path class="cls-1" d="M974.68,54.08c6.33,3.68,8.91,5.47,8.5,5.1-.2-.19-1.17-.88-2.89-1.97-.86-.54-1.89-1.23-3.12-1.97-1.24-.72-2.66-1.55-4.24-2.47,3.68,2.23,8.43,5.1,1.74,1.31Z"/>
    <path class="cls-1" d="M1010.11,83.78c-.81-.94-2.67-2.97-4.29-4.74-1.68-1.72-3.12-3.19-3.03-3.02,1.31,1.39,2.67,2.73,3.92,4.17,1.13,1.2,2.31,2.36,3.4,3.6Z"/>
    <path class="cls-1" d="M922.76,32.83c-1.73-.46-3.15-.85-3.32-.96-.48-.04,2.45.81,2.98,1.05,1.84.39,3.64.95,5.46,1.43-1.39-.41-3.39-1.08-5.12-1.52Z"/>
    <path class="cls-1" d="M922.41,32.92l-8.23-1.9c7.32,1.83,8.67,2.1,8.23,1.9Z"/>
    <path class="cls-1" d="M965.64,49.24c1.05.51,2.09,1.02,3.13,1.54-1.03-.54-2.08-1.04-3.13-1.54Z"/>
    <path class="cls-1" d="M963.47,48.21c.72.34,1.45.69,2.17,1.03-.72-.35-1.45-.69-2.17-1.03Z"/>
    <path class="cls-1" d="M962.52,47.76c-.07-.03-.14-.06-.21-.09.39.18.78.36,1.17.54-.32-.15-.64-.3-.96-.45Z"/>
    <path class="cls-1" d="M962.31,47.67c-2.84-1.31-5.71-2.56-8.62-3.7l2.46,1.04c2.07.84,4.11,1.77,6.16,2.66Z"/>
    <path class="cls-1" d="M892.56,26.15c-2.82-.38-5.65-.66-8.47-1l3.71.45c1.59.19,3.18.32,4.76.55Z"/>
    <path class="cls-1" d="M866.58,22.97c3.54.19-4.81-.71-1.07-.44-2.89-.26-5.58-.49-8.09-.66-2.52-.13-4.87-.24-7.1-.36,2.37.14,4.81.31,7.48.52,2.66.26,5.55.57,8.79.94Z"/>
    <path class="cls-1" d="M850.31,21.51c-1.26-.07-2.5-.14-3.75-.21-1.25-.03-2.49-.07-3.74-.1,1.18.04,2.39.08,3.63.12,1.24.06,2.52.12,3.86.19Z"/>
    <path class="cls-1" d="M900.11,28.07c-.63-.16-1.85-.5-6.5-1.37l3.23.79c1,.18,2.13.38,3.27.58Z"/>
    <path class="cls-1" d="M890.73,26.42c-.06,0-.1-.02-.15-.02.05,0,.1.01.15.02Z"/>
    <path class="cls-1" d="M890.2,26.34c-.17-.02-.31-.04-.43-.06.12.02.27.04.43.06Z"/>
    <path class="cls-1" d="M890.58,26.4c-.13-.02-.26-.04-.37-.06.11.02.24.04.37.06Z"/>
    <path class="cls-1" d="M896.95,27.51l-.11-.03c-2.74-.49-4.82-.86-6.12-1.07,1.19.19,3.17.54,6.23,1.09Z"/>
    <path class="cls-1" d="M900.11,28.07c.31.08.5.12.82.15-.3-.05-.53-.09-.82-.15Z"/>
    <path class="cls-1" d="M935.5,37.07c-4.77-1.36-14.75-4.05-5.19-1.11,3.45.87-2-.89,5.19,1.11Z"/>
    <path class="cls-1" d="M913.32,30.93c-2.79-.59-5.6-1.1-8.39-1.66l8.75,1.91c-.12-.07-1.1-.37-.36-.25Z"/>
    <path class="cls-1" d="M913.32,30.93c.35.07.7.14,1.05.21-.52-.11-.84-.18-1.05-.21Z"/>
    <path class="cls-1" d="M904.93,29.27c-1.08-.22-2.16-.49-3.25-.67l-1.06-.1c1.45.21,2.88.49,4.32.78Z"/>
    <path class="cls-1" d="M860.65,22.87c.71,0,2.92.09-2.54-.42-3.86-.19-8.08-.52-12.85-.81,2.55.16,5.15.4,7.73.59,2.58.2,5.16.38,7.66.64Z"/>
    <path class="cls-1" d="M877.04,24.5c-.27-.03-.61-.06-.85-.09.52.08.94.14.85.09Z"/>
    <path class="cls-1" d="M798.27,20.38c.26.01.49.02.75.03.06-.01.1-.02.18-.04h-.93Z"/>
    <path class="cls-1" d="M861.5,23c3.83.41,6.12.56,8.31.73-2.87-.27-5.9-.55-9.16-.85-.32,0-.38.01.85.12Z"/>
    <path class="cls-1" d="M829.7,20.69c2,.13,4.27.21,6.65.38-1.95-.18-5.94-.4-6.65-.38Z"/>
    <path class="cls-1" d="M874.9,24.2c.19.02.37.04.57.06-1.25-.2-1.1-.15-.57-.06Z"/>
    <path class="cls-1" d="M874.9,24.2c-1.97-.18-3.52-.33-5.08-.48,2.33.25,4.49.49,6.37.69-.47-.08-.94-.16-1.28-.21Z"/>
    <path class="cls-1" d="M815.86,20.58l3.64.05c-4.14-.15-7.11-.26-12.58-.46-6.05.05-7.31.13-7.73.2,5.97.03,11.94.04,17.91.2h-1.24Z"/>
    <path class="cls-1" d="M829.58,21.47c5.33.17,7.2.23,8.53.26,1.33.02,2.13,0,5.32.12-17.21-.87,4.95.15-7.48-.64,3.38.16,6.43.31,9.3.44-3.1-.2-6.08-.39-8.9-.58.16.01.27.02.39.03h.08s-.02,0-.02,0c.74.07.98.1.15.04-.06,0-.27-.01-.36-.02-.12.02-.44.03-.78.04-4.98-.24-.78-.12.78-.04.06,0,.19-.01.21-.02-.02,0-.04,0-.06,0-2.87-.14-5.75-.19-8.63-.28-2.88-.1-5.75-.17-8.63-.19,3.65.08,8.22.25,16.33.54-2.85.08-11.58-.12-6.24.3Z"/>
    <path class="cls-1" d="M921.32,33.93c-.51-.15-.49-.16-.52-.18-1.09-.24-1.5-.33.52.18Z"/>
    <path class="cls-1" d="M925.05,34.67c-.44-.16-1.45-.49-3.32-.96l-1.19-.27c-5.34-1.48-11.95-3.05-13.81-3.52,1.79.56,3.59,1.02,7.74,2.17,1.23.27,2.26.44,6.21,1.44,3.42.91-.04.1.12.21,1.2.27,3.3.74,4.15.97.43.1.55.11.11-.04Z"/>
    <path class="cls-1" d="M906.73,29.93c-.13-.04-.27-.08-.4-.13-.24-.04-.07,0,.4.13Z"/>
    <path class="cls-1" d="M874.91,24.87c-2.38-.25-4.76-.57-7.14-.77l-7.16-.63,7.26.88-.36-.15c8.11.93,6.37.64,7.39.66Z"/>
    <polygon class="cls-1" points="798.53 20.04 790.23 20.41 796.62 20.28 798.53 20.04"/>
    <polygon class="cls-1" points="778.64 20.31 773.72 20.55 777.96 20.52 778.64 20.31"/>
    <path class="cls-1" d="M314.4,92.54l1.86-.4c4.07-1.39,7.2-2.41,9.88-3.23-5.9,1.75-12.52,3.64-11.74,3.63Z"/>
    <path class="cls-1" d="M574.32,36.45c6.35-.7,11.49-1.18,13.14-1.55-5.28.55-9.46,1.09-13.14,1.55Z"/>
    <path class="cls-1" d="M166.22,52.04c2.53-.46,3.61-.68,3.53-.71-2.61.47-4.08.75-3.53.71Z"/>
    <path class="cls-1" d="M559.14,38.5c.93-.11,1.84-.22,2.78-.33,3.84-.57,7.7-1.13,12.4-1.72-4.69.5-10.05,1.19-15.18,2.05Z"/>
    <path class="cls-1" d="M1010.4,116.72c.41.83.9,1.82,1.48,3-.42-.87-.93-1.91-1.48-3Z"/>
    <path class="cls-1" d="M1010.32,116.57s-.05-.09-.07-.14c.05.1.1.2.15.29-.02-.05-.05-.11-.08-.16Z"/>
    <path class="cls-1" d="M1011.88,119.73c.15.31.3.61.43.87-.15-.31-.29-.59-.43-.87Z"/>
    <path class="cls-1" d="M1009.06,114.21c.29.54.68,1.26,1.19,2.22-.38-.74-.77-1.49-1.19-2.22Z"/>
    <path class="cls-1" d="M702.94,23.74c3.95-.27.62-.06,0,0h0Z"/>
    <path class="cls-1" d="M720.63,23.63c.32-.07.87-.14,1.57-.2-.84.07-1.48.14-1.57.2Z"/>
    <path class="cls-1" d="M707.68,23.51c-.32.02-.62.03-.9.05.3-.02.61-.03.9-.05Z"/>
    <path class="cls-1" d="M708.89,23.44c-.39.02-.79.04-1.21.06.38-.02.77-.04,1.21-.06Z"/>
    <path class="cls-1" d="M706.79,23.56c-.93.05-1.92.1-2.95.16.57-.03,1.51-.08,2.95-.16Z"/>
    <path class="cls-1" d="M708.08,23.39c1.36-.08,2.43-.14,3.45-.2.5-.06.05-.08-3.45.2Z"/>
    <path class="cls-1" d="M702.94,23.74c-1.16.08-2.79.19-5.5.37,2.26-.14,4.37-.27,6.4-.4-.78.04-1.1.05-.89.02Z"/>
    <path class="cls-1" d="M740.26,41.21c-.22,0-.46,0-.7,0,.17,0,.39,0,.7,0Z"/>
    <path class="cls-1" d="M742.66,21.47c.4-.02.79-.04,1.18-.06-.58.02-.95.04-1.18.06Z"/>
    <path class="cls-1" d="M743,21.59c-.15-.04-1.18-.06-.34-.12-2.46.12-4.92.26-7.38.39,4.14-.21,5.63-.24,7.72-.28Z"/>
    <path class="cls-1" d="M762.81,21.62c1.76-.32-4.64-.08-11,.28.69.17,6.06-.11,12.06-.32-.36.01-.7.02-1.06.03Z"/>
    <path class="cls-1" d="M770.81,21.38c.7-.12-2.25.02-5.55.15,1.85-.07,3.74-.12,5.55-.15Z"/>
    <path class="cls-1" d="M689.98,24.79c2.84-.16,1.76-.39,3.38-.43,3.15-.49-18.92,1.71-3.38.43Z"/>
    <polygon class="cls-1" points="756.69 22.38 754.53 22.21 751.18 22.55 756.69 22.38"/>
    <path class="cls-1" d="M718.91,24.01c-.15-.03,1.07-.13,2.56-.23-5.9.33-12.37.64-12.14.72l9.58-.49Z"/>
    <path class="cls-1" d="M721.47,23.78c3.07-.18,6-.35,7.71-.45-1.66.07-5.24.28-7.71.45Z"/>
    <path class="cls-1" d="M601.87,34.29c2.48-.34,6.34-.82,4.73-.72-3.47.42-6.93.83-10.39,1.29-1.05.22,1.79-.09,5.66-.57Z"/>
    <path class="cls-1" d="M1020.79,148.23c.22,1.3.47,2.59.66,3.9l.55,3.92c-.21-1.69-.38-3.39-.63-5.07l-.58-2.75Z"/>
    <path class="cls-1" d="M1023.21,165.14l.79,4.74c-.2-1.79-.59-5.27-.66-6.64l-.13,1.9Z"/>
  </g>
</svg>