<?xml version="1.0" encoding="UTF-8"?>
<svg id="Layer_1" data-name="Layer 1" xmlns="http://www.w3.org/2000/svg" viewBox="0 0 400 200">
  <defs>
    <style>
      .cls-1 {
        fill: none;
      }

      .cls-2 {
        fill: #e0f55b;
      }

      .cls-3 {
        fill: #dcf343;
      }
    </style>
  </defs>
  <path class="cls-3" d="M157.1,156.68c-1.02,0-2.06,0-3.11-.03-40.87-.69-81.58-13.92-115.72-37.46,1.12,7.79,1.57,16.62,1.29,26.05l-.12,3.93-12-.16.12-4.07c.46-15.51-1.13-28.96-4.49-37.95-.5-1-.72-2.13-.62-3.24.08-1.15-.94-4.17-.27-5.08,1.13-1.53,4.34-.51,6.24-.51.15,0,.3,0,.44.02,4.33.32,8.5.76,12.53,1.18,7.43.79,15.1,1.6,23.81,1.6.46,0,1.38,0,1.38,0l10.25-.08s.09,8.58-.09,12.02l-7.56.03-1.5.02c-.84.01-1.67.02-2.49.02-5.67,0-10.83-.31-15.74-.74,31.28,20.37,67.94,31.79,104.73,32.41.99.02,1.96.03,2.92.03,15.26,0,27.12-2.09,37.3-6.56,3.23-1.42,6.26-3.09,9.07-5.01-9.87-3.41-17.65-8.26-23.64-14.72-9.98-10.76-15.62-30.16-6.42-44.92,4.47-7.17,11.85-11.93,20.79-13.42,1.85-.31,3.74-.46,5.62-.46,7.77,0,15.19,2.56,20.89,7.22,12.75,10.41,17.75,30.49,11.88,47.75-1.36,4.01-3.24,7.85-5.6,11.5,5.1.63,10.29.94,15.49.94,24.69,0,49.67-7.22,70.34-20.33,24.59-15.59,41.94-41.07,53.05-77.9l1.45-4.79,4.36,2.47c1.09.62,1.74,1.02,2.27,1.34.41.25.73.45,1.18.69l2.91,1.55-.97,3.15c-12,39.19-30.91,66.54-57.82,83.62-22.56,14.31-49.83,22.19-76.77,22.19h0c-8.05,0-16.08-.69-23.86-2.06-.22-.04-.43-.08-.64-.12-5.36,5.04-11.65,9.17-18.73,12.28-11.76,5.17-25.15,7.58-42.14,7.58ZM199.84,71.59c-1.23,0-2.47.1-3.67.3-5.49.91-9.96,3.73-12.57,7.93-6.05,9.7-1.92,22.91,5.04,30.41,5.8,6.25,14.07,10.66,25.25,13.46,3.31-4,5.78-8.36,7.35-12.99,4.32-12.69.91-27.24-8.1-34.59-3.52-2.87-8.36-4.52-13.29-4.52Z"/>
  <g>
    <path class="cls-1" d="M157.1,156.68c-1.02,0-2.06,0-3.11-.03-40.87-.69-81.58-13.92-115.72-37.46,1.12,7.79,1.57,16.62,1.29,26.05l-.12,3.93-12-.16.12-4.07c.46-15.51-1.13-28.96-4.49-37.95-.5-1-.72-2.13-.62-3.24.08-1.15-.94-4.17-.27-5.08,1.13-1.53,4.34-.51,6.24-.51.15,0,.3,0,.44.02,4.33.32,8.5.76,12.53,1.18,7.43.79,15.1,1.6,23.81,1.6.46,0,1.38,0,1.38,0l10.25-.08s.09,8.58-.09,12.02l-7.56.03-1.5.02c-.84.01-1.67.02-2.49.02-5.67,0-10.83-.31-15.74-.74,31.28,20.37,67.94,31.79,104.73,32.41.99.02,1.96.03,2.92.03,15.26,0,27.12-2.09,37.3-6.56,3.23-1.42,6.26-3.09,9.07-5.01-9.87-3.41-17.65-8.26-23.64-14.72-9.98-10.76-15.62-30.16-6.42-44.92,4.47-7.17,11.85-11.93,20.79-13.42,1.85-.31,3.74-.46,5.62-.46,7.77,0,15.19,2.56,20.89,7.22,12.75,10.41,17.75,30.49,11.88,47.75-1.36,4.01-3.24,7.85-5.6,11.5,5.1.63,10.29.94,15.49.94,24.69,0,49.67-7.22,70.34-20.33,24.59-15.59,41.94-41.07,53.05-77.9l1.45-4.79,4.36,2.47c1.09.62,1.74,1.02,2.27,1.34.41.25.73.45,1.18.69l2.91,1.55-.97,3.15c-12,39.19-30.91,66.54-57.82,83.62-22.56,14.31-49.83,22.19-76.77,22.19h0c-8.05,0-16.08-.69-23.86-2.06-.22-.04-.43-.08-.64-.12-5.36,5.04-11.65,9.17-18.73,12.28-11.76,5.17-25.15,7.58-42.14,7.58ZM199.84,71.59c-1.23,0-2.47.1-3.67.3-5.49.91-9.96,3.73-12.57,7.93-6.05,9.7-1.92,22.91,5.04,30.41,5.8,6.25,14.07,10.66,25.25,13.46,3.31-4,5.78-8.36,7.35-12.99,4.32-12.69.91-27.24-8.1-34.59-3.52-2.87-8.36-4.52-13.29-4.52Z"/>
    <g>
      <path class="cls-2" d="M200,74.03c-.19-.04-.12.38-.15.45.32-.09.15-.56.15-.45Z"/>
      <polygon class="cls-2" points="203.35 73.37 203.27 73.53 203.83 73.21 203.35 73.37"/>
      <path class="cls-2" d="M206.4,74.14c-.07-.78-1.13-.23-1.6-.6l-.05-.18-.38.5c.67.04,1.63-.06,2.03.28Z"/>
      <path class="cls-2" d="M207.36,76.15c.02-.29.4-.09-.3-.22.02.04.02.06.03.09.06.02.14.05.27.13Z"/>
      <path class="cls-2" d="M207.09,76.03c-.29-.1.09.29,0,0h0Z"/>
      <path class="cls-2" d="M208.43,76.46c-.16.01-.31.02-.47.05,0,.18.3.37.13.42.41.06.42-.12.34-.47Z"/>
      <path class="cls-2" d="M209.02,76.18h-.24c0,.07.04.12.24,0Z"/>
      <path class="cls-2" d="M208.28,76.17h.5c0-.12.1-.33-.22-.02.13-.17-.04-.03-.28.02Z"/>
      <path class="cls-2" d="M208.1,75.96c-.14-.24-.38-.45.1-.5-.78-.24-.85.27-.1.5Z"/>
      <path class="cls-2" d="M206.79,73.49l-.26-.3-.35.14c.18-.07.56.38.61.16Z"/>
      <path class="cls-2" d="M210.34,78.04c.11-.11.13-.4.21-.58l-.34-.03c.07.17.24.41.13.61Z"/>
      <path class="cls-2" d="M210.55,77.46l.52.05c-.31-.26-.44-.2-.52-.05Z"/>
      <path class="cls-2" d="M209.46,75.52l-.94.13c.35-.03.71-.05,1.07-.07l-.14-.07Z"/>
      <polygon class="cls-2" points="211.6 79.1 211.19 79.2 211.87 79.1 211.6 79.1"/>
      <path class="cls-2" d="M212.48,79.81c-.34.08-.17.53-.43.52.24.18.59.2.91.22-.26-.1-.41-.32-.48-.74Z"/>
      <path class="cls-2" d="M213.48,80.62c-.14-.05-.32-.06-.51-.07.14.05.3.08.51.07Z"/>
      <path class="cls-2" d="M211.63,78.04c-.03.09-.13.33-.01.57l.14-.45s-.08-.08-.13-.13Z"/>
      <path class="cls-2" d="M211.76,78.15h0c.14.16.23.25.27.3-.03-.04-.12-.13-.27-.3Z"/>
      <path class="cls-2" d="M211.59,78.01l.03.03s.01-.06-.03-.03Z"/>
      <path class="cls-2" d="M210.33,76.47c.36-.06.99.06.72-.56-.33.14-.17.48-.72.56Z"/>
      <path class="cls-2" d="M211.75,77.45l-.33-.38c-.06.1-.09.28-.26.3l.59.08Z"/>
      <polygon class="cls-2" points="212.03 77.5 211.75 77.45 211.87 77.59 212.03 77.5"/>
      <path class="cls-2" d="M213.21,79.73c.28.03.45.19.65.36-.13-.26-.3-.51-.49-.72-.12.06-.37.15-.16.36Z"/>
      <path class="cls-2" d="M212.55,78.92h.05s0-.06-.05,0Z"/>
      <polygon class="cls-2" points="215.5 82.12 215.54 82.04 215.47 82.07 215.5 82.12"/>
      <path class="cls-2" d="M213.39,79.28c-.08-.22-.25-.23-.44-.22.15.07.29.17.41.31.06-.03.09-.05.02-.09Z"/>
      <path class="cls-2" d="M214.11,81.01c0-.14-.03-.28-.07-.42-.03.17-.04.46.07.42Z"/>
      <path class="cls-2" d="M212.57,79.07s-.02,0-.04,0c-.01.11.01.07.04,0Z"/>
      <path class="cls-2" d="M212.57,79.07c.12.03.26,0,.39,0-.12-.06-.24-.11-.36-.13,0,.04-.01.09-.03.13Z"/>
      <path class="cls-2" d="M218.23,81.25c-.36.18-.97-.13-.97-.79-.56-.24-1.38.83-1.72,1.58.14-.08.29-.2.76.09.11-.28-.27-1.2.29-1.07.59.43.22.54.23.94.25-.52,1.08.35,1.61-.17l-.56-.39c.09-.07.36.02.35-.19Z"/>
      <path class="cls-2" d="M215,81.27l-.16-.13c.09.23.06.46,0,.88.36.15.52.12.64.06l-.57-.82.09.02Z"/>
      <path class="cls-2" d="M214.26,80.44c.44-.18.9.1,1.06-.44-.44-.44-.57-.09-.95-.23.74.65-.37-.04-.08.63-.18-.09-.31-.2-.44-.3.08.16.14.33.19.49v-.03s0,0,0,0h0c.01-.07.03-.1.04-.05,0,0,.02,0,.02,0,.05-.03.1-.06.15-.08.12.26-.06.1-.15.08-.02.01-.04.02-.06.03h0c.28.18.53.39.79.59-.09-.19-.22-.41-.58-.7Z"/>
      <path class="cls-2" d="M212.02,75.45s-.01.07-.03.1c.09,0,.13-.02.03-.1Z"/>
      <path class="cls-2" d="M212.22,75.91c-.1,0-.25.11-.42-.07-.1-.23.12-.17.19-.29-.19,0-.6-.04-.34.39h.09c.26.35.32,1.1.23,1.1.15-.38.24-.66.25-1.13Z"/>
      <path class="cls-2" d="M213.48,78.1c.25.14.52.26.75.43-.01-.19-.01-.39-.04-.57l-.14.17c-.3-.39-.41-.12-.57-.03Z"/>
      <path class="cls-2" d="M215.38,82.31l-.43.18c.27,0,.53-.01.79,0-.11-.07-.23-.13-.36-.18Z"/>
      <polygon class="cls-2" points="216 83.15 215.65 83.33 215.99 83.43 216 83.15"/>
      <path class="cls-2" d="M194.54,118.23l-.29-.06c.13.04.22.06.29.06Z"/>
      <path class="cls-2" d="M196.21,119.3l.14-.14c-.13.05-.21.09-.14.14Z"/>
      <path class="cls-2" d="M219.39,108.19c-.46.24-1.12.44-.68.53l.45.02c0-.26.1-.42.23-.55Z"/>
      <path class="cls-2" d="M211.59,123.17c.03.05.06.11.08.16.12-.12.22-.23.31-.35-.11.06-.24.12-.39.18Z"/>
      <path class="cls-2" d="M210.84,124.83l-.42-.41c.09.13.21.26.42.41Z"/>
      <path class="cls-2" d="M185.95,111.46l-.55.03c.35.4.36.08.55-.03Z"/>
      <path class="cls-2" d="M220.09,93.07c-.11.33-.13.58-.11.79.17-.4.48-.76.11-.79Z"/>
      <path class="cls-2" d="M197.65,114.75c-.17-.01-.27.03-.32.11.17.02.29,0,.32-.11Z"/>
      <path class="cls-2" d="M220.11,94.72c.04-.06.05-.11.08-.17-.1-.21-.18-.42-.21-.69-.12.29-.2.61.13.86Z"/>
      <path class="cls-2" d="M185.29,74.14s.07-.02.11-.02c-.03-.05-.07-.03-.11.02Z"/>
      <path class="cls-2" d="M196.97,73.69c-.09.04-.25.06-.4.09.08.02.2,0,.4-.09Z"/>
      <path class="cls-2" d="M217.81,86.92c-.11-.19-.06-.01,0,0h0Z"/>
      <path class="cls-2" d="M218.92,85.19c.07.02.14.03.23,0-.1.03-.18.03-.23,0Z"/>
      <path class="cls-2" d="M223.04,96.74v.02c.08-.08.06-.06,0-.02Z"/>
      <path class="cls-2" d="M217.86,86.54c-.02.1-.02.2,0,.31.01-.06.02-.15,0-.31Z"/>
      <path class="cls-2" d="M217.69,86.66c-.02-.08-.03-.14-.04-.19-.08,0-.11.05.04.19Z"/>
      <path class="cls-2" d="M217.96,87.2c-.06-.11-.09-.23-.1-.35,0,.05-.02.08-.04.07.03.06.07.14.15.27Z"/>
      <path class="cls-2" d="M179.64,94.33s.02-.04.03-.06c-.22-.23-.17-.12-.03.06Z"/>
      <path class="cls-2" d="M221.4,115.64s0-.02,0-.04l-.03.03h.04Z"/>
      <path class="cls-2" d="M221.29,116.61c-.31-.59-.15-.76.08-.98l-1.26-.27,1.18,1.25Z"/>
      <path class="cls-2" d="M190.62,115.52l.27.71c-1.03.01-1.34-.56-1.21.28.93-.99,2.13,1.51,3.03.44l.18.48c-.09-.08-.15-.03-.25-.11.31,1.03,1.07-.43,1.84.31.25.29.36.6.06.59.29.06.58.12.88.16.19.15.02.32-.17.17l1.13.56-.03.03c.26-.09.78-.17,1.02-.2.18.32-.21.05-.22.23l.76.05c.08.45-.59.47-.99.19-.09,1.49.66,0,1.53,1.34-.22-.05-.45-.09-.67-.15.01.89.61.87,1.07,1.64-.06-.31-.79-1.76.04-1.72.14.19.37.36.85.3-.21.44.2.51.66.69l-.3.56c.57.06.67-.25,1.07-.38.51.31.43.8.39,1.25.85.47-.29-.99.8-.65.63.54,1.25.51,2.27.49.44.41-.23.33-.11.57l.64-.3c.11.05.02.19-.03.25.45-.04.26-.59.92-.53.4-.62.9,1.43,1.92.9.13.23-.21.34-.23.6,1.21-.17,1.01-.07,2.07-.49l.61.61c-.4-.62.44-.96,1.16-1.24-.14-.28-.23-.52-.31-.64.35-.02.62-.05.88-.11.08.13,0,.34-.18.57.07-.04.13-.07.18-.11.29.32.16.67-.16.95-.12-.16-.23-.33-.32-.5-.31.31-.71.65-.75,1.03.09-.05.27-.06.44-.05-.1.08-.17.16-.15.23.03.08.2-.02.43-.13.06.26.13.53.22.79l.1-.27c.58.3,1.21.62,1.88.94.15-.05.29-.12.42-.18.12-.09.28-.06.31-.37.1-.44.21-.89.31-1.35.19-.86.35-1.6.66-2.29.18.63.61.61,1.09,1-.43.02-.57.35-.77.8-.18.45-.41,1.06-.78,1.41.39-.37.47,0,.42.22.33-.73.62-1.41.86-2.05.17.19.3.18.46.07.14-.09.36-.35.53-.4-.97-.37.07-1.23.12-1.87.3.16.51.47.05.99,1.06-.21-.41-1.47.52-1.73-.08.15-.18.19-.07.34-.03-.49.67-1.17.8-.83l-.08.15c.71-.88,1.71-2.97,1.01-3.5.1.04.85.6.97.74-.54-1.04-1.11-2.04-1.71-3.01.59.47,2.46.57,2.44,1.6.2-.2.47-.45.45-1.08-.17.13-1.15-.01-1.11-.26,1.01-.3.59-.25,1.55-.77-.25.19-1.19-.52-1-.89.14.12,1.07.38,1.12.57-.22-.48-.44-.94-.67-1.4.1.32.88.38,1.26.25-.24.03.34-.88.3-1.2l-.38.36c.52-1.13-1.16-1.62-.77-2.71.18.19,1.29.72,1.58.15-.49-.44-2.42-1.86-2.65-2.88l.36-.13-.26-.81c.82.59,2.31,2.29,2.82,3.24.35-.39.41-.04.53-.72.36-.18.37.47.35.68l.55-1.57c-.67-.05-.48-1.35-1.04-1.37.14.61.3,1.23.38,1.85-.34-.03-.75-.38-1.04-.83-.31-.46-.51-1.03-.37-1.57.31-.24,1.15.38,1.38.39-.21-.18-.28-1.12-.1-1.21l.29.52c.36-.61-.77-1.12-.07-1.82.06-.25.93-.73.53-.8-.8.39-3.17.28-3.73-.01.03-.04.25-.34.49-.67.23-.33.5-.7.69-.83.61-.41,1.43.66,1.95.32-.18-.02-.41-.26-.48-.36.16-.27.57.12.49-.47-.68-.1.07-1.2-.57-.28-.19-.57.16-.61.09-1.29-.43.22-1.53-.54-1.76-1.06.17.02.39-.12.49-.19,0-1.14.17-1.79.06-2.86.16-.12.26-.67.59-.5-.15-.14-.4-.24-.49-.56.45-.75.24.72.84.11-.4.03-.71-.76-1.04-1.18-.57.27.1,1.09.43,1.53-.83.14-1.86-.5-2.45-1.46-.41-.77.44-.49.29-.6-.31-1.61-1.73-.93-1.59-2.33.34-.67,1-.37,1.33-.61.44.61.04,1.14.17,1.59l.09-.65c.23.16.49.59.41.89.37-.59-.71-2.7-.84-4.04-.26-.14-.59-.43-.71-.17l.23.34c-.25.5-.85-.45-.84.09-.5-.36-1.13-.7-1.27-1.43l.48-.4c-.15.1-.1.59.17.69-.38-.14.2-1.39-.67-1.31l-.13.66c-.52-.32-1.36-.55-1.55-1.16-.36.55.14.09-.23.82.59-.79.71,1.41,1.24.42-.52.79.08.86-.3,1.69.18-.1.27-.36.38.16.06,0,.15.02.21.03,0,.02,0,.02,0,.04v-.04s.05,0,.01-.01c.03-.15.09-.29.17-.37.52.04.85.83,1.19,1.01.04.33-.27-.03-.4.21.17.09.34.17.5.26-.4.21-.42,1.05-.91.45l.2.63c-.11.45-.03.97.26,1.22,0,.32.68.61.28.45l.54.93-.11.04c.12.5.41.97.6,1.5.18.52.34,1.09,0,1.73.15.33.34.67.28,1.26l-.37.15c.22.43-.3,1.35.13,1.51-.52.27-.52.79-.46,1.35.04.56.19,1.17.1,1.55l.51.04c-.01.54.05,1.05.21,1.74h.45c.16.3.05.68-.1,1.08-.18.4-.41.83-.45,1.29-.16-.09-.08-.31.05-.46-.59.47-.46,1.06-.37,1.65.09.59.21,1.2-.25,1.6.1.28.02.45-.15.58,0-.02,0-.04,0-.06-.01.02-.02.06-.03.1-.11.08-.23.17-.33.27.13-.07.25-.14.31-.21-.05.19-.08.48-.05.78l-.5-.02s0,.04,0,.07c-.25.21.15.28.54.24.03.16.09.32.17.45-.81-.02.04.81-.86.84.32.32-.21,1.46.51,1.92-.11-.03-.19.03-.13-.12-.22.27-.42.53-.32.9l-.62-.12.46.99c-.52.24-.79.31-1.04-.28.22,1.24-.11.87.13,1.98l-.33-.22c-.13.29.1.99-.28,1-.5.13-.95.87-1.5,1.72-.55.84-1.22,1.8-2.02,2.3.55.23.33.31.14.3-.21.02-.43-.03-.15.35-.22-.16-.38-.22-.45-.51-.03.27-.2.3-.3.34-.05.02-.09.07-.11.15-.04.04-.07.13-.09.32-.11-.32-.03-.43-.11-.62,0,.06-.05.24-.12.05-.06-.19,0-.24,0-.36-.2,0-.27.86-.34,1.67-.33-.48-.37-.44-.84-.03-.1-.3-.27-.64.3-.57-.29-.12-1.85-.93-2.06-.35-.05-.19-.43-.19-.54-.15-.71-.27-.75-.34-1.47-.53l.16.17c-.53.63-.64-.04-1.23-.16l.04-.07c-1.09-1-.65.04-1.68-1.04l-.11.47c-.51.92-.88-1.03-1.74-.96l.15.36c-.55.16-.51-1.77-.83-2.06-.04-.12.19-.07.33-.08-.73-1.01-.4.51-1.2.29.02-.37.55-.69.09-.99-.11-.36-1.93.26-2.27-.69.02.31.03.62-.4.6-.58-.2-.85-1.65-1.73-1.22-.03-.1-.01-.17.02-.23-.48-.06-1.4-.5-1.88-.29.3-.8-.36-1.04-1.02-1.24-.63-.22-1.25-.41-.76-1-.38-.25-.73-.54-1.09-.81l.13-.09c-.6-.63-1.04-.59-1.53-.53-.08-.21.13-.22.2-.26-.71-1.1-.82-1.14-2.11-1.41l.3-.42c-.2-.01-.35-.49-.6-1.02-.25-.54-.53-1.17-1.14-1.48.05-.02.15-.06.26-.02-.65-.38-.79-1.3-1.03-1.98-.19-.72-.44-1.25-1.36-1.04-.29-.19-.55-.41-.82-.62.4,1.16-.78.19-.83.78-.31-.4-.06-1.38.28-.88l-.04.12c.95-.22-.37-1.5.26-1.74-.99-2.15-1.11-4.51-1.41-6.61l-.68.37-.09-.76c.13-.22.52-.34.58.19.35-.33-.48-.84-.63-.84.2-1.08.88.31.87-.02l-.09-.42-.08.11c-.33-.32-.65-.32-.67-.97.11-.42.43-.23.45-.39.05,0,.08-.06.02-.24l.06-.93-.57.38c-.29-.42.02-.9-.63-.46.47-.33.64-1.2.72-2.05.07-.85.2-1.66.37-1.82-.34-.67-.11-1.23.12-1.91-.16.14-.82.06-.56-.54,1.16.64.97-.89,2.04-.96-.37.07-.27-.35-.15-.73.13-.38.21-.76-.36-.66.35-.41.46.2.92.02.09-1.37,1.65-2.02,2.48-3.13-.11-.14-.47-.15-.44-.56.4.02.79.06,1.16.11.14-.25-.46-.94.33-.81-.15-.07-.38-.17-.26-.34,1.4-.58,2.56-1.46,3.92-2.15,1.35-.66,2.9-1.09,4.49-.54-.45-.26-.2-.35.11-.41-.21-.05-.07-.43-.14-.66.46.15.91.31,1.34.49.17-.69,1.34-.15,1.45-.77l-.4.13c.53-.78-.87-1.62-.89-2.57-.3.45-.76.18-1.3-.02-.53-.2-1.15-.31-1.58.39-.28-.14.15-.34-.03-.53-.2.45-.51.62-1.18.59l.05-.12c-1.71.58-2.58.43-4.6,1.12l.35.35c-.42.15-.58.06-.82.06-.11.87,1.13-.55,1.07.38-.47-.3-1.18.05-1.83.44-.66.38-1.28.78-1.77.47-.57.42.49.31-.07.73l-.33-.12.11.41c-.38.24-.81.11-.99-.06.11-.05.2-.26.28-.36-.71.12-1.2,1.25-1.41,1.32.2-.13.4-.25.62-.36-.6.78-1.34,1.55-1.96,2.43-.64.86-1.09,1.82-1.25,2.76l.26-.02c-.15.69-.32.9-.5,1.14-.19.23-.42.47-.61,1.2l-.03-.07c.09.36.05.76-.07,1.14-.14-.45-.68.54-.82-.03.02,1.57.1.82.69,1.94l-.4.14c.27.39.44.45.41,1.17-.21-.64-.64.37-.94-.36-.56.71-.4,1.34-.28,1.82.12.49.2.85-.42,1.19.98.75.67-1.31.86-.9.36-.29.71.63.59,1.08-.02.47-1.31.79-1.28,2.07,0-.13-.07-.13-.07-.26-.26.49.42.89.04,1.5.65.26.03.75.83.75l-.29-1.1c.27.63,1.21,1.09.96,2.16-.17-.05-.43-.32-.58-.52-.18.34.25.56.07.91-.79.04-.43-1.31-1.06-1.95-.32.38.72,1.24-.18,1.01,1.16.33.07,1.26,1.04,1.93l-.48.04c.1.12.39.34.43.58l-.71-.3c.68.55-.12,1.41.32,1.99-.35-1.35.48-.45.67-1.11,1.01,1.45-.94,1.27-.14,3.06-.15-.23-.03-1.02.3-.7.02.37-.01.9-.16,1.19.56,1.15.38-.35.86.05-.38.6.45.49.82.92l-.44.19c.27,1.44,1.06-.06,1.25,1.24l-.84-.2.45.53-.55.11c.69.48.66.74.89,1.44.22-.31.82-.33,1.13.2-.04.51-.52.02-.02.76-.36-.02-.8-.03-.6-.59-.16.04-.36-.03-.52.01-.05.57.51,1.08.69,1.35-.06-.11-.11-.26-.09-.36.41.27.85.5,1.27.75-.04.27-.25.21-.46.16.19.19.47.23.72.52-.38.14-.7.39-1.16.02.36.27.69.56,1.06.8-.09.16.01.8-.2.75.24.72,1.64.92,2.03,1.81.09-.01.21.01.38.12.5.72.7,1.59,1.81,1.93l-.06.91c.69.43.04-1.18,1.18-.47.84.45-.14.68-.03,1.04.6.04,1.65.02,1.96.98-.3-.07-.41-.29-.65-.42ZM198.88,120.52c-.21,0-.69.11-.68-.2.45-.39.47-.09.68.2ZM213.04,124.52c-.14.13-.42-.03-.69-.28.2.01.42.09.69.28ZM219.07,89.06h.03c-.06.41-.03.27-.03,0ZM219.01,88.27c-.09-.05-.15-.02-.2.03.13,0,.2.17.23.36.1-.09.15-.22-.03-.4ZM182.63,91.47l-.13.15c-.14-.33-.01-.24.13-.15Z"/>
      <path class="cls-2" d="M210.94,124.64c-.05-.1-.04-.19-.02-.28-.08.06-.14.14.02.28Z"/>
      <path class="cls-2" d="M186.05,111.45l-.02-.03s-.06.02-.09.03h.1Z"/>
      <path class="cls-2" d="M225.03,100.06c-.07.18-.16.27-.25.34.12.01.22-.07.25-.34Z"/>
      <path class="cls-2" d="M216.62,84.98l.33.36c-.13-.19-.07-.31-.06-.45-.09.06-.2.22-.27.09Z"/>
      <path class="cls-2" d="M216.72,79.73c-.09-.02-.1-.13-.2-.15l-.16.16c.21.25.49.32.36,0Z"/>
      <path class="cls-2" d="M217.8,83.8c.33-.24.07-.46-.19-.71.01.02.03.03.03.05-.55.21-.17.41.16.65Z"/>
      <path class="cls-2" d="M217.56,83.03c-.08-.08-.14-.17-.19-.27-.21.09.03.14.19.27Z"/>
      <path class="cls-2" d="M218.41,87.46c.03-.19-.52.11-.4-.04-.55.03,1.01.74.4.04Z"/>
      <polygon class="cls-2" points="218.83 82.87 218.45 83.24 218.9 83.22 218.83 82.87"/>
      <path class="cls-2" d="M219.81,85.62l-.11-.59c-.07.05-.14,0-.22-.07.14.33.2.74.33.66Z"/>
      <path class="cls-2" d="M219.48,84.96c-.08-.17-.17-.32-.29-.38.05.09.17.27.29.38Z"/>
      <polygon class="cls-2" points="219.34 83.51 219.33 83.72 219.49 84.1 219.34 83.51"/>
      <path class="cls-2" d="M221.74,91.56l.26.59c.18.03.25-.17.14-.39-.15-.12-.26-.34-.4-.21Z"/>
      <path class="cls-2" d="M222.55,89.32c-.05.2-.16.24-.29.39l.6-.15-.31-.23Z"/>
      <path class="cls-2" d="M223.2,91.15c.18.02.67.84.47.02-.17-.03-.49-.64-.47-.02Z"/>
      <path class="cls-2" d="M223.32,101.03c0-.05,0-.11,0-.17l-1.02-.02,1.02.18Z"/>
      <path class="cls-2" d="M224.21,110.19c.47-.72-.55-.36-.04-.98-.18-.24-.41.51-.56.27.1.54-.11.74.6.72Z"/>
      <path class="cls-2" d="M223.61,109.47c-.02-.09-.04-.18-.08-.28.02.15.05.23.08.28Z"/>
      <polygon class="cls-2" points="198.64 74.07 199.08 74.26 198.79 73.94 198.64 74.07"/>
      <path class="cls-2" d="M199.46,73.29l.12.65.26-.59c-.1.03-.3.09-.38-.06Z"/>
      <path class="cls-2" d="M199.58,122.34l.1-.12c0-.19-.11-.25-.31-.38l.21.5Z"/>
      <polygon class="cls-2" points="193.65 118.4 193.74 118.48 193.88 117.86 193.65 118.4"/>
      <path class="cls-2" d="M188.4,115.27c.17.18.48.28.66.46-.48-.28-.22-1.05-.66-.46Z"/>
    </g>
    <g>
      <path class="cls-2" d="M158.47,159.11c-1.73-.02-1.11.39-1.37.47,2.9-.12,1.29-.58,1.37-.47Z"/>
      <path class="cls-2" d="M186.68,154.94l-.45.29c1.33-.47,2.65-.98,3.96-1.5-1.16.42-2.33.84-3.51,1.21Z"/>
      <path class="cls-2" d="M211.11,144.23c-1.25.43-3.25,1.77-5.58,3.15-2.32,1.39-4.97,2.8-7.23,3.58l-.78.15-1.8,1.31c2.71-1.05,5.74-2.5,8.47-4.02,2.74-1.51,5.18-3.11,6.93-4.18Z"/>
      <path class="cls-2" d="M221.6,140.5c-.42-.2.36-.15.44-.14-.04,0-.1-.01-.64-.07-.27-.03-.64-.08-1.15-.14-.21-.03-.46-.06-.73-.09-.12-.01-.26-.03-.4-.04.12.05.15.07.22.11.48.08,1.14.19,2.26.37Z"/>
      <path class="cls-2" d="M219.34,140.12c-.93-.14.61.34,0,0h0Z"/>
      <path class="cls-2" d="M231.88,141.47c-1.24-.01-2.49-.04-3.73-.08.76.26,4.07.56,2.83.58,3.83.15,3.05-.08.91-.5Z"/>
      <path class="cls-2" d="M235.43,141.16h-1.93c.33.08.84.15,1.93,0Z"/>
      <path class="cls-2" d="M229.42,141.07c1.36.05,2.73.08,4.09.1-.53-.15-.57-.38-1.87-.05.35-.19-.47-.04-2.21-.05Z"/>
      <path class="cls-2" d="M227.13,140.73c-2.06-.38-4.7-.83-.98-.62-3.52-.37-5.03-.49-4.8-.32.24.16,2.24.59,5.78.93Z"/>
      <path class="cls-2" d="M211.81,142.85c-.79.48-1.59.94-2.4,1.38-.62.5-1.26.99-1.9,1.47.98-.68,4.58-2.75,4.3-2.86Z"/>
      <path class="cls-2" d="M255.07,141.66c.22-.17-1.28-.29-1.57-.46-.91.16-1.82.23-2.73.35,1.42.06,4.09-.09,4.3.11Z"/>
      <path class="cls-2" d="M253.5,141.2l4.06-.63c-3.65.3-4.3.48-4.06.63Z"/>
      <path class="cls-2" d="M236.12,140.41c-2.24.08-4.48.11-6.73.09,2.68.06,5.35.05,8.02-.04l-1.29-.04Z"/>
      <polygon class="cls-2" points="270.64 139.46 268.41 140.26 272.4 138.94 270.64 139.46"/>
      <path class="cls-2" d="M280.79,137.04c-1.6.73,2.42-.14.7.51,1.37-.39,2.62-.82,3.77-1.29,1.15-.46,2.22-.91,3.22-1.34-2.18.79-4.54,1.56-7.69,2.12Z"/>
      <path class="cls-2" d="M291.83,133.41c-1.07.44-2.16.95-3.35,1.51,1.14-.47,2.26-.95,3.35-1.51Z"/>
      <path class="cls-2" d="M264.48,139.73c.33.04.97.18,3.26-.09l-1.67-.16c-.49.08-1.04.16-1.59.25Z"/>
      <path class="cls-2" d="M266.02,139.48h.06c1.73-.25,2.92-.47,3.43-.58-.44.09-1.48.29-3.49.58Z"/>
      <path class="cls-2" d="M264.08,139.79c.15-.02.26-.04.4-.06-.16-.02-.25-.02-.4.06Z"/>
      <path class="cls-2" d="M246.82,140.86c2.4-.31,7.35-.88,2.52-.97-1.7.37,1.08.47-2.52.97Z"/>
      <path class="cls-2" d="M262.03,139.55l-4.31.44c.1.1.89.18-.28.42,1.54-.26,3.06-.58,4.59-.86Z"/>
      <path class="cls-2" d="M264.11,139.11c-.69.16-1.38.32-2.08.44.53-.05,1.07-.11,1.6-.19l.48-.25Z"/>
      <path class="cls-2" d="M284.6,135.35c1.74-.73,3.71-1.33,5.89-2.15-2.37.77-4.85,1.44-7.18,2.17-.3.21-1.25.78,1.3-.02Z"/>
      <path class="cls-2" d="M275.63,137.61c.12-.04.28-.08.4-.12-.26.02-.46.06-.4.12Z"/>
      <path class="cls-2" d="M311.44,124.1c-.13.03-.24.06-.36.1-.01.04-.02.07-.04.1l.4-.2Z"/>
      <path class="cls-2" d="M282.89,135.41c-1.83.41-2.87.8-3.87,1.21,1.34-.41,2.76-.81,4.29-1.24.13-.11.15-.14-.42.04Z"/>
      <path class="cls-2" d="M297.75,130.97c-.95.27-2.01.6-3.11.95.94-.22,2.83-.72,3.11-.95Z"/>
      <path class="cls-2" d="M276.67,137.47c-.09.03-.17.05-.27.08.62-.05.53-.08.27-.08Z"/>
      <path class="cls-2" d="M276.67,137.47c.92-.28,1.64-.55,2.35-.85-1.09.35-2.11.59-2.99.88.23-.02.47-.03.64-.03Z"/>
      <path class="cls-2" d="M316.06,118.32c-.04.25-1.03,1.11-2.55,2.03-.75.47-1.62.98-2.55,1.47-.93.48-1.93.91-2.91,1.3-3.52,2.14-.58,2.09,3.02,1.07.03-.21-.02-.33,3.6-2.63-.72.26-2.82,1.36-4.44,2-1.61.66-2.65,1.02-1.13.04,2.47-1.35,3.46-1.95,4.21-2.24.73-.31,1.18-.4,2.43-.99-2.23.78,5.77-4.33,4.28-4.35-1.3,1-2.69,1.87-4.03,2.81-.14-.05,1.29-1.13.07-.51Z"/>
      <path class="cls-2" d="M303.71,127.78c-.53.26-1.05.54-1.59.78,1.86-.78,3.24-1.23,5.77-2.12,2.54-1.52,3.02-1.93,3.14-2.14l-3.89,1.96-3.96,1.82.52-.31Z"/>
      <path class="cls-2" d="M294.78,131.58c.57-.45,1.82-1.1,2.61-1.57.78-.49,1.09-.8-.19-.52-4.8,1.86-3.22,1.68-6.08,2.87,7.79-2.99-2.15,1.12,3.58-.8-1.5.68-2.9,1.18-4.21,1.65,1.44-.44,2.84-.85,4.14-1.29-.08.02-.13.03-.19.04l-.04.02h0c-.36.07-.48.08-.09-.03.02-.02.12-.05.16-.07.03-.08.16-.18.3-.29,2.3-.79.4-.03-.3.29-.02.03-.07.07-.07.1,0,0,.02,0,.03,0,1.29-.55,2.59-1.06,3.87-1.64l3.81-1.75c-1.67.62-3.67,1.59-7.35,3.01Z"/>
      <path class="cls-2" d="M253.69,138.68c.26.01.25.05.27.08.53-.1.73-.15-.27-.08Z"/>
      <path class="cls-2" d="M257.1,138.64c-.59.11-1.08.33-3.03.46-1.7.02,0-.21-.11-.34-1.16.24-4.1.61-.39.56l.58-.11c3.34-.09,7.68-.16,7.11-.02-1.02-.27-1.91-.41-4.16-.55Z"/>
      <path class="cls-2" d="M276.32,136.18c1.12-.28,2.23-.61,3.33-.95l3.31-1.01-3.5.57.23.17c-1.91.48-2.65.69-2.96.85-.31.15-.2.24-.42.38Z"/>
      <path class="cls-2" d="M312.25,123.91c-.2.29-.4.57-.6.84,1.09-.82,2.16-1.69,3.23-2.53l-2.63,1.69Z"/>
      <path class="cls-2" d="M320.08,119.28l-.08.51c.65-.47,1.27-.99,1.9-1.51-.61.34-1.2.7-1.82,1Z"/>
      <path class="cls-2" d="M205.82,131.43l2.9.94-.14.23c.08-.11.14-.22.15-.23-1.39-.47-2.22-.73-2.9-.94Z"/>
      <path class="cls-2" d="M189.73,123.71l-.39-.03c.59.28.86.37.39.03Z"/>
      <path class="cls-2" d="M313.1,103.49c-.65.32-1.31.65-1.95.94-.65.28-1.26.55-1.78.78-1.02.47-1.65.81-1.39.91l.98-.09c.84-.56,1.6-1.03,2.29-1.43.68-.42,1.28-.8,1.85-1.12Z"/>
      <path class="cls-2" d="M225.16,71.34c.14.25.28.5.43.76.56.47,1.08.92,1.55,1.31-.6-.62-1.27-1.33-1.98-2.07Z"/>
      <path class="cls-2" d="M222.46,71.05c-.73-1-1.64-1.82-2.48-2.73.28.32.62.69,1.04,1.13.21.22.44.45.69.71.23.28.48.57.74.9Z"/>
      <path class="cls-2" d="M127.66,145.2c-.81.03-1.63.07-2.44.06,3.7.6,2.11.1,2.44-.06Z"/>
      <path class="cls-2" d="M375.14,46.32c1.02-2.36,1.82-4.25,2.39-5.95-1.23,2.85-2.46,5.06-2.39,5.95Z"/>
      <path class="cls-2" d="M195.12,132.1c.36.15.41.15.51.18.1.02.19.04.26.05.15.02.24,0,.27-.03-.32-.11-.53-.15-.71-.19-.3-.1-.43-.11-.33,0Z"/>
      <path class="cls-2" d="M379.93,32.88c-.13.35-.25.7-.38,1.04-.09.21-.17.43-.26.65-.51,1.81-1.03,3.62-1.76,5.8.44-1.06.89-2.2,1.29-3.39.2-.59.39-1.2.55-1.81l.24-.92.32-1.36Z"/>
      <path class="cls-2" d="M54.33,126.36c.17.12.38.26.54.36.08-.02-.17-.16-.54-.36Z"/>
      <path class="cls-2" d="M132.39,157.02c-.42-.04-.97-.09-1.57-.15-.6-.09-1.26-.18-1.9-.28.62.11,1.66.3,3.47.43Z"/>
      <path class="cls-2" d="M347.87,95.43c-1.26,1.47-.17.26,0,0h0Z"/>
      <path class="cls-2" d="M340.26,101.15c.25-.32.42-.59.38-.69-.04.19-.17.42-.38.69Z"/>
      <path class="cls-2" d="M366.24,27.81c-.02.05-.03.09-.05.15.23-.48.19-.4.05-.15Z"/>
      <path class="cls-2" d="M345.79,97.48c.52-.51,1.11-1.11,1.74-1.77-.29.28-.82.81-1.74,1.77Z"/>
      <path class="cls-2" d="M346.2,97.32c-.46.49-.81.87-1.15,1.24-.11.23.07.1,1.15-1.24Z"/>
      <path class="cls-2" d="M349.56,93.33c-.69.87-1.34,1.67-2.04,2.38.27-.27.4-.37.34-.28.38-.42.87-1.06,1.69-2.1Z"/>
      <path class="cls-2" d="M66.52,102.29c-.13-.01-.27-.03-.41-.04-1.93.19-1.08.16.41.04Z"/>
      <path class="cls-2" d="M269.54,126.2c.09-.03.13-.04.21-.06-.09.01-.2.03-.28.04l.07.02Z"/>
      <path class="cls-2" d="M262.79,127.75c2.83-.98,4.47-1.24,6.68-1.57l-2.47-.79c-1.37.84-2.78,1.57-4.2,2.36Z"/>
      <path class="cls-2" d="M173.11,146.28c1.64-.08,3.28-.19,4.92-.33-2.88.83-5.43,1.21-6.65,1.44-1.22.22-1.14.3,1.2.32.27-.7,5.03-1.28,9.73-2.4,4.71-1.06,9.28-2.78,9.35-3.54,1.05-.29,2.1-.6,3.14-.95-.87.34-.97.5-1.85.82,1.54-.44,2.56-.85,3.34-1.27.39-.21.71-.42,1.01-.63l.22-.16.34-.22c.23-.16.45-.31.68-.47.83-.6,1.72-1.24,2.99-2.16,1.22-.87,2.66-1.89,5.09-3.45.24-.16.48-.31.71-.46.06-.12.13-.24.18-.35-2.8-1.11-4.55-1.96-1.71-1.06-1.75-.57-3.44-1.14-5.05-1.71-.83-.27-1.55-.59-2.31-.88l-1.11-.44-.72-.3c-1.54-.78-1.05-.8.47-.03-2.73-1.26-5.37-2.71-7.84-4.39h.08c-1.19-.52-3.7-2.04-4.86-2.9-1.58-1.68.96.66.64.13-1.33-1-2.63-2.06-3.85-3.2-1.12-1.73,1.86,1.13,4.48,3.33-1.33-2.01-2.08-2.64-3.37-3.73-1.23-1.11-3.1-2.63-5.34-7.04l1.3,1.89c.43.63.94,1.2,1.41,1.8-.27-.72-.66-1.38-1.02-2.12-.36-.75-.81-1.49-1.24-2.33-.83-1.68-1.81-3.62-2.46-6.09.06.61.77,3.08,1.33,4.79.57,1.7.77,2.74-.66.48-.62-1.37-1.42-3.17-2.66-5.79.46-.19-.61-2.78-1.28-6.21l.66.12c-.76-3.63-.92-3.32-1.39-5.51.03-1.05.09-1.88.16-2.56.08-.68.25-1.19.38-1.61.28-.82.51-1.25.82-1.68.68-3.14.27-2.11-.14-1.19-.21.46-.41.88-.48.71-.03-.08-.03-.32.02-.77.03-.23.07-.51.12-.86.03-.17.06-.36.09-.57.06-.2.12-.42.19-.65.22-.65.43-1.28.64-1.89.23-.6.51-1.16.74-1.73.42-1.16,1.06-2.18,1.6-3.29.56-1.1,1.25-2.16,2.06-3.27.8-1.12,1.77-2.24,2.96-3.4,3.14-2.26-.28.71.91-.02.77-.83,1.58-1.64,2.47-2.39.73-.43.57-.15.5-.01,1.18-.82,1.19-.95,1.34-1.23.08-.13.21-.3.58-.54.37-.25.98-.62,2.05-1.09.45-.55,2.83-1.2,5.79-1.49,2.96-.35,6.43-.22,9.32-.32,1.39.33-.72.32-.31.61,1.94.05,3.33.23,4.41.42,1.08.18,1.86.35,2.6.53,1.46.38,2.79.63,5.84,1.87,1.55,1.03,3.01,2.19,4.31,3.49-1.41-1.47-1.08-1.49.19-.85.6.36,1.41.92,2.32,1.56.87.68,1.78,1.51,2.67,2.32-.84-1.26-1.56-2.38-2.14-3.05.51.4.93.89,1.4,1.33.45.46.94.89,1.36,1.38l1.26,1.47.63.74.57.79c.43.85-.18.3-1.1-.58.34.4.65.78.9,1.08,1.31,2.43.2,1.41-1.15,0-.37-.85-.89-1.61-1.31-2.4-.7-.64-1.49-1.14-2.05-1.45-.57-.31-.93-.41-.94-.14.37.3,1.07.91,1.75,1.66-.37-.31-.67-.45-.56-.25.14.21.69.74,1.56,1.58.15.58.32,1.15.4,1.75l.45.17c1.69,2.69,2.95,5.63,3.91,8.64,1.51,3.05,2.76,6.09,3.59,9.79.82,3.69,1.32,8.1.56,13.71-.12-2.85-.76-.72-1.35-.97.25-.72.5-1.6.58-2.63.06-1.03.16-2.17.08-3.41-.08-1.23-.11-2.54-.3-3.89-.07-.67-.14-1.36-.22-2.05-.11-.69-.21-1.39-.29-2.09.34,2.93-.04,2.31-.25,1.59.57,3.28.85,6.65.71,10.02-.24-.14-.37.39-.57,1.26-.2.87-.33,2.11-.75,3.35.35-.43.47-.19.44.5-.03.68-.19,1.81-.56,3.09-.59,2.59-1.95,5.77-2.73,7.7-.21.04-.28-.2-.02-1.01.24-.82.83-2.2,1.7-4.54-1.2,2.32-1.7,3.96-2.18,5.6l-.09.31-.16.43c-.11.27-.21.55-.32.83-.22.54-.44,1.07-.71,1.61-.53,1.08-1.16,2.19-2.16,3.61l.02.17.28.05c.19.04.38.08.57.12-.25-.03-.47-.06-.69-.08-.1-.02-.23-.02-.28-.05-.02-.05-.03-.09-.05-.14.5-.78.8-1.28.88-1.64-.25.48-.57,1.05-.94,1.67l.05.1s.01.03.03.05h.11c.15.02.29.04.44.05.29.03.6.06.9.09.6.07,1.21.13,1.82.2,1.21.14,2.39.28,3.37.4.5.06.95.12,1.33.17.29.04.52.08.69.12.33.07.37.14,0,.18l-1.49-.11c.6.05,1.24.1,1.91.16.6.04,1.22.08,1.86.12,1.29.07,2.68.12,4.1.15,1.43.03,2.89.01,4.35-.04,1.46-.04,2.91-.07,4.3-.2,5.57-.36,10.17-1.25,10.73-1.75.1.1-.97,1.16-1.47,1.39,4.94-1.52,9.72-3.36,14.35-5.43-1.14,1,4.28,1.57-2.54,3.52,1.01-.13,2.13-.37,3.51-.67,1.39-.29,3.03-.76,5.06-1.46-1.37.26-3.6-.12-1.8-.68,2.6-.27,3.5-.42,4.53-.65,1.03-.24,2.22-.44,5.35-1.19-2.02.51-.19-1.27,2.87-2.37-.42.34.65.96-.43,1.5l3.61-1.99c1.19-.68,2.36-1.4,3.53-2.1-1.78.97.05,1.03,1.86.57-.43.08,1.17-.67,3.13-1.56,1.94-.92,4.2-2.07,5.14-2.62-1.06.47-2.14.91-3.2,1.36,1.04-.51,1.93-.98,2.71-1.41.77-.46,1.43-.9,2.02-1.3,1.18-.82,2.07-1.54,2.92-2.32.86-.77,1.72-1.51,2.82-2.4,1.08-.92,2.44-1.93,4.31-3.2-.37.42-.74,1.08-.51,1.35.23.26,1.06.14,2.96-1.22.68-.88,2.19-2.81,4.07-5.34.48-.61,1-1.26,1.53-1.94.51-.7,1.06-1.41,1.63-2.13.57-.72,1.17-1.45,1.79-2.18.59-.76,1.21-1.52,1.86-2.26l1.29-.86c1.31-1.54,2.5-3.19,3.74-4.78-.45.85-1.15,2.06-1.99,3.48-.82,1.45-1.94,2.97-3.05,4.61-.55.83-1.16,1.62-1.78,2.4-.62.79-1.24,1.57-1.83,2.32-1.21,1.51-2.47,2.8-3.49,3.91,1.41-1.01,1.66-1.1,2.05-1.34.37-.27.97-.62,2.85-2.42,1.56-1.03-1.75,2.31-2.97,3.26.78-.65,1.6-1.26,2.35-1.94l2.27-2.04c1.54-1.33,2.94-2.81,4.39-4.24-.76,0,5.71-7.36,4.88-7.43-.62.9-1.29,1.77-1.97,2.62l-2.03,2.59c-1.4,1.69-2.86,3.33-4.32,4.98-.41-.04.59-1.75,2.41-4.17,1.8-2.45,4.29-5.74,6.92-9.05,1.55-1.53-.05,2,.23,2,.59-.96,4.48-6.77,5.05-7.33l-1.81,3.16c.74-.93,1.36-1.83,1.91-2.71.52-.9.98-1.8,1.47-2.71.48-.91,1.01-1.83,1.61-2.82.57-1,1.25-2.06,2.11-3.21,1.08-1.64,3.58-4.75,3.41-5.23-2.19,2.49-4.55,1.86-4.07-.26.09-.14.47-.75,1.02-1.61.55-.86,1.25-1.97,1.93-3.16.7-1.18,1.43-2.4,2.05-3.44.63-1.04,1.11-1.94,1.42-2.4,1.84-2.7-.63,5,.95,2.71-.12-.19.38-1.91.61-2.62.96-1.82.18,1.01,1.89-3.13-.35-.95,3.38-8.43.24-2.18.71-2.07,1.16-3.13,1.67-4.28.48-1.16,1-2.41,1.84-4.83-.48.7-.44-.51-.15-2.41.25-1.91.75-4.51,1.31-6.61.09.3.6-.6.82-.98.43-1.35.82-2.6,1.15-3.66.97.58,1.89,1.12,2.77,1.65.86.51,1.68,1.01,2.53,1.55.82.51,1.69,1.07,2.51,1.55.78.44,1.56.88,2.37,1.33-.51,1.56-1.05,3.23-1.65,5.1-.39.68-1.81,4.41-1.56,2.7-.24,1.17-.36,2.28-1.22,4.68-2.22,4.44,1.83-5.37-.11-2.07.24.42-1.63,6.4-2.83,9.83.47-.41,1.34-2.33,2.07-4.63.73-2.3,1.52-4.92,1.96-6.69.2.06.29.51.25,1.26-.05.75-.22,1.82-.49,3.14-.28,1.32-.64,2.9-1.15,4.66-.53,1.75-1.17,3.68-1.89,5.74-2.57,6.44-1.7,2.53-2.07,3.68-1.31,2.97-2.29,5.07-2.98,6.75-.69,1.69-1.11,2.95-1.58,4.12-.92,2.34-1.69,4.48-4.79,8.96-2.69,3.4-1-.39-1.83.22,1.34-2.47,2.56-4.25,3.58-5.89,1.01-1.65,1.94-3.09,2.84-4.77l-2.46,4.01c.69-1.66,2.38-5,3.37-6.79-.5.75-1.33,2.36-2.52,4.41-.57,1.04-1.22,2.2-1.9,3.44-.73,1.22-1.51,2.52-2.31,3.86-3.25,5.34-7.31,11.15-10.67,14.83-.49.74-1.16,1.75-1.6,2.43-.46.66-.65,1.03-.09.56.69-.8,1.29-1.67,1.94-2.49,1.08-1,.26.26-.49,1.39-.75,1.14-1.49,2.11-.11.64-1.25,1.73-2.64,3.54-4.19,5.49-.82.93-1.7,1.9-2.65,2.88-.47.49-.96,1-1.47,1.5-.53.48-1.09.96-1.66,1.45l-1.25.32c.21.04,3.17-2.37,4.17-3.76-.39.49-1.02,1.13-1.79,1.8-.8.65-1.7,1.38-2.61,2.12-1.78,1.52-3.67,2.92-4.46,4.11,1.16-.8,2.36-1.56,3.5-2.4-1.52,1.52-3.23,3.25-5.1,4.98-1.95,1.64-3.98,3.43-6.3,4.8,2.37-.89,1.02-.69,4.51-2.42-.8.32-.5-.03.31-.71.81-.68,2.17-1.64,3.38-2.69,2.46-2.04,4.72-3.92,2.37-2.57,3.49-1.98,5.3-4.25,9.37-7.48-.13-.01-.52.25-.47.11.02-.07.16-.23.49-.58.34-.34.86-.87,1.62-1.71.09-.19.36-.6.53-.86.1-.1.13-.13.21-.22-.07.06-.12.11-.18.17.11-.17.11-.18-.07.06-.78.75-1.44,1.33-1.75,1.52.57-1,2.05-2.83,3.55-4.66,1.44-1.88,2.88-3.8,3.54-4.81.87-1.01.72-.78.53-.38-.21.38-.51.89.04.39.63-1.03,1.23-2.09,1.85-3.13.29-.01,1.48-1.34,2.17-2.01.65-.7.88-.68-.88,1.95,1.15-1.51,2.18-3.1,3.23-4.68.51-.66,1.06-1.4,1.62-2.17.55-.77,1.06-1.61,1.57-2.42,1-1.65,1.99-3.23,2.55-4.53,1.36-2.31,2.77-6.18,1.98-3.97.69-1.31,1.25-2.69,1.87-4.03.6-1.35,1.24-2.69,1.8-4.06l.14-.03c3.73-7.95,6.26-16.85,9.96-26.12.51-1.8,1.03-3.62,1.62-5.71-1.32-.69-2.76-1.44-4.35-2.27l-.3-.16-.18-.1-.34-.2c-.23-.14-.47-.28-.72-.43-.55-.34-1.13-.7-1.74-1.07l-.33-.42-.6-.56c-1.82-.98-4.18-2.35-6.73-3.84-.89,2.81-1.81,5.73-2.58,8.16-.46,1.41-.79,2.55-.83,3.1-.56.86-1.15,2.37-1.87,4.2-.73,1.82-1.47,4-2.29,6.24-.86,2.22-1.66,4.55-2.53,6.64-.88,2.08-1.66,4.01-2.39,5.45l.35.43c-1.94,4-3.68,7.89-6.31,12.74l.56-.07c-2.03,4.35-6.7,10.29-11.42,16.1.18-.51,1.4-1.97,2.32-2.96-1.6,1.59-3.03,3.39-4.59,5.1-.75.88-1.49,1.77-2.24,2.66-.77.87-1.54,1.73-2.31,2.6l-1.14,1.3c-.4.41-.8.82-1.2,1.22-.8.81-1.59,1.61-2.39,2.38-1.65,1.47-3.31,2.85-5.01,3.96-1.52,1.34-2.72,2.19-3.93,2.93.16-.1.29-.21.39-.31-.16.13-.42.29-.68.47-.78.43-1.59.88-2.46,1.37.76-.38,1.48-.76,2.09-1.12-1.3.85-3.18,2.29-5.14,3.56l-1.1.1c-.16.1-.29.18-.45.29-2.04,1.02-1.47,1.12-.23.83-.97.67-1.87,1.26-2.54,1.77-.5.06-1.08.29-1.7.61-.63.3-1.32.69-2.02,1.08-.71.39-1.43.8-2.14,1.13-.73.31-1.44.54-2.1.62-.31.26-1.12.72-2.18,1.27-1.08.52-2.39,1.15-3.7,1.77-2.64,1.19-5.25,2.37-5.71,2.95-.11-.08-.78.1.41-.32-1.25.38-2.5.77-3.71,1.16-1.22.37-2.39.77-3.48,1.23-.41-.08-.82-.17-1.23-.28-1.76.74-3.51,1.56-5.31,2.23-3.47.43-4.9.52-1.66-.7-1.97.67-3.39,1-4.48,1.3-1.09.3-1.88.47-2.63.62-1.5.3-2.83.64-6.3,1.41l.29-.44c-1.25.2-2.87.46-4.37.7-.75.11-1.47.22-2.1.27-.63.04-1.17.04-1.56-.02-.86-.08-2.1-.06-3.63-.08-1.53-.05-3.36,0-5.4-.06-2.04-.05-4.29-.13-6.66-.29-1.41-.1-1.86-.14-2.61-.21-.35-.04-.71-.08-1.07-.11l-.54-.06-.27-.03-.13-.02s.05-.08.07-.11c.52-.81,1.02-1.64,1.46-2.48l.5-.97.57-1.18c.37-.79.72-1.58,1.05-2.37,1.34-3.16,2.21-6.4,2.94-9.32-.43.68-.53.58-.44.05.06-.53.27-1.5.51-2.58.28-1.08.37-2.3.48-3.27.1-.98.03-1.72-.2-1.88.28-.87.43-3.02.67-.54-.07-3.92-.4-6.85-.78-9.47-.47-2.6-1.05-4.9-2.32-7.32-.05-.94.96,1.45.84.64-.28-.58-1.07-2.28-1.24-3.1-.1-.4.09-.16.34.33.23.5.57,1.23.83,1.81-1.39-3.83-2.74-5.69-3.62-6.66-.88-.98-1.42-1.05-1.93-1.08-.47-.88-.89-1.65-1.3-2.34-.45-.65-.89-1.23-1.32-1.76-.22-.26-.43-.52-.65-.76-.23-.23-.48-.45-.73-.67-.5-.43-1.03-.85-1.61-1.28-.39-.58-1.02-1.28-1.04-1.47-.02-.09.11-.04.48.23.18.14.43.33.74.59.3.27.65.64,1.08,1.09-.24-.26-.59-.65-1.03-1.14-.48-.45-1.06-.99-1.7-1.58-1.27-1.19-2.96-2.42-4.68-3.43-3.43-2.06-7-3.04-7.22-2.77-.77-.45-3.75-1.04-4.48-1.06-3.07-.52-4.77-.55-6.45-.59-1.68.03-3.36.06-6.36.65.56-.08,1.12-.14,1.69-.18-1.14.55-2.34.83-3.87,1.17-1.52.36-3.37.79-5.58,1.86l.09-.13c-2.61,1.06-4.09,1.99-5.04,2.65-.96.67-1.41,1.07-1.86,1.48-.44.41-.88.81-1.72,1.59-.83.79-2.1,1.93-3.85,4.14.24-.08.5-.15.75-.21.04.35-.29,1.02-.87,1.9-.26.46-.57.98-.93,1.55-.34.58-.8,1.17-1.12,1.88-1.58,2.69-2.82,6.41-3,9.64l.26-1.14.36-1.11c-.12.87-.27,1.89-.49,3.01-.28,1.12-.45,2.33-.67,3.57-.13.62-.2,1.24-.25,1.86-.06.62-.11,1.23-.17,1.82-.07,1.18,0,2.26.09,3.17.03.8-.33-1.21-.55-2.3.1,1.19.19,2.1.27,2.8.12.69.23,1.16.32,1.49.18.65.3.7.42.68.12-.03.25-.13.46.19.19.33.5,1.07,1.05,2.72.02.67-.3.34-.47.4-.16.06-.23.55.62,2.78.26,1.17,1.9,4.26,4.16,7.5,2.25,3.26,5.33,6.52,7.45,8.9-.84-1.18-1.65-2.3.8-.24,1.83,1.62,4.26,3.9,6.93,5.78,1.32.96,2.7,1.81,4.02,2.5.66.33,1.3.65,1.92.89.59.23,1.3.5,1.5.47.26.19.31.29.27.35.7.22,1.8.61,3.12.99l.19.06s.19.03.1.07l-.24.2c-.17.13-.33.26-.5.39-.36.27-.7.52-1.02.76-.66.48-1.28.92-1.63,1.25-.29-.09-1,.1-1.78.35-.79.26-1.73.59-2.75,1-2.06.8-4.53,1.74-6.96,2.52-4.85,1.59-9.53,2.44-9.59,1.7-3.6.56-7.25.92-10.91,1.12l.28-.17c-3.51.13-5.89.19-7.71.32-1.82.12-3.06.28-4.31.41-1.63-.16-.43-.26-.3-.34-5.16-.28-7.98-.63-10.61-.73-1.31-.06-2.58-.12-4.05-.19-1.48-.07-3.18-.03-5.35-.18l-.83-.62c-.59-.01-1.8-.2-3.45-.49-1.65-.28-3.7-.79-6-1.27-2.31-.46-4.81-1.16-7.39-1.71-2.57-.6-5.17-1.26-7.66-1.74.11-.02.34-.07,1.14.06-5.57-1.21-12.01-3.53-17.46-5.81-2.75-1.07-5.24-2.18-7.35-2.95-2.12-.75-3.81-1.31-4.95-1.32l-3.53-1.34-3.48-1.45c4.34,2.22,3.97,2.19,2.88,1.95-1.06-.28-2.79-.87-1.04.16-1.76-.8-3.94-2.02-5.13-2.79-1.18-.81-1.41-1.11.72-.08l.62.41c.5-.02.07-.38-.84-.92-.9-.55-2.25-1.33-3.66-2.1-.61-.34-1.23-.68-1.82-1.01-.45-.25-.85-.51-1.18-.72-.65-.43-.96-.71-.66-.72-.99-.56-1.97-1.13-2.9-1.74l-1.38-.88-.67-.43-.16-.11.22.02.43.04c2.28.21,4.51.38,6.58.47l1.53.06,2.85.02h2.79s2.89.04,2.89.04c1.4,0,2.8.02,4.2.02h1.06s.13,0,.13,0c.02,0,.05,0,.06,0v-.06s0-.26,0-.26v-.52s.04-2.09.04-2.09c.04-2.17.07-4.33.11-6.48.02-1.3.04-2.6.05-3.9l.03-2.12v-.53s0-.13,0-.13h-.13s-.26,0-.26,0h-1.05c-2.36.01-4.72.02-7.06.03l2.09.72h-6.31c-1.64-.16-2.22-.55,2.27-.55-1.19-.2-3.07-.09-4.65.05-1.59.14-2.91.33-2.97.41-4.36-.31-3.49-.51-1.88-.61,1.61-.11,3.96-.2,2.63-.24-1.2-.01-2.41-.04-3.62-.08l.81.12c-2.95.15-3.23.48-8.59,0-3.38-.45-1.7-.61-3.03-.76.01-.05-.43-.12-2.05-.23-2.62-.3-5.27-.58-7.93-.85l3.12.88c-3.55-.05-7.47-.74-3.86.26-.74-.21-1.85-.43-3.22-.64-.69-.1-1.44-.2-2.24-.32-.4-.05-.82-.1-1.24-.16-.42-.05-.85-.11-1.41-.13-.33-.01-.75-.07-1.2-.13-.27-.04-.54-.07-.81-.11-.33-.04-.66-.08-.99-.1-1.33-.1-2.67,0-3.75.72-.26.19-.49.42-.7.67-.19.27-.28.58-.38.87-.15.61-.17,1.26-.11,1.95.06.68.18,1.38.3,2.07.09.58.14.88.12,1.15-.07.95.06,1.95.35,2.84.12.43.39.96.44,1.11.12.33.23.65.34.97.45,1.29.81,2.52,1.1,3.63.58,2.21.88,3.9.96,4.61,1.31,4.68,1.87,9.51,2.11,15.48.04-1.49.68-2.43.8,2.76-.7-.92-.75,1.44-.85,4.56-.05,1.56-.11,3.31-.24,4.92-.04.55-.08,1.09-.12,1.61-.05.57-.1,1.13-.15,1.66-.11,1.08-.23,2.1-.38,3.03.17-1.31.25-1.08.28-.07,1.06-.04,2.82-.05,4.74-.06,1.43-.01,3.01-.03,4.33-.04.7-.02,1.33-.04,1.84-.05.63-.02,1.1-.05,1.36-.09.52-.08.12-.21-1.42-.41,2.67.09,2.98.21,3.03.35.06.14-.21.31,1.88.49.02-.06.04-.24.06-.44,0-1.61.02-3.26.02-4.94.01-1.18.02-2.39.03-3.62.02-2.37.03-4.82,0-7.34-.03-2.5-.11-5.13-.26-7.69-.05-1.27-.13-2.43-.28-3.6-.03-.09.03-.04.08,0l.14.1.29.19.57.38,1.14.73c.05-.07-.15-.34-.24-.54-.08-.2-.06-.35.7,0l.41.4.19.19s.03.04.08.08l.17.13,1.33,1.07,2.68,2.15c2.22,1.27,2.52.34,6.27,3.15-.5-.45-1.24-1.13.27-.34,2.67,1.68,5.49,3.13,8.3,4.64,1.39.77,2.86,1.41,4.29,2.12,1.45.68,2.88,1.39,4.35,2.04,1.48.63,2.96,1.26,4.44,1.88l2.23.94,2.26.86,4.53,1.71c1.52.55,3.06,1.04,4.59,1.56,6.12,2.1,12.37,3.82,18.61,5.5l4.71,1.16,2.35.6,2.36.52,4.72,1.09c1.58.33,3.15.66,4.73,1-3.39-.85-1.09-.54,1.54-.16-1.69-.34.1-.42-.2-.71,1.75.4,3.51.7,5.27,1.01,1.77.3,3.53.65,5.3.9,1.01-.26,3.87-.06,6.64.14,2.77.12,5.44.19,6-.1h-3.4c2.27-.3.7-.77-1.32-1.29-2.03-.52-4.5-1.23-4.14-1.66-1.26.12-2.71.04-4.29-.14-1.58-.24-3.3-.58-5.12-.91-.91-.17-1.84-.34-2.79-.51-.95-.19-1.91-.37-2.9-.53-1.96-.32-4.01-.47-6.06-.59-1.74-.53,1.57-.02.66-.42-1.05.01-2.2-.08-3.65-.3-.72-.11-1.52-.25-2.43-.44-.9-.19-1.89-.46-3.01-.76l.53.02c-1.59-.35-3.07-.68-4.46-.99-1.39-.31-2.68-.71-3.93-1.04-1.24-.35-2.44-.69-3.61-1.02-1.17-.34-2.3-.74-3.46-1.12-2.3-.76-4.66-1.53-7.25-2.54-1.3-.49-2.68-1-4.15-1.55-1.46-.6-3.02-1.23-4.71-1.92l.84.83c-2.91-1.19-3.48-1.55-4.78-2.25-1.79-.39.21.54,2.31,1.36,2.09.83,4.22,1.68,2.54,1.45-.88-.62-2.64-1.36-4.75-2.33-2.1-.99-4.63-2-7.06-3.15-2.42-1.17-4.83-2.26-6.7-3.31-1.87-1.06-3.27-1.94-3.77-2.51-4.28-2.23.98,1.18-3.27-1.13l-.97-.89-1.25-.27c-2.74-1.6-3.93-2.73-3.89-3.02.63.44,1.92,1.04,2.64,1.42-1.72-1.12-4.16-2.65-6.38-3.92-.55-.32-1.09-.63-1.59-.92-.89-.54-1.59-1.01-2.27-1.44-1.33-.86-2.33-1.51-2.83-1.87l3.19,2.22,1.56,1.09,1.08.72c-.34-.2-.69-.4-1.03-.61-.5-.32-1-.64-1.5-.97-1-.65-2-1.3-3.02-1.96-1.01-.66-2.03-1.33-3.05-2-.51-.34-1.03-.67-1.54-1.01l-.77-.51-.39-.26-.19-.13s-.09-.02-.13-.03c.54,3.94,1.16,8.1,1.49,12.03l.16,2.11.12,1.88c.08,1.25.13,2.51.17,3.76.09,2.5.13,4.99.13,7.42,0,1.15,0,2.29,0,3.42.02.63.03,1.24.04,1.85-.55.04-1.09.07-1.61.11.18.08.39.15.61.23-.2.01-.39.02-.58.03-.24,0-.47.02-.7.02-.58,0-1.11.02-1.6.02-.49,0-.94,0-1.35,0-.39,0-.75,0-1.08-.01-.91-.02-1.55-.08-2.22-.14.06-.62.12-1.26.16-2.08.02-.26.04-1.26.06-2.13.02-.92.02-1.96,0-3.17l.05.4c-.21-2.18-.36-5.08-.48-8.05.2,1.37.26.07.34-1.12.06-1.19.12-2.29.38-.49-.57-5.38-.89-6.69-1.1-7.55-.26-.85-.44-1.26-1.41-4.7l.08-1.68c-.39-1.17-.66-1.78-.97-2.77-.34-.99-.69-2.35-1.54-4.95,1.61,4.22-.48-3.54,1.39,1.2-.3-1.39-.65-2.67-1.05-3.89-.04-.17-.17-.44-.21-.53-.04-.09-.07-.19-.1-.28-.06-.19-.11-.38-.15-.57-.07-.38-.09-.73-.07-1.12.02-.31.01-.62-.02-.93-.03-.26-.07-.5-.1-.71-.05-.27-.05-.27-.08-.39l-.07-.28c-.08-.37-.18-.75-.18-1.13-.03-.4.29-.68.59-.79.31-.13.64-.15.97-.15.35,0,.59.02,1.01.08.55.07,1.11.15,1.77.2.31.03.36.04.66.09.25.05.5.1.74.15.49.11.97.25,1.45.4,2.62-.27.18-.65-2.48-.93-.19-.02-.72-.02-1.07-.06-.36-.04-.71-.08-1.04-.12-.5-.06-.81-.1-1.12-.12-.58-.03-.85,0-.4-.08-.89-.11-.35-.47,1.1-.42.31,0,.87.05,1.4.07.27.01.56.02.87.01.24,0,.48,0,.76.02,1.09.07,2.16.17,3.04.27,3.6.38,5.94,1.84,15,2.77-.9-.09-.97-.02-1.87-.12,3.37.6,6.69.3,10.87.97,2.39-.47,5.47.27,6.17-.51-2.8,0-5.6-.07-8.4-.2,4.76.13,9.26-.64,17.02-.31-.6.16-2.92.39-4.51.52,1.14.11,2.23.06,3.34.01.55-.02,1.11-.05,1.67-.05.28,0,.57,0,.85.01.28.01.62.03.76.06-.42.76-10.05.37-15.17.66,1.23.23,3.66.17,5.45.11,1.8-.06,2.96-.08,1.67.35,1.86-.55,4.07-.54,6.63-.49.51.01,1.03.02,1.57.04.31,0,.62.01.96,0,.17-.01.35-.02.52-.03.03.14.04.31.06.47.05.32.12.66.22,1.06-.16-.05-.32-.08-.47-.1.02.1.05.23.07.38.03.34.06.72.09,1.12.06.84.1,1.78.09,2.67l-.59-3.22c.12,1.23.15,2.44.13,3.63-.02.56-.08.97-.16,1.29.03.13-.15.05-.25.04l-.32-.05-.56-.09h-.13s-.03-.02-.03-.02h-.11s-.22,0-.22,0h-.89c-.6,0-1.19.02-1.79.05,1.25,0,2.23,0,2.99.01.27.01.4.04.54.07.26.06.36.14.39.23.1.19-.3.42.94.59-.37.04-.74.07-1.08.09-.18,0-.34.02-.5.03-.23,0-.44.01-.65.02-1.07.01-1.93,0-2.66-.04-1.46-.08-2.42-.22-3.37-.4-.48-.08-.98-.17-1.55-.26l-.22-.03c-.12-.01-.25-.02-.38-.03-.26-.02-.54-.05-.83-.07-.59-.04-1.23-.09-1.94-.15-1.48-.1-3.24-.23-5.41-.38-2.28-.17-5-.38-8.28-.63,1.73.11,5.34.48,7.54.72,2.24.25,3.24.43.95.41-4.53-.37-11.5-1.16-15.56-1.74-.97-.07-1.82-.14-2.53-.19.37.28.68.51.94.71.46.27.83.49,1.13.67.62.37.99.56,1.17.64.36.16,0-.14-.43-.49-.11-.09-.22-.18-.33-.27-.05-.04-.12-.09-.15-.13,0-.02,0-.05,0-.07.02-.08.07-.14.17-.15.21-.02.58.14,1.16.64.95.94,2.74,1.99,4.74,3.06,2.04,1.08,4.28,2.25,6.84,3.64h-.89c3.22,2.03,5.22,3.2,6.42,3.84,1.22.64,1.74.77,2.16.86.98.25,1.32.16,5.43,2.57l-3.84-1.29c1.49.72,2.95,1.47,4.45,2.15-.39.01-.78.03-1.16.03,5.01,2.03,6.44,2.89,11.21,5.16-.49-.41-.24-.54.65-.33.89.22,2.46.73,4.62,1.59,2.84,1.45-1.83-.21,4.33,2.15-1.51-.21-3.16-.53-5.66-2.01-.33.03-1.48-.28-1.82-.25,1.53.8,3.52,1.63,5.41,2.38,1.89.73,3.71,1.29,4.83,1.71-.86-.34-1.89-.74-2.4-1l4.62,1.34c1.54.43,3.1.8,4.65,1.2,1.38.64.2.41-.98.17,1.87.55,3.19.8,5.95,1.54-.41.08-.6.24-1.18.25-.58.01-1.56-.11-3.51-.67l2.21.61,2.23.54,4.46,1.07c.55.31,4.44,1.61,3.25,1.46,4.88,1.55,12.32,2.05,18.91,3.39.36-.03,1.06,0,2.49.15,3.12.54,6.07.93,9.18,1.34,1.55.19,3.16.28,4.83.38.84.05,1.7.08,2.58.11.88,0,1.8-.02,2.73-.05l4.24.85c5.89-.1-5.75-.92,4.03-1.13,6.92-.34,2.6.55,5.04.69,3.47-.49,9.38-1.56,15.8-2.17-2.08.52-3.75.65-5.71.96ZM175.75,108.77c.68,1.14,2.33,3.17,2.64,4.11-1.27-.94-1.75-2.05-2.64-4.11ZM229.89,80.58c-.52-.87-1.22-2.23-1.9-3.87.32.55.65,1.14.99,1.78.17.32.34.65.5.99.13.36.27.72.42,1.1ZM359.93,78.06c.02-.06.04-.1.06-.14,1.77-2.6,1.13-1.68-.06.14ZM356.22,83.42c-.3.58-.22.58-.02.39.15-.45.95-1.67,1.89-3.05-.36.32-.9.97-1.87,2.66ZM46.49,97.97l1.22.25c-2.81-.14-2.01-.19-1.22-.25Z"/>
      <path class="cls-2" d="M222.79,71.1c-.19-.33-.2-.47-.2-.59-.41-.33-.49-.26.2.59Z"/>
      <path class="cls-2" d="M128.11,145.18l-.22-.04c-.12.01-.19.03-.23.05l.45-.02Z"/>
      <path class="cls-2" d="M359.25,52.58c-.6,1.2-.97,1.84-1.25,2.26.08.12.41-.4,1.25-2.26Z"/>
      <path class="cls-2" d="M333.8,109.74l1.58-1.39,1.51-1.47c-1.47,1.41-2.11,1.78-2.95,2.38.14.03.87-.36-.14.48Z"/>
      <path class="cls-2" d="M301.7,126.19c-.52.3-1.17.51-1.69.8l.24.14c2.36-1.01,3.87-2,1.45-.94Z"/>
      <path class="cls-2" d="M329.81,110.97c-.52-.12-2.51,1.54-4.79,3.34.14-.1.27-.2.41-.31-.36.98,2.03-1.04,4.38-3.04Z"/>
      <path class="cls-2" d="M324.47,114.71c-.73.51-1.49,1.03-2.23,1.5-.16.38.93-.57,2.23-1.5Z"/>
      <path class="cls-2" d="M351.61,90.28c-.95,1.02-.14,1-.76,1.51-.3.76,1.08-1.12,1.84-2.5.76-1.38,1.09-2.14-1.08.99Z"/>
      <path class="cls-2" d="M327.12,111.32l1.13-.22c.35-.44.71-.85,1.04-1.3-.71.53-1.45,1.01-2.17,1.52Z"/>
      <path class="cls-2" d="M344.06,96.18l-1.58,1.68-1.66,1.6c.11,0-.27.46-.74,1,.99-1.02,2.09-2.03,2.83-2.87.75-.83,1.24-1.4,1.15-1.41Z"/>
      <path class="cls-2" d="M340.08,100.46c-1.04,1.05-2.01,2.07-2.58,2.67.61-.52,1.79-1.78,2.58-2.67Z"/>
      <path class="cls-2" d="M331.93,107.28l1.11-.79c.85-.68,1.62-1.43,2.43-2.15l-1.74,1.51c-.58.5-1.2.95-1.8,1.43Z"/>
      <path class="cls-2" d="M370,54.23l1.73-4.72c.03-.54-.58.69-1.2,2.46-.33,1.16-.98,2.91-.53,2.27Z"/>
      <path class="cls-2" d="M362.3,67.34c.74-1.14.88-1.17,1.36-1.78l-.49-.42c-.26.75-.57,1.47-.87,2.2Z"/>
      <path class="cls-2" d="M368.39,54.13c.07-.52,2.23-6.9-.06-1.02-.02.54-1.93,5.15.06,1.02Z"/>
      <polygon class="cls-2" points="354.41 58.94 354.96 57.79 353.97 57.51 354.41 58.94"/>
      <path class="cls-2" d="M312.02,110.33c2.67-1.46,2.87-1.83,3.03-2.11.16-.29.26-.52,2.62-1.93,1.04-.99-3.86,2.3-2.76,1.31-2.92,2.21-4.68,3.01-2.89,2.74Z"/>
      <path class="cls-2" d="M314.91,107.59c.46-.36.95-.75,1.46-1.17-.84.64-1.23.96-1.46,1.17Z"/>
      <polygon class="cls-2" points="146.44 158.84 150.3 159.19 147.81 158.76 146.44 158.84"/>
      <path class="cls-2" d="M153.87,158.35l.9.66,2.33-.57c-.87.02-2.57.07-3.23-.09Z"/>
      <path class="cls-2" d="M173.38,99.06l-.21-.22c-.07.58.17,1.37.63,2.97-.13-.93-.34-1.83-.42-2.75Z"/>
      <path class="cls-2" d="M205.95,135.06l1.24-.81c-1.09.49-2.12.94-3.1,1.35.6-.16,1.22-.34,1.86-.54Z"/>
      <path class="cls-2" d="M159.59,148.42c1.82,0,3.96-.21,5.79-.28-3.98.32-6.29-.46-5.79.28Z"/>
    </g>
  </g>
</svg>