<?xml version="1.0" encoding="UTF-8"?>
<svg id="Layer_1" data-name="Layer 1" xmlns="http://www.w3.org/2000/svg" viewBox="0 0 250 150">
  <defs>
    <style>
      .cls-1 {
        fill: #dcf343;
      }
    </style>
  </defs>
  <path class="cls-1" d="M160.77,20.17c17.96,3.74,37.67,8.83,54.35,18.2,41.17,23.13,23.29,58.44-9.46,77.77-33.5,19.77-105.44,19.41-142.83,11.39-26.01-5.58-57.71-17.3-50.93-49.95,7.33-35.26,44.57-49.65,75.87-56.42,20.45-4.42,51.76-5.41,72.99-.99ZM192.22,43.5c-46.18-19.67-113.47-19.25-155.1,9.18-1.92,1.31-9.76,7.29-10.22,9.06-.7,2.67,1.9,6.7,3.09,8.95.36.68.19,1.98.41,2.19.22.22,1.53.03,2.22.38,1.17.58,1.36,2.01,2.22,2.62,13,9.2,42.52,16.54,58.15,17.48,4.33.26,8.81-.24,13.15-.03.73,3.04-2.19,9.88-5.1,10.93-1.14.41-4.28.66-5.66.75-17.05,1.06-41.92-3.84-56.72-10.95-3.97-1.91-11.76-7.1-14.75-10.33-1.52-1.65-2.68-4.45-4.38-6.11-.5,5.94,4.12,13.81,8.43,17.8,10.28,9.52,32.79,15.18,46.34,18.34,41.33,9.65,91.77,12.87,130.13-7,11.58-6,30.18-18.62,25.03-33.78-4.71-13.86-24.71-24.15-37.24-29.48Z"/>
</svg>