<?xml version="1.0" encoding="UTF-8"?>
<svg id="Layer_1" data-name="Layer 1" xmlns="http://www.w3.org/2000/svg" viewBox="0 0 331.17 152.56">
  <defs>
    <style>
      .cls-1 {
        fill: #d5f300;
      }
    </style>
  </defs>
  <path class="cls-1" d="M290.43,60.78c-2.25,21.32-3.44,42.93-2.81,64.46.12,4.29,3.86,13.78-2.58,14.48-5.93.65-10.74-6.9-14.62-9.99-15.95-12.72-33.44-21.93-53.59-26.32-13.81-3.02-24.33.56-31.8-14.51-4.18-8.44,1.15-7.4,8.53-6.72,23.47,2.18,51.41,14.89,70.18,28.8,4.38,1.89-.52-8.35-1.16-9.74C232.64,36.56,135.11,26.49,72.92,33.96c-11.98,1.44-25.94,4.02-37.92,9.51-6.82,3.13-14.8-1.38-15.23-8.87,0-.09,0-.17-.01-.26-.22-4.24,2.21-8.23,6.07-10.02,25.23-11.66,59.16-12.05,84.35-11.3,57.37,1.73,120.25,18.44,155.14,67.33,2.87,4.03,4.51,8.05,6.96,11.91.25.4,2.03,2.35,2.66,2.52,1.55-17.55,1.33-35.44,3.76-53,.25-1.83,1.75-11.9,2.1-12.42,3.95-5.8,12.26,8.68,12.4,13.21.17,5.79-2.22,13.1-2.76,18.21Z"/>
</svg>