<?xml version="1.0" encoding="UTF-8"?>
<svg id="Layer_1" data-name="Layer 1" xmlns="http://www.w3.org/2000/svg" viewBox="0 0 259.31 116.69">
  <defs>
    <style>
      .cls-1 {
        fill: #dcf343;
      }
    </style>
  </defs>
  <path class="cls-1" d="M144.35,54.47l52.21-.94c1.04-.77.31-.96-.34-1.59-3.3-3.26-13.83-9.76-18.22-12.34-2.31-1.36-15.68-7.7-16.15-8.68-1.56-3.21,2.77-11.49,6.03-12.47,2.78-.83,10.62,3.62,13.4,5.14,16.98,9.28,31.37,22.57,49.4,30.81,1.29.59,8.8,2.94,9.07,3.34.39.55,0,2.38-.2,3.15-.24.92-4.48,8.52-4.91,8.77-.61.36-1.83-.08-2.63.1-.58.13-.47,1.14-1.23,1.46-3.62,1.54-10.35,2.61-14.51,3.94-20.08,6.41-39.62,13.89-58.9,22.39-3.66-2.61.73-10.61,3.67-12.68s5.47-2.07,8.27-3.04c.71-.24.72-1.38,1.55-1.76,10.28-4.69,21.39-8.45,32.03-12.24.15-1.11-1.45-.6-2.22-.63-10.12-.39-20.71-.01-30.88,0l-12.1.64c-11.23.1-22.49.5-33.74.64l-3.82.64c-4.23.06-8.5,0-12.73,0l-10.82.64c-10.39.02-20.81-.01-31.19,0l-12.73.64c-10.18.01-20.38-.01-30.56,0-.93-4.42,2.21-12.35,6.84-13.22,34.73.49,69.32-1.85,103.93-2.06l11.46-.64Z"/>
  <path class="cls-1" d="M65.41,69.75c-3.84,1.18-8.66.63-12.73.64,3.84-1.18,8.66-.63,12.73-.64Z"/>
  <path class="cls-1" d="M169.82,67.2c-3.62,1.2-8.22.6-12.1.64,3.61-1.18,8.23-.63,12.1-.64Z"/>
  <path class="cls-1" d="M144.35,54.47c-3.39,1.19-7.81.61-11.46.64,3.41-1.45,7.81-.26,11.46-.64Z"/>
  <path class="cls-1" d="M107.43,69.11c-3.07,1.18-7.37.63-10.82.64,3.07-1.18,7.37-.63,10.82-.64Z"/>
  <path class="cls-1" d="M123.98,68.48c-.69,1.07-2.62.62-3.82.64.69-1.07,2.62-.62,3.82-.64Z"/>
</svg>