<?xml version="1.0" encoding="UTF-8"?>
<svg id="Layer_1" data-name="Layer 1" xmlns="http://www.w3.org/2000/svg" viewBox="0 0 529.77 226.44">
  <defs>
    <style>
      .cls-1 {
        fill: #dcf343;
      }
    </style>
  </defs>
  <path class="cls-1" d="M478.16,140.23c-1.21.37-1.39,1.93-1.34,3.11.24,5.55,3.46,13.65,4.47,19.78,1.83,11.13,4.94,31.44-.45,41.12-6.36,11.42-8.82,1.67-14.27-4.1-17.77-18.85-36.97-35.45-57.2-51.57-.81-.64-1.06-2.08-1.64-2.49-1.72-1.21-5.75-1-7.88-1.88-76.38-1.67-283.74,1.32-360.12-.22-5.21-.11-9.81-1.58-15.21-.11-1.37-2.95-.72-6.23-1.41-9.28-5.95-26.26-8.87-80.11-7.97-96.58.84-15.4,8.62-16.08,21.85-17.64,72.86-8.61,284.68-2.92,358.42-2.75,35.84.08,71.63-1.47,107.39-.52,1.1.55,3.6,6.3,4.17,7.91,3.3,9.34,6.16,26.74,6.95,36.72,1.85,23.24-2.78,46.97-3.19,70.19-1.34,4.36-10.89,8.31-14.92,8.31-3.73,0-15.16-.76-17.66,0Z"/>
</svg>