<?xml version="1.0" encoding="UTF-8"?>
<svg id="Layer_1" data-name="Layer 1" xmlns="http://www.w3.org/2000/svg" viewBox="0 0 523.05 194.9">
  <defs>
    <style>
      .cls-1 {
        fill: #dcf343;
      }
    </style>
  </defs>
  <path class="cls-1" d="M463.43,139.58c-.16-19.84-7.09-39.65-20.13-57.47-13.11-17.92-31.57-32.37-51.98-40.71-23.87-9.75-51.72-12.91-80.53-9.14-17.13,2.24-34.57,6.88-51.85,13.78-42.46,16.97-79.66,45.68-107.33,68.81l-.16.13-.14.15c-2.13,2.35-4.52,4.46-7.12,6.29l-9.85-13.55c1.72-1.46,3.45-2.93,5.2-4.4l.22-.18.18-.22c4.91-6.01,6.52-13.17,7.01-18.11,1.42-14.3-4.39-30.17-14.44-39.51-6.05-5.62-18.53-7.81-33.38-5.86-.95.12-1.9.27-2.86.42-22.56,3.75-51.87,17.52-67.92,44.96l-14.51-7.8c18.86-32.68,53.31-49.02,79.73-53.41,1.2-.2,2.39-.38,3.57-.53,19.86-2.6,36.83,1.1,46.58,10.15,11.75,10.91,19.17,27.62,19.86,44.71l.23,5.74,4.58-3.47c29.89-22.63,57.51-38.86,84.44-49.62,18.54-7.41,37.31-12.39,55.8-14.81,31.66-4.15,62.4-.61,88.91,10.21,48.71,19.89,82.18,66.4,82.35,113.86l-16.47-.43Z"/>
  <path class="cls-1" d="M477.31,136.95c.88.95.98.2,1.55-.51,2.88-3.64,8.16-14.83,10.23-19.48,1.09-2.44,5.91-16.44,6.83-17.02,3.02-1.91,11.73,1.47,13.07,4.61,1.14,2.67-2.41,10.96-3.61,13.89-7.34,17.9-18.94,33.69-25.12,52.52-.44,1.35-1.95,9.07-2.31,9.39-.51.45-2.36.26-3.15.15-.94-.13-8.96-3.5-9.27-3.9-.43-.57-.12-1.82-.4-2.6-.2-.56-1.19-.34-1.59-1.06-1.93-3.42-3.75-10-5.53-13.98-8.6-19.25-18.21-37.83-28.8-56.05,2.18-3.93,10.62-.45,13.01,2.24s2.67,5.2,3.94,7.88c.32.68,1.45.57,1.92,1.35,5.8,9.69,10.78,20.32,15.73,30.47,1.12.03.44-1.51.38-2.27-.74-10.1,13.13-5.63,13.13-5.63Z"/>
</svg>