<?xml version="1.0" encoding="UTF-8"?>
<svg id="Layer_1" data-name="Layer 1" xmlns="http://www.w3.org/2000/svg" viewBox="0 0 287.54 163.9">
  <defs>
    <style>
      .cls-1 {
        fill: #dcf343;
      }
    </style>
  </defs>
  <path class="cls-1" d="M34.76,104.03c-2.82,0-9.51-2.77-10.44-5.82-.28-16.25-3.53-32.87-2.23-49.14.56-6.99,2.56-19.17,4.87-25.71.4-1.13,2.14-5.15,2.92-5.54,25.03-.66,50.09.42,75.18.37,51.63-.12,94.39-4.1,145.4,1.93,9.27,1.09,14.12,1.62,15.3,12.35-6.66-.29-4.25,3.24-4.53,7.51-1.26,19.29,3.12,41.72-1.05,60.1-.49,2.14-.03,4.43-.99,6.5-3.78-1.03-7,0-10.65.08-53.47,1.08-93.11-1.02-146.59.15-1.5.62-4.31.47-5.52,1.32-.41.29-.59,1.29-1.15,1.74-14.17,11.29-27.6,22.9-40.05,36.1-3.81,4.04-5.54,10.87-9.99,2.87-3.77-6.77-1.59-20.99-.31-28.79.7-4.29,2.96-9.97,3.13-13.85.04-.82-.09-1.92-.94-2.18-1.74-.53-9.75,0-12.36,0ZM46.48,94.27c2.73.38,5.21.86,7.84,1.27,6.35.99,9.16-1.3,7.26,7.99-.82,4.02-10.51,27.3-9.57,28.48,3.49-.94,5.68-5.19,8.19-7.74,9.89-10.04,19.89-19.84,31.05-28.47,3.72-1.84,7.76-.24,11.17-.35,20.53-.68,41.26-1.62,61.78-1.85,34.37-.37,54.83.34,89.19.02-2.65-19.4-.62-39.07-.94-58.58-.6-4.27-8.62-2.34-12.43-2.54-69.35-3.53-124.72.22-194.23-1.3-2.48-.05-5.27-1.26-7.65-.55-2.65.8-1.49,4.55-1.83,6.62-2.62,15.89-3.9,32.7-3.85,48.84,0,1.95,1.15,4.08.74,6.15,4.4.69,8.85,1.4,13.27,2.01Z"/>
</svg>