<?xml version="1.0" encoding="UTF-8"?>
<svg id="Layer_1" data-name="Layer 1" xmlns="http://www.w3.org/2000/svg" viewBox="0 0 348.86 116.69">
  <defs>
    <style>
      .cls-1 {
        fill: #dcf343;
      }
    </style>
  </defs>
  <path class="cls-1" d="M326.78,27.1c.32.34.1,1.4.76,1.94.52.43,1.69.31,2.13.92,1.53,2.11.38,5.72-.69,7.81-4.53,8.86-15.57,17.95-22.01,25.79-10.5,12.78-19.2,26.74-30.04,39.23-1.47,1.69-4.01,7.65-7.26,5.25-.65-.48-1.41-1.99-1.47-2.81-.04-.6,2.22-6.06,2.68-6.95,6.73-13.19,19.14-25.02,28.21-36.7.77-.98,5.3-7.8,5.35-8.43.09-1-.63-1.3-1.45-1.42-11.4.67-22.54,2.3-33.59,5.16-17.77,4.6-33.01,11.75-48.28,21.29-15.73,9.82-41.56,30.07-61.28,22.85-5.69-2.08-12.57-8.51-15.07-13.98-2.3-5.03-2.45-10.29-5.55-15.02-7.74-11.83-19.4-5.53-26.6,3.02-3.79,4.5-11.83,18.48-16.19,20.87-1.28.7-2.93.28-3.67.72-.31.18-.56,1.39-1.34,1.97-3.68,2.75-11.85,4.34-16.31,2.98-8.4-2.57-10.22-8.91-12.59-16.44-.4-1.26-.23-4.64-.33-4.86-1.02-2.08-2.78-4.83-3.92-7.23-.32-.67.03-1.87-.44-2.58-.28-.43-7.02-4.36-8.05-4.65-8.67-2.47-17.58,5.24-22.82,11.35-1.85,2.16-1.49,2.25-2.69,3.93-.16.23-4.04,3.46-4.29,3.58-3.94,1.81-4.98-1.36-4.22-4.71.11-.49,1-.5,1.18-.86,6.94-14.31,27.56-39.1,45.96-28.82,6.3,3.52,8.08,13.41,10.49,19.76,1.78,4.68,2.63,8.57,6.93,11.83,5.35,4.06,11.35,2.69,16.7-.5,13.62-8.13,17.07-31.38,37.67-33.3,5.75-.53,9.39.28,13.43,4.47,4.02,4.18,4.72,11.54,7.24,16.66,7.05,14.35,22.26,17.46,36.72,12.14,1.54-.56,1.63-1.08,4.86-1.95,5.47-1.47,17.95-12.55,23.35-16.12,13.87-9.18,33.42-18.13,49.26-23.23,1.83-.59,4.73-.53,6.07-1.05.74-.29.98-1.92,2.29-1.81.14-.84-1.08-.88-1.68-1.02-13.55-3.25-28.52-4.31-42.25-6.19-1.82-.25-6.52.43-7.57-.3-.93-.64-.79-7.01-.25-8.19.18-.39,5.18-5.96,5.73-6.37,3.29-2.47,10.73-2.38,14.87-2.13,11.32.69,24.53,2.58,35.63,4.32,5.34.84,42.63,7.88,44.41,9.77Z"/>
</svg>