<?xml version="1.0" encoding="UTF-8"?>
<svg id="Layer_1" data-name="Layer 1" xmlns="http://www.w3.org/2000/svg" viewBox="0 0 331.17 152.56">
  <defs>
    <style>
      .cls-1 {
        fill: #d5f300;
      }
    </style>
  </defs>
  <path class="cls-1" d="M296.51,94.78c-.63-.16-2.41-2.12-2.66-2.52-2.45-3.86-4.09-7.88-6.96-11.91C252,31.47,189.12,14.76,131.75,13.03c-32.07-.97-78.31-.06-102.73,23.58-1.06,1.02-.93,2.85-1.54,3.44-2.31,2.25-2.91,1.13-5.52,5.82-13.21,23.67-1.25,54.45,18.95,69.81,24.46,18.6,58.48,13.54,86.64,8.1-.14-8.06-3.67-18.43-13.06-18.09-24.16.88-43.41,10.93-68.49-1.45-14.71-7.26-20.59-19.87-14.87-35.58,8.98-24.67,39.94-31.88,63.37-34.69,62.19-7.47,159.72,2.6,189.66,67.29.64,1.38,5.54,11.63,1.16,9.74-18.77-13.91-46.71-26.62-70.18-28.8-7.38-.69-12.72-1.72-8.53,6.72,7.47,15.07,17.99,11.49,31.8,14.5,20.15,4.4,37.64,13.6,53.58,26.32,3.88,3.1,8.7,10.64,14.63,9.99,6.44-.7,2.7-10.19,2.57-14.48-.63-21.53.57-43.14,2.81-64.46.54-5.11,2.94-12.42,2.76-18.21-.14-4.53-8.45-19.01-12.4-13.21-.35.52-1.85,10.6-2.11,12.42-2.43,17.57-2.21,35.46-3.75,53Z"/>
</svg>