<?xml version="1.0" encoding="UTF-8"?>
<svg id="Layer_1" data-name="Layer 1" xmlns="http://www.w3.org/2000/svg" viewBox="0 0 847.29 481.24">
  <defs>
    <style>
      .cls-1 {
        fill: #d5f300;
      }

      .cls-2 {
        fill: none;
        stroke: #004cbc;
        stroke-miterlimit: 10;
      }
    </style>
  </defs>
  <path class="cls-1" d="M55.12,401.42c25.44,33.16,66.71,50.65,107.79,58.32,70.79,13.21,146.13.5,208.67-35.2,62.54-35.7,111.79-94.12,136.41-161.79,15.54-42.72,21.29-90.47,7.15-133.68-20.94-63.99-84.79-108.81-151.7-116.3C296.53,5.28,88.35-7.24,36.52,35.73-4.99,70.14,13.29,197.3,15.9,240.62c1.5,24.96,16.79,59.48,15.97,85.08-.86,26.88,6.78,54.25,23.25,75.72Z"/>
  <path class="cls-2" d="M746.81,170.04c-20.98-49.17-69.74-82.17-120.39-91.17-87.69-15.58-166.22,30.78-196.8,116.81-30.58,86.03-.05,188.56,73.45,241.93,73.5,53.36,178.79,34.87,246.54-23.16,67.75-58.03,82.01-136.01,48.44-222.32-11.34-29.14-29.41-56.75-55.54-72.57-26.13-15.82-61.16-17.51-84.59,1.36"/>
</svg>