<?xml version="1.0" encoding="UTF-8"?>
<svg id="Layer_1" data-name="Layer 1" xmlns="http://www.w3.org/2000/svg" viewBox="0 0 300 300">
  <defs>
    <style>
      .cls-1 {
        fill: #dcf343;
      }
    </style>
  </defs>
  <path class="cls-1" d="M287.22,148.3c-.11.27-3.71,3.43-4.43,3.74-2.51,1.07-9.27,2.06-12.25,2.4-5.57.64-16.07,1.11-21.43.11-4.69-.88-8.37-15.68.22-18.73,4.99-1.77,22.98-4.15,28.12-3.58,5.1.57,9.06,2.68,9.95,8.14.27,1.64.38,6.56-.19,7.92Z"/>
  <path class="cls-1" d="M12.75,164.7c-.69-1.19-.33-10.01.44-11.68.96-2.07,5.55-3.9,7.75-4.31,6.93-1.3,19.58-1.55,26.46-.15,9.89,2.02,10.62,16.9,2.46,18.72-4.04.9-27.18.85-31.75.23-1.21-.16-4.98-2.16-5.36-2.82Z"/>
  <path class="cls-1" d="M283.76,198.26c-3.17,3.93-8.58.82-12.33.33-1.94-.25-4,.16-5.86-.18-4.48-.8-18.24-4.31-20.71-7.73-1.67-2.31-1.8-10.67-.32-12.67,3.83-5.21,30.58,2.7,36.87,3.7,3.87,3.92,6.04,11.96,2.34,16.56Z"/>
  <path class="cls-1" d="M27.38,214.69c-.23-.14-2.44-4.11-2.58-4.73-2.51-10.99,6.35-15.32,14.57-19.54,6.42-3.29,16.89-10.08,19.87-.26,3.42,11.27-4.67,14.77-13.06,19.13-3.97,2.06-14.74,7.76-18.8,5.4Z"/>
  <path class="cls-1" d="M84.4,248.78c1.13-1.8,4.67-6.4,6.14-8.07,6.14-7,14.91-7.12,15.14,3.07.1,4.71-10.69,25.56-14.66,28.43-7.38,5.35-15.7-1.28-13.41-9.97.52-1.96,5.49-11.37,6.8-13.46Z"/>
  <path class="cls-1" d="M244.02,215.22c1.94,1.41,13.52,9.83,13.97,10.58,3.22,5.3,3.09,19.05-5.91,16.25-1.61-.5-7.98-4.56-9.72-5.79-2.39-1.68-13.92-11.76-14.77-13.66-1.08-2.42-1.68-13.66.35-15.12,3.75-2.71,12.81,5.36,16.09,7.73Z"/>
  <path class="cls-1" d="M77.05,212.41c.13,2.46,2.97,2.1,3.66,3.01,1.15,1.51,1.01,7.97.59,10.03-1.04,5.04-20.91,24.55-25.44,25.49-5.6,1.17-6.67-7.53-6.19-11.42.49-3.94,4.85-8.44,7.64-11.32,2.16-2.23,17.98-17.14,19.74-15.79Z"/>
  <path class="cls-1" d="M211.05,268.01c-2.58-2.3-7.27-8.11-9.61-11.5-3.17-4.59-7.83-11.05-6.67-16.7,3.34-16.29,14.06,2.85,18.23,7.73,2.66,3.12,8.05,6.4,9.57,10.25,1.66,4.23,1.64,16.35-5.11,14.66-.88-.22-5.43-3.59-6.4-4.45Z"/>
  <path class="cls-1" d="M133.83,243.46c5.99-1.24,7.49,5.86,7.04,10.52-.44,4.48-7.11,27.85-9.39,31.12-4.88,6.99-11.07-1.81-10.28-8.54.61-5.15,4.65-20.31,6.36-25.53.89-2.72,3.26-6.95,6.26-7.57Z"/>
  <path class="cls-1" d="M164.85,241.72c5.62-.87,7.55,8.23,7.98,12.37.63,6.05,1.34,16.47.86,22.38-1.29,15.83-11.03,12.51-12.94.9-1.13-6.86-1.44-19.79-.82-26.73.3-3.38.85-8.3,4.92-8.93Z"/>
  <g>
    <path class="cls-1" d="M76.87,79.02c2.65,3.86,4.31,8.98,3.55,13.71-2.29,14.37-15.71-2.78-20.93-7.1-2.47-2.05-14.34-10.29-15.12-11.6-1.3-2.16-1.27-10.83-.17-13.21,2.39-5.15,7.09-1.38,10.44.35,6.15,3.18,18.41,12.29,22.22,17.85Z"/>
    <path class="cls-1" d="M23.94,96.14c2.26-1.28,14.18,1.67,17.24,2.64,4.4,1.4,18.77,6.98,19.62,11.4.56,2.92.87,13.14-2.32,14.06-1.82.52-17.94-4.4-20.89-5.5-8.56-3.2-17.23-8.18-15.51-18.87.11-.67,1.5-3.54,1.86-3.74Z"/>
    <path class="cls-1" d="M266.56,90.06c7.44.12,8.98,11.45,5.38,16.65-3.88,5.61-9.53,6.21-14.83,8.44-4.8,2.02-13.49,8.72-16.86,1.7-8.02-16.71,16.62-20.47,26.3-26.79Z"/>
    <path class="cls-1" d="M88.91,48.88c-4.7-4.94-8.6-11.37-6.15-18.47,4.68-13.53,19.21,12.19,21.28,16.7,1.43,3.13,5.77,14.45,5.65,17.23-.22,4.97-5.73,10.65-10.11,5.33-3.51-4.26-6.6-15.82-10.67-20.79Z"/>
    <path class="cls-1" d="M245.81,53.99c3.09,3.55,2.47,11.6.27,15.47-.98,1.72-13.03,13.9-15.07,15.28-4.02,2.72-8.2,5.55-11.13-.07-2.21-4.23-1.69-8.29.52-12.27,2.76-4.98,16.89-19.61,22.18-20.01.93-.07,2.67.94,3.24,1.6Z"/>
    <path class="cls-1" d="M137.34,15.1c.68.59,4.04,15.4,4.37,17.61.56,3.67,1.79,13.87,1.68,17.16-.16,4.81-5.55,11.98-9.26,6.78-1.64-2.3-5.94-14.18-6.78-17.35-.75-2.82-2.45-11.44-2.76-14.47-.2-1.94-.42-7.81-.08-9.42.19-.91,1.98-.14,2.49-.63.59-.57-.33-2.33.59-2.46.72-.1,9.35,2.44,9.73,2.77Z"/>
    <path class="cls-1" d="M205.92,65.25c-2.3,2.44-3.51,6.5-8.07,4.4-7.56-3.47-3.19-14.72-.2-19.99,1.55-2.72,11.7-15.12,13.98-16.18,7.32-3.4,8.83,8.53,7.53,13.57-.71,2.74-10.77,15.57-13.25,18.2Z"/>
    <path class="cls-1" d="M179.46,18.66c4.18,4.57,1.29,16.71.03,22.31-.96,4.24-4.64,17.56-7.57,20.02-4.31,3.63-8.19-2.91-8.58-6.83-.49-4.88,3.75-23.73,5.64-28.87,1.64-4.48,5.03-12.6,10.49-6.63Z"/>
  </g>
</svg>