<?xml version="1.0" encoding="UTF-8"?>
<svg id="Layer_1" data-name="Layer 1" xmlns="http://www.w3.org/2000/svg" viewBox="0 0 400 100">
  <defs>
    <style>
      .cls-1 {
        fill: #dcf343;
      }
    </style>
  </defs>
  <path class="cls-1" d="M371.16,34.79c1.82,2.96-4.96,13.98-8.97,14.52-12.2,1.63-27.78-1.63-40.23-2.22-61.87-2.94-125.9-2.83-187.75-.71-28.11.96-55.99,3.38-84.03,4.38-2.83.1-21.28.55-21.64-1.22.66-4.53,3.51-10.85,8.08-12.33,9.94-3.21,21.55-1.9,31.79-2.55,95.2-6.02,195.77-10.1,290.83-1.46,2.45.22,10.61-.55,11.92,1.59Z"/>
  <path class="cls-1" d="M108.24,80.67c-.96-5.5,1.49-11.3,6.55-13.52,12.09-.86,24.15-3,36.2-4,41.39-3.45,83.37-4.62,124.93-5.85,21.86-.65,48.69-3.24,70.18-1.48,8.29.68,5.82,3.88,2.96,8.86-1.19,2.07-1.64,5.09-5.2,5.76-8.33,1.56-19.82.45-28.51.71-64.1,1.93-129.05,3-192.86,8.07-1.95.16-13.69,2.02-14.26,1.46Z"/>
</svg>