<?xml version="1.0" encoding="UTF-8"?>
<svg id="Layer_1" data-name="Layer 1" xmlns="http://www.w3.org/2000/svg" viewBox="0 0 284.05 152.56">
  <defs>
    <style>
      .cls-1 {
        fill: #d5f300;
      }
    </style>
  </defs>
  <path class="cls-1" d="M264.34,46.84c.97,1.03.76,4.93.61,6.41-.93,9.08-14.39,26.8-19.73,35.23-4.08,6.46-13.43,25.62-20.78,27.3-6.79,1.55-2.49-6.43-.82-9.77.28-.55.89-.64,1.15-1.11,6.61-11.97,14.85-22.67,22.92-34.04.24-.45.62-1.65.4-1.97-.61-.89-18.55,2.86-21.17,3.41-33.74,7.16-68.15,18.29-99.77,31.86-10.51,4.51-21.18,10.58-31.73,15.31s-7.91,2.56-8.61-5.95c-1.03-12.61-2.84-25.36-4.29-37.97-.16-1.37-1.03-7.84-1.46-8.48-.7-1.04-6.29,1.99-7.41,2.65-14.43,8.41-26.57,20.72-40.8,29.5-2.15,1.33-9.66,5.82-11.57,6.41-5.33,1.67-1.82-7.78-.24-10.29,2.85-4.54,6.38-5.16,10.54-7.96,16.06-10.8,35.58-27.02,52.44-35.31,1.52-.75,4.7-2.68,6.15-1.73s2.19,14.66,2.49,17.21c1.46,12.47,2.87,24.95,4.2,37.43,1.96.6,4.47,1.14,4.57-1.3,6.99-3.2,13.97-6.4,20.96-9.6,26.9-12.33,54.55-22.65,83.01-30.12,6.1-1.6,12.52-3.44,18.92-4.87,1.3-.29,4.09-.1,4.23-.26.74-.79-.18-.92-.67-1.18-1.05-.57-3.15-1.08-4.39-1.42-14.42-3.96-31.8-7.42-46.49-9.03-2.24-.24-8.77.75-9.26-1.84-.9-4.81,2.85-9.31,5.08-12.98,5.01-.5,10.19-.48,15.22.09,19.7,2.23,38.72,9.09,58.35,11.96,3.23.47,16.5.82,17.97,2.38Z"/>
</svg>