<svg width="283" height="96" viewBox="0 0 283 96" fill="none" xmlns="http://www.w3.org/2000/svg">
<path d="M259.77 0.970215H22.7C21.84 0.970215 20.98 0.970215 20.12 0.970215C19.4 0.970215 18.68 0.990216 17.95 1.00022C16.37 1.02022 14.79 1.16022 13.23 1.42022C11.67 1.68022 10.16 2.18022 8.74998 2.90022C7.33998 3.62022 6.04998 4.56022 4.93998 5.68022C3.81998 6.80022 2.87998 8.09022 2.15998 9.50022C1.43998 10.9102 0.949981 12.4202 0.689981 13.9902C0.429981 15.5502 0.289981 17.1302 0.269981 18.7102C0.249981 19.4302 0.24998 20.1602 0.22998 20.8802V75.3502C0.23998 76.0802 0.239981 76.7902 0.269981 77.5202C0.289981 79.1002 0.429981 80.6802 0.689981 82.2402C0.949981 83.8002 1.44998 85.3202 2.15998 86.7302C2.86998 88.1402 3.80998 89.4202 4.93998 90.5302C6.04998 91.6502 7.33998 92.5902 8.74998 93.3102C10.16 94.0302 11.67 94.5302 13.23 94.8002C14.79 95.0602 16.37 95.2002 17.95 95.2202C18.68 95.2402 19.39 95.2502 20.12 95.2502C20.98 95.2502 21.84 95.2502 22.7 95.2502H259.77C260.62 95.2502 261.48 95.2502 262.32 95.2502C263.04 95.2502 263.77 95.2502 264.49 95.2202C266.07 95.2002 267.64 95.0602 269.2 94.8002C270.76 94.5302 272.28 94.0302 273.7 93.3102C275.11 92.5902 276.4 91.6602 277.51 90.5302C278.63 89.4202 279.57 88.1302 280.29 86.7302C281 85.3202 281.49 83.8002 281.75 82.2402C282.01 80.6802 282.16 79.1002 282.19 77.5202C282.19 76.7902 282.19 76.0802 282.19 75.3502C282.21 74.4902 282.21 73.6402 282.21 72.7702V23.4502C282.21 22.5902 282.21 21.7302 282.19 20.8802C282.19 20.1602 282.19 19.4302 282.19 18.7102C282.16 17.1302 282.02 15.5502 281.75 13.9902C281.49 12.4302 281 10.9202 280.29 9.50022C278.84 6.67022 276.53 4.36022 273.69 2.90022C272.27 2.19022 270.76 1.69022 269.19 1.42022C267.63 1.16022 266.06 1.02022 264.48 1.00022C263.76 0.990216 263.03 0.970215 262.31 0.970215C261.46 0.970215 260.6 0.970215 259.76 0.970215H259.77Z" fill="#A6A6A6"/>
<path d="M20.1299 93.17C19.4099 93.17 18.7099 93.17 17.9999 93.14C16.5199 93.12 15.0499 92.99 13.5999 92.76C12.2399 92.53 10.9299 92.09 9.69994 91.47C8.47994 90.85 7.36994 90.04 6.40994 89.07C5.42994 88.11 4.61994 87 4.00994 85.78C3.38994 84.55 2.94994 83.23 2.72994 81.87C2.48994 80.41 2.35994 78.93 2.33994 77.45C2.32994 76.95 2.30994 75.3 2.30994 75.3V20.86C2.30994 20.86 2.32994 19.23 2.33994 18.75C2.35994 17.27 2.48994 15.8 2.72994 14.34C2.94994 12.98 3.38994 11.66 4.00994 10.42C4.61994 9.20002 5.42994 8.09002 6.39994 7.13002C7.36994 6.16002 8.47994 5.35002 9.69994 4.72002C10.9299 4.10002 12.2399 3.67002 13.5999 3.44002C15.0599 3.20002 16.5399 3.07002 18.0199 3.05002L20.1499 3.02002H262.33L264.48 3.05002C265.95 3.07002 267.41 3.20002 268.86 3.43002C270.23 3.66002 271.56 4.10002 272.8 4.72002C275.25 5.98002 277.24 7.97002 278.49 10.42C279.1 11.64 279.53 12.95 279.75 14.31C279.99 15.78 280.13 17.27 280.16 18.76C280.16 19.43 280.16 20.14 280.16 20.86C280.18 21.74 280.18 22.58 280.18 23.43V72.75C280.18 73.61 280.18 74.44 280.16 75.28C280.16 76.05 280.16 76.75 280.16 77.47C280.13 78.93 280 80.39 279.76 81.84C279.54 83.21 279.11 84.54 278.49 85.78C277.87 86.99 277.06 88.09 276.1 89.05C275.14 90.03 274.02 90.84 272.8 91.46C271.56 92.09 270.24 92.52 268.87 92.76C267.41 93 265.94 93.13 264.47 93.14C263.78 93.16 263.06 93.17 262.36 93.17H259.81H20.1699H20.1299Z" fill="black"/>
<path d="M58.6 48.8098C58.65 44.8098 60.75 41.1198 64.15 39.0298C61.99 35.9498 58.51 34.0598 54.74 33.9498C50.78 33.5298 46.95 36.3198 44.93 36.3198C42.91 36.3198 39.77 33.9898 36.43 34.0598C32.03 34.1998 28.03 36.6398 25.89 40.4898C21.33 48.3798 24.73 59.9798 29.1 66.3598C31.28 69.4798 33.84 72.9698 37.18 72.8498C40.45 72.7098 41.67 70.7698 45.62 70.7698C49.57 70.7698 50.67 72.8498 54.08 72.7798C57.59 72.7198 59.8 69.6398 61.9 66.4898C63.47 64.2598 64.68 61.7998 65.48 59.1998C61.31 57.4398 58.61 53.3598 58.6 48.8298V48.8098Z" fill="white"/>
<path d="M52.17 29.75C54.08 27.45 55.02 24.5 54.8 21.52C51.88 21.83 49.18 23.22 47.24 25.43C45.33 27.61 44.36 30.46 44.54 33.35C47.5 33.38 50.31 32.05 52.17 29.74V29.75Z" fill="white"/>
<path d="M99.92 64.9301H88.77L86.09 72.8401H81.37L91.94 43.5801H96.85L107.42 72.8401H102.61L99.93 64.9301H99.92ZM89.92 61.2801H98.76L94.4 48.4401H94.28L89.92 61.2801Z" fill="white"/>
<path d="M130.22 62.1701C130.22 68.8001 126.67 73.0601 121.32 73.0601C118.55 73.2001 115.94 71.7501 114.61 69.3301H114.51V79.9001H110.13V51.5101H114.37V55.0601H114.45C115.85 52.6501 118.46 51.2001 121.24 51.2901C126.65 51.2901 130.22 55.5701 130.22 62.1801V62.1701ZM125.72 62.1701C125.72 57.8501 123.49 55.0101 120.08 55.0101C116.67 55.0101 114.48 57.9101 114.48 62.1701C114.48 66.4301 116.73 69.3501 120.08 69.3501C123.43 69.3501 125.72 66.5301 125.72 62.1701Z" fill="white"/>
<path d="M153.7 62.1701C153.7 68.8001 150.15 73.0601 144.8 73.0601C142.03 73.2001 139.42 71.7501 138.09 69.3301H137.99V79.9001H133.61V51.5101H137.85V55.0601H137.93C139.33 52.6501 141.94 51.2001 144.72 51.2901C150.14 51.2901 153.7 55.5701 153.7 62.1801V62.1701ZM149.2 62.1701C149.2 57.8501 146.97 55.0101 143.56 55.0101C140.15 55.0101 137.96 57.9101 137.96 62.1701C137.96 66.4301 140.21 69.3501 143.56 69.3501C146.91 69.3501 149.2 66.5301 149.2 62.1701Z" fill="white"/>
<path d="M169.22 64.6798C169.54 67.5798 172.36 69.4898 176.22 69.4898C180.08 69.4898 182.57 67.5798 182.57 64.9698C182.57 62.6998 180.97 61.3399 177.18 60.4099L173.39 59.4998C168.02 58.1998 165.52 55.6898 165.52 51.6098C165.52 46.5598 169.92 43.0898 176.17 43.0898C182.42 43.0898 186.59 46.5598 186.74 51.6098H182.32C182.06 48.6898 179.64 46.9298 176.11 46.9298C172.58 46.9298 170.17 48.7098 170.17 51.3098C170.17 53.3798 171.71 54.5998 175.48 55.5298L178.7 56.3198C184.7 57.7398 187.2 60.1498 187.2 64.4298C187.2 69.8998 182.84 73.3298 175.9 73.3298C169.41 73.3298 165.03 69.9798 164.75 64.6898H169.23L169.22 64.6798Z" fill="white"/>
<path d="M196.64 46.4497V51.4997H200.7V54.9697H196.64V66.7297C196.64 68.5597 197.45 69.4097 199.24 69.4097C199.72 69.4097 200.2 69.3697 200.68 69.3097V72.7597C199.88 72.9097 199.06 72.9797 198.25 72.9597C193.93 72.9597 192.25 71.3397 192.25 67.1997V54.9697H189.15V51.4997H192.25V46.4497H196.65H196.64Z" fill="white"/>
<path d="M203.05 62.1697C203.05 55.4597 207 51.2397 213.17 51.2397C219.34 51.2397 223.29 55.4597 223.29 62.1697C223.29 68.8797 219.38 73.0997 213.17 73.0997C206.96 73.0997 203.05 68.8997 203.05 62.1697ZM218.83 62.1697C218.83 57.5697 216.72 54.8497 213.17 54.8497C209.62 54.8497 207.51 57.5897 207.51 62.1697C207.51 66.7497 209.62 69.4897 213.17 69.4897C216.72 69.4897 218.83 66.7897 218.83 62.1697Z" fill="white"/>
<path d="M226.9 51.4998H231.08V55.1298H231.18C231.76 52.7898 233.9 51.1798 236.31 51.2798C236.81 51.2798 237.32 51.3298 237.81 51.4398V55.5398C237.17 55.3498 236.51 55.2598 235.84 55.2798C233.4 55.1798 231.35 57.0798 231.25 59.5098C231.25 59.7398 231.25 59.9598 231.27 60.1898V72.8498H226.89V51.5098L226.9 51.4998Z" fill="white"/>
<path d="M258 66.5697C257.41 70.4397 253.64 73.0997 248.81 73.0997C242.6 73.0997 238.75 68.9397 238.75 62.2697C238.75 55.5997 242.62 51.2397 248.63 51.2397C254.64 51.2397 258.24 55.2898 258.24 61.7598V63.2598H243.17V63.5197C242.9 66.5797 245.16 69.2698 248.21 69.5498C248.44 69.5698 248.67 69.5797 248.9 69.5697C251.03 69.7697 253.03 68.5497 253.83 66.5697H257.99H258ZM243.2 60.1997H253.87C254.03 57.3697 251.86 54.9497 249.03 54.7897C248.9 54.7897 248.77 54.7897 248.63 54.7897C245.65 54.7697 243.21 57.1798 243.2 60.1598C243.2 60.1798 243.2 60.1897 243.2 60.2097V60.1997Z" fill="white"/>
<path d="M89.37 21.5499C92.8 21.2999 95.77 23.8799 96.02 27.3099C96.05 27.7199 96.04 28.1299 95.99 28.5399C95.99 33.0299 93.56 35.6099 89.37 35.6099H84.29V21.5499H89.37ZM86.48 33.6199H89.13C91.57 33.7699 93.66 31.9099 93.81 29.4699C93.83 29.1699 93.81 28.8599 93.77 28.5599C94.1 26.1299 92.41 23.8999 89.98 23.5699C89.7 23.5299 89.42 23.5199 89.13 23.5399H86.48V33.6299V33.6199Z" fill="white"/>
<path d="M98.46 30.2999C98.2 27.5399 100.22 25.0799 102.99 24.8199C105.75 24.5599 108.21 26.5799 108.47 29.3499C108.5 29.6699 108.5 29.9899 108.47 30.3099C108.74 33.0699 106.72 35.5299 103.95 35.7999C101.19 36.0699 98.73 34.0499 98.46 31.2799C98.43 30.9599 98.43 30.6299 98.46 30.3099V30.2999ZM106.31 30.2999C106.31 27.9999 105.28 26.6499 103.46 26.6499C101.64 26.6499 100.62 27.9999 100.62 30.2999C100.62 32.5999 101.64 33.9499 103.46 33.9499C105.27 33.9499 106.31 32.6099 106.31 30.2999Z" fill="white"/>
<path d="M121.77 35.61H119.6L117.41 27.79H117.24L115.06 35.61H112.91L109.99 25H112.11L114.01 33.1H114.17L116.35 25H118.36L120.54 33.1H120.71L122.6 25H124.69L121.78 35.61H121.77Z" fill="white"/>
<path d="M127.14 25.0001H129.16V26.6901H129.32C129.86 25.4501 131.14 24.6901 132.49 24.8001C134.39 24.6601 136.05 26.0801 136.19 27.9801C136.21 28.2301 136.19 28.4901 136.16 28.7401V35.6101H134.07V29.2701C134.07 27.5601 133.33 26.7201 131.78 26.7201C130.44 26.6601 129.3 27.7001 129.24 29.0401C129.24 29.1601 129.24 29.2901 129.25 29.4101V35.6201H127.16V25.0101L127.14 25.0001Z" fill="white"/>
<path d="M139.49 20.8501H141.58V35.6001H139.49V20.8501Z" fill="white"/>
<path d="M144.5 30.2999C144.24 27.5399 146.26 25.0799 149.03 24.8199C151.79 24.5599 154.25 26.5799 154.51 29.3499C154.54 29.6699 154.54 29.9899 154.51 30.3099C154.78 33.0699 152.76 35.5299 149.99 35.7999C147.23 36.0699 144.77 34.0499 144.5 31.2799C144.47 30.9599 144.47 30.6299 144.5 30.3099V30.2999ZM152.35 30.2999C152.35 27.9999 151.32 26.6499 149.5 26.6499C147.68 26.6499 146.66 27.9999 146.66 30.2999C146.66 32.5999 147.68 33.9499 149.5 33.9499C151.31 33.9499 152.35 32.6099 152.35 30.2999Z" fill="white"/>
<path d="M156.71 32.61C156.71 30.7 158.13 29.6 160.66 29.44L163.53 29.27V28.35C163.53 27.23 162.79 26.6 161.36 26.6C160.19 26.6 159.38 27.03 159.15 27.78H157.12C157.33 25.96 159.05 24.79 161.46 24.79C164.12 24.79 165.62 26.11 165.62 28.36V35.61H163.6V34.12H163.43C162.75 35.21 161.53 35.85 160.24 35.79C158.48 35.97 156.9 34.69 156.72 32.93C156.71 32.82 156.7 32.72 156.7 32.61H156.71ZM163.53 31.7V30.81L160.94 30.98C159.48 31.08 158.82 31.57 158.82 32.51C158.82 33.45 159.65 34.02 160.79 34.02C162.16 34.16 163.39 33.16 163.53 31.78C163.53 31.75 163.53 31.72 163.53 31.7Z" fill="white"/>
<path d="M168.37 30.3001C168.37 26.9501 170.09 24.8201 172.77 24.8201C174.12 24.7601 175.39 25.4801 176.02 26.6801H176.18V20.8501H178.27V35.6001H176.26V33.9201H176.09C175.41 35.1101 174.13 35.8201 172.76 35.7701C170.06 35.7701 168.36 33.6501 168.36 30.2801L168.37 30.3001ZM170.53 30.3001C170.53 32.5501 171.59 33.9101 173.37 33.9101C175.15 33.9101 176.23 32.5401 176.23 30.3101C176.23 28.0801 175.13 26.7001 173.37 26.7001C171.61 26.7001 170.53 28.0601 170.53 30.3001Z" fill="white"/>
<path d="M186.94 30.2999C186.68 27.5399 188.7 25.0799 191.47 24.8199C194.23 24.5599 196.69 26.5799 196.95 29.3499C196.98 29.6699 196.98 29.9899 196.95 30.3099C197.22 33.0699 195.2 35.5299 192.43 35.7999C189.67 36.0699 187.21 34.0499 186.94 31.2799C186.91 30.9599 186.91 30.6299 186.94 30.3099V30.2999ZM194.8 30.2999C194.8 27.9999 193.77 26.6499 191.95 26.6499C190.13 26.6499 189.11 27.9999 189.11 30.2999C189.11 32.5999 190.13 33.9499 191.95 33.9499C193.76 33.9499 194.8 32.6099 194.8 30.2999Z" fill="white"/>
<path d="M199.76 25.0001H201.78V26.6901H201.94C202.48 25.4501 203.76 24.6901 205.11 24.8001C207.01 24.6601 208.67 26.0801 208.81 27.9801C208.83 28.2301 208.81 28.4901 208.78 28.7401V35.6101H206.69V29.2701C206.69 27.5601 205.95 26.7201 204.4 26.7201C203.06 26.6601 201.92 27.7001 201.86 29.0401C201.86 29.1601 201.86 29.2901 201.87 29.4101V35.6201H199.78V25.0101L199.76 25.0001Z" fill="white"/>
<path d="M220.61 22.3501V25.0401H222.91V26.8001H220.61V32.2601C220.61 33.3701 221.07 33.8601 222.11 33.8601C222.38 33.8601 222.64 33.8401 222.91 33.8101V35.5501C222.53 35.6201 222.15 35.6501 221.77 35.6601C219.44 35.6601 218.51 34.8401 218.51 32.7901V26.8001H216.83V25.0401H218.51V22.3501H220.61Z" fill="white"/>
<path d="M225.77 20.8501H227.85V26.7001H228.02C228.59 25.4501 229.88 24.6901 231.26 24.8001C233.19 24.7001 234.84 26.1701 234.94 28.1001C234.95 28.3201 234.94 28.5401 234.91 28.7601V35.6101H232.81V29.2801C232.81 27.5901 232.02 26.7301 230.54 26.7301C229.18 26.6201 227.98 27.6301 227.87 29.0001C227.86 29.1401 227.86 29.2801 227.87 29.4201V35.6201H225.78V20.8701L225.77 20.8501Z" fill="white"/>
<path d="M247.11 32.7402C246.52 34.7402 244.59 36.0302 242.51 35.8102C239.85 35.8802 237.63 33.7802 237.56 31.1202C237.56 30.8602 237.56 30.5902 237.6 30.3302C237.24 27.6502 239.12 25.1902 241.8 24.8302C242.03 24.8002 242.26 24.7802 242.49 24.7902C245.44 24.7902 247.22 26.8102 247.22 30.1402V30.8702H239.73V30.9902C239.6 32.5302 240.75 33.8902 242.29 34.0202C242.38 34.0202 242.47 34.0302 242.56 34.0202C243.58 34.1402 244.58 33.6302 245.08 32.7302H247.1L247.11 32.7402ZM239.74 29.3202H245.1C245.2 27.9102 244.15 26.6802 242.74 26.5802C242.66 26.5802 242.57 26.5802 242.49 26.5802C240.99 26.5602 239.76 27.7602 239.74 29.2602C239.74 29.2802 239.74 29.3102 239.74 29.3302V29.3202Z" fill="white"/>
</svg>
