<svg width="109" height="93" viewBox="0 0 109 93" fill="none" xmlns="http://www.w3.org/2000/svg">
<g clip-path="url(#clip0_2013_4)">
<path d="M10.1336 54.8658L48.6029 90.6857C50.1996 92.172 52.3072 93.0001 54.5 93.0001C56.6928 93.0001 58.8004 92.172 60.3971 90.6857L98.8664 54.8658C105.338 48.8569 109 40.4275 109 31.6158V30.3843C109 15.5427 98.249 2.88786 83.5809 0.446078C73.873 -1.16762 63.9949 1.99608 57.0547 8.918L54.5 11.4659L51.9453 8.918C45.0051 1.99608 35.127 -1.16762 25.4191 0.446078C10.751 2.88786 0 15.5427 0 30.3843V31.6158C0 40.4275 3.66172 48.8569 10.1336 54.8658Z" fill="#074BB6"/>
</g>
<defs>
<clipPath id="clip0_2013_4">
<rect width="109" height="93" fill="white"/>
</clipPath>
</defs>
</svg>
