<svg version="1.2" xmlns="http://www.w3.org/2000/svg" viewBox="0 0 1138 377" width="1138" height="377">
	<title>logo</title>
	<style>
		.s0 { fill: #ffffff } 
		.s1 { fill: #074bb6 } 
		.s2 { fill: #212021 } 
		.s3 { fill: #000000 } 
	</style>
	<g id="_Artboards_">
		<path id="Artboard 1 copy" class="s0" d="m-134 1180.4h1350v-600h-1350z"/>
		<path id="Artboard 1 copy 2" class="s0" d="m-134 1878h1350v-600h-1350z"/>
	</g>
	<g id="Layer 1">
		<path id="&lt;Compound Path&gt;" fill-rule="evenodd" class="s0" d="m709.3 1698.3c-1.6 0.5-4.7 0-6.8 0-7.4 6.3-26.6-0.1-29-8.4-4.3-14.8 11.6-85.5-1.6-88.7-3.3-0.8-4.9 2.9-6.6 4.7-10.4 11.1-33.2 53.3-38.3 68.1-2.6 7.7-5.3 32.8-7.2 35.7-5.8 9.1-34.8 0.7-38.2-7.4-1.4-3.5-3.4-22.9-3.5-27.9-0.2-6.9 6.1-15.6-1.4-21.2-8.2 7.1-15.3 14.6-22.5 22.7-2 2.3-7 3.9-7.6 4.8-4.7 8.6-1 13.1-15.2 22.2-27.7 17.7-64.8 18.8-85.9-9.2l-12.6-22.5c0.3 12.4-0.5 25-0.1 37.4 0.3 12.1 9 24.3-12.5 22.5-27.9-2.2-25.1-27.8-21.5-48.6-17.4 24.8-34.2 36-63.5 19.3-9.2-5.2-23.2-23.8-24.7-34.1-2.5-17.3 12.9-61.7 22.9-76.3 17-24.7 39.7-38.3 69.9-26.3 0-29.6 8.1-58.8 4.5-88.1 41.6-3.2 38.4 20.3 36.2 53-1.1 18.2-1.3 42.3-2.9 58.5-0.6 7.1-9.9 18.2-6.1 28.5 8.4-5.2 10.2-15.6 17-22.6 6.4-6.4 35-25.1 43.6-26.5 18.1-3.1 30.1 0.1 43.7 11.8 8 7 17.5 19.5 12.4 30.5-2.8 6.1-42.6 32.9-50.9 37.3-10.8 5.8-34.1 19.5-43.1 10.2 0.9 18.6 6.9 32.3 28.1 29.2 24.3-3.5 62.5-42.5 84.3-56.1 2.9-1.8 9.2-2.2 9.7-2.7 4.3-5-6.4-47.1 0.5-51.4 21.6-2.6 40.3 13.5 36 35.8 5.6-5.5 7.8-13.3 12.6-20.1 1.7-2.4 11.2-13.6 12.9-14.5 10.4-5.3 32.6-5 40.2 5.2 15.9 5.3 24.9 10.8 28.4 29.3 3.6 18.5 1.3 51 1 71.2-0.1 5-2.8 9.5-2.2 14.7zm-237.9-72.3c14.8-10.4 33-18.3 45.3-31.6-11.2 0-19.6 8.4-29.4 12.5zm-72.5-38.4c-1.5-1.5-23.8 7.5-26.5 9.8-8.5 7.1-26.1 43.6-27.8 54.7-0.7 5.2-1.7 31.7 3.4 32.7 9.2 1.8 27.4-33.3 31.4-41 4.1-7.9 24.9-50.4 19.5-56.2z"/>
		<path id="&lt;Compound Path&gt;" fill-rule="evenodd" class="s0" d="m308 1633.8c-2.2 16.5-36.9 58.4-50.7 69-30.9 23.9-50.6 15.3-71.4-13.5-2.9-4.1-8.3-7.5-10.3-13.5-0.8-2.3-5.6-20.4-5.6-21.5v-44.1c-6.4 7.8-15.2 17.7-20.4 26-4.3 6.9-21.4 34.4-23.6 39.7-4.6 11.2-2.1 36.2-20.4 36.1-1.5 0-1.2-3.8-2.8-4.7-8.9-4.4-15-4.8-19.9-15.8-1.3-21 1.3-43.2 3.3-64.3l-4.5-1.1c-8.3 14.3-15.3 29.4-22.2 44.4-1.6 3.4-5.1 5.5-6.7 9.2-7.5 17.5 2 44.2-25.5 33.3-20.4-8.2-21.3-27.2-22.7-47.3-0.7-9.4-1.9-78.8 0.5-82.1 3.6-5.3 24.4 5.4 27.8 8.7 8.7 8.5 4.4 36 6.9 36-0.5-9.5 6-9.4 8.6-14.1 3-5.4 7.1-19 10.1-23.6 8.6-13 11.6-18 28.5-11.5 2.7 1.1 3.5 3.9 3.7 4 17 8.4 28.3 14.5 29.5 36.2l15.8-23.7c18.8-17.3 22.8-41.1 51.6-19.8 5.9 4.4 11.2 8.2 11.9 16.4 7 4.8 6-3.8 10-8.3 14.8-16.8 21.7-0.1 27.1-1 2.6-0.5 6.3-7.5 14-8.7 30.9-4.7 61.5 28.9 57.4 59.6zm-143.1-63.9c-0.1 0-0.2 0.1-0.3 0.1q0.3-0.1 0.6-0.1c-0.1 0-0.2 0-0.3 0zm101.6 31.4c-9.3 1.4-14.5 9.8-18.8 10.9-5.5 1.5-9.3-5.6-14.2-3.2-2 1-18.2 20.6-20.4 23.8-0.1 6.2-0.6 14.9-6.8 18.1-1.2 12.7 2.1 26-2.3 38.4 3.5 3 25.1-7.4 29.3-10.3 13.5-9.3 41.5-41.9 47.2-56.9 6-15.7 6.7-23.8-14-20.8z"/>
		<g id="&lt;Group&gt;">
			<path id="&lt;Compound Path&gt;" fill-rule="evenodd" class="s0" d="m1119.5 1477.2q-16.4 16.6-39.7 16.6-23.3 0-39.7-16.6-16.3-16.4-16.3-39.8 0-23.1 16.5-39.5 16.3-16.4 39.5-16.4 23.3 0 39.7 16.4 16.4 16.3 16.4 39.5 0 23.3-16.4 39.8zm-73.8-73.8q-14.1 14.1-14.1 34.1 0 20.2 14 34.4 14.1 14.2 34.2 14.2 20 0 34.1-14.2 14.1-14.2 14.1-34.4 0-20-14.1-34.1-14.1-14.2-34.1-14.2-20 0-34.1 14.2zm33 3.1q11.4 0 16.8 2.2 9.5 4 9.5 15.6 0 8.3-6 12.2-3.2 2-8.9 3 7.3 1.1 10.6 6 3.3 4.9 3.3 9.5v4.5q0 2.2 0.2 4.6 0.2 2.5 0.5 3.2l0.4 0.8h-10.1q-0.1-0.3-0.2-0.6-0.1-0.3-0.1-0.7l-0.3-2v-4.9q0-10.6-5.8-14.1-3.4-1.9-12.1-1.9h-8.5v24.2h-10.9v-61.6zm11.8 9.7q-4.1-2.3-13.2-2.3h-9.3v22.3h9.9q6.8 0 10.3-1.4 6.4-2.5 6.4-9.6 0-6.7-4.1-9z"/>
		</g>
		<path id="&lt;Path&gt;" class="s0" d="m968.5 684.5c-4.3-0.2-12.4 3.9-16.5 5.9-29.4 14.7-73.6 70.9-94.2 98.2-4 5.2-19.2 32.9-22.8 33.7-3.2 0.7-3.9-1.8-5.3-3.7-9.6-12.9-18.1-39.3-27.2-54.3-9.9-16.5-18.8-23.6-38-27.6-12.2-2.5-35.4-7.7-34.9 9.8 0.4 15.4 5.7 11.3 14.4 17.5 5.3 3.7 12 8.3 16.1 13.3 7.4 8.8 40.7 68.6 43.3 78.8 3.9 15.4-9.6 21.7-13.8 36.1-22.6 21.1-31.4 48.4-49.4 71.5-1.4 1.8-4.1 2.5-5.6 4.6-5.6 7.3-17.5 30.3-25.3 32.4 1.3 13.1 34.3 30.4 47.5 26.1l73.7-114.1c21.3 43.3 44.6 85.7 69 127.6 10.1 7.7 38.3 14.5 47.9 4.6 2.4-2.5 1.4-2.5 0.3-5-3.4-8-13-19-17.6-27.8-19.2-36.7-38.4-74-56-111.3-9.1-19.3-19.9-18.8-5.9-43.1 20.8-36.2 79.1-106.9 111.4-134.1 6.1-5.1 29.1-11.5 17.4-24.4-1.1-1.2-26.3-14.5-28.5-14.7z"/>
		<path id="&lt;Compound Path&gt;" fill-rule="evenodd" class="s0" d="m709.3 1000.7c-1.6 0.5-4.7 0-6.8 0-7.4 6.3-26.6-0.1-29-8.3-4.3-14.9 11.6-85.6-1.6-88.8-3.3-0.8-4.9 2.9-6.6 4.7-10.4 11.1-33.2 53.3-38.3 68.1-2.6 7.7-5.3 32.8-7.2 35.7-5.8 9.1-34.8 0.7-38.2-7.4-1.4-3.5-3.4-22.9-3.5-27.9-0.2-6.9 6.1-15.6-1.4-21.2-8.2 7.1-15.3 14.6-22.5 22.7-2 2.3-7 3.9-7.6 4.9-4.7 8.5-1 13-15.2 22.1-27.7 17.7-64.8 18.8-85.9-9.2l-12.6-22.5c0.3 12.4-0.5 25-0.1 37.4 0.3 12.1 9 24.3-12.5 22.5-27.9-2.2-25.1-27.8-21.5-48.6-17.4 24.8-34.2 36-63.5 19.4-9.2-5.3-23.2-23.9-24.7-34.2-2.5-17.3 12.9-61.7 22.9-76.3 17-24.6 39.7-38.3 69.9-26.3 0-29.6 8.1-58.8 4.5-88.1 41.6-3.1 38.4 20.3 36.2 53-1.1 18.2-1.3 42.4-2.9 58.5-0.6 7.1-9.9 18.3-6.1 28.5 8.4-5.1 10.2-15.6 17-22.5 6.4-6.5 35-25.2 43.6-26.6 18.1-3.1 30.1 0.1 43.7 11.8 8 7 17.5 19.5 12.4 30.5-2.8 6.1-42.6 32.9-50.9 37.4-10.8 5.7-34.1 19.4-43.1 10.1 0.9 18.6 6.9 32.3 28.1 29.2 24.3-3.5 62.5-42.5 84.3-56.1 2.9-1.8 9.2-2.2 9.7-2.7 4.3-5-6.4-47.1 0.5-51.4 21.6-2.6 40.3 13.5 36 35.8 5.6-5.5 7.8-13.3 12.6-20.1 1.7-2.4 11.2-13.6 12.9-14.5 10.4-5.2 32.6-5 40.2 5.2 15.9 5.3 24.9 10.8 28.4 29.3 3.6 18.6 1.3 51 1 71.2-0.1 5-2.8 9.5-2.2 14.7zm-237.9-72.2c14.8-10.5 33-18.4 45.3-31.6-11.2 0-19.6 8.3-29.4 12.4zm-72.5-38.4c-1.5-1.5-23.8 7.6-26.5 9.8-8.5 7.1-26.1 43.6-27.8 54.7-0.7 5.2-1.7 31.7 3.4 32.7 9.2 1.8 27.4-33.3 31.4-41 4.1-7.9 24.9-50.3 19.5-56.2z"/>
		<path id="&lt;Compound Path&gt;" fill-rule="evenodd" class="s0" d="m308 936.2c-2.2 16.5-36.9 58.4-50.7 69.1-30.9 23.9-50.6 15.2-71.4-13.6-2.9-4.1-8.3-7.5-10.3-13.5-0.8-2.3-5.6-20.4-5.6-21.5v-44.1c-6.4 7.8-15.2 17.7-20.4 26.1-4.3 6.8-21.4 34.3-23.6 39.6-4.6 11.2-2.1 36.2-20.4 36.1-1.5 0-1.2-3.8-2.8-4.6-8.9-4.5-15-4.9-19.9-15.9-1.3-21 1.3-43.2 3.3-64.3l-4.5-1.1c-8.3 14.3-15.3 29.4-22.2 44.5-1.6 3.4-5.1 5.4-6.7 9.1-7.5 17.5 2 44.2-25.5 33.3-20.4-8.2-21.3-27.2-22.7-47.3-0.7-9.4-1.9-78.7 0.5-82.1 3.6-5.3 24.4 5.4 27.8 8.7 8.7 8.5 4.4 36.1 6.9 36-0.5-9.5 6-9.4 8.6-14.1 3-5.4 7.1-19 10.1-23.6 8.6-12.9 11.6-17.9 28.5-11.5 2.7 1.1 3.5 3.9 3.7 4 17 8.4 28.3 14.5 29.5 36.2l15.8-23.7c18.8-17.3 22.8-41.1 51.6-19.7 5.9 4.4 11.2 8.1 11.9 16.3 7 4.8 6-3.8 10-8.2 14.8-16.9 21.7-0.2 27.1-1.1 2.6-0.4 6.3-7.5 14-8.7 30.9-4.7 61.5 28.9 57.4 59.6zm-143.1-63.9c-0.1 0-0.2 0.1-0.3 0.1q0.3-0.1 0.6-0.1c-0.1 0-0.2 0-0.3 0zm101.6 31.5c-9.3 1.3-14.5 9.7-18.8 10.8-5.5 1.5-9.3-5.6-14.2-3.2-2 1-18.2 20.6-20.4 23.8-0.1 6.3-0.6 14.9-6.8 18.1-1.2 12.7 2.1 26-2.3 38.4 3.5 3 25.1-7.4 29.3-10.3 13.5-9.3 41.5-41.9 47.2-56.9 6-15.7 6.7-23.8-14-20.7z"/>
		<g id="&lt;Group&gt;">
			<path id="&lt;Compound Path&gt;" fill-rule="evenodd" class="s0" d="m1119.5 779.7q-16.4 16.5-39.7 16.5-23.3 0-39.7-16.5-16.3-16.5-16.3-39.8 0-23.2 16.5-39.6 16.3-16.4 39.5-16.4 23.3 0 39.7 16.4 16.4 16.3 16.4 39.6 0 23.3-16.4 39.8zm-73.8-73.9q-14.1 14.1-14.1 34.1 0 20.2 14 34.4 14.1 14.2 34.2 14.2 20 0 34.1-14.2 14.1-14.2 14.1-34.4 0-20-14.1-34.1-14.1-14.2-34.1-14.2-20 0-34.1 14.2zm33 3.1q11.4 0 16.8 2.2 9.5 4 9.5 15.6 0 8.3-6 12.2-3.2 2.1-8.9 3 7.3 1.1 10.6 6 3.3 4.9 3.3 9.5v4.5q0 2.2 0.2 4.6 0.2 2.5 0.5 3.2l0.4 0.8h-10.1q-0.1-0.3-0.2-0.6-0.1-0.3-0.1-0.7l-0.3-2v-4.9q0-10.6-5.8-14-3.4-2-12.1-2h-8.5v24.2h-10.9v-61.6zm11.8 9.7q-4.1-2.3-13.2-2.3h-9.3v22.3h9.9q6.8 0 10.3-1.3 6.4-2.6 6.4-9.7 0-6.7-4.1-9z"/>
		</g>
		<path id="&lt;Path&gt;" class="s1" d="m968.5 7.7c-4.3-0.2-12.4 3.8-16.5 5.9-29.4 14.7-73.6 70.9-94.2 98.1-4 5.3-19.2 33-22.8 33.8-3.2 0.6-3.9-1.8-5.3-3.8-9.6-12.8-18.1-39.2-27.2-54.2-9.9-16.5-18.8-23.6-38-27.6-12.2-2.5-35.4-7.7-34.9 9.8 0.4 15.3 5.7 11.3 14.4 17.4 5.3 3.8 12 8.4 16.1 13.3 7.4 8.9 40.7 68.7 43.3 78.9 3.9 15.4-9.6 21.6-13.8 36-22.6 21.2-31.4 48.5-49.4 71.6-1.4 1.8-4.1 2.5-5.6 4.5-5.6 7.3-17.5 30.4-25.3 32.5 1.3 13.1 34.3 30.4 47.5 26.1l73.7-114.2c21.3 43.4 44.6 85.8 69 127.7 10.1 7.7 38.3 14.4 47.9 4.6 2.4-2.6 1.4-2.5 0.3-5-3.4-8-13-19-17.6-27.8-19.2-36.7-38.4-74-56-111.4-9.1-19.3-19.9-18.7-5.9-43.1 20.8-36.2 79.1-106.8 111.4-134 6.1-5.1 29.1-11.5 17.4-24.5-1.1-1.2-26.3-14.5-28.5-14.6z"/>
		<path id="&lt;Compound Path&gt;" fill-rule="evenodd" class="s2" d="m709.3 323.9c-1.6 0.4-4.7 0-6.8 0-7.4 6.3-26.6-0.1-29-8.4-4.3-14.8 11.6-85.5-1.6-88.7-3.3-0.8-4.9 2.9-6.6 4.7-10.4 11-33.2 53.3-38.3 68-2.6 7.8-5.3 32.9-7.2 35.8-5.8 9.1-34.8 0.7-38.2-7.4-1.4-3.5-3.4-22.9-3.5-27.9-0.2-6.9 6.1-15.6-1.4-21.2-8.2 7.1-15.3 14.5-22.5 22.7-2 2.3-7 3.8-7.6 4.8-4.7 8.6-1 13.1-15.2 22.2-27.7 17.7-64.8 18.8-85.9-9.3l-12.6-22.4c0.3 12.4-0.5 25-0.1 37.4 0.3 12 9 24.3-12.5 22.5-27.9-2.3-25.1-27.8-21.5-48.6-17.4 24.8-34.2 36-63.5 19.3-9.2-5.2-23.2-23.9-24.7-34.1-2.5-17.3 12.9-61.8 22.9-76.3 17-24.7 39.7-38.3 69.9-26.4 0-29.5 8.1-58.7 4.5-88.1 41.6-3.1 38.4 20.4 36.2 53.1-1.1 18.1-1.3 42.3-2.9 58.5-0.6 7.1-9.9 18.2-6.1 28.5 8.4-5.2 10.2-15.6 17-22.6 6.4-6.4 35-25.1 43.6-26.6 18.1-3.1 30.1 0.2 43.7 11.9 8 7 17.5 19.5 12.4 30.5-2.8 6.1-42.6 32.9-50.9 37.3-10.8 5.8-34.1 19.5-43.1 10.2 0.9 18.6 6.9 32.3 28.1 29.2 24.3-3.5 62.5-42.5 84.3-56.1 2.9-1.8 9.2-2.2 9.7-2.8 4.3-4.9-6.4-47 0.5-51.3 21.6-2.7 40.3 13.5 36 35.8 5.6-5.5 7.8-13.3 12.6-20.2 1.7-2.3 11.2-13.5 12.9-14.4 10.4-5.3 32.6-5 40.2 5.2 15.9 5.3 24.9 10.8 28.4 29.2 3.6 18.6 1.3 51.1 1 71.3-0.1 5-2.8 9.4-2.2 14.7zm-237.9-72.3c14.8-10.4 33-18.3 45.3-31.6-11.2 0-19.6 8.4-29.4 12.5zm-72.5-38.4c-1.5-1.5-23.8 7.5-26.5 9.8-8.5 7.1-26.1 43.6-27.8 54.7-0.7 5.1-1.7 31.6 3.4 32.6 9.2 1.9 27.4-33.3 31.4-40.9 4.1-8 24.9-50.4 19.5-56.2z"/>
		<path id="&lt;Compound Path&gt;" fill-rule="evenodd" class="s2" d="m308 259.3c-2.2 16.6-36.9 58.5-50.7 69.1-30.9 23.9-50.6 15.3-71.4-13.5-2.9-4.1-8.3-7.5-10.3-13.5-0.8-2.3-5.6-20.4-5.6-21.5v-44.1c-6.4 7.8-15.2 17.7-20.4 26-4.3 6.9-21.4 34.4-23.6 39.7-4.6 11.2-2.1 36.2-20.4 36.1-1.5 0-1.2-3.9-2.8-4.7-8.9-4.4-15-4.8-19.9-15.9-1.3-20.9 1.3-43.1 3.3-64.2l-4.5-1.2c-8.3 14.4-15.3 29.5-22.2 44.5-1.6 3.4-5.1 5.5-6.7 9.2-7.5 17.5 2 44.2-25.5 33.3-20.4-8.2-21.3-27.2-22.7-47.4-0.7-9.3-1.9-78.7 0.5-82.1 3.6-5.2 24.4 5.5 27.8 8.7 8.7 8.5 4.4 36.1 6.9 36.1-0.5-9.5 6-9.5 8.6-14.2 3-5.3 7.1-18.9 10.1-23.5 8.6-13 11.6-18 28.5-11.5 2.7 1 3.5 3.9 3.7 4 17 8.4 28.3 14.5 29.5 36.1l15.8-23.6c18.8-17.3 22.8-41.1 51.6-19.8 5.9 4.4 11.2 8.2 11.9 16.4 7 4.8 6-3.8 10-8.3 14.8-16.8 21.7-0.1 27.1-1 2.6-0.5 6.3-7.5 14-8.7 30.9-4.8 61.5 28.9 57.4 59.5zm-143.1-63.8c-0.1 0-0.2 0.1-0.3 0.1q0.3-0.1 0.6-0.2c-0.1 0.1-0.2 0.1-0.3 0.1zm101.6 31.4c-9.3 1.4-14.5 9.7-18.8 10.9-5.5 1.4-9.3-5.6-14.2-3.2-2 1-18.2 20.5-20.4 23.8-0.1 6.2-0.6 14.9-6.8 18.1-1.2 12.7 2.1 26-2.3 38.4 3.5 3 25.1-7.4 29.3-10.3 13.5-9.4 41.5-41.9 47.2-56.9 6-15.7 6.7-23.8-14-20.8z"/>
		<g id="&lt;Group&gt;">
			<path id="&lt;Compound Path&gt;" fill-rule="evenodd" class="s3" d="m1119.5 102.8q-16.4 16.5-39.7 16.5-23.3 0-39.7-16.5-16.3-16.4-16.3-39.8 0-23.1 16.5-39.5 16.3-16.4 39.5-16.4 23.3 0 39.7 16.4 16.4 16.3 16.4 39.5 0 23.3-16.4 39.8zm-73.8-73.8q-14.1 14.1-14.1 34.1 0 20.2 14 34.4 14.1 14.2 34.2 14.2 20 0 34.1-14.2 14.1-14.2 14.1-34.4 0-20-14.1-34.1-14.1-14.3-34.1-14.3-20 0-34.1 14.3zm33 3.1q11.4 0 16.8 2.2 9.5 4 9.5 15.6 0 8.3-6 12.2-3.2 2-8.9 3 7.3 1.1 10.6 6 3.3 4.9 3.3 9.5v4.5q0 2.2 0.2 4.6 0.2 2.4 0.5 3.2l0.4 0.8h-10.1q-0.1-0.3-0.2-0.6-0.1-0.3-0.1-0.7l-0.3-2v-4.9q0-10.6-5.8-14.1-3.4-2-12.1-2h-8.5v24.3h-10.9v-61.6zm11.8 9.7q-4.1-2.3-13.2-2.3h-9.3v22.3h9.9q6.8 0 10.3-1.4 6.4-2.5 6.4-9.6 0-6.7-4.1-9z"/>
		</g>
	</g>
</svg>