<svg width="251" height="81" viewBox="0 0 251 81" fill="none" xmlns="http://www.w3.org/2000/svg">
<path d="M213.711 0.232553C212.761 0.188392 210.973 1.07161 210.068 1.5353C203.576 4.78111 193.816 17.1903 189.268 23.1962C188.385 24.3664 185.028 30.4827 184.234 30.6593C183.527 30.7918 183.372 30.2619 183.063 29.8203C180.944 26.994 179.067 21.1648 177.057 17.8527C174.871 14.2094 172.906 12.6417 168.667 11.7585C165.973 11.2065 160.85 10.0583 160.961 13.9224C161.049 17.3007 162.219 16.4175 164.14 17.7644C165.311 18.6034 166.79 19.6191 167.695 20.7011C169.329 22.6662 176.682 35.8703 177.256 38.1225C178.117 41.5229 175.136 42.8919 174.209 46.0714C169.219 50.7525 167.276 56.7804 163.301 61.881C162.992 62.2784 162.396 62.433 162.065 62.8746C160.828 64.4865 158.201 69.587 156.479 70.0507C156.766 72.9433 164.052 76.7632 166.967 75.8137L183.24 50.5979C187.943 60.1808 193.088 69.5429 198.475 78.7946C200.706 80.4947 206.932 81.9741 209.052 79.8103C209.582 79.2362 209.361 79.2582 209.118 78.7062C208.367 76.9398 206.248 74.511 205.232 72.5679C200.993 64.4644 196.753 56.2284 192.867 47.9703C190.858 43.7088 188.473 43.8413 191.564 38.4537C196.157 30.4606 209.03 14.8718 216.162 8.86598C217.509 7.73989 222.587 6.32674 220.004 3.45629C219.761 3.19133 214.197 0.254633 213.711 0.232553Z" fill="#074BB6"/>
<path fill-rule="evenodd" clip-rule="evenodd" d="M156.478 70.0508C156.125 70.1392 155.441 70.0508 154.977 70.0508C153.343 71.4419 149.104 70.0288 148.574 68.1961C147.624 64.9282 151.135 49.3173 148.22 48.6108C147.492 48.4341 147.138 49.2511 146.763 49.6486C144.467 52.0774 139.432 61.4174 138.306 64.6632C137.732 66.3855 137.136 71.9277 136.717 72.568C135.436 74.5773 129.033 72.7226 128.282 70.934C127.973 70.1612 127.531 65.8776 127.509 64.7736C127.465 63.2501 128.856 61.3291 127.2 60.0926C125.389 61.6603 123.822 63.2942 122.232 65.1048C121.79 65.6127 120.686 65.9439 120.554 66.1647C119.516 68.0636 120.333 69.0572 117.197 71.0665C111.081 74.9748 102.889 75.2176 98.2304 69.0131L95.4483 64.067C95.5145 66.805 95.3379 69.5871 95.4262 72.3251C95.4924 74.9748 97.4134 77.6906 92.6662 77.2932C86.5057 76.7854 87.124 71.1549 87.9189 66.5621C84.0769 72.0381 80.3674 74.5111 73.8978 70.8236C71.8664 69.6755 68.7752 65.5464 68.444 63.2942C67.892 59.4743 71.2924 49.6486 73.5004 46.4469C77.2541 40.993 82.2663 37.9901 88.9346 40.6177C88.9346 34.104 90.7231 27.6565 89.9282 21.1649C99.1136 20.4804 98.4071 25.6693 97.9213 32.8895C97.6784 36.8861 97.6343 42.2295 97.281 45.8066C97.1485 47.3743 95.095 49.8252 95.9341 52.0995C97.7888 50.9513 98.1863 48.6549 99.6877 47.1093C101.101 45.6962 107.416 41.5671 109.315 41.2359C113.311 40.5514 115.961 41.2801 118.964 43.8635C120.73 45.4091 122.828 48.1692 121.702 50.598C121.084 51.9449 112.296 57.8625 110.463 58.834C108.078 60.1147 102.934 63.1397 100.946 61.0862C101.145 65.1931 102.47 68.2182 107.151 67.5337C112.516 66.7609 120.951 58.1495 125.765 55.1466C126.405 54.7491 127.796 54.6608 127.906 54.5283C128.856 53.4464 126.493 44.1505 128.017 43.2011C132.786 42.6049 136.915 46.1819 135.966 51.1059C137.202 49.8914 137.688 48.1692 138.748 46.6456C139.123 46.1378 141.221 43.6648 141.596 43.466C143.893 42.2958 148.794 42.362 150.473 44.6142C153.983 45.7845 155.971 46.9989 156.743 51.0617C157.538 55.1687 157.03 62.3448 156.964 66.805C156.942 67.909 156.346 68.8806 156.478 70.0508ZM103.949 54.0867C107.217 51.7904 111.236 50.046 113.952 47.1093C111.479 47.1093 109.624 48.9641 107.46 49.8694L103.949 54.0867ZM87.941 45.6078C87.6098 45.2766 82.6858 47.2639 82.0897 47.7717C80.2128 49.3394 76.3267 57.3988 75.9513 59.8497C75.7968 60.9758 75.5759 66.8271 76.702 67.0479C78.7334 67.4674 82.7521 59.6951 83.6353 58.017C84.5406 56.2506 89.1333 46.8885 87.941 45.6078Z" fill="#212021"/>
<path fill-rule="evenodd" clip-rule="evenodd" d="M67.8698 55.7869C67.3841 59.4523 59.7222 68.704 56.6751 71.0445C49.8522 76.3217 45.5024 74.4228 40.9097 68.0636C40.2693 67.1583 39.077 66.4076 38.6354 65.0828C38.4588 64.5749 37.3989 60.5784 37.3989 60.3355V50.598C35.9858 52.3203 34.0427 54.5063 32.8945 56.3389C31.945 57.8625 28.1693 63.9346 27.6835 65.1049C26.6678 67.5779 27.2198 73.098 23.1791 73.0759C22.8479 73.0759 22.9142 72.2147 22.5609 72.0381C20.5957 71.0666 19.2488 70.9782 18.1669 68.5273C17.8798 63.9125 18.4539 59.0107 18.8955 54.3517L17.9019 54.0867C16.0692 57.2663 14.5236 60.6005 13.0001 63.9125C12.6468 64.6633 11.874 65.1269 11.5207 65.9439C9.86466 69.808 11.9623 75.7034 5.89019 73.2967C1.3858 71.4861 1.18707 67.2908 0.877948 62.8306C0.723386 60.7771 0.458421 45.4533 0.98835 44.7026C1.78324 43.5544 6.37596 45.917 7.12669 46.6236C9.04769 48.5004 8.09823 54.5946 8.65024 54.5946C8.53984 52.497 9.97506 52.497 10.5492 51.4592C11.2116 50.2889 12.1169 47.286 12.7793 46.2703C14.6782 43.3998 15.3406 42.2958 19.0722 43.731C19.6684 43.9519 19.845 44.5922 19.8892 44.6143C23.6428 46.469 26.1379 47.8159 26.4029 52.5853L29.8916 47.3743C34.0427 43.5544 34.9259 38.2993 41.285 43.0024C42.5878 43.9739 43.758 44.813 43.9126 46.6236C45.4582 47.6834 45.2374 45.7845 46.1207 44.7909C49.3885 41.0814 50.9121 44.7688 52.1044 44.5701C52.6785 44.4597 53.4955 42.9141 55.1957 42.6491C62.0185 41.5892 68.7751 49.0303 67.8698 55.7869ZM36.2728 41.6997C36.2507 41.6997 36.2286 41.7217 36.2066 41.7217C36.2507 41.707 36.2949 41.6923 36.339 41.6776C36.317 41.6996 36.2949 41.6997 36.2728 41.6997ZM58.7065 48.6329C56.653 48.942 55.5048 50.7747 54.5554 51.0397C53.3409 51.3488 52.5019 49.8032 51.4199 50.3331C50.9783 50.5539 47.4013 54.8596 46.9155 55.5882C46.8935 56.9572 46.7831 58.8782 45.4141 59.5848C45.1491 62.389 45.8778 65.3257 44.9062 68.0636C45.679 68.726 50.4484 66.4297 51.3758 65.7894C54.3566 63.7138 60.5391 56.5377 61.7977 53.2256C63.1225 49.759 63.2771 47.9705 58.7065 48.6329Z" fill="#212021"/>
<path fill-rule="evenodd" clip-rule="evenodd" d="M247.052 21.231C244.638 23.6599 241.716 24.8743 238.286 24.8743C234.857 24.8743 231.935 23.6599 229.52 21.231C227.121 18.8169 225.921 15.8876 225.921 12.443C225.921 9.04265 227.136 6.1354 229.565 3.72128C231.964 1.30716 234.871 0.100098 238.286 0.100098C241.716 0.100098 244.638 1.30716 247.052 3.72128C249.466 6.12068 250.673 9.02793 250.673 12.443C250.673 15.8729 249.466 18.8022 247.052 21.231ZM230.757 4.9357C228.681 7.01126 227.644 9.52106 227.644 12.4651C227.644 15.4386 228.674 17.9705 230.735 20.0608C232.81 22.151 235.328 23.1962 238.286 23.1962C241.23 23.1962 243.74 22.151 245.816 20.0608C247.891 17.9705 248.929 15.4386 248.929 12.4651C248.929 9.52106 247.891 7.01126 245.816 4.9357C243.74 2.83071 241.23 1.77821 238.286 1.77821C235.342 1.77821 232.833 2.83071 230.757 4.9357ZM238.043 5.6202C239.722 5.6202 240.958 5.78212 241.753 6.10596C243.151 6.69477 243.851 7.84295 243.851 9.5505C243.851 10.7723 243.409 11.6702 242.526 12.2443C242.055 12.5387 241.4 12.7595 240.561 12.9067C241.635 13.0686 242.415 13.5103 242.901 14.2315C243.387 14.9528 243.63 15.652 243.63 16.3292V17.3228C243.63 17.6466 243.645 17.9852 243.674 18.3385C243.703 18.6918 243.74 18.9273 243.784 19.0451L243.873 19.2217H241.643C241.628 19.1775 241.613 19.1334 241.598 19.0892C241.584 19.0451 241.576 18.9935 241.576 18.9347L241.51 18.4931V17.4111C241.51 15.8508 241.083 14.813 240.229 14.2978C239.729 14.0034 238.838 13.8562 237.558 13.8562H235.681V19.2217H233.274V5.6202H238.043ZM240.649 7.76199C240.045 7.42343 239.074 7.25414 237.734 7.25414H235.681V12.1781H237.867C238.868 12.1781 239.626 12.075 240.141 11.8689C241.083 11.5009 241.554 10.7944 241.554 9.74923C241.554 8.76297 241.253 8.10056 240.649 7.76199Z" fill="black"/>
</svg>
