<?xml version="1.0" encoding="UTF-8"?>
<svg id="Layer_1" data-name="Layer 1" xmlns="http://www.w3.org/2000/svg" viewBox="0 0 250 100">
  <defs>
    <style>
      .cls-1 {
        fill: #212021;
      }

      .cls-2 {
        fill: #074bb6;
      }
    </style>
  </defs>
  <path class="cls-2" d="M220.2,12.73c-.87-.05-2.54.78-3.38,1.2-6,3.01-15,14.46-19.21,20.03-.81,1.08-3.91,6.72-4.66,6.88-.65.14-.79-.37-1.08-.76-1.96-2.63-3.69-8.01-5.54-11.07-2.03-3.37-3.85-4.81-7.76-5.63-2.49-.52-7.22-1.57-7.13,1.99.08,3.13,1.17,2.31,2.94,3.56,1.08.76,2.46,1.71,3.29,2.71,1.5,1.81,8.3,14.01,8.82,16.09.8,3.15-1.95,4.42-2.82,7.36-4.6,4.31-6.4,9.88-10.07,14.6-.28.36-.84.51-1.15.93-1.13,1.49-3.55,6.19-5.16,6.63.27,2.67,7.01,6.2,9.7,5.32l15.03-23.3c4.35,8.85,9.1,17.49,14.09,26.05,2.06,1.56,7.81,2.95,9.76.93.5-.51.28-.51.07-1.02-.7-1.64-2.64-3.87-3.59-5.68-3.92-7.49-7.83-15.1-11.43-22.72-1.86-3.94-4.06-3.82-1.2-8.79,4.25-7.39,16.14-21.81,22.72-27.36,1.24-1.05,5.95-2.34,3.56-4.99-.22-.24-5.38-2.96-5.82-2.98Z"/>
  <path class="cls-1" d="M167.75,74.25c.07-4.12.54-10.74-.19-14.54-.72-3.76-2.55-4.89-5.81-5.96-1.54-2.09-6.08-2.14-8.2-1.07-.35.18-2.29,2.47-2.63,2.95-.99,1.39-1.44,2.99-2.58,4.11.87-4.54-2.93-7.84-7.34-7.31-1.42.89.78,9.48-.11,10.49-.1.11-1.38.2-1.97.56-4.45,2.77-12.25,10.72-17.2,11.44-4.34.63-5.55-2.17-5.74-5.97,1.83,1.91,6.6-.9,8.79-2.06,1.69-.9,9.82-6.37,10.4-7.62,1.03-2.24-.89-4.8-2.54-6.22-2.77-2.39-5.22-3.05-8.91-2.42-1.75.3-7.59,4.11-8.89,5.43-1.39,1.41-1.76,3.55-3.47,4.6-.79-2.09,1.1-4.37,1.24-5.82.32-3.29.35-8.23.59-11.93.43-6.67,1.09-11.46-7.39-10.83.74,5.98-.93,11.95-.92,17.98-6.16-2.43-10.79.34-14.26,5.38-2.04,2.97-5.19,12.04-4.67,15.56.31,2.1,3.16,5.91,5.03,6.97,5.99,3.4,9.4,1.11,12.97-3.94-.74,4.24-1.31,9.46,4.38,9.92,4.39.36,2.61-2.14,2.54-4.6-.08-2.53.09-5.09.02-7.62l2.57,4.58c4.32,5.72,11.89,5.5,17.55,1.88,2.89-1.85,2.13-2.77,3.1-4.52.11-.2,1.12-.51,1.54-.99,1.46-1.66,2.92-3.19,4.6-4.64,1.53,1.15.23,2.92.28,4.32.03,1.02.43,4.99.73,5.7.68,1.65,6.6,3.36,7.8,1.51.38-.59.93-5.71,1.47-7.29,1.03-3.02,5.68-11.63,7.8-13.89.35-.37.68-1.11,1.34-.96,2.71.64-.55,15.07.33,18.11.49,1.69,4.4,2.99,5.91,1.71.43-.01,1.06.09,1.39,0-.11-1.07.43-1.99.45-3.01ZM122,58.6c2-.84,3.72-2.55,6-2.55-2.51,2.7-6.22,4.32-9.24,6.45l3.25-3.9ZM99.97,66.14c-.81,1.56-4.51,8.73-6.41,8.35-1.03-.2-.83-5.61-.68-6.66.33-2.27,3.93-9.73,5.66-11.17.55-.46,5.11-2.3,5.4-1.99,1.11,1.19-3.13,9.84-3.98,11.47Z"/>
  <path class="cls-1" d="M73.7,51.93c-1.57.24-2.34,1.68-2.87,1.77-1.1.19-2.49-3.22-5.53.21-.81.92-.6,2.67-2.04,1.68-.15-1.67-1.23-2.43-2.44-3.33-5.87-4.35-6.67.5-10.52,4.03l-3.22,4.83c-.26-4.41-2.55-5.66-6.02-7.37-.05-.03-.21-.61-.77-.82-3.45-1.32-4.06-.3-5.81,2.35-.62.93-1.44,3.7-2.05,4.8-.54.96-1.86.95-1.76,2.89-.5,0,.37-5.63-1.41-7.36-.69-.67-4.94-2.84-5.68-1.78-.48.69-.24,14.84-.1,16.75.29,4.12.47,7.99,4.65,9.65,5.61,2.24,3.67-3.22,5.2-6.78.33-.77,1.04-1.18,1.36-1.87,1.42-3.07,2.84-6.15,4.54-9.08l.92.23c-.43,4.3-.95,8.83-.68,13.11.99,2.26,2.24,2.33,4.06,3.24.33.16.27.95.57.95,3.74.02,3.23-5.08,4.18-7.37.45-1.08,3.94-6.69,4.81-8.09,1.06-1.71,2.85-3.73,4.17-5.31v8.99c0,.23.98,3.92,1.14,4.39.41,1.22,1.5,1.92,2.1,2.75,4.24,5.88,8.26,7.64,14.56,2.77,2.81-2.17,9.91-10.72,10.36-14.1.83-6.26-5.41-13.12-11.72-12.15ZM56.27,51.04s-.08.02-.12.03c.02,0,.04-.02.05-.02.02,0,.04,0,.06,0ZM79.8,61.71c-1.16,3.05-6.89,9.7-9.63,11.6-.86.59-5.27,2.72-5.98,2.1.89-2.53.23-5.24.46-7.83,1.26-.64,1.37-2.42,1.39-3.69.45-.67,3.76-4.66,4.18-4.86.99-.48,1.77.95,2.89.66.87-.23,1.94-1.93,3.83-2.21,4.23-.63,4.08,1.03,2.86,4.24Z"/>
</svg>