<svg width="251" height="82" viewBox="0 0 251 82" fill="none" xmlns="http://www.w3.org/2000/svg">
<path d="M213.711 0.632455C212.761 0.588294 210.973 1.47152 210.068 1.9352C203.576 5.18102 193.816 17.5902 189.268 23.5961C188.385 24.7663 185.028 30.8826 184.234 31.0592C183.527 31.1917 183.372 30.6618 183.063 30.2422C180.944 27.3939 179.067 21.5647 177.057 18.2526C174.871 14.6093 172.906 13.0416 168.667 12.1584C165.973 11.6064 160.85 10.4582 160.961 14.3223C161.049 17.7006 162.219 16.8174 164.14 18.1643C165.311 19.0033 166.79 20.019 167.695 21.101C169.329 23.0661 176.682 36.2702 177.256 38.5224C178.117 41.9228 175.136 43.2918 174.209 46.4934C169.219 51.1524 167.276 57.1803 163.301 62.2809C162.992 62.6783 162.396 62.8329 162.065 63.2966C160.828 64.8864 158.201 69.987 156.479 70.4506C156.766 73.3432 164.052 77.1631 166.967 76.2136L183.24 50.9978C187.943 60.5807 193.088 69.9428 198.475 79.1945C200.706 80.8947 206.932 82.3961 209.052 80.2102C209.582 79.6582 209.361 79.6582 209.118 79.1061C208.367 77.3397 206.248 74.9109 205.232 72.9678C200.993 64.8643 196.753 56.6283 192.867 48.3703C190.858 44.1087 188.473 44.2412 191.564 38.8757C196.157 30.8605 209.03 15.2717 216.162 9.26588C217.509 8.13978 222.587 6.72664 220.004 3.85619C219.761 3.59122 214.197 0.676616 213.711 0.632455Z" fill="#DCF343"/>
<path fill-rule="evenodd" clip-rule="evenodd" d="M156.478 70.4507C156.125 70.5611 155.441 70.4507 154.977 70.4507C153.343 71.8418 149.104 70.4286 148.574 68.596C147.624 65.3281 151.135 49.7172 148.22 49.0107C147.492 48.834 147.138 49.651 146.763 50.0485C144.467 52.4994 139.432 61.8173 138.306 65.0852C137.732 66.7854 137.136 72.3275 136.717 72.9679C135.436 74.9772 129.033 73.1225 128.282 71.3339C127.973 70.5611 127.531 66.2775 127.509 65.1735C127.465 63.65 128.856 61.729 127.2 60.4925C125.389 62.0602 123.822 63.7162 122.232 65.5047C121.79 66.0126 120.686 66.3658 120.554 66.5646C119.516 68.4635 120.333 69.4571 117.197 71.4664C111.081 75.3747 102.889 75.6175 98.2304 69.435L95.4483 64.4669C95.5145 67.2049 95.3379 69.987 95.4262 72.725C95.4924 75.3967 97.4134 78.0905 92.6662 77.6931C86.5057 77.2073 87.124 71.5547 87.9189 66.962C84.0769 72.438 80.3674 74.911 73.8978 71.2235C71.8664 70.0754 68.7752 65.9684 68.444 63.6941C67.892 59.8742 71.2924 50.0705 73.5004 46.8468C77.2541 41.3929 82.2663 38.39 88.9346 41.0396C88.9346 34.5038 90.7231 28.0564 89.9282 21.5868C99.1136 20.8803 98.4071 26.0691 97.9213 33.2894C97.6784 37.3081 97.6343 42.6294 97.281 46.2065C97.1485 47.7742 95.095 50.2251 95.9341 52.4994C97.7888 51.3512 98.1863 49.0548 99.6877 47.5092C101.101 46.0961 107.416 41.967 109.315 41.6579C113.311 40.9734 115.961 41.68 118.964 44.2634C120.73 45.809 122.828 48.569 121.702 50.9979C121.084 52.3448 112.296 58.2623 110.463 59.2339C108.078 60.5145 102.934 63.5395 100.946 61.4861C101.145 65.593 102.47 68.6181 107.151 67.9336C112.516 67.1607 120.951 58.5494 125.765 55.5465C126.405 55.149 127.796 55.0607 127.906 54.9503C128.856 53.8463 126.493 44.5504 128.017 43.601C132.786 43.0269 136.915 46.5818 135.966 51.5058C137.202 50.2913 137.688 48.5691 138.748 47.0676C139.123 46.5377 141.221 44.0647 141.596 43.8659C143.893 42.6957 148.794 42.7619 150.473 45.0141C153.983 46.1844 155.971 47.3988 156.743 51.4837C157.538 55.5685 157.03 62.7447 156.964 67.2049C156.942 68.3089 156.346 69.3026 156.478 70.4507ZM103.949 54.4866C107.217 52.1902 111.236 50.4459 113.952 47.5092C111.479 47.5092 109.624 49.364 107.46 50.2693L103.949 54.4866ZM87.941 46.0077C87.6098 45.6765 82.6858 47.6638 82.0897 48.1716C80.2128 49.7393 76.3267 57.7987 75.9513 60.2496C75.7968 61.3978 75.5759 67.2491 76.702 67.4699C78.7334 67.8673 82.7521 60.1171 83.6353 58.4169C84.5406 56.6726 89.1333 47.2884 87.941 46.0077Z" fill="white"/>
<path fill-rule="evenodd" clip-rule="evenodd" d="M67.8698 56.2088C67.3841 59.8521 59.7222 69.1037 56.6751 71.4443C49.8522 76.7215 45.5024 74.8226 40.9097 68.4634C40.2693 67.5581 39.077 66.8074 38.6354 65.4826C38.4588 64.9747 37.3989 60.9782 37.3989 60.7353V50.9978C35.9858 52.7201 34.0427 54.906 32.8945 56.7387C31.945 58.2623 28.1693 64.3344 27.6835 65.5046C26.6678 67.9776 27.2198 73.4977 23.1791 73.4757C22.8479 73.4757 22.9142 72.6366 22.5609 72.4379C20.5957 71.4663 19.2488 71.378 18.1669 68.9492C17.8798 64.3123 18.4539 59.4104 18.8955 54.7515L17.9019 54.5086C16.0692 57.6661 14.5236 61.0002 13.0001 64.3123C12.6468 65.063 11.874 65.5267 11.5207 66.3437C9.86466 70.2077 11.9623 76.1032 5.89019 73.6965C1.3858 71.8859 1.18707 67.6906 0.877948 63.2524C0.723386 61.1769 0.458421 45.8531 0.98835 45.1244C1.78324 43.9542 6.37596 46.3168 7.12669 47.0454C9.04769 48.9223 8.09823 54.9944 8.65024 54.9944C8.53984 52.8967 9.97506 52.9188 10.5492 51.881C11.2116 50.6887 12.1169 47.6858 12.7793 46.6701C14.6782 43.7996 15.3406 42.6956 19.0722 44.1308C19.6684 44.3737 19.845 44.9919 19.8892 45.014C23.6428 46.8688 26.1379 48.2157 26.4029 53.0071L29.8916 47.7741C34.0427 43.9542 34.9259 38.6991 41.285 43.4022C42.5878 44.3737 43.758 45.2127 43.9126 47.0233C45.4582 48.0832 45.2374 46.1843 46.1207 45.1907C49.3885 41.4812 50.9121 45.1686 52.1044 44.9699C52.6785 44.8595 53.4955 43.3138 55.1957 43.0489C62.0185 42.0111 68.7751 49.4301 67.8698 56.2088ZM36.2728 42.0994C36.2507 42.0994 36.2286 42.1215 36.2066 42.1215C36.2507 42.1068 36.2949 42.0994 36.339 42.0994C36.317 42.0994 36.2949 42.0994 36.2728 42.0994ZM58.7065 49.0327C56.653 49.3418 55.5048 51.1965 54.5554 51.4394C53.3409 51.7706 52.5019 50.2029 51.4199 50.7329C50.9783 50.9537 47.4013 55.2814 46.9155 55.988C46.8935 57.357 46.7831 59.278 45.4141 59.9845C45.1491 62.7887 45.8778 65.7254 44.9062 68.4634C45.679 69.1258 50.4484 66.8295 51.3758 66.1891C54.3566 64.1356 60.5391 56.9374 61.7977 53.6254C63.1225 50.1588 63.2771 48.3703 58.7065 49.0327Z" fill="white"/>
<path fill-rule="evenodd" clip-rule="evenodd" d="M247.052 21.6309C244.638 24.0745 241.716 25.2963 238.286 25.2963C234.857 25.2963 231.935 24.0745 229.52 21.6309C227.121 19.2168 225.921 16.2875 225.921 12.8429C225.921 9.44256 227.136 6.53531 229.565 4.12119C231.964 1.70707 234.871 0.5 238.286 0.5C241.716 0.5 244.638 1.70707 247.052 4.12119C249.466 6.52059 250.673 9.42784 250.673 12.8429C250.673 16.2728 249.466 19.2021 247.052 21.6309ZM230.757 5.33561C228.681 7.41117 227.644 9.92096 227.644 12.865C227.644 15.8385 228.674 18.3704 230.735 20.4607C232.81 22.5509 235.328 23.5961 238.286 23.5961C241.23 23.5961 243.74 22.5509 245.816 20.4607C247.891 18.3704 248.929 15.8385 248.929 12.865C248.929 9.92096 247.891 7.41117 245.816 5.33561C243.74 3.24533 241.23 2.20018 238.286 2.20018C235.342 2.20018 232.833 3.24533 230.757 5.33561ZM238.043 6.0201C239.722 6.0201 240.958 6.18201 241.753 6.50585C243.151 7.09466 243.851 8.24287 243.851 9.95042C243.851 11.1722 243.409 12.0701 242.526 12.6442C242.055 12.9386 241.4 13.1594 240.561 13.3066C241.635 13.4685 242.415 13.9102 242.901 14.6314C243.387 15.3527 243.63 16.052 243.63 16.7291V17.7227C243.63 18.0465 243.645 18.3851 243.674 18.7384C243.703 19.1064 243.74 19.3419 243.784 19.445L243.873 19.6216H241.643C241.628 19.5774 241.613 19.5333 241.598 19.4891C241.584 19.445 241.576 19.3935 241.576 19.3346L241.51 18.893V17.811C241.51 16.2507 241.083 15.2129 240.229 14.6977C239.729 14.418 238.838 14.2782 237.558 14.2782H235.681V19.6216H233.274V6.0201H238.043ZM240.649 8.16188C240.045 7.82332 239.074 7.65405 237.734 7.65405H235.681V12.578H237.867C238.868 12.578 239.626 12.4749 240.141 12.2689C241.083 11.9008 241.554 11.1943 241.554 10.1491C241.554 9.16286 241.253 8.50045 240.649 8.16188Z" fill="white"/>
</svg>
