<svg width="318" height="95" viewBox="0 0 318 95" fill="none" xmlns="http://www.w3.org/2000/svg">
<path d="M305.44 0.169922H12.1C5.62169 0.169922 0.369995 5.42162 0.369995 11.8999V82.3099C0.369995 88.7882 5.62169 94.0399 12.1 94.0399H305.44C311.918 94.0399 317.17 88.7882 317.17 82.3099V11.8999C317.17 5.42162 311.918 0.169922 305.44 0.169922Z" fill="black"/>
<path d="M305.44 2.04992C310.87 2.04992 315.3 6.46992 315.3 11.9099V82.3099C315.3 87.7399 310.88 92.1699 305.44 92.1699H12.1C6.66999 92.1699 2.23999 87.7499 2.23999 82.3099V11.8999C2.23999 6.46992 6.65999 2.03992 12.1 2.03992H305.44M305.44 0.169922H12.1C5.64999 0.169922 0.369995 5.44992 0.369995 11.8999V82.2999C0.369995 88.7499 5.64999 94.0299 12.1 94.0299H305.44C311.89 94.0299 317.17 88.7499 317.17 82.2999V11.8999C317.17 5.44992 311.89 0.169922 305.44 0.169922Z" fill="#A6A6A6"/>
<path d="M111.64 24.21C111.64 26.18 111.06 27.74 109.89 28.91C108.57 30.3 106.84 30.99 104.72 30.99C102.6 30.99 100.96 30.29 99.54 28.88C98.12 27.47 97.41 25.72 97.41 23.64C97.41 21.56 98.12 19.81 99.54 18.4C100.96 16.99 102.69 16.29 104.72 16.29C105.73 16.29 106.69 16.49 107.61 16.88C108.53 17.27 109.26 17.8 109.81 18.45L108.57 19.69C107.64 18.58 106.35 18.02 104.72 18.02C103.24 18.02 101.96 18.54 100.87 19.58C99.79 20.62 99.25 21.98 99.25 23.64C99.25 25.3 99.79 26.66 100.87 27.7C101.95 28.74 103.23 29.26 104.72 29.26C106.29 29.26 107.6 28.74 108.65 27.69C109.33 27.01 109.72 26.06 109.83 24.84H104.72V23.15H111.54C111.61 23.52 111.64 23.87 111.64 24.21Z" fill="white" stroke="white" stroke-width="0.2" stroke-miterlimit="10"/>
<path d="M122.46 18.3298H116.05V22.7898H121.83V24.4798H116.05V28.9398H122.46V30.6698H114.24V16.5898H122.46V18.3198V18.3298Z" fill="white" stroke="white" stroke-width="0.2" stroke-miterlimit="10"/>
<path d="M130.09 30.6801H128.28V18.3301H124.35V16.6001H134.03V18.3301H130.1V30.6801H130.09Z" fill="white" stroke="white" stroke-width="0.2" stroke-miterlimit="10"/>
<path d="M141.02 30.6801V16.6001H142.83V30.6801H141.02Z" fill="white" stroke="white" stroke-width="0.2" stroke-miterlimit="10"/>
<path d="M150.86 30.6801H149.05V18.3301H145.12V16.6001H154.8V18.3301H150.87V30.6801H150.86Z" fill="white" stroke="white" stroke-width="0.2" stroke-miterlimit="10"/>
<path d="M173.11 28.86C171.73 30.28 170 30.99 167.95 30.99C165.9 30.99 164.17 30.28 162.79 28.86C161.41 27.44 160.72 25.7 160.72 23.64C160.72 21.58 161.41 19.84 162.79 18.42C164.17 17 165.89 16.29 167.95 16.29C170.01 16.29 171.71 17.01 173.1 18.43C174.49 19.86 175.18 21.6 175.18 23.64C175.18 25.68 174.49 27.44 173.11 28.86ZM164.12 27.68C165.16 28.74 166.44 29.26 167.94 29.26C169.44 29.26 170.72 28.73 171.76 27.68C172.8 26.62 173.33 25.28 173.33 23.64C173.33 22 172.81 20.65 171.76 19.6C170.72 18.54 169.44 18.02 167.94 18.02C166.44 18.02 165.16 18.55 164.12 19.6C163.08 20.66 162.56 22 162.56 23.64C162.56 25.28 163.08 26.63 164.12 27.68Z" fill="white" stroke="white" stroke-width="0.2" stroke-miterlimit="10"/>
<path d="M177.72 30.6801V16.6001H179.92L186.76 27.5501H186.84L186.76 24.8401V16.6001H188.57V30.6801H186.68L179.52 19.2001H179.44L179.52 21.9101V30.6801H177.71H177.72Z" fill="white" stroke="white" stroke-width="0.2" stroke-miterlimit="10"/>
<path d="M160.26 51.2099C154.74 51.2099 150.24 55.4099 150.24 61.1899C150.24 66.9699 154.74 71.1699 160.26 71.1699C165.78 71.1699 170.28 66.9399 170.28 61.1899C170.28 55.4399 165.78 51.2099 160.26 51.2099ZM160.26 67.2399C157.24 67.2399 154.63 64.7399 154.63 61.1899C154.63 57.6399 157.24 55.1399 160.26 55.1399C163.28 55.1399 165.89 57.5999 165.89 61.1899C165.89 64.7799 163.28 67.2399 160.26 67.2399ZM138.41 51.2099C132.89 51.2099 128.39 55.4099 128.39 61.1899C128.39 66.9699 132.89 71.1699 138.41 71.1699C143.93 71.1699 148.43 66.9399 148.43 61.1899C148.43 55.4399 143.93 51.2099 138.41 51.2099ZM138.41 67.2399C135.39 67.2399 132.78 64.7399 132.78 61.1899C132.78 57.6399 135.39 55.1399 138.41 55.1399C141.43 55.1399 144.04 57.5999 144.04 61.1899C144.04 64.7799 141.43 67.2399 138.41 67.2399ZM112.41 54.2699V58.4999H122.54C122.24 60.8799 121.44 62.6199 120.23 63.8299C118.76 65.2999 116.45 66.9299 112.4 66.9299C106.16 66.9299 101.29 61.8999 101.29 55.6599C101.29 49.4199 106.17 44.3899 112.4 44.3899C115.76 44.3899 118.22 45.7099 120.04 47.4099L123.03 44.4199C120.5 41.9999 117.13 40.1499 112.41 40.1499C103.87 40.1499 96.6801 47.1099 96.6801 55.6499C96.6801 64.1899 103.86 71.1499 112.41 71.1499C117.02 71.1499 120.5 69.6399 123.22 66.7999C126.02 63.9999 126.89 60.0699 126.89 56.8899C126.89 55.9099 126.81 54.9999 126.66 54.2399H112.41V54.2699ZM218.73 57.5599C217.9 55.3299 215.37 51.2099 210.19 51.2099C205.01 51.2099 200.78 55.2599 200.78 61.1899C200.78 66.7899 205.01 71.1699 210.69 71.1699C215.26 71.1699 217.91 68.3699 219.01 66.7499L215.61 64.4799C214.48 66.1399 212.93 67.2399 210.7 67.2399C208.47 67.2399 206.88 66.2199 205.86 64.2199L219.21 58.6999L218.76 57.5699L218.73 57.5599ZM205.12 60.8899C205.01 57.0299 208.11 55.0699 210.34 55.0699C212.08 55.0699 213.55 55.9399 214.05 57.1899L205.13 60.8899H205.12ZM194.27 70.5699H198.66V41.2299H194.27V70.5699ZM187.09 53.4399H186.94C185.96 52.2699 184.07 51.2099 181.68 51.2099C176.69 51.2099 172.12 55.5999 172.12 61.2299C172.12 66.8599 176.69 71.1699 181.68 71.1699C184.06 71.1699 185.95 70.1099 186.94 68.8999H187.09V70.3399C187.09 74.1599 185.05 76.1999 181.76 76.1999C179.08 76.1999 177.41 74.2699 176.73 72.6499L172.91 74.2399C174.01 76.8899 176.92 80.1399 181.76 80.1399C186.9 80.1399 191.25 77.1199 191.25 69.7399V51.8199H187.09V53.4499V53.4399ZM182.06 67.2399C179.04 67.2399 176.5 64.7099 176.5 61.2299C176.5 57.7499 179.03 55.1399 182.06 55.1399C185.09 55.1399 187.39 57.7099 187.39 61.2299C187.39 64.7499 185.05 67.2399 182.06 67.2399ZM239.27 41.2299H228.78V70.5699H233.16V59.4599H239.27C244.12 59.4599 248.89 55.9499 248.89 50.3499C248.89 44.7499 244.12 41.2399 239.27 41.2399V41.2299ZM239.39 55.3699H233.16V45.3099H239.39C242.66 45.3099 244.52 48.0199 244.52 50.3399C244.52 52.6599 242.66 55.3699 239.39 55.3699ZM266.45 51.1599C263.28 51.1599 260 52.5599 258.64 55.6499L262.53 57.2699C263.36 55.6499 264.91 55.1199 266.53 55.1199C268.79 55.1199 271.1 56.4799 271.13 58.8899V59.1899C270.34 58.7399 268.64 58.0599 266.56 58.0599C262.37 58.0599 258.11 60.3599 258.11 64.6699C258.11 68.5999 261.54 71.1199 265.39 71.1199C268.33 71.1199 269.96 69.7999 270.98 68.2499H271.13V70.5099H275.36V59.2599C275.36 54.0499 271.47 51.1499 266.45 51.1499V51.1599ZM265.92 67.2399C264.49 67.2399 262.49 66.5199 262.49 64.7499C262.49 62.4899 264.98 61.6199 267.13 61.6199C269.05 61.6199 269.96 62.0399 271.13 62.5999C270.79 65.3199 268.45 67.2399 265.92 67.2399ZM290.76 51.7999L285.74 64.5199H285.59L280.38 51.7999H275.66L283.47 69.5799L279.02 79.4699H283.59L295.63 51.7999H290.76ZM251.31 70.5699H255.69V41.2299H251.31V70.5699Z" fill="white"/>
<path d="M48.98 45.75L24 72.27C24 72.27 24 72.28 24 72.29C24.77 75.17 27.4 77.29 30.52 77.29C31.77 77.29 32.94 76.95 33.94 76.36L34.02 76.31L62.14 60.08L48.98 45.75Z" fill="#EA4335"/>
<path d="M74.26 41.2397L74.24 41.2197L62.1 34.1797L48.42 46.3497L62.15 60.0697L74.23 53.0997C76.35 51.9597 77.78 49.7197 77.78 47.1497C77.78 44.5797 76.36 42.3697 74.27 41.2297L74.26 41.2397Z" fill="#FBBC04"/>
<path d="M24 21.9399C23.85 22.4899 23.77 23.0799 23.77 23.6799V70.5399C23.77 71.1399 23.85 71.7199 24 72.2699L49.84 46.4299L23.99 21.9399H24Z" fill="#4285F4"/>
<path d="M49.17 47.0999L62.1 34.1699L34.01 17.8799C32.99 17.2699 31.8 16.9199 30.52 16.9199C27.4 16.9199 24.76 19.0399 24 21.9299L49.17 47.0999Z" fill="#34A853"/>
</svg>
