<?xml version="1.0" encoding="UTF-8"?>
<svg id="Layer_1" data-name="Layer 1" xmlns="http://www.w3.org/2000/svg" viewBox="0 0 100 100">
  <defs>
    <style>
      .cls-1 {
        fill: #074bb6;
      }
    </style>
  </defs>
  <path class="cls-1" d="M44.17,15.26l-2.07,14.76c-4.14-.35-7.51.32-10.1,2.01-2.59,1.68-4.38,4.1-5.37,7.25-.99,3.15-1.19,6.8-.58,10.94h18.13v35.22H8.95v-35.22c0-12.43,2.89-21.86,8.68-28.29,5.78-6.43,14.63-8.65,26.54-6.67ZM91.05,15.26l-2.07,14.76c-4.14-.35-7.51.32-10.1,2.01-2.59,1.68-4.38,4.1-5.37,7.25-.99,3.15-1.19,6.8-.58,10.94h18.13v35.22h-35.22v-35.22c0-12.43,2.89-21.86,8.68-28.29,5.78-6.43,14.63-8.65,26.54-6.67Z"/>
</svg>