<?xml version="1.0" encoding="UTF-8"?>
<svg id="Layer_1" data-name="Layer 1" xmlns="http://www.w3.org/2000/svg" viewBox="0 0 179.54 168.67">
  <defs>
    <style>
      .cls-1 {
        fill: #d5f300;
      }

      .cls-2 {
        fill: #d3f521;
      }

      .cls-3 {
        fill: #ccf300;
      }
    </style>
  </defs>
  <g>
    <path class="cls-3" d="M12.93,137.62c17.97-18.87,38.34-35.35,60.56-48.97l6.93,11.3c-21.24,13.02-40.71,28.77-57.89,46.81l-9.6-9.14Z"/>
    <g>
      <path class="cls-2" d="M12.66,138.2c-.19-.19-.19-.05-.23-.06.34.29.24.03.23.06Z"/>
      <polygon class="cls-2" points="15.99 141.04 15.9 141.02 16.44 141.39 15.99 141.04"/>
      <path class="cls-2" d="M18.95,143.86c-.16-.4-1.09-1-1.58-1.55l-.06-.11-.34-.12c.66.59,1.55,1.32,1.97,1.78Z"/>
      <path class="cls-2" d="M20.26,145.64c-.05-.14.38.28-.35-.37.03.04.04.05.05.08.06.06.15.15.3.29Z"/>
      <path class="cls-2" d="M19.96,145.36c-.32-.29.16.24,0,0h0Z"/>
      <path class="cls-2" d="M21.49,146.76c-.15-.12-.22-.18-.29-.23l-.23-.17c.04.1.44.49.26.36.8.72.64.5.26.05Z"/>
      <path class="cls-2" d="M22.19,147.25l-.35-.3c.05.07.15.17.35.3Z"/>
      <path class="cls-2" d="M21.18,146.4l.27.22.39.33c-.09-.12-.06-.17-.35-.31.09.02-.11-.11-.3-.24Z"/>
      <path class="cls-2" d="M20.95,146.14c-.2-.25-.48-.55-.03-.2-.8-.73-.77-.53.03.2Z"/>
      <path class="cls-2" d="M19.22,143.87l-.27-.33-.31-.21c.15.11.56.6.58.54Z"/>
      <path class="cls-2" d="M24.98,145.38c0-.05-.2.07-.27.06l-.26.33c.17-.14.47-.41.53-.39Z"/>
      <path class="cls-2" d="M24.71,145.45l.39-.49c-.39.4-.44.49-.39.49Z"/>
      <polygon class="cls-2" points="22.33 147.11 21.78 146.67 21.48 146.44 21.27 146.29 21.53 146.49 21.88 146.77 22.53 147.3 22.33 147.11"/>
      <polygon class="cls-2" points="26.64 143.68 26.46 143.99 26.81 143.45 26.64 143.68"/>
      <path class="cls-2" d="M27.75,142.55c-.13.24.34-.17.18.06.29-.31.51-.62.7-.89-.23.27-.5.53-.88.83Z"/>
      <path class="cls-2" d="M28.97,141.27c-.11.14-.22.29-.33.45.12-.14.23-.29.33-.45Z"/>
      <path class="cls-2" d="M25.85,144.2c.05-.02.16-.04.42-.28l-.25.1c-.05.05-.11.11-.17.18Z"/>
      <path class="cls-2" d="M26.01,144.03h0c.19-.19.32-.32.38-.38-.05.05-.16.16-.39.38Z"/>
      <path class="cls-2" d="M25.81,144.24l.04-.04s-.04.02-.04.04Z"/>
      <path class="cls-2" d="M23.88,146.06c.21-.31.7-.9.12-.43-.13.24.2-.03-.12.43Z"/>
      <path class="cls-2" d="M25.5,144.37l-.48.46s.14-.05.04.1l.44-.56Z"/>
      <polygon class="cls-2" points="25.7 144.11 25.5 144.37 25.68 144.2 25.7 144.11"/>
      <path class="cls-2" d="M28.09,142c.17-.24.39-.46.63-.72-.28.25-.57.52-.83.79-.01.06-.09.22.2-.07Z"/>
      <path class="cls-2" d="M27.07,142.98l.04-.05s-.06.04-.04.05Z"/>
      <polygon class="cls-2" points="31.22 138.85 31.17 138.87 31.17 138.89 31.22 138.85"/>
      <path class="cls-2" d="M27.84,142.1c-.22.19-.32.33-.41.46.15-.16.3-.32.47-.5,0-.03,0-.04-.06.03Z"/>
      <path class="cls-2" d="M29.62,140.55c-.12.09-.25.19-.39.31.13-.08.37-.25.39-.31Z"/>
      <path class="cls-2" d="M27.2,142.88l-.03.03c.08-.05.07-.05.03-.03Z"/>
      <path class="cls-2" d="M27.2,142.88c.09-.11.16-.22.22-.31-.12.13-.22.25-.31.36.03-.02.06-.04.09-.05Z"/>
      <path class="cls-2" d="M31.51,137.62c.03.11-.44.7-.98,1.07-.41.5.12.44.65.18-.02-.04-.04-.07.39-.57-.2.12-1.13.92-.8.47.59-.64.54-.47.88-.73-.34.16.67-.9.41-.9l-.5.58s.14-.24-.03-.11Z"/>
      <path class="cls-2" d="M30.26,139.73l-.19.2c.23-.2.42-.33.76-.55.29-.35.33-.44.33-.48l-.96.91.06-.07Z"/>
      <path class="cls-2" d="M29.21,140.78c.07-.23.5-.71.14-.52-.56.56-.33.46-.63.82.89-.92-.22.3.48-.31-.16.19-.32.35-.47.51.17-.15.34-.29.5-.43l-.03.02h0s0,0,0,0c-.05.03-.07.04-.02,0,0,0,.01-.02.02-.02,0-.02,0-.04.01-.07.28-.25.06-.02-.01.07,0,0,0,.02,0,.02h0s.87-.94.87-.94c-.2.18-.45.41-.87.85Z"/>
      <path class="cls-2" d="M24.3,144.97s.04-.02.05-.01c.05-.07.06-.1-.05.01Z"/>
      <path class="cls-2" d="M24.72,144.64c-.05.08-.08.16-.3.37-.21.17-.04-.04-.07-.05-.11.15-.39.51.05.14l.05-.08c.39-.35.94-.73.89-.65-.17.04-.32.09-.62.27Z"/>
      <path class="cls-2" d="M26.96,142.65l.72-.79-.45.32.06.02c-.45.41-.3.37-.33.45Z"/>
      <polygon class="cls-2" points="31.35 138.8 31.32 138.98 31.65 138.44 31.35 138.8"/>
      <polygon class="cls-2" points="32.33 137.83 32.36 137.93 32.59 137.64 32.33 137.83"/>
      <path class="cls-2" d="M70.65,91.12l-.25.19c.12-.09.2-.14.25-.19Z"/>
      <path class="cls-2" d="M72.57,89.92l.02-.07c-.07.08-.1.12-.02.07Z"/>
      <path class="cls-2" d="M58.24,115.79c.42-.2.92-.39.81-.44h-.18c-.24.2-.45.34-.63.44Z"/>
      <path class="cls-2" d="M77.07,102l-.13.04c-.07.09-.14.17-.21.25.1-.09.22-.19.34-.29Z"/>
      <path class="cls-2" d="M77.1,101.45l.55-.26c-.13.05-.31.13-.55.26Z"/>
      <path class="cls-2" d="M60.37,98.04l-.24.3c.47-.33.23-.23.24-.3Z"/>
      <path class="cls-2" d="M42.79,128.24c.32-.23.57-.42.79-.59-.4.26-.75.44-.79.59Z"/>
      <path class="cls-2" d="M70.79,89.67c-.15.12-.21.18-.19.2.16-.12.24-.2.19-.2Z"/>
      <path class="cls-2" d="M44.45,126.91c-.06.04-.12.08-.18.12-.21.2-.42.4-.69.62.3-.19.62-.43.87-.74Z"/>
      <path class="cls-2" d="M25.37,126.15l-.08.06s.04-.01.08-.06Z"/>
      <path class="cls-2" d="M15.24,134.55c.09-.1.23-.25.37-.39-.07.06-.19.18-.37.39Z"/>
      <path class="cls-2" d="M36.43,134.04c-.21.2-.03.04,0,0h0Z"/>
      <path class="cls-2" d="M35.09,134.7c.04-.05.06-.1.05-.12,0,.04-.02.08-.05.12Z"/>
      <path class="cls-2" d="M46.24,124.49l.02-.02c-.08.04-.07.03-.02.02Z"/>
      <path class="cls-2" d="M36.07,134.31c.09-.07.19-.15.3-.23-.05.03-.14.1-.3.23Z"/>
      <path class="cls-2" d="M36.15,134.3c-.08.07-.14.12-.19.17-.01.04.02.02.19-.17Z"/>
      <path class="cls-2" d="M36.73,133.76c-.12.11-.24.22-.36.31.05-.03.07-.04.06-.03.06-.06.15-.14.3-.28Z"/>
      <path class="cls-2" d="M43.39,110.17s-.03.02-.06.03c-.2.22-.11.13.06-.03Z"/>
      <path class="cls-2" d="M63.76,110.36l-.02.02s.03-.02.04-.02h-.01Z"/>
      <path class="cls-2" d="M64.58,109.68c-.29.37-.51.51-.8.68l.47.05.34-.74Z"/>
      <path class="cls-2" d="M66.09,94.08l.68-.32c-.66.62-1.24.93-.58.66-.1-.34,2.4-1.59,2.3-1.93l.45-.21c-.12.07-.13.1-.25.17.89-.38.45-.6,1.52-1.21.38-.2.66-.32.43-.13l.76-.57c.24-.14.21-.06-.03.09l1.22-.79h0c.08-.06.2-.18.32-.29.06-.08.14-.16.2-.22.19-.06-.09.1-.03.11l.28-.24.08.09c.04.16-.04.13-.12.06-.08.08-.17.15-.26.2.14.07.14.09.21.02.03.02.07.02.13.09.03.04.05.06.1.16.09.15.18.33.28.56l-.22-.31c-.06-.09-.17-.26-.18-.25-.04.02.03.2.08.32.05.13.12.26.19.4.15.28.33.6.5,1-.05-.21-.64-1.62-.11-.92.11.22.27.51.57.87-.1.07.17.44.47.93l-.16.05c.36.51.41.42.66.7.35.6.32.79.32.98.56.96-.23-.76.48.35.43.82.83,1.34,1.49,2.23.29.58-.14-.05-.06.18l.41.42c.07.12.01.1-.02.09.29.39.16-.05.59.57.22.03.71,1.64,1.05,1.82,0,0,0,.01,0,0-.08.02-.08,0-.1-.02-.04-.03-.09-.05-.12-.05.01.01.03.03.03.03-.27.31-.45.38-1.17,1.04l-.82.39c.63-.25-.02.32-.58.81.23-.08.43-.14.55-.19l-.96.7c-.14.05-.06-.06.06-.22-.06.05-.12.1-.16.15-.39.18-.25-.02-.04-.26l.41-.14c.2-.24.37-.47.27-.52-.06.06-.17.15-.31.24.05-.06.08-.11.04-.1-.04,0-.13.1-.27.24h-.32s-.02.09-.02.09l-1.36.75c-.83.76-1.51,1.49-2.93,2.52.29-.35-.04-.23-.11-.37.49-.14,1.1-.8,1.89-1.27-.41.24-.36.13-.27.04l-1.28,1.01c-.04-.13-.34.11-.72.31.41.03-.92.81-1.42,1.25-.08-.05,0-.21.69-.64-.85.34-.79.89-1.61,1.24.16-.11.26-.16.3-.24-.34.32-1.31.9-1.13.69l.16-.11c-1.09.72-3.28,2.27-3.32,2.56-.03-.01,0-.31.03-.39l-1.49,1.94c.06-.27-.83-.16-.01-.88-.27.16-.6.36-1.1.8.19-.1.58-.09.36.09-.77.3-.51.23-1.41.67.28-.15.16.28-.25.57.04-.08-.2-.2-.07-.34l-.85.97c.22-.23-.1-.23-.37-.12.14-.03-.87.64-1.13.87l.47-.26c-1.16.81-.89,1.15-2.02,1.98.1-.15.12-.54-.47-.14-.17.31-.73,1.44-1.64,2.28l-.24.08-.7.65c.34-.53,1.38-1.91,1.99-2.6-.46.27-.18.01-.8.5-.27.11.27-.36.45-.5l-1.5,1.09c.17.08-1.02,1-.88,1.06l1.48-1.36c.17.08-.63,1.08-1.68,1.86-.3.15.01-.39-.04-.42-.1.15-.91.86-1.03.9l.38-.42c-.61.4-.79.92-1.58,1.34-.24.18-.84.39-.82.5.51-.16.95.25.79.56-.09.05-1.35.84-1.68.99-.48.2.35-.75-.06-.58.01.05-.16.27-.24.35-.27.17.01-.19-.51.26.02.21-1.09.88-.16.32-.49.47-.58.43-1.18.94.26-.08-.31.74-.8,1.21,0-.06-.15,0-.22.02-1.06.88-1.68,1.3-2.66,2.14-.12.05-.62.41-.47.18-.12.14-.21.3-.51.56-.68.39.66-.6.1-.35.02.1-.69.78-1.07,1.2.23,0,1-.85,1.39-1.26.14.15-.46.97-1.41,1.93-.77.74-.44.2-.56.35-1.53,1.3-1.05,1.4-2.38,2.4-.58.34-.2-.18-.37-.15.61-.62,1.04-.84,1.49-1.23l-.59.43c.17-.22.59-.63.86-.81-.51.26-2.54,2.25-3.76,3.21-.17.22-.49.57-.29.46l.35-.34c.41-.22-.58.73-.09.35-.44.5-.89,1.09-1.61,1.68h-.23s.5-.34.66-.55c-.23.31-1.18.82-1.35,1.25l.55-.37c-.43.51-.91,1.18-1.54,1.71.37-.15.13-.14.67-.41-.52.19,1.54-1.43.79-1.04.58-.26.81-.64,1.5-1.05-.05-.02-.27.12.25-.33.01-.03.05-.1.08-.14.02-.01.02-.02.04-.03l-.03.02s.02-.03-.01,0c-.13.1-.25.17-.31.18.17-.32.98-1.06,1.21-1.35.32-.26-.09.16.11.05l.35-.44c.12.05.93-.59.26.1l.64-.58c.42-.3.96-.75,1.24-1.07.32-.26.69-.77.48-.48l.97-.95h.03c1.02-.86,1.94-1.96,3.25-2.79.33-.31.66-.64,1.25-1.11l.17-.02c.42-.4,1.39-1.05,1.52-1.28.65-.2,2.21-1.74,3.02-2.35l-.05-.12c.55-.44,1.05-.88,1.7-1.46l-.11-.05c.53-.54,1.56-1.14,2.48-1.88-.04.08-.28.26-.47.37,1.27-.67,2.26-1.97,3.39-2.61.23-.23.42-.36.62-.47-.02.02-.04.04-.06.05.03-.02.07-.05.11-.08.13-.07.26-.14.39-.22-.12.06-.24.12-.34.18.2-.15.49-.38.77-.63h.2s.04-.03.07-.05c.32-.18.2-.22-.01-.18.14-.13.26-.25.35-.35.35-.02.73-.63,1.18-.7.14-.23,1.44-1.16,1.48-1.44.03.02.12-.04-.04.08.35-.22.69-.44.96-.7l.23.02.61-.69c.5-.24.71-.33.34.08.95-.91.81-.68,1.62-1.46v.11c.34-.23.78-.7,1.02-.77.83-.36,3.62-2.47,5.62-3.58-.53,0,.95-.48.9-.71.15-.01.44-.15.16.1.94-.69,1.52-.86,2.09-1.45.15-.01-.15.22-.03.19.07-.06.28-.25.4-.28.12-.03-.11.14-.25.27.99-.65.97-.9.94-1.11.56-.24.81-.41,1.1-.75.21-.06.54-.18-.07.23.36-.21,2.2-1.26,2.15-1.42.11-.02.67-.4.75-.48.2-.12.37-.23.42-.26-.41-.69-.62-1.04-.98-1.61l.11.23c-.35-.21-.43-.63-.84-1.24h.03c-.77-1.51-.44-.58-1.18-2.08l-.05.14c-.3,0-.64-1.34-1.23-2.11l.12.33c-.35-.4-.47-1.44-.72-1.91-.04-.11.13.14.22.27-.6-1.26-.23-.07-.8-.94-.03-.21.31.1-.04-.51-.06-.15-.33-.5-.65-.92-.08-.11-.16-.22-.24-.32l-.12-.17-.17-.26c-.24-.36-.45-.71-.65-1.06-.11.05-.21.11-.32.16.28-.1.49-.15-.1.27-.22.15-.48.29-.77.45-.21.11-.44.23-.66.34-.44.23-.85.47-1.08.73-.09.03-.13.04-.14.03-.45.35-1.51,1.04-1.73,1.33-.66-.06-2.84,2.08-3.03,1.75l-1.44.97.02-.06c-.94.6-1.21.89-1.48,1.19-.23.12-.09-.01-.09-.04-1.39.84-1.52.93-2.53,1.87l-.19-.02c-.26.27-2.04,1.18-3.26,2.2,0-.02.02-.06.11-.15-1.37,1.16-3.68,2.22-3.95,2.97l-.88.79c1.25-.88-.07.29.48-.02-.47.38-1.33.82-.75.36l.11-.05c.08-.35-1.57,1.07-1.64.91-2.4,1.81-4.81,3.49-7.01,5.24l.37-.06-.78.6c-.23.13-.36.1.19-.33-.35.15-.87.8-.86.84-1.12.8.29-.5-.05-.24l-.44.37.11-.06c-.31.35-.3.43-.96.96-.43.31-.28.09-.45.21,0-.01-.07.03-.25.2l-.97.77.47-.2c-.38.4-.9.73-.36.5-.82.32-3.6,2.89-4.04,3.16-.51.58-1.1,1.06-1.81,1.67.2-.13.41-.1-.21.42,0-.45-1.21.87-1.86,1.12.55-.27-1.71,1.55-.86,1.11-.53.43-.12-.07-.55.21-1.1,1.18-2.69,2.31-4.12,3.7,0,.05.3-.12.03.21l-.92.56c-.27.28-.09.43-.72.81.1-.04.25-.11.07.08-3,2.51-5.61,5.64-8.68,8.17.43-.33.19-.06-.09.23.2-.18.07.08.15.08l-1.27,1.07c-.09.33-1.23,1.28-1.23,1.52l.34-.4c-.35.63.98-.41,1.08-.17.39-.7,1.65-1.26,2.33-2.38.23-.17-.12.22.03.16.16-.3.42-.59.96-1.07l-.04.08c1.42-1.46,2.11-2.01,3.8-3.55l-.2.03c.36-.33.46-.38.65-.51.28-.52-1,.95-.77.45.64-.28,2.49-2.41,3.01-2.51.55-.52-.26.05.3-.46l.2-.08.07-.2c.37-.33.62-.43.67-.4-.09.08-.24.25-.33.34.53-.38,1.3-1.26,1.48-1.39l-.56.46c1.46-1.47,3.4-3.07,4.78-4.52l-.15.06c1.08-1.08.96-.76,2.18-1.9l-.04.05c.21-.26.53-.58.88-.88-.27.33.68-.43.31,0,1.18-1.16.56-.6,1.26-1.46l.25-.09c.23-.3.22-.36.85-.92-.47.5.5-.24-.02.34,1.46-.98,1.86-1.84,2.67-2.12.46-.71-1.26.85-.95.53-.35.18.39-.57.83-.9.44-.35.94-.35,2.03-1.25-.11.09-.1.11-.21.2.45-.28.74-.73,1.31-1.05.19-.35.66-.52.62-.73l-.98.84c.54-.5.93-1.1,1.95-1.77-.05.09-.3.35-.47.53.31-.17.51-.45.83-.63.04.22-1.2,1.01-1.72,1.62.35-.17,1.07-1.04.9-.62.27-.57,1.11-.84,1.72-1.59l.02.13c.11-.11.32-.35.54-.52l-.3.43c.52-.59,1.25-.82,1.79-1.33-1.23.95-.36.1-.94.43,1.42-1.29,1.06-.43,2.72-1.77-.22.19-.91.61-.58.29.34-.23.79-.52,1.03-.62,1.11-.88-.25.03.19-.39.47-.17.52-.46.99-.87l.08.09c1.34-.9.19-.46,1.42-1.25l-.39.5.58-.49-.04.2c.6-.57.82-.71,1.5-1.16-.2.04-.04-.24.54-.66.44-.23-.15.25.66-.35-.14.2-.29.42-.71.59-.01.06-.14.19-.15.25.48-.24,1.08-.76,1.38-.97-.12.08-.26.17-.34.21l1.1-.99c.21-.1.09.04-.04.17.23-.18.37-.35.72-.61-.04.15.05.21-.43.61l1.07-.91c.1-.02.66-.31.53-.18.67-.4,1.46-1.24,2.34-1.77.03-.05.11-.12.28-.26.8-.54,1.59-.91,2.46-1.66l.64-.22c.72-.53-.85.31.35-.58.85-.64.41-.1.75-.26.39-.37,1.05-1.02,1.95-1.43-.25.2-.48.32-.72.49ZM74.03,90.58c-.13-.17-.42-.49-.45-.67.25.14.29.33.45.67ZM75.57,102.69c.11-.12.33-.24.59-.35-.16.12-.36.24-.59.35ZM38.75,131.81v-.02c.4-.29.26-.19,0,.02ZM37.97,132.43c-.06.08-.05.09,0,.07.03-.07.19-.22.39-.39-.07.02-.18.09-.39.31ZM40.43,111.51l.17-.1c-.32.31-.24.2-.17.1Z"/>
      <path class="cls-2" d="M77.09,101.52c.06-.01.09,0,.11,0,.06-.06.05-.08-.11,0Z"/>
      <path class="cls-2" d="M60.41,97.98l-.03.02s-.02.03-.02.04l.04-.06Z"/>
      <path class="cls-2" d="M49.01,121.6c.17-.12.27-.17.35-.2,0-.03-.1.01-.35.2Z"/>
      <path class="cls-2" d="M34.24,136.16l.44-.46c-.22.21-.32.27-.45.36.03.01.15-.04,0,.09Z"/>
      <path class="cls-2" d="M29.73,139.45c-.06.08-.14.14-.2.21l.06.02c.28-.28.45-.5.14-.24Z"/>
      <path class="cls-2" d="M33.54,136.27c-.11-.04-.37.26-.69.58l.06-.05c0,.19.32-.17.63-.52Z"/>
      <path class="cls-2" d="M32.78,136.92l-.3.29c0,.08.13-.11.3-.29Z"/>
      <path class="cls-2" d="M37.09,133.33c-.17.12-.01.18-.13.23-.09.25.94-1.06.13-.23Z"/>
      <polygon class="cls-2" points="33.04 136.28 33.25 136.26 33.36 136.01 33.04 136.28"/>
      <path class="cls-2" d="M35.68,133.93l-.54.46s-.04.08-.11.16c.32-.3.69-.61.66-.63Z"/>
      <path class="cls-2" d="M35.03,134.55c-.17.16-.33.31-.41.41.09-.09.28-.27.41-.41Z"/>
      <polygon class="cls-2" points="33.73 135.58 33.9 135.46 34.28 135.12 33.73 135.58"/>
      <path class="cls-2" d="M41.41,128.82l.56-.54c.03-.08-.15.04-.35.24-.12.15-.33.35-.21.3Z"/>
      <path class="cls-2" d="M39.41,130.12c.18-.12.21-.11.32-.16l-.09-.13-.24.29Z"/>
      <path class="cls-2" d="M41.1,128.59c.03-.08.77-.84.03-.18-.03.08-.6.63-.03.18Z"/>
      <polygon class="cls-2" points="50.22 121.17 50.06 121.3 50.25 121.48 50.22 121.17"/>
      <path class="cls-2" d="M58.03,114.33c-.78.5-.08.26-.8.7-.14.18.59-.36.44-.18.41-.38.67-.53.36-.51Z"/>
      <path class="cls-2" d="M57.67,114.84c-.06.06-.13.13-.21.2.12-.11.17-.16.21-.2Z"/>
      <polygon class="cls-2" points="13.63 136.02 13.17 136.41 13.5 136.19 13.63 136.02"/>
      <path class="cls-2" d="M12.97,136.97h-.21s-.14.35-.14.35c.09-.1.26-.3.36-.35Z"/>
      <path class="cls-2" d="M74.62,92.16l.06.02c-.01-.1-.08-.22-.22-.46l.17.44Z"/>
      <polygon class="cls-2" points="70.1 91.65 70.22 91.58 69.92 91.59 70.1 91.65"/>
      <path class="cls-2" d="M64.55,95.49c.22-.16.49-.35.72-.5-.48.36-.88.39-.72.5Z"/>
    </g>
  </g>
  <g>
    <path class="cls-1" d="M153.95,111.97c-7.67,11.11-22.74,19.09-36.27,19.43-34.79.88-58.88-34.09-58.44-66.62.38-28.15,24.5-55.73,54.4-48.93,1.96.45,4.07,1.52,5.99,1.81,2.33.35,5.23.1,7.59.48,10.74,1.75,20.66,8.81,27.07,17.39,10.82,14.51,15.43,36.97,10.11,54.62-1.73,5.72-7.06,16.89-10.45,21.8ZM155.7,56.98c-1.79-7.04-5.76-13.57-10.5-19-.73-.84-.79-.92-1.58-1.72s-1.59-1.83-2.58-2.36l14.67,23.08ZM147.89,97.07c3.09-6.04,5.19-10.91,5.35-17.88.24-10.38-3.57-19.04-7.75-28.26-.79-.15-3.33-1.16-3.7-1.69-.55-.78-.42-2.26-.79-3.28-6.5-17.94-29.37-17.33-43.29-8.79-26.53,16.27-29.62,54.1-5.34,73.77,20.78,16.83,43.91,8.81,55.52-13.87ZM139.65,27.49c-.02-.73-.9-1.41-1.66-1.21l1.66,1.21ZM135.14,24.52c-.35.52,1.72,1.99,2.43,1.45-.12-.55-2.33-1.61-2.43-1.45ZM68.51,63.75c.26-.3,1.8-6.43,2.31-7.7,8.65-21.27,34.26-34.52,56.44-27.04,1.42.48,2.92,1.45,4.28,1.97.37.14,1.08.54,1.29-.02-3.53-4.85-8.88-7.29-14.7-8.18-21.51-3.3-42.85,9.17-48.75,30.33.04,3.13-1.96,7.57-1.62,10.58.03.31.68.14.74.07ZM111.46,127.28c3.47.02,8.06-1.69,11.66-1.84-.84-1.13-2.6-.19-3.84-.18-4.74.05-10.11-.47-14.71-1.61-6.55-1.62-12.49-4.97-18.32-8.22-.15,1.71.78,1.26,1.6,1.94,6.48,5.32,14.92,9.87,23.62,9.91ZM68.19,66.38c.05-.79.44-1.21-.58-1.38l.23,1.43.35-.06Z"/>
    <path class="cls-1" d="M68.19,66.38l-.35.06-.23-1.43c1.02.17.62.59.58,1.38Z"/>
  </g>
  <g>
    <path class="cls-3" d="M14.05,144.72c17.97-18.87,38.34-35.35,60.56-48.97l6.93,11.3c-21.24,13.02-40.71,28.77-57.89,46.81l-9.6-9.14Z"/>
    <g>
      <path class="cls-2" d="M13.78,145.3c-.19-.19-.19-.05-.23-.06.34.29.24.03.23.06Z"/>
      <polygon class="cls-2" points="17.11 148.14 17.02 148.12 17.56 148.49 17.11 148.14"/>
      <path class="cls-2" d="M20.07,150.96c-.16-.4-1.09-1-1.58-1.55l-.06-.11-.34-.12c.66.59,1.55,1.32,1.97,1.78Z"/>
      <path class="cls-2" d="M21.38,152.74c-.05-.14.38.28-.35-.37.03.04.04.05.05.08.06.06.15.15.3.29Z"/>
      <path class="cls-2" d="M21.08,152.45c-.32-.29.16.24,0,0h0Z"/>
      <path class="cls-2" d="M22.61,153.86c-.15-.12-.22-.18-.29-.23l-.23-.17c.04.1.44.49.26.36.8.72.64.5.26.05Z"/>
      <path class="cls-2" d="M23.31,154.35l-.35-.3c.05.07.15.17.35.3Z"/>
      <path class="cls-2" d="M22.3,153.5l.27.22.39.33c-.09-.12-.06-.17-.35-.31.09.02-.11-.11-.3-.24Z"/>
      <path class="cls-2" d="M22.07,153.24c-.2-.25-.48-.55-.03-.2-.8-.73-.77-.53.03.2Z"/>
      <path class="cls-2" d="M20.34,150.97l-.27-.33-.31-.21c.15.11.56.6.58.54Z"/>
      <path class="cls-2" d="M26.1,152.48c0-.05-.2.07-.27.06l-.26.33c.17-.14.47-.41.53-.39Z"/>
      <path class="cls-2" d="M25.83,152.55l.39-.49c-.39.4-.44.49-.39.49Z"/>
      <polygon class="cls-2" points="23.45 154.21 22.9 153.77 22.6 153.54 22.39 153.39 22.65 153.59 23 153.87 23.66 154.4 23.45 154.21"/>
      <polygon class="cls-2" points="27.76 150.78 27.58 151.09 27.93 150.55 27.76 150.78"/>
      <path class="cls-2" d="M28.87,149.65c-.13.24.34-.17.18.06.29-.31.51-.62.7-.89-.23.27-.5.53-.88.83Z"/>
      <path class="cls-2" d="M30.09,148.37c-.11.14-.22.29-.33.45.12-.14.23-.29.33-.45Z"/>
      <path class="cls-2" d="M26.97,151.3c.05-.02.16-.04.42-.28l-.25.1c-.05.05-.11.11-.17.18Z"/>
      <path class="cls-2" d="M27.13,151.13h0c.19-.19.32-.32.38-.38-.05.05-.16.16-.39.38Z"/>
      <path class="cls-2" d="M26.93,151.34l.04-.04s-.04.02-.04.04Z"/>
      <path class="cls-2" d="M25,153.15c.21-.31.7-.9.12-.43-.13.24.2-.03-.12.43Z"/>
      <path class="cls-2" d="M26.62,151.47l-.48.46s.14-.05.04.1l.44-.56Z"/>
      <polygon class="cls-2" points="26.82 151.21 26.62 151.47 26.8 151.3 26.82 151.21"/>
      <path class="cls-2" d="M29.21,149.1c.17-.24.39-.46.63-.72-.28.25-.57.52-.83.79-.01.06-.09.22.2-.07Z"/>
      <path class="cls-2" d="M28.19,150.08l.04-.05s-.06.04-.04.05Z"/>
      <polygon class="cls-2" points="32.34 145.95 32.29 145.97 32.29 145.99 32.34 145.95"/>
      <path class="cls-2" d="M28.96,149.2c-.22.19-.32.33-.41.46.15-.16.3-.32.47-.5,0-.03,0-.04-.06.03Z"/>
      <path class="cls-2" d="M30.74,147.64c-.12.09-.25.19-.39.31.13-.08.37-.25.39-.31Z"/>
      <path class="cls-2" d="M28.32,149.98l-.03.03c.08-.05.07-.05.03-.03Z"/>
      <path class="cls-2" d="M28.32,149.98c.09-.11.16-.21.22-.31-.12.13-.22.25-.31.36.03-.02.06-.04.09-.05Z"/>
      <path class="cls-2" d="M32.63,144.72c.03.11-.44.7-.98,1.07-.41.5.12.44.65.18-.02-.04-.04-.07.39-.57-.2.12-1.13.92-.8.47.59-.64.54-.47.88-.73-.34.16.67-.9.41-.9l-.5.58s.14-.24-.03-.11Z"/>
      <path class="cls-2" d="M31.38,146.83l-.19.2c.23-.2.42-.33.76-.55.29-.35.33-.44.33-.48l-.96.91.06-.07Z"/>
      <path class="cls-2" d="M30.33,147.88c.07-.23.51-.71.14-.52-.56.56-.33.46-.63.82.89-.92-.22.3.48-.31-.16.19-.32.35-.47.51.17-.15.34-.29.5-.43l-.03.02h0s0,0,0,0c-.05.03-.07.04-.02,0,0,0,.01-.02.02-.02,0-.02,0-.04.01-.07.28-.25.06-.02-.01.07,0,0,0,.02,0,.02h0s.87-.94.87-.94c-.2.18-.45.41-.87.85Z"/>
      <path class="cls-2" d="M25.42,152.07s.04-.02.05-.01c.05-.07.06-.1-.05.01Z"/>
      <path class="cls-2" d="M25.84,151.74c-.05.08-.08.16-.3.37-.21.17-.04-.04-.07-.05-.11.15-.39.51.05.14l.05-.08c.39-.35.94-.73.89-.65-.17.04-.32.09-.62.27Z"/>
      <path class="cls-2" d="M28.08,149.75l.72-.79-.45.32.06.02c-.44.41-.3.37-.33.45Z"/>
      <polygon class="cls-2" points="32.47 145.9 32.44 146.08 32.78 145.54 32.47 145.9"/>
      <polygon class="cls-2" points="33.45 144.93 33.48 145.03 33.71 144.73 33.45 144.93"/>
      <path class="cls-2" d="M71.77,98.22l-.25.19c.12-.09.2-.14.25-.19Z"/>
      <path class="cls-2" d="M73.69,97.02l.02-.07c-.07.08-.1.12-.02.07Z"/>
      <path class="cls-2" d="M59.36,122.89c.42-.2.92-.39.81-.44h-.18c-.24.2-.45.34-.63.44Z"/>
      <path class="cls-2" d="M78.19,109.1l-.13.04c-.07.09-.14.17-.21.25.1-.09.22-.19.34-.29Z"/>
      <path class="cls-2" d="M78.22,108.55l.55-.26c-.13.05-.31.13-.55.26Z"/>
      <path class="cls-2" d="M61.49,105.14l-.24.3c.47-.33.23-.23.24-.3Z"/>
      <path class="cls-2" d="M43.92,135.34c.32-.23.57-.42.79-.59-.4.26-.75.44-.79.59Z"/>
      <path class="cls-2" d="M71.91,96.77c-.15.12-.21.18-.19.2.16-.12.24-.2.19-.2Z"/>
      <path class="cls-2" d="M45.57,134.01c-.06.04-.11.08-.18.12-.21.2-.42.4-.69.62.3-.19.62-.43.87-.74Z"/>
      <path class="cls-2" d="M26.49,133.25l-.08.06s.04-.01.08-.06Z"/>
      <path class="cls-2" d="M16.36,141.64c.09-.1.23-.25.37-.39-.07.06-.19.18-.37.39Z"/>
      <path class="cls-2" d="M37.55,141.14c-.21.2-.03.04,0,0h0Z"/>
      <path class="cls-2" d="M36.21,141.8c.04-.05.06-.1.05-.12,0,.04-.02.08-.05.12Z"/>
      <path class="cls-2" d="M47.37,131.59l.02-.02c-.08.04-.07.03-.02.02Z"/>
      <path class="cls-2" d="M37.19,141.4c.09-.07.19-.15.3-.23-.05.03-.14.1-.3.23Z"/>
      <path class="cls-2" d="M37.27,141.4c-.08.07-.14.12-.19.17-.01.04.02.02.19-.17Z"/>
      <path class="cls-2" d="M37.85,140.86c-.12.11-.24.22-.36.31.05-.03.07-.05.06-.03.06-.06.15-.14.3-.28Z"/>
      <path class="cls-2" d="M44.51,117.27s-.03.02-.06.03c-.2.22-.11.13.06-.03Z"/>
      <path class="cls-2" d="M64.88,117.46l-.02.02s.03-.02.04-.02h-.01Z"/>
      <path class="cls-2" d="M65.7,116.77c-.29.37-.51.51-.8.68l.47.05.34-.74Z"/>
      <path class="cls-2" d="M67.21,101.18l.68-.32c-.66.62-1.24.93-.58.66-.1-.34,2.4-1.59,2.3-1.94l.45-.21c-.12.07-.13.1-.25.17.89-.38.45-.6,1.52-1.21.38-.2.65-.32.43-.13l.76-.57c.24-.14.21-.06-.02.09l1.22-.79h0c.08-.06.2-.18.32-.29.06-.08.14-.16.2-.22.19-.06-.09.1-.03.11l.28-.24.08.09c.04.16-.04.13-.12.07-.08.08-.17.15-.26.2.14.07.14.09.21.02.03.02.07.02.13.09.03.04.05.06.1.15.09.15.18.33.28.56l-.22-.31c-.06-.09-.17-.26-.18-.25-.04.02.03.2.07.32.05.13.12.26.19.4.15.28.33.6.5,1-.05-.21-.64-1.62-.11-.92.11.22.27.51.57.87-.1.07.17.44.47.93l-.16.05c.36.51.41.42.66.7.35.6.32.79.32.98.56.96-.23-.76.48.35.43.82.83,1.34,1.49,2.23.29.58-.14-.05-.06.18l.41.42c.07.12.01.1-.02.09.29.39.16-.05.59.57.22.03.71,1.64,1.05,1.82,0,0,0,.01,0,0-.08.02-.08,0-.1-.02-.04-.03-.09-.05-.12-.05.01.01.03.03.03.03-.27.31-.45.38-1.17,1.04l-.82.39c.63-.25-.02.32-.58.81.23-.08.43-.14.55-.19l-.96.7c-.14.05-.06-.06.07-.22-.06.05-.12.1-.16.15-.39.18-.25-.02-.04-.26l.41-.14c.2-.24.37-.47.27-.52-.06.06-.17.15-.31.24.05-.06.08-.11.04-.1-.04,0-.13.1-.27.24h-.32s-.02.09-.02.09l-1.36.75c-.83.76-1.51,1.49-2.93,2.52.29-.35-.04-.23-.11-.37.49-.14,1.1-.8,1.89-1.27-.41.24-.36.13-.27.04l-1.28,1.01c-.04-.13-.34.11-.72.31.41.03-.92.81-1.42,1.25-.08-.05,0-.21.69-.64-.85.34-.79.89-1.61,1.24.16-.11.26-.16.3-.24-.34.32-1.31.9-1.13.69l.16-.11c-1.09.72-3.28,2.27-3.32,2.56-.03-.02,0-.31.03-.39l-1.49,1.94c.06-.27-.83-.16-.01-.88-.27.16-.6.36-1.1.8.19-.1.58-.09.36.09-.77.3-.51.23-1.41.67.28-.15.16.28-.25.57.04-.08-.2-.2-.07-.34l-.85.97c.22-.23-.1-.23-.37-.12.14-.03-.87.64-1.13.87l.47-.27c-1.16.81-.89,1.15-2.02,1.98.1-.15.12-.54-.47-.14-.17.31-.73,1.44-1.64,2.28l-.24.08-.7.65c.34-.53,1.38-1.91,1.99-2.6-.46.27-.18.01-.8.5-.27.11.27-.36.45-.5l-1.5,1.09c.17.08-1.02,1-.88,1.06l1.48-1.36c.17.08-.63,1.08-1.68,1.86-.3.15.01-.39-.04-.42-.1.15-.91.86-1.03.9l.38-.42c-.61.4-.79.92-1.58,1.34-.24.18-.84.39-.82.5.51-.16.95.25.79.56-.09.05-1.35.84-1.68.99-.48.2.35-.75-.06-.58.01.05-.16.27-.24.35-.27.17.01-.19-.51.26.02.21-1.09.88-.16.32-.49.47-.58.43-1.18.94.26-.07-.31.74-.8,1.21,0-.06-.15,0-.22.02-1.06.88-1.68,1.3-2.66,2.14-.12.05-.62.41-.47.18-.12.14-.21.3-.51.56-.68.39.66-.6.1-.35.02.1-.69.78-1.07,1.2.23,0,1-.85,1.39-1.26.14.15-.46.97-1.41,1.93-.77.74-.44.2-.56.35-1.53,1.3-1.05,1.4-2.38,2.4-.58.34-.2-.18-.37-.15.61-.62,1.04-.84,1.49-1.23l-.59.43c.17-.22.59-.63.86-.81-.51.26-2.54,2.25-3.76,3.21-.17.22-.49.57-.29.46l.35-.34c.41-.22-.58.73-.09.35-.44.5-.89,1.09-1.61,1.68h-.23s.5-.34.66-.55c-.23.31-1.18.82-1.35,1.25l.55-.37c-.43.51-.91,1.18-1.54,1.71.37-.15.13-.14.67-.41-.52.19,1.54-1.43.79-1.04.58-.26.81-.64,1.5-1.05-.05-.02-.27.12.25-.33.01-.03.05-.1.08-.14.02-.01.02-.02.04-.03l-.03.02s.02-.03-.01,0c-.13.1-.25.17-.31.18.17-.32.98-1.06,1.21-1.35.32-.26-.09.16.11.05l.35-.44c.12.05.93-.59.26.1l.64-.58c.42-.3.96-.75,1.24-1.07.32-.26.69-.77.48-.48l.97-.95h.03c1.02-.86,1.94-1.96,3.25-2.79.33-.31.66-.64,1.25-1.11l.17-.02c.42-.4,1.39-1.05,1.52-1.28.65-.2,2.21-1.74,3.02-2.35l-.05-.12c.55-.44,1.05-.88,1.7-1.46l-.11-.05c.53-.54,1.56-1.14,2.48-1.88-.04.08-.28.26-.47.37,1.27-.67,2.26-1.97,3.39-2.61.23-.23.42-.36.62-.47-.02.02-.04.04-.06.05.03-.02.07-.05.11-.08.13-.07.26-.14.39-.22-.12.06-.24.12-.34.18.2-.15.49-.38.77-.63h.2s.04-.03.07-.05c.32-.18.2-.22-.01-.18.14-.13.26-.25.35-.35.35-.02.73-.63,1.18-.7.14-.23,1.44-1.16,1.48-1.44.03.02.12-.04-.04.08.35-.22.69-.44.96-.7l.23.02.61-.69c.5-.24.71-.33.34.08.95-.91.81-.68,1.62-1.46v.11c.34-.23.78-.7,1.02-.77.83-.36,3.63-2.47,5.62-3.58-.53,0,.95-.48.9-.71.15-.01.44-.15.16.1.94-.69,1.52-.86,2.09-1.45.15-.01-.15.22-.03.19.07-.06.28-.25.4-.28.12-.03-.11.14-.25.27.99-.65.97-.9.94-1.11.56-.24.81-.41,1.1-.75.21-.06.54-.18-.07.23.36-.21,2.2-1.26,2.15-1.42.11-.02.67-.4.75-.48.2-.12.37-.23.42-.26-.41-.69-.62-1.04-.98-1.61l.11.23c-.35-.21-.43-.63-.84-1.24h.03c-.77-1.51-.44-.58-1.18-2.08l-.05.14c-.3,0-.64-1.34-1.23-2.11l.12.33c-.35-.4-.47-1.44-.72-1.91-.04-.11.13.14.22.27-.6-1.26-.23-.07-.8-.94-.03-.21.31.1-.04-.51-.06-.15-.33-.5-.65-.92-.08-.11-.16-.22-.24-.32l-.12-.17-.17-.26c-.24-.36-.45-.71-.65-1.06-.11.05-.21.11-.32.16.28-.1.49-.15-.1.27-.22.15-.48.29-.77.45-.21.11-.44.22-.66.34-.44.23-.85.47-1.08.73-.09.03-.13.04-.14.03-.45.35-1.51,1.04-1.73,1.33-.66-.07-2.84,2.08-3.03,1.75l-1.44.97.02-.06c-.94.6-1.21.89-1.48,1.19-.23.12-.09-.01-.09-.04-1.39.84-1.52.93-2.53,1.87l-.19-.02c-.26.27-2.04,1.18-3.26,2.2,0-.02.02-.06.11-.15-1.37,1.16-3.68,2.22-3.95,2.97l-.88.79c1.25-.88-.07.29.48-.02-.47.38-1.33.82-.75.36l.11-.05c.08-.35-1.57,1.07-1.63.91-2.4,1.81-4.81,3.49-7.01,5.24l.37-.06-.78.6c-.23.13-.36.1.19-.33-.35.15-.87.8-.86.84-1.12.8.29-.5-.05-.24l-.44.37.11-.06c-.31.35-.3.43-.96.96-.43.31-.28.09-.45.21,0-.01-.07.03-.25.2l-.97.77.47-.2c-.38.4-.9.73-.36.5-.82.32-3.6,2.89-4.04,3.16-.51.58-1.1,1.06-1.81,1.67.2-.13.41-.1-.22.42,0-.45-1.21.87-1.86,1.12.55-.27-1.71,1.55-.86,1.11-.53.43-.12-.07-.55.21-1.1,1.18-2.69,2.31-4.12,3.7,0,.05.3-.12.03.21l-.92.56c-.27.28-.09.43-.72.81.1-.04.25-.11.07.09-3,2.51-5.61,5.64-8.68,8.17.43-.33.19-.06-.09.23.2-.18.07.08.15.08l-1.27,1.07c-.09.33-1.23,1.28-1.23,1.52l.34-.4c-.35.63.98-.41,1.08-.17.39-.7,1.65-1.26,2.33-2.38.23-.17-.12.22.03.16.16-.3.42-.59.96-1.07l-.04.08c1.42-1.46,2.11-2.01,3.8-3.55l-.2.03c.36-.33.46-.38.65-.51.28-.52-1,.95-.77.45.64-.28,2.49-2.41,3.01-2.51.55-.52-.26.05.3-.46l.2-.08.07-.2c.37-.33.62-.43.67-.4-.09.08-.24.25-.33.34.53-.38,1.3-1.26,1.48-1.39l-.56.46c1.46-1.47,3.4-3.07,4.78-4.52l-.15.06c1.08-1.08.96-.76,2.18-1.9l-.04.05c.21-.26.53-.58.88-.88-.27.33.68-.43.31,0,1.18-1.16.56-.6,1.26-1.46l.25-.09c.23-.3.22-.36.85-.92-.47.5.5-.24-.02.34,1.46-.98,1.86-1.84,2.67-2.12.46-.71-1.26.85-.95.53-.35.18.39-.57.83-.9.44-.35.94-.35,2.03-1.25-.11.09-.1.11-.21.2.45-.28.74-.73,1.31-1.05.19-.35.66-.52.62-.73l-.98.84c.54-.5.93-1.1,1.95-1.77-.05.09-.3.35-.47.53.31-.17.51-.45.83-.63.04.22-1.2,1.01-1.72,1.62.35-.17,1.07-1.04.9-.62.27-.57,1.11-.84,1.72-1.59l.02.13c.11-.11.32-.35.54-.52l-.3.43c.52-.59,1.25-.82,1.79-1.33-1.23.95-.36.1-.94.43,1.42-1.29,1.06-.43,2.72-1.77-.22.19-.91.61-.58.29.34-.23.79-.52,1.03-.62,1.11-.88-.25.03.19-.39.47-.17.52-.46.99-.87l.08.09c1.34-.9.19-.46,1.42-1.25l-.39.5.58-.49-.04.2c.6-.57.82-.71,1.5-1.16-.2.04-.04-.24.54-.66.44-.23-.15.25.66-.35-.14.19-.29.42-.71.59-.01.06-.14.19-.15.25.48-.24,1.08-.76,1.38-.97-.12.08-.26.17-.34.21l1.1-.99c.21-.1.09.04-.04.17.23-.18.37-.35.72-.61-.04.15.05.21-.43.61l1.07-.91c.1-.02.66-.31.53-.18.67-.4,1.46-1.24,2.34-1.77.03-.05.11-.12.28-.26.8-.54,1.59-.91,2.46-1.66l.64-.22c.72-.53-.86.31.35-.58.85-.64.41-.1.75-.26.39-.37,1.05-1.02,1.95-1.43-.25.2-.48.32-.72.49ZM75.15,97.68c-.13-.17-.42-.49-.45-.67.25.14.29.33.45.67ZM76.69,109.78c.11-.12.33-.24.59-.35-.16.12-.36.24-.59.35ZM39.87,138.9v-.02c.4-.29.26-.19,0,.02ZM39.1,139.53c-.06.08-.05.09,0,.07.03-.07.19-.22.39-.39-.07.02-.18.09-.39.31ZM41.55,118.61l.17-.1c-.32.31-.24.2-.17.1Z"/>
      <path class="cls-2" d="M78.22,108.62c.06-.02.09,0,.11,0,.06-.06.05-.08-.11,0Z"/>
      <path class="cls-2" d="M61.53,105.08l-.03.02s-.02.03-.02.04l.04-.06Z"/>
      <path class="cls-2" d="M50.13,128.7c.17-.12.27-.17.35-.2-.01-.03-.1.01-.35.2Z"/>
      <path class="cls-2" d="M35.36,143.26l.44-.46c-.22.22-.32.27-.45.36.03.01.15-.04,0,.1Z"/>
      <path class="cls-2" d="M30.85,146.55c-.06.08-.14.14-.2.21l.06.02c.28-.28.45-.5.14-.24Z"/>
      <path class="cls-2" d="M34.66,143.37c-.11-.04-.37.26-.69.58l.06-.05c0,.19.32-.17.63-.52Z"/>
      <path class="cls-2" d="M33.9,144.02l-.3.29c0,.08.13-.11.3-.29Z"/>
      <path class="cls-2" d="M38.21,140.43c-.17.12-.01.18-.13.23-.09.25.94-1.06.13-.23Z"/>
      <polygon class="cls-2" points="34.16 143.37 34.37 143.36 34.48 143.11 34.16 143.37"/>
      <path class="cls-2" d="M36.8,141.03l-.54.46s-.04.08-.11.16c.32-.3.69-.61.66-.63Z"/>
      <path class="cls-2" d="M36.15,141.65c-.17.15-.33.31-.41.41.09-.09.28-.27.41-.41Z"/>
      <polygon class="cls-2" points="34.85 142.68 35.02 142.55 35.4 142.22 34.85 142.68"/>
      <path class="cls-2" d="M42.53,135.92l.56-.54c.03-.08-.15.04-.35.24-.12.15-.33.35-.21.3Z"/>
      <path class="cls-2" d="M40.53,137.22c.18-.12.21-.11.32-.16l-.09-.13-.24.29Z"/>
      <path class="cls-2" d="M42.22,135.69c.03-.08.77-.84.03-.18-.03.08-.6.63-.03.18Z"/>
      <polygon class="cls-2" points="51.34 128.27 51.18 128.39 51.37 128.57 51.34 128.27"/>
      <path class="cls-2" d="M59.15,121.43c-.78.5-.08.26-.8.7-.14.18.59-.36.44-.18.41-.38.67-.53.36-.51Z"/>
      <path class="cls-2" d="M58.79,121.94c-.06.06-.13.13-.21.2.12-.11.17-.16.21-.2Z"/>
      <polygon class="cls-2" points="14.75 143.12 14.29 143.51 14.62 143.29 14.75 143.12"/>
      <path class="cls-2" d="M14.09,144.07h-.21s-.14.35-.14.35c.09-.1.26-.3.36-.35Z"/>
      <path class="cls-2" d="M75.74,99.26l.06.02c-.01-.1-.08-.22-.22-.46l.17.44Z"/>
      <polygon class="cls-2" points="71.22 98.75 71.34 98.68 71.04 98.69 71.22 98.75"/>
      <path class="cls-2" d="M65.67,102.59c.22-.16.49-.35.72-.5-.48.36-.88.39-.72.5Z"/>
    </g>
  </g>
</svg>