<?xml version="1.0" encoding="UTF-8"?>
<svg id="Layer_1" data-name="Layer 1" xmlns="http://www.w3.org/2000/svg" viewBox="0 0 106.74 104.16">
  <path d="M101.23,55.37c1.12-7.12.7-15.08-3.99-20.55-4.5-5.25-11.77-6.95-18.53-8.37-13.77-2.89-29.31-5.46-40.93,2.48-8.75,5.98-13.11,16.82-14.02,27.38-1.7,19.7,8.12,51.35,32.11,47.54,22.62-3.59,41.92-26.73,45.35-48.48Z" fill="#dcf343" fill-rule="evenodd"/>
  <path d="M97.55,48.96c-.51,0-.95-.33-1.09-.83h0c-.93-3.29-3.99-6.35-7.27-7.27-.5-.14-.83-.58-.83-1.09,0-.51.33-.95.83-1.09,3.29-.93,6.34-3.99,7.27-7.27.14-.5.58-.83,1.09-.83s.95.33,1.09.83c.93,3.29,3.99,6.34,7.27,7.27.5.14.83.58.83,1.09,0,.51-.33.95-.83,1.09-3.29.93-6.34,3.99-7.27,7.27-.14.5-.58.83-1.09.83ZM98.23,47.63h0s0,0,0,0ZM91.45,39.77c2.57,1.25,4.85,3.53,6.1,6.1,1.25-2.57,3.53-4.85,6.1-6.1-2.57-1.25-4.85-3.53-6.1-6.1-1.25,2.57-3.53,4.85-6.1,6.1Z" fill="#004cbc"/>
  <path d="M82.57,59.84c-5.6-10.47-10.82-20.46-16.2-30.2-.75-1.35-2.23-2.13-3.87-2.03-11.8.68-23.6.99-35.4.94-1.64,0-3.13.82-3.88,2.17-5.42,9.7-10.67,19.38-16.29,29.27-.78,1.38-.78,3.09,0,4.46,5.62,9.89,10.87,19.57,16.29,29.27.85,1.54,2.65,2.38,4.55,2.12.77-.11,1.54-.11,2.3.03.46.08.9-.17,1.06-.57,0,0,0,0,0,0,.23-.57-.2-1.17-.83-1.17-1.04,0-2.08,0-3.12,0l-.21-.38c2.02-3.16,3.98-6.31,5.9-9.46.44.13.89.22,1.36.22,0,0,.43.01.8.01.2,0,.38-.11.46-.3.16-.38.27-.95.27-.95.09-.25-.1-.51-.36-.51-.38,0-.76,0-1.14,0-.96,0-1.84-.51-2.31-1.33-3.41-5.97-6.77-11.9-10.22-17.87-.47-.81-.47-1.82,0-2.64,3.45-5.97,6.82-11.91,10.22-17.87.47-.81,1.35-1.32,2.31-1.33,7.03-.03,14.06-.15,21.09-.35.96-.03,1.84.47,2.31,1.28,3.39,5.98,6.75,12.04,10.19,18.22.47.85.47,1.9,0,2.74-3.44,6.19-6.8,12.24-10.19,18.22-.47.82-1.35,1.31-2.31,1.28-3.19-.09-6.38-.16-9.58-.22-.5,0-.9.38-.9.87,0,0,0,0,0,0,0,.55.52,1,1.1.88,2.73-.54,5.48-.78,8.13.04.53.16,1.05.24,1.54.22.81-.02,1.57.4,1.98,1.1,1.75,2.97,3.54,5.97,5.37,8.99-.18.03-.36.05-.56.04-5.55-.3-11.1-.53-16.64-.68-.51-.01-.92.37-.92.86,0,0,0,0,0,0,0,.49.41.9.92.91,5.57.16,11.14.4,16.71.72,1.64.09,3.13-.67,3.87-2.03,5.39-9.74,10.61-19.73,16.2-30.2.78-1.45.78-3.27,0-4.73ZM30.35,82.28s0,0,0,.01c.46.81.53,1.78.05,2.57-1.71,2.78-3.46,5.57-5.25,8.37-.12-.13-.24-.26-.33-.43-5.34-9.52-10.52-19-16.04-28.67l.58-1.01c2.9,0,5.8,0,8.7,0,.88,0,1.64.51,2.08,1.27,0,0,0,0,0,.01,3.44,5.97,6.8,11.91,10.19,17.87ZM30.35,42.14c-3.39,5.96-6.75,11.9-10.19,17.87-.25.43-.4.89-.5,1.36-3.55,0-7.09,0-10.64,0-.35,0-.57-.37-.4-.67,2.23-4.02,13.87-24.83,16.11-28.79.17-.3.6-.3.78-.02,1.63,2.56,3.23,5.11,4.8,7.66.49.79.5,1.78.04,2.59h0ZM57.56,38.41c-.43.73-1.23,1.14-2.08,1.14-.04,0-.08,0-.12,0-7.05.22-14.09.34-21.14.38-.04,0-.09,0-.13,0-.85.03-1.65-.36-2.1-1.08-1.64-2.67-3.31-5.34-5.01-8.02-.13-.21,0-.48.25-.48,4.18-.13,30.88-.8,35.13-.88.25,0,.4.27.27.48-1.73,2.85-3.41,5.67-5.06,8.46ZM59.2,41.67h0c-.46-.82-.45-1.81.02-2.61,1.71-2.9,3.46-5.82,5.25-8.78.1.11.21.23.29.36,5.42,9.74,10.67,19.71,16.29,30.15.08.14.12.29.18.44-3.24,0-6.48.02-9.71.02-.91,0-1.69-.54-2.14-1.33,0,0,0,0,0-.01-3.43-6.2-6.78-12.26-10.16-18.25ZM81.03,63.62c-5.62,10.45-10.87,20.42-16.29,30.15-.07.12-.16.22-.24.32-1.83-3.02-3.62-6.01-5.36-8.97-.43-.74-.37-1.63.05-2.37,0,0,0,0,0-.01,3.38-5.98,6.72-12.05,10.16-18.25l.03-.05c.45-.83,1.33-1.35,2.27-1.34,3.19,0,6.39.01,9.58.02-.06.17-.12.34-.2.5Z" fill="#004cbc"/>
  <path d="M13.44,26.88c-.56,0-1.05-.37-1.2-.91-1.45-5.12-6.21-9.88-11.33-11.33-.54-.15-.91-.64-.91-1.2s.37-1.04.91-1.2C6.03,10.79,10.79,6.03,12.24.91c.15-.54.64-.91,1.2-.91s1.05.37,1.2.91c1.45,5.12,6.21,9.88,11.33,11.33.54.15.91.64.91,1.2,0,.56-.37,1.04-.91,1.2-5.12,1.45-9.88,6.21-11.33,11.33-.15.54-.64.91-1.2.91ZM14.01,25.46s0,0,0,0h0s0,0,0,0ZM3.06,13.44c4.49,1.85,8.52,5.88,10.37,10.38,1.85-4.5,5.88-8.53,10.38-10.38-4.49-1.85-8.53-5.88-10.38-10.37-1.85,4.49-5.88,8.52-10.37,10.37Z" fill="#004cbc"/>
</svg>