<?xml version="1.0" encoding="UTF-8"?>
<svg id="Layer_1" data-name="Layer 1" xmlns="http://www.w3.org/2000/svg" viewBox="0 0 114.91 86.72">
  <path d="M113.98,57.46c1.87-5.18,1.02-11.77-3.45-14.98-5.61-4.03-13.41-1.04-19.4,2.39-5.99,3.43-12.98,7.34-19.38,4.75-3.96-1.6-6.58-5.37-8.7-9.08-2.12-3.71-4.08-7.69-7.44-10.33-3.36-2.64-8.67-3.43-11.73-.44-5.08,4.94-.77,15.97-7.08,19.18-5.17,2.63-10.37-3.52-15.98-5.01-7.11-1.9-14.44,5.02-14.72,12.38-.28,7.36,4.84,14.07,11.18,17.8,14.26,8.4,42.95,13.16,59.61,12.57,14.71-.52,32.18-15.6,37.1-29.22Z" fill="#dcf343" fill-rule="evenodd"/>
  <g>
    <path d="M45.93,11.59c-.18,0-.38-.02-.63-.04h-.04c-1.46-.12-2.67-.84-3.5-2.09-.72-1.1-1.04-2.3-.95-3.68.1-1.47.58-2.73,1.49-3.85.68-.83,1.8-1.84,3.29-1.93.08,0,.17,0,.27,0,.27,0,.61.02,1,.05,1.32.1,2.31.6,3.04,1.53.46.6.78,1.18.93,1.73.29,1.04.36,2.09.18,3.14-.12.7-.28,1.27-.49,1.68-.7,1.39-1.63,2.37-2.77,2.9-.43.2-.87.37-1.35.51-.16.05-.3.07-.48.07ZM45.62,2.45c-.35.1-.68.28-1.02.56l-.03.02c-.29.26-.54.57-.74.91-.2.35-.35.72-.46,1.1-.11.41-.15.82-.14,1.23,0,.42.07.81.2,1.16.15.4.35.74.61,1,.3.3.65.5,1.04.61.17.05.36.07.54.07.22,0,.45-.04.67-.1.35-.1.7-.29,1.01-.57.29-.25.54-.55.75-.92.19-.32.35-.7.46-1.13.1-.4.15-.8.15-1.2,0-.42-.08-.82-.22-1.19-.14-.38-.34-.71-.6-.98-.31-.32-.67-.53-1.06-.62-.16-.04-.34-.07-.53-.07-.22,0-.44.03-.65.1Z" fill="#004cbc"/>
    <path d="M99.98,26.62c-.36,0-.71-.02-1.03-.07-.66-.09-1.21-.32-1.67-.7-.65-.54-1.26-1.08-1.53-1.73-.68-1.61-.65-3.17.1-4.77.68-1.49,1.76-2.49,3.49-3.24.44-.19.75-.26,1.24-.3l.5-.04c.76-.05,1.32-.09,1.58-.11h.03c.25,0,.52.05.82.15,1.82.62,2.97,2.17,3.15,4.26.09,1.09-.22,2.47-.75,3.33-.99,1.59-2.55,2.78-3.96,3.03-.7.12-1.37.19-1.97.19ZM101.74,17.95c-.08,0-.16,0-.23,0-.43.03-.85.14-1.25.32-.39.17-.76.39-1.11.68-.34.29-.63.61-.87.95-.26.38-.43.75-.55,1.15-.11.44-.14.85-.08,1.25.07.45.24.83.51,1.15.29.35.64.59,1.05.74.31.11.64.17.97.17h0c.09,0,.18,0,.27-.01.41-.03.82-.13,1.24-.31.38-.15.75-.38,1.11-.67.32-.26.61-.58.87-.94.26-.38.44-.77.55-1.16.11-.44.14-.85.08-1.24-.08-.47-.25-.86-.52-1.18-.27-.32-.61-.56-1.02-.71-.32-.12-.65-.17-1.01-.17Z" fill="#004cbc"/>
    <path d="M67.71,78.34c-.21,0-.42-.01-.63-.04-1.01-.13-2.1-.3-3.32-.54-.42-.08-.89-.14-1.44-.19l-1.34-.11c-1.15-.06-2.5-.23-4.16-.49-.75-.12-1.49-.19-2.2-.2-.64-.01-1.11-.03-1.39-.05-.87-.08-1.77-.14-2.64-.19-1.37-.08-2.66-.16-3.92-.34-.52-.08-1-.11-1.5-.14l-.32-.02c-.41-.03-1.74-.05-3.92-.05h-.78c-.4,0-.86-.04-1.31-.08-.41-.04-.8-.07-1.17-.08-2.21-.04-4.54-.06-6.91-.06-.52,0-1.78,0-1.78,0-.85,0-1.45-.06-1.77-.19-.08-.03-.21-.18-.28-.41-.11-.34-.06-.64.01-.75.3-.46.71-.67,1.3-.68,1.77-.01,3.75-.02,5.88-.02,1.57,0,3.25,0,5.05.01.62,0,1.23.05,1.88.1.62.05,1.25.1,1.9.1,0,0,1.25.01,1.3.01,3.39.12,4.4.19,4.66.22l.22.03c1.14.15,2.21.28,3.39.3.13,0,.61,0,.61,0h.19c.72,0,1.55,0,2.16.09.55.07,1.13.13,1.7.18.75.07,1.52.14,2.23.26.81.14,1.67.23,2.62.27.51.02,1.17.1,1.8.17.34.04.67.08.99.11.35.03.68.1,1.03.17.17.03.34.07.51.1.17.03.33.05.5.05,1.27,0,1.71-1.05,1.93-1.55.92-2.22,2.18-5.07,3.76-8.48.24-.51.44-.92.64-1.29.22-.42.44-.88.65-1.32.26-.54.52-1.1.77-1.54.14-.25.43-.81.95-1.82l.03-.07c.31-.61.69-1.29,1.05-1.94.41-.73.8-1.43,1.07-2,.35-.72.72-1.39,1.09-1.99.37-.6.78-1.35,1.18-2.07.38-.69.77-1.41,1.12-1.99,1.35-2.21,2.79-4.4,4.28-6.49l.02-.03.02-.03c.19-.32.24-.69.13-1.05,0-.02-.18-.58-.18-.58l-.33-.07c-.18-.1-.39-.16-.61-.16-.35,0-.61.17-.71.23l-.04.02-.03.03c-.08.06-.17.13-.28.22-.26.2-.57.45-.83.62-2.89,1.92-5.81,4.01-8.62,6.03-1.95,1.4-3.8,2.72-5.61,3.97-.33.23-.71.5-1.12.79-1.11.79-2.5,1.76-3.69,2.46-.29.17-.6.31-.93.42-.4.14-.9.21-1.56.21-.25,0-.5,0-.74-.02-.5-.02-.77-.09-.9-.16-.85-.36-1.55-.92-2.14-1.72-.81-1.1-1.46-2.15-1.92-3.12-1.75-3.59-3.16-7.07-4.2-10.33-.51-1.62-1.19-3.99-1.7-5.87-.13-.48-.27-.93-.4-1.37-.14-.47-.28-.92-.39-1.35-.15-.63-.35-1.3-.53-1.95-.19-.67-.39-1.36-.55-2.01-.27-1.13-.55-2.33-.85-3.6-.09-.41-.27-.76-.52-1.05-.39-.42-.77-.5-1.03-.5-.23,0-.81.08-1.18.78-.08.15-.11.28-.13.36-.16.7-.43,1.54-.65,2.21-.1.31-.19.58-.26.81l-.2.64c-.6,1.98-1.22,4.02-1.72,6.11-.51,2.09-.74,3.01-.76,3.11-.23.93-.37,1.54-.46,1.98-.09.46-.21.93-.33,1.43-.09.38-.18.76-.27,1.13-.43,2.02-.89,4.11-1.28,5.89-.03.15-.21,1.07-.53,2.78-.2,1.07-.52,2.21-.93,3.37-.11.29-.33.63-.66,1-.2.24-.53.4-.98.49-.16.03-.31.05-.45.05-.35,0-.67-.1-.98-.3-.45-.29-.79-.54-1.04-.77-.79-.73-1.68-1.6-2.63-2.59-3.41-3.54-5.98-6.16-7.86-8-2.27-2.22-4.2-4.16-5.74-5.76l-.03-.03c-.28-.27-.58-.4-.91-.4-.28,0-.54.1-.76.28l-.03.03-.03.03c-.27.27-.41.65-.4,1.08.03.95.25,1.97.45,2.87.12.56.24,1.09.3,1.54.12.88.29,1.67.45,2.43.13.6.25,1.17.35,1.76.13.83.3,1.64.47,2.43.18.85.35,1.66.48,2.49.03.17.08.38.17.77.16.61.27,1.26.39,1.95.08.44.15.89.25,1.37.24,1.2.5,2.44.52,2.59v.05s0,.01,0,.01c.27,1.41.52,2.57.79,3.63l.27,1.09c.34,1.37.83,3.35,1.45,5.96.1.41.12.78.06,1.09-.13.75-.28.8-.43.86-.17.06-.38.09-.62.09-.06,0-.13,0-.2,0-.4-.02-.81-.14-1.09-1.3-.13-.5-.26-.99-.4-1.49-.17-.6-.34-1.21-.48-1.8l-.25-1.07c-.3-1.27-.65-2.76-1.06-4.5-.12-.49-.19-.94-.27-1.42-.08-.5-.17-1.02-.3-1.58-.15-.61-.27-1.27-.39-1.98-.13-.72-.26-1.47-.44-2.21-.15-.65-.28-1.35-.4-2.03-.11-.61-.22-1.18-.33-1.71-.11-.48-.2-.98-.29-1.51-.12-.66-.24-1.35-.41-2.01-.21-.81-.3-1.35-.44-2.23l-.13-.77c-.09-.5-.19-1.01-.28-1.52-.18-.94-.37-1.91-.49-2.85-.09-.76-.17-1.3-.22-1.61l-.05-.28c-.12-.65-.21-1.12-.25-1.68-.08-1.33-.12-2.18.29-2.93.18-.34.44-.54.83-.66.23-.07.45-.1.65-.1.68,0,1.31.38,2.11.99.46.36,1.16,1,2.06,1.88,4.03,3.97,10,9.87,15.19,15.31.22.23.51.43.85.57.19.07.36.11.53.11.52,0,.95-.3,1.16-.8.17-.37.22-.74.26-1.04.01-.08.02-.17.04-.25.21-1.29.38-2.06.48-2.47.18-.74.32-1.4.45-2.04.14-.67.26-1.3.44-1.98.1-.41.18-.83.25-1.23.08-.44.16-.89.27-1.33.18-.68.34-1.34.47-1.95.23-1.08.38-1.73.45-1.97.13-.48.23-.92.33-1.36.09-.43.19-.87.33-1.36,1.35-4.93,2.49-8.79,3.95-12.77.31-.85.7-1.77,1.21-2.81.24-.49.61-.86,1.12-1.11.3-.14.6-.22.9-.22.2,0,.42.03.63.1.31.09.91.97,1.19,1.92.44,1.5.8,2.86,1.05,4.06.11.53.49,1.95,1.12,4.24.18.67.36,1.37.54,2.06.16.64.32,1.25.47,1.8.95,3.44,1.83,6.47,2.7,9.28.45,1.47,1.03,2.98,1.6,4.44.17.45.34.89.51,1.34.1.27.42,1.01,2.08,4.45.44.93,1.16,2.19,2.06,2.94.38.32.83.5,1.3.5.37,0,.75-.11,1.12-.32.82-.47,1.47-.88,1.99-1.26.84-.6,1.68-1.18,2.52-1.77,1.2-.84,2.45-1.71,3.65-2.58,5.11-3.69,8.17-5.85,9.35-6.62,3.51-2.28,6.49-4.19,9.12-5.83.46-.3,1.08-.63,2.03-1.08.66-.31,1.04-.38,1.25-.38.73.02,1.24.29,1.6.87.15.23.42.64-.54,1.81-1.24,1.51-2.06,2.55-2.58,3.26-2.11,2.88-4.2,5.94-6.21,9.1-.4.61-.84,1.35-1.48,2.45-.34.6-.65,1.13-.94,1.61-.63,1.06-1.17,1.98-1.74,3.15-.17.34-.4.75-.62,1.13-.23.41-.47.83-.67,1.22-.31.6-.67,1.28-1.05,1.99-.63,1.18-1.29,2.39-1.8,3.49-.3.65-.61,1.26-.91,1.88-.43.87-.87,1.78-1.31,2.75-.03.07-2.42,5.54-2.42,5.54-.33.76-.67,1.49-1,2.15-.33.66-.57.97-.72,1.12-.37.36-1.09.58-1.94.58Z" fill="#004cbc"/>
    <path d="M5.96,30.23c-1.61,0-3.17-.74-4.27-2.03-.66-.78-.99-1.54-1.44-2.86-.35-1.04-.33-1.88.08-3.1.25-.77.53-1.39.82-1.84.66-1.03,1.44-1.36,2.65-1.82.41-.15.86-.23,1.34-.23,1.27,0,2.45.53,3.22.98.41.24.72.58,1.15,1.11,1.3,1.58,1.77,3.37,1.45,5.49-.11.7-.32,1.31-.65,1.86-.36.59-.94,1.06-1.55,1.56l-.05.04c-.34.27-.59.4-.74.46-.64.25-1.32.38-2.01.38ZM5.23,20.77c-.37,0-.73.07-1.07.22-.4.17-.75.44-1.03.8-.26.32-.46.71-.57,1.16-.11.4-.14.84-.09,1.3.04.42.15.86.33,1.28.18.42.43.8.72,1.13.28.32.63.6,1.01.81.4.21.82.34,1.23.37.08,0,.15,0,.21,0,.38,0,.74-.08,1.08-.22.41-.18.76-.45,1.04-.81.25-.32.45-.71.56-1.15.11-.43.14-.87.1-1.31-.05-.45-.16-.88-.33-1.28-.19-.42-.43-.79-.71-1.12-.28-.32-.62-.6-1.01-.81-.42-.23-.84-.35-1.26-.38-.07,0-.13,0-.2,0Z" fill="#004cbc"/>
  </g>
</svg>