<?xml version="1.0" encoding="UTF-8"?>
<svg id="Layer_1" data-name="Layer 1" xmlns="http://www.w3.org/2000/svg" viewBox="0 0 48.83 97.23">
  <path d="M47.82,74.11c3.62-8.13-3.49-16.58-5.09-25.09-1.22-6.47.81-13,2.39-19.41,1.58-6.42,2.7-13.22-.21-19.36C41.99,4.11,33.83-1.02,25.48.17c-6.25.89-11.02,5.05-13.23,9.64s-2.31,9.58-2.38,14.47c-.12,8.51-.25,17.02-.37,25.53-.11,7.89-5.91,30.88,6.51,34.48,9.25,2.67,28.64-3.05,31.81-10.17Z" fill="#dcf343" fill-rule="evenodd"/>
  <g>
    <path d="M27.11,51.55l-.07-.13c-.9-1.67-1.82-3.4-1.7-5.27.29-4.6,1.59-7.45,3.56-11.77,1.45-3.21,1.92-6.09,1.22-7.73-.38-.88-1.14-1.5-2.04-1.66-.5-.12-2.63-.46-3.46-.59-4.65-.8-4.79-2.68-4.92-4.41v-.11c-.03-.24-.12-.57-.5-.88-.65-.52-2.22-.96-4.67-.61-2.43.34-4.83,1.37-4.73,2.68v.18c.14,1.53.29,3.46-4.29,5.11l-.38.13c-1.54.53-2.74.95-2.95,1.04-.85.29-1.53.96-1.83,1.8-.71,2.08.88,5.09,1.88,6.7,2.23,3.58,3.61,6.06,3.94,10.23.13,1.76-.93,3.42-1.79,4.76l-.1.14c-.26.41-.51.81-.73,1.2C.72,57.36.19,64.58.03,69.58c-.08,1.22-.04,2.49.79,3.5.46.55,2.08,1.11,3.18,1.44.56.17,1.13-.21,1.2-.78h0c.06-.46-.22-.9-.67-1.04-.83-.24-2.06-.63-2.24-.85-.38-.45-.41-1.18-.35-2.13v-.08c.24-7.51,1.32-12.86,3.3-16.33.21-.36.45-.73.69-1.11l.1-.15c.96-1.5,2.27-3.54,2.08-5.93-.36-4.6-1.91-7.38-4.22-11.1-1.63-2.61-1.94-4.33-1.7-5.06.1-.29.34-.52.7-.64.24-.1,1.9-.68,2.9-1.03l.39-.14c5.11-1.84,5.74-4.38,5.57-6.88.36-.25,1.32-.76,3.06-1,1.64-.23,2.62-.03,3.02.12.2,2.39.98,4.95,6.5,5.88,1.35.21,3.09.5,3.32.57l.09.02c.27.04.51.25.64.53.38.91.15,3.18-1.21,6.19-2.06,4.51-3.42,7.49-3.73,12.44-.15,2.42.96,4.48,1.93,6.3l.06.12c.28.52.52.98.74,1.45,2.81,5.99,2.2,15.23,1.81,18.92l-.04.59c-.04.78-.1,1.83-.41,2.12-.1.09-.54.38-2.02.17l-14.83-2.04c-.52-.07-1,.29-1.08.82h0c-.07.52.29,1,.82,1.08l3.12.43,1.91.26,9.8,1.35c.43.06.82.09,1.18.09,1.06,0,1.84-.25,2.38-.75.89-.81.96-2.14,1.03-3.42l.03-.5c.16-1.49.35-3.85.35-6.55,0-4.29-.48-9.45-2.33-13.39-.24-.5-.51-1.01-.78-1.53Z" fill="#004cbc"/>
    <path d="M23.68,90.09H5.75c-2.62,0-4.75,2.14-4.75,4.76v2.38h27.43v-2.38c0-2.62-2.13-4.75-4.75-4.76ZM26.52,95.32H2.91v-.47c0-1.57,1.28-2.84,2.84-2.85h17.93c1.57,0,2.84,1.28,2.84,2.85v.47Z" fill="#004cbc"/>
    <path d="M13.76,91.76c-.68-8.55-1.01-13.55.04-16.77l1.82.59c-.94,2.87-.61,7.71.04,16.02l-1.9.15Z" fill="#004cbc"/>
    <path d="M18.28,9.78c-.12-.42-.36-.87-.71-1.32-.56-.71-1.32-1.1-2.33-1.17-.31-.03-.56-.04-.77-.04-.07,0-.14,0-.2,0-1.14.06-2.01.84-2.52,1.48-.7.85-1.07,1.82-1.15,2.95-.06,1.06.17,1.98.73,2.82.64.96,1.56,1.5,2.68,1.6h.03c.2.02.35.03.48.03s.25-.01.37-.05c.36-.11.7-.24,1.03-.39.87-.41,1.59-1.15,2.13-2.22.16-.31.29-.74.38-1.29.13-.8.08-1.61-.14-2.41ZM16.51,12.16c-.08.32-.2.62-.35.87-.17.28-.36.51-.58.7-.24.21-.51.36-.78.44-.17.05-.34.08-.51.08-.15,0-.29-.02-.42-.05-.3-.08-.56-.24-.8-.46-.2-.2-.36-.46-.47-.77-.1-.27-.15-.57-.15-.89-.01-.32.03-.63.11-.95.08-.29.2-.57.35-.84s.34-.5.57-.7l.02-.02c.25-.21.51-.36.78-.43.17-.05.33-.08.5-.08.15,0,.29.02.41.05.31.08.58.23.82.48.2.21.35.46.46.75.1.28.16.59.17.91,0,.31-.03.62-.11.92Z" fill="#004cbc"/>
  </g>
</svg>