<?xml version="1.0" encoding="UTF-8"?>
<svg id="Layer_1" data-name="Layer 1" xmlns="http://www.w3.org/2000/svg" viewBox="0 0 92.04 81.3">
  <path d="M91.17,65.66c2.5-7.1-.85-14.51-4.16-21.44-6.23-13.04-13.64-27.15-30.34-34.2-7.64-3.22-18.91-4.13-24.32.87-1.92,1.77-2.75,4-3.54,6.15-4.43,12.1-8.86,24.21-13.28,36.31-2.14,5.85-4.24,12.2-.99,17.79,3.63,6.24,13.44,9.9,22.97,10.12,15.11.36,49.35-3.36,53.66-15.62Z" fill="#dcf343" fill-rule="evenodd"/>
  <g>
    <path d="M54.64,76.33c-15.61,0-31.21,0-46.82,0-3.1,0-5.66-1.3-6.91-3.59-1.26-2.29-1.16-5.35-.03-8.38,5.24-14.02,7.12-28.53,7.19-42.74,0-.65.41-1.13.96-1.13h6.78c.42,0,.77-.34.78-.76.11-3.65.16-7.28.16-10.87C16.69,3.74,20.52,0,25.84,0h1.17c3.03,0,5.92,1.26,7.75,3.49,1.84,2.22,2.48,5.2,1.98,8.17-.44,2.63-.84,5.28-1.21,7.95-.07.47.3.89.77.89h6.67c.44,0,.79-.37.77-.81-.15-3.51-.25-7.01-.33-10.46-.04-3.94-3.07-6.8-7.08-6.64l-.78-.81c.03-.59.05-1.18.08-1.77h1.17c5.32,0,9.14,3.74,9.06,8.87,0,3.59.04,7.22.15,10.87.01.42.36.76.78.76h6.63c.55,0,.96.48.96,1.13.07,14.2,1.96,28.72,7.19,42.74,1.13,3.04,1.24,6.09-.03,8.38-1.24,2.29-3.81,3.59-6.91,3.59,0,0,0,0,0,0ZM15.66,23.16c-1.54,0-3.08,0-4.61,0-.42,0-.76.33-.77.75-.39,13.61-2.33,27.45-7.13,40.85-.82,2.28-.82,4.57.16,6.3.97,1.72,2.86,2.71,5.13,2.71,10.68,0,21.36,0,32.04,0-.38-.31-.74-.65-1.08-1.01-2.13-2.29-3.06-5.35-2.78-8.38,1.23-13.23,2.33-26.88,4.58-40.31.08-.47-.28-.9-.76-.9h-4.7c-.39,0-.72.29-.77.68-.6,4.63-1.12,9.29-1.62,13.95-.05.46.31.86.77.86.09,0,.18,0,.28,0,.43,0,.77.35.77.77,0,.38,0,.76,0,1.13,0,.43-.35.78-.77.78h-4.72c-.43,0-.78-.35-.77-.78,0-.38,0-.76,0-1.13,0-.43.35-.77.77-.77.24,0,.48,0,.73,0,.4,0,.73-.3.77-.69.5-4.65,1-9.31,1.55-13.93.05-.46-.3-.86-.77-.86h-12.52c-.41,0-.75.32-.77.73-.25,4.62-.6,9.26-1.1,13.91-.05.46.31.85.77.85.03,0,.06,0,.09,0,.43,0,.78.35.78.78,0,.38,0,.76,0,1.13,0,.43-.35.77-.78.77h-4.72c-.43,0-.78-.35-.77-.78,0-.38,0-.76.01-1.13,0-.42.35-.77.77-.77.31,0,.61,0,.92,0,.4,0,.74-.3.78-.7.5-4.67.83-9.34,1.04-13.98.02-.44-.34-.81-.78-.81ZM33.29,20.52c.69-6.18.2-3.16,1.1-9.22.33-2.22-.2-4.45-1.59-6.11-1.38-1.67-3.49-2.62-5.69-2.62h-1.14c-3.85,0-6.73,2.81-6.78,6.65-.08,3.46-.18,6.95-.34,10.46-.02.44.33.81.77.81h6.67c.47,0,.84-.42.77-.89-.37-2.66-.77-5.31-1.2-7.95-.44-2.67.03-5.33,1.46-7.45.27-.39.82-.47,1.18-.16.26.22.52.45.77.67.3.27.33.71.1,1.05-1.07,1.59-1.46,3.56-1.17,5.54.89,6.06.41,3.04,1.1,9.22,2.38,0,1.59,0,3.97,0ZM43.82,23.16c-.08,0-.17,0-.25,0-2.53,13.85-3.59,27.96-4.6,41.6-.17,2.28.58,4.57,2.18,6.3,2.29,2.48,6.04,3.43,9.06,2.11l.58-.02c3.6,1.35,6.95.41,8.36-2.09.98-1.73.98-4.02.16-6.3-4.89-13.63-6.81-27.72-7.15-41.55l-3.25-.11c-.78,9.33-.84,18.78-.16,28.13.03.45-.32.83-.77.83h-.63c-.41,0-.75-.32-.78-.73-.58-9.08-.56-18.26.07-27.34.03-.45-.32-.82-.77-.82-.68,0-1.37,0-2.05,0t0,0Z" fill="#004cbc" fill-rule="evenodd"/>
    <path d="M54.64,76.33c-15.61,0-31.21,0-46.82,0-3.1,0-5.66-1.3-6.91-3.59-1.26-2.29-1.16-5.35-.03-8.38,5.24-14.02,7.12-28.53,7.19-42.74,0-.65.41-1.13.96-1.13h6.78c.42,0,.77-.34.78-.76.11-3.65.16-7.28.16-10.87C16.69,3.74,20.52,0,25.84,0h1.17c3.03,0,5.92,1.26,7.75,3.49,1.84,2.22,2.48,5.2,1.98,8.17-.44,2.63-.84,5.28-1.21,7.95-.07.47.3.89.77.89h6.67c.44,0,.79-.37.77-.81-.15-3.51-.25-7.01-.33-10.46-.04-3.94-3.07-6.8-7.08-6.64l-.78-.81c.03-.59.05-1.18.08-1.77h1.17c5.32,0,9.14,3.74,9.06,8.87,0,3.59.04,7.22.15,10.87.01.42.36.76.78.76h6.63c.55,0,.96.48.96,1.13.07,14.2,1.96,28.72,7.19,42.74,1.13,3.04,1.24,6.09-.03,8.38-1.24,2.29-3.81,3.59-6.91,3.59,0,0,0,0,0,0ZM15.66,23.16c-1.54,0-3.08,0-4.61,0-.42,0-.76.33-.77.75-.39,13.61-2.33,27.45-7.13,40.85-.82,2.28-.82,4.57.16,6.3.97,1.72,2.86,2.71,5.13,2.71,10.68,0,21.36,0,32.04,0-.38-.31-.74-.65-1.08-1.01-2.13-2.29-3.06-5.35-2.78-8.38,1.23-13.23,2.33-26.88,4.58-40.31.08-.47-.28-.9-.76-.9h-4.7c-.39,0-.72.29-.77.68-.6,4.63-1.12,9.29-1.62,13.95-.05.46.31.86.77.86.09,0,.18,0,.28,0,.43,0,.77.35.77.77,0,.38,0,.76,0,1.13,0,.43-.35.78-.77.78h-4.72c-.43,0-.78-.35-.77-.78,0-.38,0-.76,0-1.13,0-.43.35-.77.77-.77.24,0,.48,0,.73,0,.4,0,.73-.3.77-.69.5-4.65,1-9.31,1.55-13.93.05-.46-.3-.86-.77-.86h-12.52c-.41,0-.75.32-.77.73-.25,4.62-.6,9.26-1.1,13.91-.05.46.31.85.77.85.03,0,.06,0,.09,0,.43,0,.78.35.78.78,0,.38,0,.76,0,1.13,0,.43-.35.77-.78.77h-4.72c-.43,0-.78-.35-.77-.78,0-.38,0-.76.01-1.13,0-.42.35-.77.77-.77.31,0,.61,0,.92,0,.4,0,.74-.3.78-.7.5-4.67.83-9.34,1.04-13.98.02-.44-.34-.81-.78-.81ZM43.82,23.16c-.08,0-.17,0-.25,0-2.53,13.85-3.59,27.96-4.6,41.6-.17,2.28.58,4.57,2.18,6.3,2.29,2.48,6.04,3.43,9.06,2.11l.58-.02c3.6,1.35,6.95.41,8.36-2.09.98-1.73.98-4.02.16-6.3-5.2-14.48-7.03-29.49-7.2-44.15-1.87-.1-1.09-.06-2.96-.16-1.01,10.19-1.14,20.54-.4,30.77.03.45-.32.83-.77.83h-.63c-.41,0-.75-.32-.78-.73-.58-9.08-.56-18.26.07-27.34.03-.45-.32-.82-.77-.82-.68,0-1.37,0-2.05,0t0,0Z" fill="none"/>
  </g>
</svg>