<?xml version="1.0" encoding="UTF-8"?>
<svg id="Layer_1" data-name="Layer 1" xmlns="http://www.w3.org/2000/svg" viewBox="0 0 110.9 68.86">
  <path d="M51.36,32.06c6.68-1.98,12.81-6.46,14.14-12.39,1.9-8.46-6.77-16.52-16.5-18.78-12.12-2.81-25.57,1.3-34.36,8.96C5.85,17.5,1.34,28.21.24,38.89c-.65,6.4-.12,13.07,3.19,18.84,3.31,5.77,9.77,10.48,17.26,11.06,9.24.71,17.58-4.73,23.71-10.68,6.13-5.95,11.35-12.89,19.3-16.97,5.03-2.59,11.66-3.79,16.68-1.19,5.02,2.59,6.21,9.94,1.12,12.43-6.88,3.35-15.48-4.66-22.86-2.21-5.37,1.78-6.36,8.54-2.97,12.52s9.47,5.55,15.21,5.94c11.57.79,23.73-2.53,31.64-9.78,7.91-7.26,10.85-18.55,6.05-27.58-4.8-9.03-17.73-17.63-28.78-14.62-7.94,2.17-13.68,7.92-18.99,13.41-5.3,5.49-11.05,14.24-18.99,16.41-5.76,1.57-14.97.35-19.19-7.88-2.72-5.31-.41-12,5.19-14.05,9.16-3.35,15.27,9.98,23.55,7.53Z" fill="#dcf343"/>
  <path d="M52,18.92c-2.97-4.08-7.93-6.89-13.04-7.09-8.16-.32-15.89,5.03-19.84,12.19-3.42,6.2-4.3,13.97-1.49,20.48,2.8,6.51,9.54,11.37,16.63,11.14,8.88-.28,15.78-7.73,20.63-15.18,4.85-7.45,9.16-15.86,16.87-20.28,7.63-4.37,17.9-3.66,24.77,1.83,6.87,5.48,9.85,15.43,7,23.75-2.84,8.32-11.37,14.38-20.16,14.22-5.71-.1-11.06-2.59-15.52-6.23" fill="none" stroke="#074bb6" stroke-miterlimit="10" stroke-width="2"/>
  <circle cx="54.81" cy="21.45" r="4.3" fill="none" stroke="#074bb6" stroke-miterlimit="10" stroke-width="2"/>
  <circle cx="64.54" cy="50.22" r="4.25" fill="none" stroke="#074bb6" stroke-miterlimit="10" stroke-width="2"/>
</svg>