<?xml version="1.0" encoding="UTF-8"?>
<svg id="Layer_1" data-name="Layer 1" xmlns="http://www.w3.org/2000/svg" viewBox="0 0 100.37 123.39">
  <path d="M89.59,54.03c6.42-8.51,11.78-18.75,10.61-29.34s-11.3-20.6-21.68-18.17c-9.25,2.16-14.78,12.59-24.02,14.76-8.38,1.97-16.48-3.44-24.03-7.57-7.55-4.14-17.94-6.81-24.01-.7-2.49,2.51-3.65,6.03-4.48,9.48-3.41,14.21-2.41,29.45,2.82,43.1,15.62,40.7,66.92,12.11,84.78-11.55Z" fill="#dcf343"/>
  <g>
    <g>
      <rect x="25.1" y="1.09" width="39.12" height="67.77" rx="4" ry="4" transform="translate(-.2 .26) rotate(-.33)" fill="#fff" stroke="#004cbc" stroke-miterlimit="10" stroke-width="2"/>
      <rect x="34.11" y="6.74" width="21.14" height="5.79" rx="2.89" ry="2.89" fill="#fff" stroke="#004cbc" stroke-miterlimit="10" stroke-width="2"/>
      <path d="M46.54,47.49c.39-.42.22-1.38-.26-1.83-.47-.45-1.11-.43-1.55-.09s-.7.93-.88,1.56c-.36,1.28-.28,3.06.68,4,.61.6,1.42.68,2.05.38s1.11-.92,1.5-1.6c1.12-1.97,1.51-4.98.2-7.24-.99-1.72-2.78-2.58-4.28-2.29s-2.7,1.57-3.37,3.22c-.67,1.65-.87,3.63-.81,5.61.07,2.34.68,5.12,2.39,6.34.84.6,1.8.71,2.69.64,3.04-.22,5.79-2.3,7.07-5.62,1.28-3.32,1-7.8-.85-11.31-1.85-3.51-5.23-5.82-8.25-5.45-3.41.41-5.79,3.86-7.3,7.56-.84,2.06-1.52,4.34-1.45,6.81.11,4.25,2.56,8.58,5.71,10.68,3.15,2.1,6.82,2.05,9.64.28,2.81-1.77,4.78-5.12,5.75-8.99" fill="none" stroke="#004cbc" stroke-miterlimit="10" stroke-width="2"/>
    </g>
    <path d="M86.82,121.3c-2.7-5.65-5.4-11.3-8.1-16.96-.7-1.47-1.41-2.95-1.88-4.5-1.19-3.9-.9-8.08-.87-12.16.04-5.94-.52-11.88-1.68-17.7-.17-.86-.61-1.67-1.33-2.18-1.93-1.37-3.92.54-4.4,2.47-.41,1.65.94,9.86-.75,9.64-1.96-.25-1.01-11.07-1.96-14.22-.24-.79-.51-1.6-1.06-2.22s-1.45-1-2.22-.71c-.81.31-1.21,1.2-1.48,2.02-.58,1.74.11,9.68.18,13.01.01.62-.88.7-.99.1-.58-3.19-1.8-11-2.1-12.7-.3-1.74-.82-3.58-2.41-4.57-.91-.57-2.1-.64-2.97-.01-1.26.91-1.09,2.57-.86,3.99.5,3.02,1.13,8.8,1.69,13.17.08.6-.8.8-.97.21-.98-3.25-1.7-7.55-2.37-9.49-2.21-6.39-6.03-21.11-9.72-19.85-3.12,1.06,5.05,23.7,4.69,35.12-.01.4-.47.61-.8.39-2.05-1.39-4.39-2.32-6.37-3.83-1.52-1.17-3.07-2.35-4.84-3.08-1.56-.64-3.27-.91-4.96-.78-.66.05-1.46.29-1.59.95-.1.51.29.97.65,1.35,4.68,4.95,8.95,10.29,12.73,15.95,2.06,3.08,4.01,6.3,6.71,8.84,4.11,3.85,9.71,5.91,13.5,10.08,2.42,2.66,3.96,6.1,4.34,9.68" fill="#fff" stroke="#004cbc" stroke-miterlimit="10" stroke-width="2"/>
    <path d="M45.51,4.98v22.37c0,.57-.46,1.03-1.03,1.03h-6.01c-.35,0-.68.18-.87.47l-3.28,5.07c-.4.62-1.3.63-1.71.03l-3.55-5.13c-.19-.28-.51-.44-.85-.44H8.93c-.57,0-1.03-.46-1.03-1.03V4.98c0-.57.46-1.03,1.03-1.03h35.55c.57,0,1.03.46,1.03,1.03Z" fill="#fff" stroke="#004cbc" stroke-miterlimit="10" stroke-width="2"/>
    <path d="M54.86,22.52v22.37c0,.57.46,1.03,1.03,1.03h6.01c.35,0,.68.18.87.47l3.28,5.07c.4.62,1.3.63,1.71.03l3.55-5.13c.19-.28.51-.44.85-.44h19.28c.57,0,1.03-.46,1.03-1.03v-22.37c0-.57-.46-1.03-1.03-1.03h-35.55c-.57,0-1.03.46-1.03,1.03Z" fill="#fff" stroke="#004cbc" stroke-miterlimit="10" stroke-width="2"/>
    <path d="M65.71,27.25c2.38-3.19,5.84-.3,7.7,2.57.1.15.31.17.42.03,1.65-2.02,4.44-6.75,7.53-2.61,3.19,4.29-3.89,10.96-7.98,13.89-.1.07-.23.06-.33-.02-3.55-3.36-9.76-10.61-7.33-13.87h0Z" fill="#dcf343"/>
    <path d="M18.54,8.85c2.77-3.63,5.85.21,7.86,3.36.1.16.32.2.44.06,1.84-2.22,4.3-5.99,7.7-1.53,3.82,3.66-4.06,9.17-8.13,13.52-.1.09-.23.1-.33.02-3.69-2.92-10.72-11.71-7.54-15.45,0,0,0,0,0,0Z" fill="#dcf343"/>
  </g>
</svg>