<?xml version="1.0" encoding="UTF-8"?>
<svg id="Layer_1" data-name="Layer 1" xmlns="http://www.w3.org/2000/svg" viewBox="0 0 118.15 114.64">
  <path d="M17.67,84.8c2.15,13.88,14.19,24.97,27.79,28.45,13.6,3.47,28.27.22,40.67-6.37,5.1-2.71,10-6.06,13.47-10.68,3.47-4.62,5.35-10.69,3.97-16.3s-6.5-10.4-12.28-10.39c-7.32.01-12.57,6.8-19.03,10.23-7.23,3.84-16.61,3.21-23.25-1.57-6.22-4.48-10.41-12.32-17.89-14-6.87-1.54-14.19,3.5-16.27,10.23s.5,14.35,5.43,19.37" fill="#dcf343"/>
  <g>
    <path d="M32.43,27.67c-6.37,5.5-10.45,12.83-13.51,20.31-2.06,5.03-3.72,10.23-4.25,15.57-1.78,18.09,11.39,36.65,30.44,42.19,19.05,5.55,41.97-2.88,50.94-19.11,2.95-5.33,4.46-11.23,5.16-17.16,1.76-14.88-1.96-36.6-17.99-44.45-16.08-7.88-36.61-9.58-50.79,2.65Z" fill="#fff" stroke="#004cbc" stroke-miterlimit="10" stroke-width="2"/>
    <circle cx="58.41" cy="54.57" r="16.11" fill="none" stroke="#074bb6" stroke-miterlimit="10" stroke-width="2"/>
    <path d="M88.37,96.07c-11.11,9.8-28.37,14.01-43.26,9.67-7.37-2.14-13.86-6.24-18.94-11.5,3.9-13.36,16.24-23.12,30.86-23.12s28.07,10.66,31.34,24.95Z" fill="none" stroke="#074bb6" stroke-miterlimit="10" stroke-width="2"/>
    <circle cx="14.89" cy="58.27" r="14.89" fill="#dcf343"/>
    <circle cx="57.27" cy="14.89" r="14.89" fill="#dcf343"/>
    <circle cx="103.26" cy="55.22" r="14.89" fill="#dcf343"/>
    <polyline points="5.35 59.66 10.2 64.51 22.9 51.82" fill="none" stroke="#074bb6" stroke-linecap="round" stroke-linejoin="round" stroke-width="2"/>
    <polyline points="94.48 56.72 99.34 61.57 112.04 48.88" fill="none" stroke="#074bb6" stroke-linecap="round" stroke-linejoin="round" stroke-width="2"/>
    <polyline points="47.61 16.38 52.46 21.24 65.16 8.54" fill="none" stroke="#074bb6" stroke-linecap="round" stroke-linejoin="round" stroke-width="2"/>
  </g>
</svg>