<?xml version="1.0" encoding="UTF-8"?>
<svg id="Layer_1" data-name="Layer 1" xmlns="http://www.w3.org/2000/svg" viewBox="0 0 111.22 108.07">
  <path d="M87.33,60.4c10.56-3.89,20.27-13.59,19.22-24.8-.76-8.09-7-14.83-14.27-18.45-7.27-3.62-15.51-4.68-23.57-5.68-3.59-.45-7.33-.88-10.73.36s-6.28,4.69-5.59,8.24c.56,2.86,3.13,4.83,4.63,7.33,3.55,5.9.38,14.01-5.16,18.1s-12.7,5.13-19.55,5.83-13.97,1.26-19.98,4.63C3.56,60.87-1.31,71.66.31,81.57s9.34,18.44,18.89,21.54c9.56,3.1,20.53.87,28.48-5.27.94-.72,1.87-1.55,2.28-2.66,1.38-3.76-3.59-6.36-6.68-8.91-4.59-3.79-5.72-11.14-2.48-16.13,4.38-6.74,11.38-5.05,18.04-4.99,9.15.09,19.9-1.6,28.48-4.75Z" fill="#dcf343"/>
  <path d="M35.11,18.44c11.29-1.64,33.02-.79,43.88,2.43,5.6,1.66,11.1,4.03,15.14,7.89,4.04,3.86,6.41,9.41,5.02,14.56-1.42,5.22-6.44,9.17-11.99,11.19s-11.64,2.4-17.61,2.77c-9.65.59-19.3,1.18-28.95,1.77-5.54.34-11.18.7-16.37,2.47-5.19,1.78-9.96,5.22-11.7,9.97-2.89,7.92,3.86,16.58,12.39,19.85,8.54,3.27,18.23,2.56,27.47,1.79,5.75-.48,20.51-.96,26.26-1.44" fill="none" stroke="#004cbc" stroke-miterlimit="10" stroke-width="2"/>
  <circle cx="93.82" cy="90.66" r="17.41" fill="#dcf343"/>
  <polyline points="83.56 92.41 89.23 98.08 104.07 83.24" fill="none" stroke="#074bb6" stroke-linecap="round" stroke-linejoin="round" stroke-width="2"/>
  <path d="M22.57,25.81c-3.65,0-6.69-3.05-6.7-6.7,0-3.65,3.05-6.69,6.7-6.7,3.65,0,6.69,3.06,6.7,6.7,0,3.64-3.05,6.69-6.7,6.7M41.44,23.71c-1.26-.63-2.53-1.29-3.82-1.98-.39-.21-.62-.63-.55-1.07.09-.58.13-1.17.13-1.77,0-.47-.03-.94-.08-1.4-.05-.43.17-.84.55-1.04,1.27-.68,2.52-1.33,3.77-1.95.54-.27.69-.9.34-1.42-1.44-2.18-2.93-4.43-4.41-6.73-.36-.56-1.05-.8-1.55-.55-1.12.57-2.26,1.17-3.42,1.8-.38.2-.86.15-1.23-.14-.94-.75-1.95-1.39-3.01-1.9-.41-.19-.67-.62-.69-1.07-.05-1.41-.1-2.81-.16-4.22-.03-.63-.52-1.17-1.1-1.2-2.42-.1-4.83-.1-7.25,0-.58.03-1.08.56-1.1,1.2-.06,1.41-.11,2.81-.16,4.22-.02.45-.28.87-.69,1.07-1.06.51-2.07,1.15-3.01,1.9-.37.29-.85.34-1.23.14-1.16-.63-2.3-1.23-3.42-1.8-.5-.26-1.19,0-1.55.55-1.48,2.3-2.97,4.55-4.41,6.73-.35.52-.19,1.16.34,1.42,1.24.62,2.5,1.27,3.77,1.95.39.21.61.61.55,1.04-.05.46-.08.93-.08,1.4,0,.6.04,1.19.13,1.77.06.44-.16.86-.55,1.07-1.28.69-2.56,1.35-3.82,1.98-.54.27-.69.9-.34,1.42,1.44,2.18,2.93,4.43,4.41,6.73.36.55,1.05.81,1.55.55,1.22-.62,2.47-1.28,3.74-1.97.37-.2.84-.17,1.2.11.85.64,1.75,1.2,2.71,1.66.4.2.67.62.68,1.07.05,1.55.11,3.11.18,4.66.03.63.52,1.17,1.1,1.2,2.42.1,4.83.1,7.25,0,.58-.02,1.08-.56,1.1-1.2.07-1.55.13-3.11.18-4.66.02-.45.28-.87.68-1.07.95-.45,1.86-1.01,2.71-1.66.36-.28.84-.31,1.2-.11,1.27.69,2.52,1.35,3.74,1.97.5.26,1.19,0,1.55-.55,1.48-2.3,2.97-4.55,4.41-6.73.35-.52.2-1.15-.34-1.42" fill="#fff" stroke="#004cbc" stroke-miterlimit="10" stroke-width="2"/>
</svg>