<?xml version="1.0" encoding="UTF-8"?>
<svg id="Layer_1" data-name="Layer 1" xmlns="http://www.w3.org/2000/svg" viewBox="0 0 103.55 110.73">
  <path d="M7.75,40.79c-9.2,10.61-9.89,26.96-3.75,39.59,6.14,12.63,18.1,21.72,31.14,26.93,5.37,2.14,11.09,3.72,16.86,3.38,5.77-.34,11.61-2.82,15-7.5,3.39-4.68,3.74-11.68,0-16.08-4.74-5.58-13.31-5.2-20.11-7.92-7.6-3.03-13.18-10.6-13.82-18.76-.6-7.64,2.68-15.91-.88-22.7-3.27-6.24-11.84-8.57-18.32-5.81-6.48,2.76-10.63,9.65-11.27,16.66" fill="#dcf343"/>
  <g>
    <path d="M71.16,2.98c.65-2.28,3.11-3.55,5.34-2.73,3.11,1.16,6.14,2.7,9.02,4.62,3.34,2.23,7.66,4.08,8.78,7.74,2.04,6.69-27.41,31.43-32.99,28.49-4.97-2.62,5.64-23.44,9.86-38.13Z" fill="#dcf343"/>
    <path d="M96.03,54.04c0,24.07-19.51,43.58-43.58,43.58S8.86,78.11,8.86,54.04,28.38,10.46,52.44,10.46c4.02,0,7.91.54,11.6,1.56,1.07.29-15.5,38.75-11.6,42.02,2.38,2,35.73-24.99,36.32-24.09,4.59,6.9,7.26,15.18,7.26,24.09Z" fill="#fff" stroke="#004cbc" stroke-miterlimit="10" stroke-width="2"/>
    <path d="M74.61,1.65c4.46,1.63,8.73,4.02,12.61,7.2,3.11,2.54,5.78,5.42,8,8.55.64.9-31.89,25.05-35.57,25.2-3.11.13,10.11-27.54,14.96-40.94Z" fill="none" stroke="#004cbc" stroke-miterlimit="10" stroke-width="2"/>
    <polyline points="8.86 51.17 52.44 54.04 66.38 95.34" fill="none" stroke="#004cbc" stroke-miterlimit="10" stroke-width="2"/>
    <rect x="42.23" y="70.75" width="60.32" height="38.25" rx="4" ry="4" fill="#fff" stroke="#004cbc" stroke-miterlimit="10" stroke-width="2"/>
    <rect x="49.56" y="83.81" width="10.45" height="19.02" rx="4" ry="4" fill="#fff" stroke="#004cbc" stroke-miterlimit="10" stroke-width="2"/>
    <rect x="67.17" y="81.45" width="10.45" height="21.38" rx="4" ry="4" fill="#fff" stroke="#004cbc" stroke-miterlimit="10" stroke-width="2"/>
    <rect x="84.77" y="76.16" width="10.45" height="26.68" rx="4" ry="4" fill="#dcf343" stroke="#004cbc" stroke-miterlimit="10" stroke-width="2"/>
  </g>
</svg>