<?xml version="1.0" encoding="UTF-8"?>
<svg id="Layer_1" data-name="Layer 1" xmlns="http://www.w3.org/2000/svg" viewBox="0 0 104.79 102.14">
  <g>
    <g>
      <path d="M1.33,68.38C-.82,48.5,7.72,27.49,24.8,17.01c17.08-10.48,40.09-10,57.15.52,14.79,9.12,16.31,30.23,13.91,47.4-2.4,17.17-24.93,36.22-47.99,36.22-31.41,0-45.09-19.3-46.55-32.77Z" fill="#d5f300"/>
      <path d="M47.87,102.14c-14.24,0-26.4-4-35.16-11.58-6.9-5.97-11.53-14.22-12.38-22.08C-1.95,47.37,7.67,26.34,24.28,16.15c17.2-10.55,40.58-10.34,58.2.52,7.27,4.48,18.8,16.73,14.38,48.39-1.2,8.56-7.41,17.98-16.62,25.2-9.64,7.55-21.43,11.88-32.36,11.88ZM52.7,10.38c-9.66,0-19.24,2.49-27.38,7.48C9.37,27.65.12,47.91,2.32,68.27c1.38,12.81,14.66,31.87,45.55,31.87,23.3,0,44.77-19.34,47-35.35,1.47-10.55,3.12-36.2-13.45-46.41-8.64-5.33-18.72-8-28.73-8Z" fill="#004cbc"/>
    </g>
    <g>
      <path d="M27.51,39.85c-5.24,8.14-5.84,19.1-1.31,27.66,4.53,8.55,14.08,14.28,23.78,14.02s19.03-6.61,22.59-15.6c2.63-6.64,2.12-14.44-1.35-20.68-8.69-15.62-32.81-22.32-43.7-5.4Z" fill="#fff"/>
      <path d="M49.35,82.53c-9.8,0-19.39-5.79-24.03-14.56-4.69-8.85-4.15-20.11,1.36-28.67,4.47-6.95,11.5-10.64,19.79-10.36,10.25.33,20.55,6.68,25.63,15.81,3.63,6.53,4.16,14.58,1.41,21.53-3.68,9.29-13.34,15.96-23.49,16.23-.22,0-.44,0-.66,0ZM45.64,30.93c-7.23,0-13.34,3.34-17.28,9.46h0c-5.13,7.96-5.62,18.42-1.27,26.65,4.4,8.32,13.59,13.73,22.87,13.49,9.38-.25,18.29-6.41,21.69-14.97,2.53-6.4,2.05-13.81-1.3-19.82-4.75-8.54-14.37-14.48-23.94-14.79-.26,0-.51-.01-.76-.01Z" fill="#004cbc"/>
    </g>
    <g>
      <path d="M44.9,49.44c-2.73.94-4.77,3.62-4.95,6.49-.18,2.87,1.51,5.78,4.11,7.05,2.18,1.07,4.8.99,7.09.16,2.69-.97,5.1-3.14,5.65-5.94,1.13-5.72-7.32-9.34-11.9-7.76Z" fill="#d5f300"/>
      <path d="M47.67,64.78c-1.44,0-2.82-.3-4.04-.89-2.95-1.44-4.87-4.74-4.67-8.01.2-3.27,2.51-6.3,5.62-7.38h0c3.17-1.09,7.89,0,10.75,2.5,2.05,1.78,2.92,4.06,2.45,6.4-.58,2.93-2.99,5.5-6.29,6.69-1.27.46-2.57.69-3.83.69ZM45.23,50.39c-2.36.82-4.12,3.12-4.27,5.61-.15,2.49,1.31,4.99,3.55,6.09,1.79.88,4.09.92,6.31.12,2.61-.94,4.57-2.98,5.01-5.2.41-2.06-.76-3.59-1.81-4.5-2.33-2.03-6.28-2.98-8.79-2.12h0Z" fill="#004cbc"/>
    </g>
  </g>
  <g>
    <line x1="56.96" y1="47.84" x2="93.42" y2="11.38" fill="none" stroke="#004cbc" stroke-miterlimit="10" stroke-width="2"/>
    <path d="M56.9,41.78l1.81,3.83c.1.21.27.38.48.48l3.83,1.81c.78.37.76,1.49-.04,1.83l-11.39,4.79c-.83.35-1.66-.48-1.31-1.31l4.79-11.39c.34-.8,1.46-.82,1.83-.04Z" fill="#d5f300" stroke="#004cbc" stroke-miterlimit="10" stroke-width="2"/>
    <path d="M97.33,1.57l1.74,3.68c.1.21.27.38.48.48l3.68,1.74c.63.3.77,1.12.28,1.61l-6.65,6.65c-.3.3-.75.38-1.13.2l-4.32-2.04c-.21-.1-.38-.27-.48-.48l-2.04-4.32c-.18-.38-.1-.84.2-1.13l6.65-6.65c.49-.49,1.32-.35,1.61.28Z" fill="#d5f300" stroke="#004cbc" stroke-miterlimit="10" stroke-width="2"/>
  </g>
</svg>