<?xml version="1.0" encoding="UTF-8"?>
<svg id="Layer_1" data-name="Layer 1" xmlns="http://www.w3.org/2000/svg" viewBox="0 0 74.11 75.22">
  <path d="M58.02,39.46c-3.12-3.77-6.24-7.53-9.37-11.3-4.82-5.82-9.89-11.83-16.77-14.94-4.68-2.12-10.14-2.73-15.02-1.11s-9.04,5.62-10.29,10.6c-1.26,4.98.73,10.77,5.09,13.48,2.53,1.58,5.61,2.09,8.18,3.61,5.06,3,7.12,9.16,10.7,13.82,4.8,6.26,12.85,9.87,20.72,9.31,3.02-.22,6.09-1.06,8.38-3.04,6.3-5.44,2.75-15.15-1.62-20.43Z" fill="#d5f300"/>
  <path d="M53.29,28.17c-3.75,0-6.79-3.04-6.79-6.79s3.04-6.79,6.79-6.79,6.79,3.04,6.79,6.79-3.04,6.79-6.79,6.79M72.52,26.47l-3.95-2.28c-.4-.23-.64-.68-.58-1.15.08-.62.12-1.25.12-1.89,0-.5-.03-1-.07-1.49-.05-.46.18-.9.58-1.12l3.9-2.25c.56-.32.75-1.04.43-1.6l-4.03-6.99c-.32-.56-1.04-.75-1.6-.43l-3.76,2.17c-.4.23-.91.21-1.28-.08-.95-.72-1.98-1.33-3.09-1.81-.42-.18-.69-.61-.69-1.07V2.17c0-.65-.53-1.17-1.17-1.17h-8.07c-.65,0-1.17.53-1.17,1.17v4.3c0,.46-.27.88-.69,1.07-1.11.48-2.14,1.09-3.09,1.81-.37.28-.88.31-1.28.08l-3.76-2.17c-.56-.32-1.28-.13-1.6.43l-4.03,6.99c-.32.56-.13,1.28.43,1.6l3.9,2.25c.4.23.62.67.58,1.12-.05.49-.07.99-.07,1.49,0,.64.04,1.27.12,1.89.06.46-.17.91-.58,1.15l-3.95,2.28c-.56.32-.75,1.04-.43,1.6l4.03,6.99c.32.56,1.04.75,1.6.43l4.1-2.37c.39-.23.89-.21,1.26.05.86.62,1.79,1.15,2.78,1.58.42.18.69.61.69,1.07v4.75c0,.65.52,1.17,1.17,1.17h8.07c.65,0,1.17-.52,1.17-1.17v-4.75c0-.46.26-.88.69-1.07.99-.43,1.92-.96,2.78-1.58.37-.27.86-.28,1.26-.05l4.1,2.37c.56.32,1.28.13,1.6-.43l4.03-6.99c.32-.56.13-1.28-.43-1.6" fill="#fff" stroke="#004cbc" stroke-miterlimit="10" stroke-width="2"/>
  <path d="M20.82,61.39c-4.1,0-7.53-3.44-7.54-7.54,0-4.1,3.44-7.53,7.54-7.54,4.11,0,7.53,3.44,7.54,7.54,0,4.1-3.43,7.53-7.54,7.54M42.05,59.02c-1.42-.71-2.85-1.45-4.29-2.22-.44-.24-.69-.71-.62-1.2.1-.65.15-1.32.15-1.99,0-.53-.03-1.05-.09-1.57-.06-.48.19-.94.62-1.17,1.42-.76,2.84-1.49,4.24-2.19.6-.3.78-1.01.38-1.6-1.63-2.45-3.3-4.98-4.97-7.57-.4-.62-1.18-.91-1.75-.62-1.26.64-2.54,1.32-3.85,2.02-.42.23-.97.17-1.39-.16-1.05-.84-2.19-1.56-3.39-2.14-.46-.22-.75-.7-.77-1.2-.05-1.58-.11-3.16-.18-4.75-.04-.72-.59-1.32-1.24-1.35-2.72-.11-5.43-.11-8.15,0-.65.03-1.21.64-1.24,1.35-.07,1.58-.13,3.16-.18,4.75-.01.51-.31.98-.77,1.2-1.19.58-2.33,1.3-3.39,2.14-.42.33-.96.39-1.39.16-1.3-.7-2.59-1.38-3.85-2.02-.56-.29-1.34,0-1.75.62-1.67,2.59-3.34,5.12-4.97,7.57-.39.59-.22,1.29.38,1.6,1.4.7,2.81,1.43,4.24,2.19.43.23.68.69.62,1.17-.06.52-.1,1.04-.09,1.57,0,.68.05,1.34.15,1.99.07.49-.18.96-.62,1.2-1.44.77-2.88,1.51-4.29,2.22-.6.3-.78,1.01-.38,1.6,1.63,2.45,3.3,4.98,4.97,7.57.4.62,1.19.91,1.75.62,1.38-.7,2.78-1.44,4.21-2.22.41-.22.95-.18,1.35.13.96.72,1.98,1.35,3.05,1.86.46.22.75.69.77,1.2.06,1.75.12,3.5.2,5.25.03.71.59,1.32,1.24,1.35,2.72.11,5.43.11,8.15,0,.65-.03,1.21-.64,1.24-1.35.08-1.75.14-3.5.2-5.25.02-.51.31-.98.77-1.2,1.07-.51,2.09-1.14,3.05-1.86.41-.31.94-.35,1.35-.13,1.43.77,2.83,1.52,4.21,2.22.56.29,1.34,0,1.75-.62,1.67-2.59,3.34-5.12,4.97-7.57.4-.59.22-1.3-.38-1.6" fill="#fff" stroke="#004cbc" stroke-miterlimit="10" stroke-width="2"/>
</svg>