<?xml version="1.0" encoding="UTF-8"?>
<svg id="Layer_1" data-name="Layer 1" xmlns="http://www.w3.org/2000/svg" viewBox="0 0 111.79 62.07">
  <path d="M99.01,44.41c6.47-13.1.48-30.92-12.61-37.39-11.94-5.9-26.17-2.6-39.04.82-6.95,1.85-14.14,3.81-19.65,8.43-5.51,4.62-8.81,12.7-5.74,19.19,3.69,7.8,14.67,13.76,21.47,18.6,5.1,3.63,10.45,7.09,16.81,7.78,13.72,1.5,32.32-4.57,38.75-17.44Z" fill="#d5f300"/>
  <path d="M22.31,17.01s-13.97.82-20.28,4.51" fill="none"/>
  <g>
    <path d="M47.2,23.7c-.06-2.7,1.67-8.77,1.67-8.77l-9.13-3.4-3.96,3.4-7.61.59,3.92,3.44,4.55-3.44c3.67,3.3,5.68,7.61,7.15,12.32.14.44.27.9.56,1.27s.77.62,1.22.49c.56-.16,1.17-.82,1.4-1.81s.36-2.59.23-4.09" fill="#fff" stroke="#004cbc" stroke-miterlimit="10" stroke-width="1.5"/>
    <path d="M48.75,16.39c2.88,3.76,5.19,9.06,4.31,13.71-.05.28-.14.6-.39.74-.47.26-.96-.29-1.22-.75-3.27-5.79-7.62-10.95-12.77-15.16" fill="#fff" stroke="#004cbc" stroke-miterlimit="10" stroke-width="1.5"/>
    <path d="M31.59,16.85c-.54,2.77-1.08,5.54-1.62,8.31-.17.9-.27,2.02.49,2.53.58.4,1.36.21,2.01-.06,2.03-.85,3.73-2.44,4.72-4.41.99-1.97,1.24-4.29.71-6.42l-.62-2.41-5.69,2.45Z" fill="#fff" stroke="#004cbc" stroke-miterlimit="10" stroke-width="1.5"/>
    <path d="M.12,1.9c30.93-4.84,56.57,6.47,63.76,17.99.58.93-.27,2.1-1.34,1.84-5.48-1.37-12.17-4.77-17.45-6.88-1.23-.49-2.58-.54-3.84-.13-4.56,1.47-16.31,2.13-18.93,2.3-6.97.45-9.49,1.83-20.28,4.76" fill="#fff" stroke="#004cbc" stroke-miterlimit="10" stroke-width="1.5"/>
    <path d="M29.96,12.52c3.46,2.15,6.37,5.18,8.38,8.72.8,1.41,1.38,3.41.17,4.5-1.29,1.15-3.29.19-4.71-.8-4.57-3.16-9.14-6.32-13.72-9.48" fill="#fff" stroke="#004cbc" stroke-miterlimit="10" stroke-width="1.5"/>
  </g>
  <g>
    <path d="M97.18,50.7c-4.74,1.37-9.85,1.48-14.64.31l.54,7.88c.09,1.39-1.77,1.95-2.45.73l-2.03-3.63-.94-2.49-5.25-2.36-2.38,4.31c-.77,1.4-2.92.6-2.58-.97l.93-4.32s5.41-12.81,6.01-13.67,1.56-1.4,1.56-1.4c-4.46-2.45-8.5-6.2-10.39-10.51-.32-.72-.57-1.65.17-2.17.5-.36,1.19-.31,1.72.01,3.53,2.17,7.2,4.1,10.99,5.78,9.84,4.37,20.35,6.99,30.8,9.6l2.57,20.45s-6.71-1.41-10.06-3.25-8.84-5.26-8.84-5.26" fill="#fff"/>
    <path d="M82.54,44.35c-1.79,3.03-3.51,3.1-7.84,13.8-.19.47-.6.93-1.11.97-.64.05-1.07-.64-1.26-1.26-.56-1.76-.48-5.46.22-7.17" fill="#fff" stroke="#004cbc" stroke-miterlimit="10" stroke-width="1.5"/>
    <path d="M109.22,37.81c-10.45-2.61-20.96-5.23-30.8-9.6-3.54-1.57-6.99-3.37-10.31-5.37-.84-.5-2.06-.96-2.65-.19-.42.54-.19,1.31.08,1.94,2.62,6,9.43,10.91,15.71,12.75" fill="#fff" stroke="#004cbc" stroke-miterlimit="10" stroke-width="1.5"/>
    <path d="M77.91,43.37c-2.58,2.37-6,8.27-7.63,11.37-.23.44-.46.9-.85,1.21s-.99.41-1.37.1c-.37-.3-.41-.85-.4-1.33.1-5.07,3.47-13.03,6.12-17.35,1.56-2.55,2.63-2,2.63-2" fill="none" stroke="#004cbc" stroke-miterlimit="10" stroke-width="1.5"/>
    <path d="M82.84,46.08c0,2.48.04,10.34.04,12.82,0,.52-.06,1.15-.53,1.38-.48.24-1.04-.12-1.43-.5-1.57-1.49-3.11-5.4-3.62-7.5" fill="none" stroke="#004cbc" stroke-miterlimit="10" stroke-width="1.5"/>
    <path d="M95.46,51.14c5.27,3.97,9.76,5.55,15.39,7.12" fill="#fff" stroke="#004cbc" stroke-miterlimit="10" stroke-width="1.5"/>
    <path d="M87.93,36.3c-3.8,1-7.78,1.31-11.69.91-1.33-.14-2.92-.25-3.73.81-.66.88-.39,2.2.34,3.03s1.79,1.26,2.83,1.62c5.71,1.98,11.89,2.58,17.87,1.74" fill="#fff" stroke="#004cbc" stroke-miterlimit="10" stroke-width="1.5"/>
    <path d="M82.54,51.01c3.29.79,9.02,1.32,15.41-.26" fill="#fff" stroke="#004cbc" stroke-miterlimit="10" stroke-width="1.5"/>
  </g>
</svg>