<?xml version="1.0" encoding="UTF-8"?>
<svg id="Layer_1" data-name="Layer 1" xmlns="http://www.w3.org/2000/svg" viewBox="0 0 108.89 85.45">
  <path d="M65.95,51.56c-1.32,6.61,3.44,13.77,10,15.31,6.56,1.54,13.89-2.6,16.16-8.95,2.2-6.17-.61-15.63-7.42-17.5-7.85-2.15-17.12,3.07-18.73,11.14Z" fill="#d5f300"/>
  <path d="M48.23,60.98c.18-9.6,6.27-17.9,10.81-26.36,4.54-8.46,7.49-19.45,1.84-27.21C57.71,3.05,52.32.69,46.95.14c-5.37-.54-10.77.54-15.98,1.95-9.56,2.58-19.32,6.66-25.21,14.63C1.27,22.82-.46,30.69.1,38.25c.57,7.56,3.3,14.83,6.99,21.45,5.19,9.29,12.59,17.67,22.23,22.18,6.87,3.22,18.81,5.56,25.77,1.14,5.05-3.2,0-4.82-2.61-8.53-2.76-3.91-4.35-8.7-4.26-13.5Z" fill="#d5f300"/>
  <g>
    <g>
      <rect x="12.17" y="23.49" width="25.11" height="17.57" rx="4" ry="4" fill="#fff" stroke="#004cbc" stroke-miterlimit="10" stroke-width="2"/>
      <path d="M21.54,17.3h6.51c1.66,0,3,1.34,3,3v3.19h-12.51v-3.19c0-1.66,1.34-3,3-3Z" fill="none" stroke="#074bb6" stroke-miterlimit="10" stroke-width="2"/>
    </g>
    <g>
      <path d="M73.61,30.76l11.7-11.7c1.68-1.68,4.39-1.7,6.1-.06l12.2,11.75" fill="none" stroke="#074bb6" stroke-miterlimit="10" stroke-width="2"/>
      <polyline points="78.44 25.93 78.44 40.57 98.23 40.57 98.23 25.57" fill="none" stroke="#074bb6" stroke-miterlimit="10" stroke-width="2"/>
    </g>
    <line x1="4.94" y1="47.52" x2="108.89" y2="47.52" fill="none" stroke="#074bb6" stroke-miterlimit="10" stroke-width="2"/>
    <path d="M42.07,66.47l10.26-10.92c1.97-2.1,5.32-2.07,7.25.07l9.79,10.86c.58.64.12,1.67-.74,1.67h-25.83c-.88,0-1.33-1.05-.73-1.68Z" fill="#fff" stroke="#004cbc" stroke-miterlimit="10" stroke-width="2"/>
  </g>
</svg>