<?xml version="1.0" encoding="UTF-8"?>
<svg id="Layer_1" data-name="Layer 1" xmlns="http://www.w3.org/2000/svg" viewBox="0 0 86.03 108.39">
  <path d="M39.5,104.56c2.5-1.97,3.98-5.51,2.75-8.44s-5.69-4.18-7.8-1.79c3.64-1.4,5.83-5.77,4.77-9.52s-5.21-6.34-9.04-5.63c-3.83.7-6.79,4.6-6.44,8.48-.24-3.9-2.52-7.75-6.08-9.37s-8.26-.63-10.5,2.57c-2.24,3.21-1.28,8.32,2.19,10.14-1.31-2.6-5.35-2.91-7.48-.92-2.13,1.99-2.37,5.45-1.14,8.09,4.95,10.58,30.19,13.13,38.75,6.4Z" fill="#dcf343"/>
  <path d="M85.94,97.15c.79-4.84-4.19-9.66-9-8.72,2.78.7,5.62-1.99,5.74-4.86s-1.88-5.5-4.37-6.93c-3.28-1.88-7.55-2-10.85-.15-3.3,1.85-5.46,5.64-5.22,9.41-1.34-5.7-6.42-10.32-12.22-11.13-5.8-.81-11.95,2.26-14.8,7.37-2.85,5.12-2.21,11.96,1.53,16.46,4.67,5.63,12.71,6.95,20.02,7.17,6.73.2,27.56,1.19,29.17-8.63Z" fill="#dcf343"/>
  <path d="M69.67,41.62c-.91.46-1.82.9-2.73,1.35-.79.39-1.19,1.34-.91,2.16.33.93.64,1.86.95,2.81,1.96,6.28-3.59,12.61-9.18,10.85-.87-.25-1.74-.5-2.62-.74-.77-.21-1.56.27-1.77,1.08-.24.92-.47,1.83-.71,2.74-1.67,6.06-8.26,7.17-12.08,2.54-.59-.7-1.19-1.4-1.79-2.09-.54-.61-1.42-.7-1.96-.22-.61.55-1.22,1.1-1.82,1.64-3.89,3.53-10.43.6-12-4.86-.22-.84-.45-1.67-.67-2.51-.19-.74-.97-1.28-1.74-1.21-.87.08-1.74.15-2.61.23-5.57.49-10.96-5.09-8.98-9.82.31-.73.63-1.45.96-2.18.29-.64-.1-1.43-.89-1.77-.89-.39-1.79-.77-2.69-1.16-5.9-2.52-6.92-9.13-1.32-11.65.85-.39,1.7-.77,2.56-1.16.76-.34,1.01-1.13.57-1.76-.5-.72-1-1.44-1.5-2.15-3.32-4.67,1.43-10.14,8.17-9.74,1.03.07,2.05.13,3.08.19.9.06,1.73-.48,1.86-1.21.15-.82.31-1.64.46-2.47,1.03-5.35,9.24-8.4,14.14-5.05.75.52,1.49,1.04,2.23,1.57.66.46,1.7.35,2.35-.27.74-.7,1.47-1.41,2.21-2.13,4.83-4.72,13.07-3.91,14.21,2.14.17.91.34,1.82.51,2.74.15.81.98,1.27,1.89,1.04,1.03-.27,2.05-.55,3.08-.83,6.74-1.97,11.66,4.3,8.36,10.7-.5.96-1,1.91-1.49,2.86-.44.83-.17,1.78.59,2.15.87.42,1.74.85,2.6,1.29,5.7,2.82,4.67,11.94-1.32,14.88Z" fill="#d5f300" stroke="#004cbc" stroke-miterlimit="10" stroke-width="2"/>
  <path d="M36.1,31.8c-.96,24.47-.87,50.35,8.62,73.34l-18.26,1.34,4.17-40.75,5.47-33.94Z" fill="#fff" stroke="#004cbc" stroke-miterlimit="10" stroke-width="2"/>
  <path d="M66.95,105.15c-16.92-1.55-40.68,2.03-57.67,2.24" fill="none" stroke="#004cbc" stroke-miterlimit="10" stroke-width="2"/>
  <path d="M35.99,48.88c-6.35-8.02-12.71-16.04-19.06-24.05" fill="none" stroke="#004cbc" stroke-miterlimit="10" stroke-width="2"/>
  <path d="M35.8,59.56c-.54-12.46,10.32-19.95,18.77-27.39" fill="none" stroke="#004cbc" stroke-miterlimit="10" stroke-width="2"/>
</svg>