<?xml version="1.0" encoding="UTF-8"?>
<svg id="Layer_1" data-name="Layer 1" xmlns="http://www.w3.org/2000/svg" viewBox="0 0 96.35 102.09">
  <path d="M20.26,82.75c-3.77.09-7.62.19-11.25,1.05-3.64.86-7.1,2.62-8.42,5.04-1.51,2.74.09,5.77,3.01,7.71,2.92,1.93,6.96,2.95,11.01,3.69,18,3.27,37.71,1.79,56.58-1.05,6.39-.96,13.02-2.16,18.17-5.02,18.29-10.17-3.68-12.96-15.05-12.69-18.01.43-36.03.85-54.04,1.28Z" fill="#d5f300"/>
  <g>
    <path d="M48.85,17.97c-1.3,0-2.6.66-3.24,1.99l-4.03,8.43-9.27,1.21c-2.92.38-4.14,4.11-2,6.14l6.78,6.44-1.71,9.19c-.54,2.9,2.63,5.2,5.22,3.8l8.22-4.45,8.21,4.47c2.59,1.41,5.77-.89,5.24-3.79l-1.7-9.19,6.79-6.43c2.14-2.03.93-5.76-1.99-6.15l-9.27-1.23-4.02-8.43c-.64-1.33-1.93-1.99-3.23-1.99h0Z" fill="#dcf343"/>
    <rect x="18.59" y="65.27" width="60.48" height="11.27" rx="4" ry="4" fill="#fff" stroke="#004cbc" stroke-miterlimit="10" stroke-width="2"/>
    <rect x="11.53" y="80.6" width="74.6" height="11.27" rx="4" ry="4" fill="#fff" stroke="#004cbc" stroke-miterlimit="10" stroke-width="2"/>
  </g>
  <path d="M24.17,30.24c-3.84-.34-7.5-2.34-9.86-5.39" fill="none" stroke="#004cbc" stroke-miterlimit="10" stroke-width="2"/>
  <path d="M25.1,45.67c-2.89.76-5.79,1.51-8.68,2.27" fill="none" stroke="#004cbc" stroke-miterlimit="10" stroke-width="2"/>
  <path d="M35.54,20.61c-1.55-2.38-3.09-4.75-4.64-7.13" fill="none" stroke="#004cbc" stroke-miterlimit="10" stroke-width="2"/>
  <path d="M49.34,10.75c0-3.58,0-7.17,0-10.75" fill="none" stroke="#004cbc" stroke-miterlimit="10" stroke-width="2"/>
  <path d="M64.17,19.56c1.84-1.54,3.69-3.07,5.53-4.61" fill="none" stroke="#004cbc" stroke-miterlimit="10" stroke-width="2"/>
  <path d="M74.65,32.38c4.22-2.39,8.69-4.47,13.11-6.1" fill="none" stroke="#004cbc" stroke-miterlimit="10" stroke-width="2"/>
  <path d="M69.7,44.54c2.36,1.37,4.72,2.75,7.07,4.12" fill="none" stroke="#004cbc" stroke-miterlimit="10" stroke-width="2"/>
</svg>