<?xml version="1.0" encoding="UTF-8"?>
<svg id="Layer_1" data-name="Layer 1" xmlns="http://www.w3.org/2000/svg" viewBox="0 0 131.06 88.44">
  <path d="M7.16,7.1c-2.61-.35-6.16-.31-7.01,1.21-.57,1.02.53,2.08,1.62,2.93,8.14,6.33,18.84,11.27,29.41,16.14-5.85-2.54-12.27-4.62-19.02-6.16-2.71-.62-6.18-1.05-8.16.22-2.27,1.46-.58,3.84,1.46,5.41,5.66,4.37,13.59,7.68,22.4,9.35-6.69-1.84-14.3-2.46-21.57-1.76-1.06,2.44.33,5.1,2.95,7.07,2.62,1.97,6.34,3.31,10.22,4.29,8.53,2.14,18.48,2.59,27,.43,8.52-2.15,15.2-7.14,15.58-12.68.51-7.4-10.28-10.62-18.33-14.74C32.86,13.25,21.31,8.97,7.16,7.1Z" fill="#dcf343"/>
  <path d="M123.9,7.1c2.61-.35,6.16-.31,7.01,1.21.57,1.02-.53,2.08-1.62,2.93-8.14,6.33-18.84,11.27-29.41,16.14,5.85-2.54,12.27-4.62,19.02-6.16,2.71-.62,6.18-1.05,8.16.22,2.27,1.46.58,3.84-1.46,5.41-5.66,4.37-13.59,7.68-22.4,9.35,6.69-1.84,14.3-2.46,21.57-1.76,1.06,2.44-.33,5.1-2.95,7.07s-6.34,3.31-10.22,4.29c-8.53,2.14-18.48,2.59-27,.43-8.52-2.15-15.2-7.14-15.58-12.68-.51-7.4,10.28-10.62,18.33-14.74,10.87-5.56,22.42-9.84,36.57-11.71Z" fill="#dcf343"/>
  <path d="M68.79,87.06l-4.33-4.49c-.47-.48-1.23-.5-1.72-.04l-4.52,4.3c-.79.75-2.08.17-2.06-.91l1-45.69c.01-.67.57-1.21,1.25-1.19l12.28.27c.67.01,1.21.57,1.19,1.25l-1,45.69c-.02,1.08-1.35,1.6-2.1.82Z" fill="#fff" stroke="#004cbc" stroke-miterlimit="10" stroke-width="2"/>
  <path d="M82.86,84l2.07-5.88c.22-.63.91-.97,1.55-.75l5.9,2.04c1.03.35,1.97-.71,1.5-1.68l-19.87-41.15c-.29-.61-1.02-.86-1.63-.57l-11.06,5.34c-.61.29-.86,1.02-.57,1.63l19.87,41.15c.47.98,1.89.9,2.25-.13Z" fill="#fff" stroke="#004cbc" stroke-miterlimit="10" stroke-width="2"/>
  <circle cx="64.36" cy="31.53" r="30.52" fill="#fff" stroke="#004cbc" stroke-miterlimit="10" stroke-width="2"/>
  <circle cx="64.36" cy="31.53" r="24.64" fill="#fff" stroke="#004cbc" stroke-miterlimit="10" stroke-width="2"/>
  <g>
    <path d="M51.85,22.83c.9,6.01,1.8,12.01,2.7,18.02" fill="none" stroke="#004cbc" stroke-miterlimit="10" stroke-width="2"/>
    <path d="M56.12,22.07l3.97,18.95" fill="none" stroke="#004cbc" stroke-miterlimit="10" stroke-width="2"/>
    <path d="M61.92,27.84l-16.93,2.26" fill="none" stroke="#004cbc" stroke-miterlimit="10" stroke-width="2"/>
    <path d="M64.15,34.21c-5.09,1.11-10.18,2.21-15.26,3.32" fill="none" stroke="#004cbc" stroke-miterlimit="10" stroke-width="2"/>
    <path d="M63.27,23.67s1.13-4.34,1.64-5.84c2.11-.65,4.36-1.43,6.65-1.64,2.5,7.41,5.22,15.85,7.72,23.27-1.82.46-7.62,1.38-7.62,1.38,0,0-4.7-16.79-6.75-23.01" fill="none" stroke="#004cbc" stroke-miterlimit="10" stroke-width="2"/>
    <line x1="67.28" y1="42" x2="83.75" y2="38.59" fill="none" stroke="#004cbc" stroke-miterlimit="10" stroke-width="2"/>
  </g>
</svg>