<?xml version="1.0" encoding="UTF-8"?>
<svg id="Layer_1" data-name="Layer 1" xmlns="http://www.w3.org/2000/svg" viewBox="0 0 97.23 73.49">
  <circle cx="15.35" cy="8.94" r="7.94" fill="#d5f300" stroke="#004cbc" stroke-miterlimit="10" stroke-width="2"/>
  <circle cx="54.12" cy="12.78" r="7.94" fill="#d5f300" stroke="#004cbc" stroke-miterlimit="10" stroke-width="2"/>
  <circle cx="81.68" cy="11.24" r="7.94" fill="#d5f300" stroke="#004cbc" stroke-miterlimit="10" stroke-width="2"/>
  <path d="M95.33,62.22c.92-7.99,1.8-16.32-.94-23.89-2.75-7.56-10.31-14.03-18.25-12.7-5.95,1-10.55,6.09-12.7,11.72s-2.27,11.81-2.37,17.84c-.04,2.46-.07,5,.87,7.28.94,2.28,3.1,4.23,5.56,4.13,4-.16,5.82-5.02,6.46-8.97,1.38-8.55,1.7-18.18-3.77-24.89-6.71-8.24-20.4-8.26-28.66-1.58-8.26,6.68-11.4,18.25-10.13,28.79.32,2.63,1.63,5.88,4.27,5.79,1.79-.06,3.08-1.7,3.94-3.27,3.88-7.09,4.33-15.96,1.19-23.41-3.13-7.45-9.78-13.33-17.56-15.54-4.52-1.28-9.7-1.27-13.55,1.42-3.64,2.55-5.44,6.98-6.59,11.27C-.13,48.31.38,61.36,4.52,73.16" fill="none" stroke="#004cbc" stroke-miterlimit="10" stroke-width="2"/>
</svg>