<?xml version="1.0" encoding="UTF-8"?>
<svg id="Layer_1" data-name="Layer 1" xmlns="http://www.w3.org/2000/svg" viewBox="0 0 91.53 86.13">
  <path d="M66.99,43.66c-.15-8.82-5.33-16.37-13.95-18.24-9.19-1.99-17.01-.53-22.62,5.85-4,4.54-5.16,7.71-5.81,11.77-.97,5.98.44,12.97,4.16,17.74,5.47,7.03,20.62,9.46,29.24,2.21,6.64-5.58,9.13-10.93,8.99-19.33Z" fill="#dcf343"/>
  <path d="M45.36,25.49c17.52.93,34.42,10.06,44.81,24.2-13.28,10.99-30.54,17.06-47.77,16.81-10.77-.16-33.06-7.6-41.26-20.7,5.94-12.48,31.65-20.97,44.22-20.31Z" fill="none" stroke="#004cbc" stroke-miterlimit="10" stroke-width="2"/>
  <path d="M20.23,24.13c-1.21-3.7-3.13-7.17-5.62-10.16" fill="none" stroke="#074bb6" stroke-linecap="round" stroke-linejoin="round" stroke-width="2"/>
  <path d="M42.89,19.45V1" fill="none" stroke="#074bb6" stroke-linecap="round" stroke-linejoin="round" stroke-width="2"/>
  <path d="M63.78,22.73c3.54-1.96,6.82-4.4,9.71-7.23" fill="none" stroke="#074bb6" stroke-linecap="round" stroke-linejoin="round" stroke-width="2"/>
  <path d="M61.74,72.06c3.93,2.75,7.85,5.5,11.78,8.24" fill="none" stroke="#074bb6" stroke-linecap="round" stroke-linejoin="round" stroke-width="2"/>
  <path d="M43.68,74.81c0,3.27,0,6.54,0,9.82" fill="none" stroke="#074bb6" stroke-linecap="round" stroke-linejoin="round" stroke-width="2"/>
  <path d="M24.59,71.01c-4.95,4.21-9.43,8.95-13.36,14.12" fill="none" stroke="#074bb6" stroke-linecap="round" stroke-linejoin="round" stroke-width="2"/>
</svg>