<svg width="717" height="151" viewBox="0 0 717 151" fill="none" xmlns="http://www.w3.org/2000/svg">
<path d="M575.05 10.1101C576.3 9.75009 577.64 9.75009 578.89 10.1101L627.83 24.0901C630.83 24.9501 632.9 27.6901 632.9 30.8101V90.3601C632.9 107.92 623.49 124.14 608.24 132.85L580.44 148.74C578.29 149.97 575.65 149.97 573.5 148.74L545.7 132.85C530.45 124.14 521.04 107.92 521.04 90.3601V30.8101C521.04 27.6901 523.11 24.9501 526.11 24.0901L575.05 10.1101Z" fill="#F3F3F3" stroke="#004CBC" stroke-miterlimit="10"/>
<path d="M603.6 124.73C615.9 117.7 623.54 104.53 623.54 90.36V32.59L576.97 19.28L530.4 32.59V90.36C530.4 104.53 538.04 117.7 550.34 124.73L576.97 139.95L603.6 124.73Z" fill="#F3F3F3" stroke="#004CBC" stroke-miterlimit="10"/>
<path d="M474.45 128.79C440.27 127.94 406.15 120.21 375.79 106.45C357.24 98.0401 340.25 86.4901 323.81 75.3301C307.07 63.9501 289.76 52.1901 271.2 44.1201C218.16 21.0601 176.02 10.8801 138.59 12.0601C102.05 13.2101 73.91 25.4201 48.94 38.4401C35.21 45.6001 18.4 58.2901 12.4 72.4301L2.26001 68.1301C11.25 46.9601 36.36 32.5801 43.85 28.6801C69.98 15.0601 99.5 2.28008 138.24 1.06008C177.36 -0.179915 221 10.3001 275.59 34.0301C295.1 42.5101 312.84 54.5701 330 66.2301C346.05 77.1401 362.65 88.4201 380.34 96.4301C409.37 109.59 442.01 116.98 474.73 117.79C506.47 118.58 538.44 113.2 567.4 102.2C566.2 101.24 565.04 100.23 563.95 99.1901C549.66 85.5901 538.74 64.9001 548.53 51.5901C552.96 45.5601 559.48 42.6101 566.4 43.5201C572.11 44.2701 577.44 47.5301 580.78 52.0901C585.65 48.6401 591.69 46.9501 597.18 47.6901C602.72 48.4301 607.17 51.4901 609.69 56.2901C614.48 65.3801 614.48 80.1801 603.7 92.7401C600.23 96.7701 596.14 100.06 591.8 102.81C603.28 106.68 617.17 108.22 631.98 107.05C663.05 104.59 691.64 90.9001 706.59 71.3201L715.34 78.0101C698.29 100.33 667.45 115.3 632.85 118.04C612.17 119.67 593.4 116.6 578.92 109.46C577.3 110.15 575.7 110.81 574.13 111.42C545.05 122.89 512.94 128.89 480.87 128.89C478.74 128.89 476.6 128.86 474.47 128.81L474.45 128.79ZM585.09 62.8401C583.38 64.6701 580.88 65.4901 578.41 65.0201C575.9 64.5401 573.84 62.8201 572.9 60.4301C571.74 57.4601 568.32 54.8801 564.94 54.4301C562 54.0401 559.45 55.2801 557.38 58.1001C552.06 65.3401 560.39 80.6101 571.52 91.2001C573.81 93.3801 576.43 95.3501 579.34 97.1201C585.3 94.1901 591.05 90.5101 595.31 85.5501C600.48 79.5301 604.12 69.4101 599.91 61.4101C599.05 59.7801 597.67 58.8601 595.68 58.6001C595.31 58.5501 594.92 58.5301 594.53 58.5301C591.29 58.5301 587.55 60.2101 585.08 62.8601L585.09 62.8401Z" fill="#D5F300"/>
<path d="M586.09 63.57C585.94 63.7 586.14 63.79 586.15 63.84C586.34 63.58 586.05 63.54 586.09 63.57Z" fill="#DAF521"/>
<path d="M588.35 61.1501V61.2601L588.66 60.8201L588.35 61.1501Z" fill="#DAF521"/>
<path d="M591.19 59.84C590.79 59.59 590.14 60.28 589.59 60.41L589.47 60.38L589.37 60.75C589.94 60.4 590.7 59.9 591.19 59.85V59.84Z" fill="#DAF521"/>
<path d="M592.94 60.1901C592.82 60.0701 593.25 60.0101 592.58 60.2201C592.62 60.2201 592.63 60.2301 592.65 60.2401C592.71 60.2301 592.8 60.2101 592.94 60.1901Z" fill="#DAF521"/>
<path d="M592.65 60.24C592.87 60.31 592.35 60.31 592.65 60.24Z" fill="#DAF521"/>
<path d="M594.02 59.96L593.64 60.12C593.73 60.19 594.07 60.18 593.95 60.25C594.34 60.16 594.26 60.09 594.02 59.96Z" fill="#DAF521"/>
<path d="M594.39 59.6899L594.18 59.7499C594.18 59.7499 594.27 59.7899 594.39 59.6899Z" fill="#DAF521"/>
<path d="M593.75 59.8901C593.89 59.8401 594.04 59.7901 594.18 59.7501C594.12 59.6901 594.11 59.5801 593.98 59.8001C594.01 59.6901 593.93 59.8001 593.75 59.8901Z" fill="#DAF521"/>
<path d="M593.49 59.8601C593.26 59.8101 592.95 59.8101 593.34 59.6301C592.56 59.8001 592.73 60.0301 593.49 59.8601Z" fill="#DAF521"/>
<path d="M591.23 59.4399H590.88L590.65 59.6599C590.76 59.5499 591.29 59.5399 591.24 59.4399H591.23Z" fill="#DAF521"/>
<path d="M596.31 60.37C596.35 60.3 596.25 60.15 596.25 60.04C596.16 60.04 596.06 60.05 595.97 60.06C596.1 60.13 596.33 60.25 596.32 60.36L596.31 60.37Z" fill="#DAF521"/>
<path d="M596.25 60.04C596.39 60.03 596.53 60.04 596.68 60.04C596.34 59.91 596.25 59.96 596.25 60.04Z" fill="#DAF521"/>
<path d="M594.45 59.29C594.2 59.39 593.95 59.48 593.71 59.61C594 59.48 594.3 59.39 594.6 59.29C594.55 59.29 594.5 59.29 594.45 59.29Z" fill="#DAF521"/>
<path d="M597.5 60.96L597.25 61C597.39 60.99 597.53 60.98 597.68 60.99L597.51 60.96H597.5Z" fill="#DAF521"/>
<path d="M598.13 61.5499C597.93 61.5299 598.05 61.8599 597.89 61.7899C598.05 61.9499 598.25 62.0599 598.45 62.1799C598.29 62.0299 598.21 61.8399 598.13 61.5499Z" fill="#DAF521"/>
<path d="M598.76 62.4799C598.68 62.3799 598.56 62.2899 598.45 62.1899C598.54 62.2999 598.63 62.3999 598.76 62.4799Z" fill="#DAF521"/>
<path d="M597.27 60.3401C597.27 60.3901 597.27 60.5301 597.41 60.6701V60.4101C597.41 60.4101 597.32 60.3601 597.27 60.3301V60.3401Z" fill="#DAF521"/>
<path d="M597.4 60.4099C597.54 60.5099 597.63 60.5799 597.66 60.6099C597.63 60.5799 597.55 60.5199 597.4 60.4099Z" fill="#DAF521"/>
<path d="M597.24 60.3201L597.27 60.3401C597.27 60.3401 597.27 60.3001 597.24 60.3201Z" fill="#DAF521"/>
<path d="M595.63 59.5599C595.9 59.4699 596.49 59.4799 595.98 59.1799C595.76 59.2899 596.05 59.4399 595.63 59.5599Z" fill="#DAF521"/>
<path d="M597.18 59.99C597.06 59.91 596.92 59.84 596.78 59.77C596.77 59.83 596.82 59.93 596.68 59.95C596.84 59.95 597.01 59.97 597.17 59.99H597.18Z" fill="#DAF521"/>
<path d="M597.41 60.03C597.34 60.02 597.26 60 597.19 59.99C597.24 60.02 597.28 60.05 597.33 60.08L597.42 60.03H597.41Z" fill="#DAF521"/>
<path d="M598.58 61.69C598.76 61.79 598.86 61.96 598.98 62.21C598.9 61.92 598.8 61.69 598.66 61.49C598.59 61.49 598.43 61.49 598.57 61.69H598.58Z" fill="#DAF521"/>
<path d="M598.1 60.98L598.14 61C598.14 61 598.13 60.95 598.1 60.98Z" fill="#DAF521"/>
<path d="M599.95 64.6401L599.97 64.5901H599.93L599.95 64.6401Z" fill="#DAF521"/>
<path d="M598.68 61.4299C598.61 61.2599 598.5 61.1999 598.38 61.1599C598.48 61.2499 598.58 61.3599 598.67 61.4799C598.7 61.4799 598.72 61.4699 598.68 61.4199V61.4299Z" fill="#DAF521"/>
<path d="M599.15 63.08C599.15 62.96 599.13 62.83 599.1 62.7C599.08 62.83 599.08 63.07 599.15 63.08Z" fill="#DAF521"/>
<path d="M598.13 61.0801H598.11C598.11 61.1401 598.13 61.1201 598.13 61.0801Z" fill="#DAF521"/>
<path d="M598.13 61.08C598.21 61.12 598.3 61.14 598.38 61.17C598.3 61.09 598.21 61.04 598.13 61C598.13 61.03 598.13 61.06 598.13 61.08Z" fill="#DAF521"/>
<path d="M601.47 65.0999C601.26 65.0999 600.99 64.5599 601 63.9999C600.69 63.5499 600.19 64.0899 599.97 64.5899C600.04 64.5899 600.16 64.5499 600.38 65.0099C600.48 64.8099 600.29 63.8599 600.6 64.2199C600.92 64.8399 600.68 64.7799 600.67 65.1199C600.85 64.7799 601.21 65.8899 601.54 65.6799L601.28 65.0999C601.33 65.0699 601.47 65.2799 601.48 65.0999H601.47Z" fill="#DAF521"/>
<path d="M599.69 63.69L599.6 63.51C599.64 63.74 599.62 63.93 599.57 64.26C599.77 64.54 599.86 64.59 599.93 64.59L599.64 63.63L599.69 63.69Z" fill="#DAF521"/>
<path d="M599.24 62.6799C599.5 62.7299 599.8 63.1499 599.88 62.7799C599.61 62.2199 599.54 62.4599 599.3 62.1699C599.75 63.0299 599.08 61.9699 599.26 62.6599C599.15 62.4999 599.07 62.3499 598.99 62.2099C599.04 62.3799 599.08 62.5399 599.11 62.6999V62.6699C599.11 62.6699 599.13 62.5999 599.13 62.6499C599.13 62.6499 599.13 62.6599 599.14 62.6699C599.17 62.6699 599.2 62.6699 599.23 62.6699C599.31 62.9399 599.2 62.7299 599.14 62.6699C599.13 62.6699 599.12 62.6699 599.11 62.6699C599.27 62.9499 599.47 63.2099 599.6 63.5099C599.58 63.2999 599.44 63.0799 599.23 62.6799H599.24Z" fill="#DAF521"/>
<path d="M596.61 58.8501C596.61 58.8501 596.63 58.8901 596.63 58.9101C596.7 58.9101 596.73 58.8901 596.61 58.8501Z" fill="#DAF521"/>
<path d="M596.97 59.0999C596.89 59.0999 596.81 59.1699 596.59 59.0799C596.41 58.9699 596.62 58.9799 596.63 58.9099C596.47 58.9299 596.11 58.9299 596.51 59.1499H596.58C596.95 59.3099 597.28 59.7599 597.21 59.7599C597.19 59.5399 597.16 59.3699 596.97 59.0999Z" fill="#DAF521"/>
<path d="M598.61 60.6201C598.81 60.7801 598.99 60.9601 599.17 61.1601C599.15 61.0201 599.12 60.8701 599.08 60.7201L599.01 60.8101C598.76 60.4301 598.71 60.6101 598.61 60.6301V60.6201Z" fill="#DAF521"/>
<path d="M599.87 64.76L599.62 64.72C599.78 64.83 599.91 64.95 600.05 65.08C599.99 64.97 599.95 64.86 599.87 64.76Z" fill="#DAF521"/>
<path d="M600.13 65.76L599.93 65.77L600.11 66.01L600.13 65.76Z" fill="#DAF521"/>
<path d="M562.55 82.7801L562.35 82.6001C562.44 82.6901 562.5 82.7401 562.55 82.7801Z" fill="#DAF521"/>
<path d="M563.67 84.2901L563.77 84.2701C563.67 84.2301 563.62 84.2301 563.67 84.2901Z" fill="#DAF521"/>
<path d="M590.25 88.78C589.86 88.87 589.36 88.89 589.54 89.04L589.76 89.14C589.93 88.95 590.1 88.85 590.25 88.78Z" fill="#DAF521"/>
<path d="M575.14 94.3301L575.19 94.4501C575.31 94.4501 575.42 94.4401 575.52 94.4301C575.41 94.4001 575.28 94.3601 575.15 94.3301H575.14Z" fill="#DAF521"/>
<path d="M574.38 94.88L574.07 94.46C574.13 94.57 574.23 94.7 574.38 94.88Z" fill="#DAF521"/>
<path d="M557.05 74.0801L556.72 73.8901C556.92 74.3301 556.94 74.0901 557.05 74.0801Z" fill="#DAF521"/>
<path d="M599.23 76.4299C599.05 76.6899 598.95 76.9099 598.85 77.0999C599.11 76.8099 599.37 76.5799 599.23 76.4299Z" fill="#DAF521"/>
<path d="M564.83 82C564.7 81.9 564.63 81.87 564.6 81.91C564.72 82.02 564.81 82.06 564.83 82Z" fill="#DAF521"/>
<path d="M598.51 77.9101C598.51 77.9101 598.58 77.8301 598.62 77.7801C598.67 77.5601 598.73 77.3401 598.85 77.1001C598.66 77.3201 598.49 77.5801 598.51 77.9101Z" fill="#DAF521"/>
<path d="M574.46 60.8101C574.46 60.8101 574.47 60.8601 574.47 60.8801C574.5 60.8801 574.48 60.8401 574.46 60.8101Z" fill="#DAF521"/>
<path d="M582.94 65.47C582.84 65.53 582.65 65.6 582.48 65.66C582.57 65.64 582.71 65.6 582.94 65.47Z" fill="#DAF521"/>
<path d="M600.37 69.9401C600.37 69.7201 600.35 69.9001 600.37 69.9401Z" fill="#DAF521"/>
<path d="M601.24 68.8501C601.24 68.8501 601.3 68.9401 601.35 68.9401C601.3 68.9201 601.26 68.8901 601.24 68.8501Z" fill="#DAF521"/>
<path d="M598.72 80.59V80.61C598.78 80.57 598.77 80.57 598.72 80.59Z" fill="#DAF521"/>
<path d="M600.48 69.6101C600.45 69.6901 600.42 69.7901 600.4 69.8901C600.42 69.8401 600.44 69.7601 600.48 69.6101Z" fill="#DAF521"/>
<path d="M600.38 69.65C600.39 69.57 600.4 69.51 600.41 69.46C600.38 69.43 600.35 69.46 600.38 69.65Z" fill="#DAF521"/>
<path d="M600.36 70.2501C600.36 70.1201 600.38 70.0001 600.4 69.8901C600.38 69.9301 600.37 69.9501 600.36 69.9401C600.36 70.0101 600.36 70.1001 600.36 70.2501Z" fill="#DAF521"/>
<path d="M557.38 57.0499C557.38 57.0499 557.41 57.0299 557.43 57.0199C557.53 56.7699 557.47 56.8599 557.38 57.0499Z" fill="#DAF521"/>
<path d="M586.58 94.24L586.59 94.21L586.56 94.22L586.58 94.24Z" fill="#DAF521"/>
<path d="M585.92 94.8301C586.09 94.4001 586.29 94.3301 586.56 94.2201L585.98 93.8501L585.92 94.8301Z" fill="#DAF521"/>
<path d="M559.98 79.09L560.14 79.72C559.47 79.26 559.28 78.74 559.35 79.38C559.96 79.1 560.71 81.37 561.33 81.06L561.44 81.47C561.38 81.37 561.34 81.38 561.28 81.28C561.47 82.11 562.01 81.49 562.52 82.36C562.68 82.67 562.75 82.93 562.54 82.79L563.14 83.32C563.27 83.51 563.14 83.54 563.01 83.35L563.78 84.27H563.76C563.95 84.35 564.32 84.54 564.49 84.65C564.6 84.95 564.34 84.58 564.32 84.69L564.86 85.1C564.89 85.42 564.42 85.1 564.15 84.73C564.01 85.63 564.61 85.06 565.17 86.34L564.7 85.91C564.66 86.46 565.08 86.76 565.36 87.46C565.34 87.25 564.9 85.98 565.5 86.42C565.59 86.61 565.74 86.83 566.1 87.03C565.92 87.19 566.21 87.44 566.54 87.79L566.28 87.98C566.69 88.3 566.79 88.16 567.1 88.29C567.46 88.73 567.36 88.99 567.3 89.23C567.89 89.93 567.16 88.5 567.95 89.25C568.38 89.89 568.85 90.19 569.62 90.69C569.92 91.15 569.42 90.76 569.49 90.96L570.01 91.11C570.09 91.19 570.01 91.22 569.97 91.24C570.32 91.45 570.22 91.04 570.72 91.41C571.07 91.27 571.29 92.68 572.15 92.89C572.23 93.09 571.95 92.98 571.91 93.11C572.89 93.61 572.73 93.57 573.63 93.85L574.08 94.48C573.8 93.95 574.52 94.17 575.14 94.34C575.06 94.13 574.99 93.95 574.94 93.85L575.8 94.29C575.86 94.4 575.72 94.43 575.51 94.45C575.58 94.47 575.64 94.48 575.7 94.49C575.9 94.79 575.65 94.83 575.35 94.83C575.3 94.71 575.24 94.59 575.19 94.46C574.88 94.47 574.58 94.51 574.5 94.68C574.57 94.68 574.69 94.74 574.81 94.81C574.73 94.81 574.67 94.83 574.67 94.87C574.67 94.92 574.8 94.92 574.98 94.95L574.94 95.37L575.07 95.29L575.98 96.22C576.95 96.45 577.87 96.44 579.19 97.08C578.82 97.16 579.03 97.48 578.97 97.81C578.77 97.49 578.47 97.35 578.06 97.17C577.74 97.05 577.38 96.94 577.09 96.7C577.4 96.95 577.25 97.02 577.13 97.01L577.77 97.25C577.87 97.28 577.99 97.33 578.15 97.4L578.58 97.58C578.46 97.8 578.87 98 579.31 98.36C579.23 98.18 579.28 98.16 579.39 98.03C579.5 97.91 579.67 97.79 579.88 97.67C580.27 97.43 580.84 97.15 581 96.98C581.05 97.05 581.07 97.13 581 97.24C580.96 97.33 580.72 97.48 580.3 97.67C580.55 97.65 580.76 97.56 580.91 97.44C581.02 97.35 581.08 97.23 581.15 97.1C581.29 96.86 581.42 96.61 581.81 96.58C581.67 96.66 581.58 96.68 581.56 96.78C581.83 96.48 582.69 96.14 582.57 96.37L582.43 96.45C583.41 96.01 585.27 94.84 585.18 94.39C585.22 94.43 585.33 94.9 585.32 95.01C585.62 94.26 585.91 93.53 586.17 92.79C586.23 93.19 587.25 93.56 586.61 94.22C586.85 94.12 587.15 94 587.54 93.6C587.36 93.65 586.88 93.4 587.06 93.24C587.83 93.22 587.55 93.17 588.42 93C588.16 93.08 588.08 92.45 588.42 92.23C588.42 92.34 588.78 92.67 588.69 92.81L589.2 91.75C589.05 91.98 589.45 92.16 589.73 92.15C589.58 92.13 590.45 91.62 590.64 91.4L590.21 91.56C591.18 90.9 590.63 90.24 591.51 89.52C591.48 89.7 591.71 90.29 592.21 89.96C592.23 89.56 592.19 88.14 592.73 87.3H592.98C593.12 87.06 593.26 86.84 593.38 86.62C593.38 87.26 593.03 88.85 592.7 89.63C593.11 89.43 592.92 89.69 593.4 89.24C593.68 89.19 593.29 89.66 593.15 89.79C593.56 89.47 593.96 89.14 594.35 88.8C594.07 88.61 594.95 87.73 594.7 87.57C594.41 88.06 594.08 88.52 593.76 89C593.48 88.79 593.8 87.66 594.57 86.92C594.86 86.81 594.86 87.48 594.96 87.54C594.98 87.36 595.5 86.63 595.63 86.61L595.46 87.08C595.96 86.7 595.79 86.06 596.49 85.69C596.66 85.51 597.31 85.37 597.18 85.21C596.61 85.3 595.64 84.61 595.58 84.24C595.67 84.21 596.62 83.45 596.94 83.33C597.43 83.17 597.17 84.24 597.58 84.1C597.51 84.03 597.55 83.78 597.58 83.69C597.79 83.52 597.76 83.95 598.04 83.44C597.81 83.17 598.69 82.47 597.94 83.05C598.15 82.53 598.32 82.59 598.65 82.02C598.36 82.09 598.29 81.13 598.46 80.62C598.52 80.69 598.68 80.64 598.75 80.61C599.28 79.63 599.7 79.16 600.1 78.18C600.21 78.12 600.5 77.69 600.56 77.94C600.56 77.77 600.52 77.61 600.61 77.3C601.1 76.8 600.4 78 600.9 77.68C600.73 77.57 600.92 76.78 600.96 76.3C600.62 76.34 600.57 77.29 600.5 77.77C600.12 77.62 599.97 76.71 600.13 75.65C600.25 74.81 600.49 75.37 600.47 75.21C600.98 73.68 600.08 73.73 600.66 72.52C601 72.05 601.19 72.58 601.4 72.5C601.38 73.21 601.02 73.52 600.94 73.99L601.18 73.45C601.22 73.68 601.21 74.17 601.06 74.39C601.24 74.2 601.38 73.53 601.55 72.76C601.66 71.98 601.82 71.1 601.94 70.47C601.86 70.24 601.79 69.85 601.67 70.03L601.69 70.43C601.46 70.78 601.43 69.68 601.3 70.17C601.24 69.91 601.16 69.63 601.1 69.33C601.03 69.03 600.99 68.71 601.03 68.35L601.33 68.2C601.24 68.22 601.16 68.68 601.26 68.89C601.1 68.6 601.66 67.74 601.19 67.44C601.14 67.62 601.1 67.79 601.03 67.96C600.84 67.45 600.43 66.88 600.44 66.25C600.19 66.58 600.5 66.39 600.2 66.88C600.59 66.44 600.37 68.45 600.76 67.8C600.37 68.28 600.61 68.61 600.28 69.2C600.38 69.18 600.48 68.99 600.42 69.51C600.45 69.53 600.48 69.59 600.5 69.63C600.5 69.65 600.5 69.65 600.5 69.67V69.64C600.5 69.64 600.53 69.67 600.52 69.63C600.57 69.51 600.63 69.41 600.69 69.36C600.91 69.62 600.86 70.47 600.97 70.77C600.91 71.08 600.86 70.63 600.74 70.79C600.8 70.94 600.83 71.09 600.88 71.23C600.65 71.25 600.4 72.02 600.37 71.27L600.28 71.92C600.12 72.29 599.96 72.8 599.99 73.14C599.88 73.43 600.07 73.97 599.96 73.66C599.95 74.01 599.88 74.36 599.84 74.71H599.78C599.64 75.2 599.57 75.74 599.42 76.27C599.29 76.81 599.08 77.35 598.66 77.82C598.58 78.17 598.51 78.53 598.18 79.03L597.95 79.05C597.83 79.49 597.17 80.15 597.25 80.41C596.58 80.58 596.06 82.21 595.51 82.79L595.7 82.96C595.38 83.4 595.13 83.85 594.77 84.43L594.97 84.54C594.75 85.12 593.87 85.6 593.24 86.27C593.22 86.16 593.4 86.01 593.55 85.92C592.44 86.38 592.14 87.85 591.13 88.26C590.99 88.49 590.83 88.58 590.66 88.66C590.68 88.64 590.69 88.63 590.7 88.61C590.68 88.63 590.65 88.65 590.62 88.68C590.51 88.72 590.39 88.77 590.28 88.82C590.4 88.79 590.5 88.76 590.58 88.72C590.43 88.85 590.23 89.07 590.04 89.29L589.79 89.18C589.79 89.18 589.76 89.21 589.74 89.23C589.46 89.34 589.63 89.46 589.87 89.51C589.78 89.63 589.71 89.75 589.66 89.87C589.24 89.71 589.13 90.44 588.63 90.31C588.6 90.6 587.54 91.3 587.65 91.74C587.61 91.7 587.52 91.73 587.65 91.64C587.35 91.79 587.05 91.93 586.88 92.2L586.59 92.02L586.22 92.76C585.75 92.84 585.54 92.85 585.78 92.42C585.1 93.29 585.14 92.98 584.57 93.76L584.5 93.57C584.23 93.74 583.93 94.23 583.68 94.18C583.28 94.2 582.51 94.63 581.61 95.1C581.16 95.34 580.67 95.58 580.19 95.81C579.96 95.92 579.87 95.94 579.71 95.99C579.64 96.01 579.58 96.03 579.51 96.04H579.42C579.42 96.04 579.37 96.01 579.35 95.98C579.4 96.36 579.3 96.22 579.19 96.05C579.08 95.89 579.02 95.73 578.88 95.91C578.87 95.74 578.69 95.54 579.01 95.59C578.16 95.21 577.98 94.65 577.24 94.61C577.24 94.44 577.52 94.56 577.49 94.44C577.41 94.42 577.18 94.37 577.15 94.25C577.12 94.13 577.33 94.23 577.48 94.27C576.7 93.75 576.38 94.03 576.09 94.32C575.82 93.88 575.61 93.76 575.18 93.76C575.13 93.55 574.99 93.28 575.48 93.6C575.22 93.39 574.03 92.2 573.8 92.41C573.77 92.28 573.46 92.09 573.37 92.06C572.82 91.56 572.79 91.49 572.24 91.02L572.35 91.2C571.88 91.29 571.85 90.85 571.39 90.47L571.43 90.45C570.65 89.31 570.91 90.13 570.2 88.96L570.08 89.18C569.62 89.45 569.48 88.11 568.8 87.68L568.89 87.98C568.47 87.78 568.61 86.63 568.38 86.27C568.35 86.17 568.53 86.33 568.64 86.4C568.14 85.37 568.31 86.5 567.71 85.93C567.74 85.7 568.16 85.8 567.82 85.36C567.75 85.07 566.36 84.49 566.14 83.68C566.14 83.89 566.14 84.1 565.83 83.86C565.42 83.43 565.24 82.3 564.59 82.13C564.57 82.05 564.59 82 564.61 81.98C564.26 81.68 563.6 80.9 563.27 80.8C563.7 80 561.36 78.69 562.02 78.28C561.76 77.9 561.51 77.52 561.26 77.12H561.35C560.94 76.33 560.64 76.15 560.32 75.96C560.27 75.76 560.4 75.85 560.44 75.85C559.96 74.64 559.87 74.56 559.06 73.75L559.23 73.54C558.96 73.34 558.8 71.7 558.1 70.65C558.13 70.65 558.18 70.65 558.25 70.74C557.45 69.5 557.89 67.4 556.94 67.11C556.79 66.83 556.67 66.54 556.55 66.25C556.68 67.45 556.13 66.14 556.07 66.66C555.93 66.19 556.15 65.39 556.28 65.97L556.25 66.07C556.73 66.21 556.23 64.57 556.58 64.58C556.5 63.43 556.63 62.3 556.96 61.28C557.29 60.25 557.79 59.39 558.42 58.6L557.98 58.57C558.14 58.38 558.29 58.17 558.46 57.99C558.65 57.9 558.84 57.98 558.5 58.37C558.83 58.29 558.94 57.6 558.9 57.53C559.71 56.9 558.93 58.11 559.16 57.89L559.43 57.57L559.33 57.61C559.47 57.28 559.37 57.12 559.87 56.74C560.22 56.56 560.16 56.8 560.29 56.72C560.3 56.74 560.35 56.72 560.48 56.6C560.73 56.45 560.98 56.31 561.24 56.19L560.79 56.1C561.07 55.78 561.56 55.74 561.03 55.62C561.43 55.71 562.2 55.42 562.99 55.32C563.78 55.2 564.57 55.24 564.75 55.34C565.33 55.21 565.91 55.32 566.57 55.58C566.42 55.48 566.42 55.11 567 55.38C566.55 55.9 567.95 56.09 568.12 56.78C568.02 56.53 568.39 56.73 568.75 56.92C569.09 57.12 569.43 57.29 569.28 56.91C569.66 57.26 569.16 57.13 569.37 57.49C570.49 58.03 571.18 59.42 571.81 60.61C571.9 60.6 571.92 60.32 572.17 60.55C572.13 60.81 572.12 61.19 572.13 61.54C572.34 61.85 572.71 61.6 572.79 62.31C572.8 62.19 572.83 62.02 572.98 62.2C573.73 63.79 575.29 64.97 576.98 65.52C578.68 66.1 580.48 66.17 582.36 66C581.83 65.97 582.15 65.88 582.5 65.75C582.26 65.79 582.44 65.54 582.35 65.45C582.85 65.4 583.34 65.29 583.84 65.14C583.93 64.75 585.17 64.22 585.06 63.85C584.96 63.97 584.86 64.09 584.74 64.19C584.86 63.86 584.56 63.83 584.22 63.82C583.88 63.81 583.5 63.77 583.4 63.55C583.27 63.89 582.84 63.96 582.4 63.99C581.95 64.04 581.52 64.07 581.12 64.46C580.9 64.41 581.26 64.27 581.12 64.19C580.94 64.44 580.65 64.54 580.12 64.48L580.18 64.43C579.45 64.49 578.92 64.38 578.4 64.21C577.88 64.03 577.37 63.78 576.71 63.34V63.6C576.41 63.4 576.38 63.3 576.28 63.16C575.74 63.26 577.11 63.68 576.6 63.84C576.5 63.52 575.97 63.21 575.52 62.8C575.07 62.4 574.71 61.93 574.84 61.64C574.53 61.22 574.7 61.94 574.4 61.49L574.44 61.29H574.21C574.05 60.95 574.14 60.71 574.25 60.64C574.27 60.72 574.38 60.83 574.44 60.9C574.41 60.67 574.26 60.41 574.13 60.17C573.99 59.92 573.79 59.57 573.78 59.48L573.97 60.13C573.18 58.38 571.73 56.51 570.12 55.73L570.16 55.9C568.96 55.33 569.37 55.17 568.02 54.6H568.08C567.77 54.57 567.39 54.48 567.03 54.33C567.43 54.33 566.45 53.87 566.96 53.89C565.48 53.7 566.2 53.83 565.19 54.07L565 53.85C564.66 53.99 564.63 54.05 563.91 54.08C564.51 53.94 563.44 53.78 564.12 53.59C563.33 53.37 562.71 53.55 562.26 53.73C561.8 53.91 561.47 54.07 561.02 53.93C560.77 54.3 561.12 54.24 561.48 54.14C561.85 54.04 562.25 53.92 562.06 54.02C562.41 54.1 561.6 54.53 561.16 54.66C560.74 54.84 560.1 54.36 559.04 55.12C559.14 55.05 559.13 55.01 559.23 54.94C558.76 55.12 558.59 55.63 558.04 55.87C558.02 56.31 557.51 56.39 557.73 56.72C557.96 56.43 558.2 56.14 558.46 55.87C558.05 56.39 557.99 57.1 557.2 57.75C557.19 57.64 557.28 57.33 557.38 57.14C557.09 57.3 557.08 57.64 556.8 57.82C556.53 57.5 557.54 56.69 557.84 56.01C557.47 56.13 557.17 57.17 557.07 56.63C557.11 57 556.91 57.22 556.67 57.47C556.44 57.72 556.16 58.06 556.12 58.53L555.94 58.36C555.91 58.5 555.88 58.81 555.76 59.03L555.7 58.48C555.6 59.23 554.89 59.66 554.83 60.38C555.27 59 555.2 60.16 555.56 59.66C555.39 60.51 555.24 60.7 554.97 60.93C554.75 61.15 554.44 61.42 554.39 62.4C554.37 62.13 554.67 61.44 554.71 61.86C554.61 62.21 554.48 62.69 554.33 62.91C554.34 64.19 554.58 62.73 554.71 63.27C554.42 63.69 554.8 63.89 554.92 64.41H554.68C554.61 65.84 555.2 64.75 555.13 66L554.74 65.52C554.79 65.73 554.84 65.95 554.9 66.16L554.61 66.07C554.93 66.74 554.89 66.97 554.98 67.66C555.11 67.47 555.42 67.66 555.57 68.24C555.54 68.67 555.29 68.07 555.54 68.89C555.35 68.74 555.1 68.58 555.23 68.17C555.15 68.15 555.04 68.02 554.96 68C554.89 68.48 555.21 69.1 555.29 69.41C555.27 69.29 555.24 69.15 555.25 69.07C555.46 69.45 555.7 69.8 555.93 70.16C555.9 70.37 555.79 70.25 555.67 70.13C555.77 70.36 555.93 70.49 556.07 70.83C555.86 70.8 555.66 70.9 555.41 70.42C555.6 70.78 555.81 71.12 556.01 71.47C555.95 71.58 556.01 72.12 555.89 72.01C556.02 72.67 556.85 73.36 557.08 74.2C557.13 74.22 557.21 74.29 557.31 74.44C557.62 75.19 557.73 75.94 558.43 76.66L558.39 77.31C558.82 77.93 558.42 76.45 559.14 77.47C559.68 78.17 559.05 77.9 559.12 78.22C559.49 78.51 560.2 78.97 560.39 79.8C560.19 79.61 560.12 79.4 559.97 79.21L559.98 79.09ZM565.51 86.39C565.36 86.29 565.01 86.11 565.04 85.92C565.38 85.9 565.38 86.1 565.51 86.39ZM575.94 95.49C575.79 95.48 575.65 95.33 575.51 95.12C575.66 95.2 575.8 95.32 575.94 95.49ZM600.32 72.41V72.43C600.16 72.78 600.22 72.65 600.32 72.41ZM600.52 71.66C600.5 71.58 600.46 71.58 600.43 71.61C600.48 71.67 600.47 71.84 600.43 72.03C600.5 71.99 600.56 71.89 600.53 71.66H600.52ZM560.3 56.51L560.15 56.54C560.37 56.3 560.33 56.4 560.3 56.51Z" fill="#DAF521"/>
<path d="M574.47 94.8199C574.45 94.7599 574.47 94.7099 574.49 94.6699C574.41 94.6599 574.38 94.6999 574.47 94.8199Z" fill="#DAF521"/>
<path d="M557.11 74.1101V74.0801C557.11 74.0801 557.06 74.0801 557.05 74.0801L557.11 74.1101Z" fill="#DAF521"/>
<path d="M597.83 83.8801C597.7 84.0001 597.61 84.0501 597.54 84.0801C597.58 84.1201 597.67 84.0801 597.83 83.8801Z" fill="#DAF521"/>
<path d="M600.22 67.6599C600.27 67.8099 600.29 67.9699 600.31 68.1299C600.29 67.8999 600.35 67.8099 600.36 67.6899C600.31 67.7099 600.24 67.7999 600.21 67.6599H600.22Z" fill="#DAF521"/>
<path d="M600.72 63.16C600.67 63.1 600.67 63.01 600.61 62.95L600.51 63.01C600.62 63.31 600.77 63.49 600.71 63.16H600.72Z" fill="#DAF521"/>
<path d="M600.96 67.1299C601.16 67.0699 601.05 66.7599 600.96 66.4199C600.96 66.4399 600.96 66.4599 600.96 66.4799C600.67 66.4199 600.8 66.7699 600.94 67.1299H600.96Z" fill="#DAF521"/>
<path d="M600.95 66.3501L600.89 66.0301C600.77 66.0101 600.91 66.1601 600.95 66.3501Z" fill="#DAF521"/>
<path d="M600.5 70.68C600.56 70.52 600.25 70.56 600.33 70.47C600.1 70.27 600.56 71.57 600.5 70.68Z" fill="#DAF521"/>
<path d="M601.59 66.77L601.36 66.93L601.58 67.1L601.59 66.77Z" fill="#DAF521"/>
<path d="M601.56 69.6101C601.6 69.4201 601.62 69.2301 601.63 69.0401C601.59 69.0401 601.56 68.9801 601.54 68.8901C601.56 69.2401 601.49 69.6301 601.56 69.6201V69.6101Z" fill="#DAF521"/>
<path d="M601.55 68.8899C601.55 68.7099 601.54 68.5299 601.49 68.4299C601.49 68.5299 601.51 68.7399 601.55 68.8899Z" fill="#DAF521"/>
<path d="M601.76 67.54L601.73 67.71V68.12C601.73 67.93 601.77 67.73 601.76 67.54Z" fill="#DAF521"/>
<path d="M600.5 75.6601C600.46 75.8701 600.41 76.0701 600.37 76.2801C600.43 76.3701 600.54 76.2201 600.58 75.9901C600.58 75.8301 600.61 75.6001 600.5 75.6601Z" fill="#DAF521"/>
<path d="M601.65 73.99C601.56 74.15 601.51 74.15 601.41 74.22L601.71 74.31L601.65 73.98V73.99Z" fill="#DAF521"/>
<path d="M601.24 75.8201C601.32 75.9101 601.18 76.7901 601.43 76.0001C601.37 75.9101 601.47 75.2701 601.24 75.8201Z" fill="#DAF521"/>
<path d="M596.56 84.19L596.65 84.06L596.23 83.78L596.56 84.19Z" fill="#DAF521"/>
<path d="M591.46 91.1401C592.14 90.7501 591.4 90.7901 592.03 90.4501C592.09 90.2401 591.52 90.7201 591.59 90.5201C591.31 90.9101 591.08 91.0101 591.45 91.1301L591.46 91.1401Z" fill="#DAF521"/>
<path d="M591.59 90.5301C591.63 90.4701 591.68 90.4001 591.72 90.3201C591.64 90.4301 591.61 90.4901 591.59 90.5301Z" fill="#DAF521"/>
<path d="M584.83 64.7099C585 64.6199 585.17 64.5399 585.34 64.4399C585.21 64.4799 585.08 64.5099 584.95 64.5399L584.83 64.7099Z" fill="#DAF521"/>
<path d="M585.39 63.7399L585.71 63.8799L585.73 63.4399C585.66 63.5399 585.51 63.7199 585.39 63.7399Z" fill="#DAF521"/>
<path d="M565.9 87.8499L565.98 87.8299C565.99 87.7199 565.92 87.6299 565.78 87.4399L565.9 87.8499Z" fill="#DAF521"/>
<path d="M561.93 82.47L561.99 82.56L562.11 82.22L561.93 82.47Z" fill="#DAF521"/>
<path d="M558.55 77.9399C558.66 78.1499 558.85 78.3499 558.96 78.5499C558.66 78.1399 558.83 77.6999 558.55 77.9399Z" fill="#DAF521"/>
<path d="M476.42 130.04C473.88 129.99 474.79 130.21 474.41 130.24C478.66 130.24 476.32 129.98 476.42 130.04Z" fill="#DAF521"/>
<path d="M518.08 126.92L517.36 127.12C519.38 126.74 521.4 126.38 523.41 125.98C521.64 126.32 519.85 126.61 518.07 126.93L518.08 126.92Z" fill="#DAF521"/>
<path d="M556.18 118.43C552.57 119.23 542.59 122.39 535.73 123.68L534.59 123.85L531.57 124.75C532.61 124.53 533.68 124.31 534.78 124.08C535.87 123.83 536.99 123.56 538.12 123.3C540.38 122.8 542.65 122.18 544.85 121.62C549.25 120.46 553.31 119.26 556.17 118.44L556.18 118.43Z" fill="#DAF521"/>
<path d="M576.11 112.22C575.49 112.4 576.52 111.94 576.63 111.9C576.73 111.83 575.93 112.27 571.55 113.95C572 113.8 572.13 113.76 572.39 113.67C573.18 113.36 574.28 112.98 576.11 112.22Z" fill="#DAF521"/>
<path d="M572.39 113.67C574.96 112.82 568.53 115.15 572.39 113.67Z" fill="#DAF521"/>
<path d="M588.99 115.02C587.23 114.51 585.5 113.91 583.77 113.29C584.29 113.54 585.7 114.08 586.77 114.5C587.84 114.89 588.57 115.14 587.7 114.89C589.05 115.31 589.99 115.62 590.61 115.76C591.23 115.92 591.5 115.98 591.52 115.96C591.55 115.91 590.5 115.6 589.01 115.02H588.99Z" fill="#DAF521"/>
<path d="M594.05 116.23C593.12 116.03 592.22 115.76 591.3 115.52C591.77 115.68 592.48 115.93 594.05 116.23Z" fill="#DAF521"/>
<path d="M585.55 113.73C586.5 114.07 587.45 114.39 588.41 114.68C589.37 114.98 590.33 115.28 591.3 115.52C590.55 115.24 590.5 115.13 588.65 114.74C589.16 114.77 587.97 114.58 585.55 113.73Z" fill="#DAF521"/>
<path d="M582.39 112.42C581.68 112.11 580.93 111.77 580.29 111.44C579.67 111.13 578.99 110.79 579.02 110.79C578.9 110.72 578.87 110.68 579.01 110.72C578.97 110.68 579.83 111.05 581.06 111.59C580.46 111.32 579.91 111.06 579.4 110.83C579.25 110.76 579.11 110.7 578.97 110.64C578.87 110.55 578.76 110.64 578.67 110.68C577.9 111.02 577.27 111.29 576.79 111.49C575.73 111.96 575.32 112.16 575.51 112.12C575.7 112.08 576.49 111.78 577.83 111.25C578.09 111.14 578.39 111.03 578.71 110.9C578.86 110.81 578.94 110.89 579.18 110.99C580.11 111.42 581.17 111.94 582.39 112.42Z" fill="#DAF521"/>
<path d="M557.97 117.5L554.05 118.57C552.94 118.94 551.83 119.33 550.71 119.66C552.39 119.15 558.24 117.54 557.96 117.49L557.97 117.5Z" fill="#DAF521"/>
<path d="M622.61 120.05C622.95 119.98 620.77 119.86 620.37 119.74C619.03 119.74 617.68 119.76 616.33 119.71C618.4 119.88 622.33 119.96 622.61 120.05Z" fill="#DAF521"/>
<path d="M620.37 119.74C621.38 119.75 622.38 119.71 623.39 119.68C624.39 119.65 625.4 119.62 626.4 119.55C621.02 119.67 620.03 119.64 620.37 119.74Z" fill="#DAF521"/>
<path d="M595.09 116.08C591.87 115.39 588.67 114.51 585.54 113.43C589.27 114.72 593.09 115.74 596.94 116.53C596.32 116.39 595.71 116.23 595.09 116.08Z" fill="#DAF521"/>
<path d="M645.58 118.07L642.22 118.74C644.22 118.36 646.22 117.99 648.2 117.48C647.33 117.67 646.46 117.89 645.59 118.06L645.58 118.07Z" fill="#DAF521"/>
<path d="M660.49 114.66C658.09 115.51 663.9 113.92 661.35 114.76C662.35 114.46 663.31 114.16 664.24 113.88C665.16 113.57 666.03 113.23 666.88 112.92C668.57 112.27 670.17 111.72 671.63 111.04C670.07 111.73 668.39 112.25 666.58 112.88C664.77 113.53 662.76 114.06 660.5 114.66H660.49Z" fill="#DAF521"/>
<path d="M676.54 108.87C675.01 109.6 673.37 110.26 671.62 111.04C673.28 110.33 674.94 109.68 676.54 108.87Z" fill="#DAF521"/>
<path d="M636.63 118.86C636.86 118.86 637.21 118.86 637.91 118.84C638.62 118.82 639.69 118.75 641.36 118.51C640.57 118.55 639.78 118.62 638.99 118.62C638.27 118.69 637.46 118.77 636.63 118.86Z" fill="#DAF521"/>
<path d="M638.91 118.62H638.99C641.54 118.29 643.3 118 644.06 117.9C643.41 117.98 641.86 118.24 638.91 118.62Z" fill="#DAF521"/>
<path d="M636.03 118.92C636.25 118.9 636.41 118.88 636.62 118.86C636.39 118.86 636.25 118.86 636.03 118.92Z" fill="#DAF521"/>
<path d="M610.61 118.88C611.49 118.92 612.62 118.98 613.69 119.03C614.77 119.07 615.8 119.08 616.49 119.08C617.88 119.08 617.94 119 614.4 118.74C611.86 118.71 615.93 119.12 610.61 118.88Z" fill="#DAF521"/>
<path d="M633.09 118.95C630.97 119.08 628.84 119.22 626.71 119.26C626.84 119.31 627.99 119.35 626.24 119.48C628.53 119.37 630.81 119.17 633.08 118.96L633.09 118.95Z" fill="#DAF521"/>
<path d="M636.19 118.57L633.09 118.95L635.44 118.73L636.19 118.57Z" fill="#DAF521"/>
<path d="M666.2 112.59C667.5 112.11 668.86 111.61 670.29 111.08C671.71 110.51 673.2 109.9 674.79 109.26C673.08 109.91 671.35 110.61 669.61 111.24C667.86 111.84 666.11 112.43 664.41 113.01C664.18 113.13 663.69 113.31 663.73 113.34C663.77 113.37 664.35 113.24 666.2 112.59Z" fill="#DAF521"/>
<path d="M653.08 116.2C653.26 116.15 653.5 116.09 653.67 116.04C653.3 116.11 653 116.18 653.08 116.2Z" fill="#DAF521"/>
<path d="M703.54 91.96C703.39 92.07 703.25 92.17 703.1 92.28C703.08 92.32 703.06 92.34 703.03 92.39L703.54 91.96Z" fill="#DAF521"/>
<path d="M663.81 113.16C661.16 113.89 659.6 114.4 658.11 114.9C660.08 114.31 662.17 113.69 664.41 113.02C664.61 112.91 664.66 112.9 663.81 113.16Z" fill="#DAF521"/>
<path d="M684.97 104.7C683.67 105.31 682.22 106.06 680.66 106.76C681.96 106.23 684.54 104.97 684.97 104.7Z" fill="#DAF521"/>
<path d="M654.59 115.88C654.46 115.92 654.34 115.95 654.19 115.99C655.08 115.82 654.96 115.83 654.59 115.88Z" fill="#DAF521"/>
<path d="M654.59 115.88C655.96 115.52 657.03 115.2 658.1 114.9C656.48 115.32 654.98 115.71 653.67 116.04C654 115.98 654.34 115.92 654.59 115.88Z" fill="#DAF521"/>
<path d="M709.95 83.9699C709.83 84.4899 704.92 89.7899 699.88 93.4199C697.48 95.2899 697.17 95.7699 698.03 95.4199C698.46 95.2399 699.18 94.8599 700.09 94.3299C701 93.8199 702 93.0499 703.1 92.2699C703.15 92.1799 703.16 92.1099 703.75 91.5599C704.05 91.2799 704.49 90.8799 705.15 90.2799C705.79 89.6499 706.63 88.8199 707.76 87.7099C707.34 88.0799 706.48 88.8499 705.48 89.7299C704.5 90.6399 703.27 91.5299 702.28 92.3399C700.28 93.9399 698.94 94.8399 700.97 93.1199C702.56 91.7699 703.68 90.8199 704.52 90.1199C705.33 89.3799 705.86 88.8999 706.3 88.5099C707.17 87.7199 707.72 87.3799 709.18 85.9599C707.91 87.1299 709.67 85.1299 711.54 82.9799C712.02 82.4499 712.46 81.8799 712.86 81.3299C713.26 80.7899 713.63 80.2899 713.93 79.8799C714.54 79.0299 714.78 78.6099 714.41 78.9299L712.18 81.7499C711.41 82.6899 710.57 83.5599 709.76 84.4699C709.63 84.5299 711.36 82.5399 709.94 83.9799L709.95 83.9699Z" fill="#DAF521"/>
<path d="M693.38 99.4299C692.65 99.9099 691.94 100.41 691.21 100.87C692.47 100.08 693.55 99.4099 694.74 98.6699C695.33 98.2999 695.97 97.9399 696.63 97.4999C697.29 97.0499 698.01 96.5599 698.82 95.9999C699.68 95.3299 700.36 94.7899 700.92 94.3599C701.44 93.8899 701.84 93.5399 702.14 93.2699C702.74 92.7199 702.94 92.4999 703.04 92.3799C702.21 93.0599 701.4 93.7699 700.55 94.4199L697.96 96.3299C696.27 97.6499 694.44 98.7599 692.65 99.9499L693.38 99.4299Z" fill="#DAF521"/>
<path d="M680.95 106.49C682.68 105.38 688.16 102.42 684.66 103.98C682.98 104.87 681.84 105.47 681.02 105.9C680.19 106.31 679.68 106.56 679.26 106.79C678.42 107.23 677.93 107.53 675.87 108.51C687.05 103.37 672.7 110.09 680.85 106.51C678.65 107.53 676.7 108.5 674.79 109.28C676.86 108.47 678.8 107.55 680.66 106.77C680.56 106.81 680.48 106.84 680.4 106.88L680.35 106.9C679.85 107.09 679.69 107.15 680.24 106.91C680.28 106.89 680.41 106.83 680.47 106.8C680.53 106.74 680.73 106.62 680.94 106.5C684.14 104.9 681.48 106.33 680.47 106.8C680.44 106.83 680.35 106.88 680.35 106.89C680.36 106.89 680.38 106.88 680.39 106.87C682.25 105.99 684.05 104.96 685.88 104.02C687.68 103.02 689.43 101.92 691.21 100.88C690.08 101.54 688.8 102.27 687.18 103.21C685.56 104.15 683.52 105.15 680.95 106.49Z" fill="#DAF521"/>
<path d="M620.96 118.51C621.34 118.54 621.32 118.55 621.35 118.57C622.14 118.53 622.44 118.53 620.96 118.51Z" fill="#DAF521"/>
<path d="M626 118.58C625.11 118.66 624.37 118.73 621.47 118.74C618.96 118.63 621.48 118.64 621.35 118.57C619.61 118.59 615.23 118.6 620.71 118.82L621.58 118.8C622.81 118.81 624.14 118.83 625.42 118.84C626.7 118.84 627.93 118.83 628.98 118.83C631.08 118.77 632.46 118.76 632.03 118.8C630.57 118.7 629.3 118.67 626.01 118.59L626 118.58Z" fill="#DAF521"/>
<path d="M654.38 115.25C657.7 114.47 660.96 113.45 664.22 112.45L659.17 113.74L659.45 113.77C658.06 114.19 657.07 114.4 656.38 114.58C655.69 114.75 655.3 114.87 655.06 114.95C654.58 115.11 654.72 115.13 654.38 115.26V115.25Z" fill="#DAF521"/>
<path d="M704.52 91.2801L703.62 92.3301C705.11 91.0101 706.47 89.5401 707.84 88.0901C706.73 89.1501 705.69 90.2801 704.52 91.2701V91.2801Z" fill="#DAF521"/>
<path d="M713.92 81.7L713.76 82.21L714.84 80.8L716.46 78.73L713.92 81.7Z" fill="#DAF521"/>
<path d="M172.21 4.01994L169.25 3.68994C170.65 3.84994 171.55 3.93994 172.21 4.01994Z" fill="#DAF521"/>
<path d="M193.47 7.68003L194.01 7.70003C193.02 7.53003 192.61 7.48003 193.47 7.68003Z" fill="#DAF521"/>
<path d="M564.91 101.77L564.29 101.92L564.02 101.98L563.9 102C563.9 102 563.88 102 563.82 102.02L563.63 102.08C562.62 102.39 561.68 102.71 560.86 102.94C559.24 103.42 558.21 103.74 558.5 103.77L559.83 103.55C561.26 103.06 562.52 102.59 563.65 102.18C563.8 102.13 563.94 102.08 564.08 102.03C564.17 102 564.26 101.97 564.35 101.94C564.54 101.88 564.73 101.82 564.9 101.77H564.91Z" fill="#DAF521"/>
<path d="M353.16 81.5901C353.5 81.8301 353.85 82.0801 354.21 82.3201C355.15 82.8101 356.04 83.2701 356.83 83.6801C355.73 83.0501 354.48 82.3301 353.16 81.5801V81.5901Z" fill="#DAF521"/>
<path d="M350.07 80.71L345.31 77.47C346.37 78.22 347.89 79.27 350.07 80.71Z" fill="#DAF521"/>
<path d="M57.9499 23.21L54.9099 24.91C59.8099 22.56 57.6099 23.49 57.9499 23.21Z" fill="#DAF521"/>
<path d="M596.7 103.04C596.44 102.97 596.4 102.95 596.28 102.91L595.96 102.8C595.76 102.73 595.57 102.67 595.38 102.61C595.15 102.51 594.83 102.43 594.73 102.34C594.97 102.19 595.2 102.05 595.42 101.91C595.52 101.84 595.62 101.78 595.71 101.71C595.92 101.56 596.12 101.41 596.32 101.27L595.81 101.62L595.64 101.72C595.52 101.79 595.39 101.86 595.28 101.93C595.01 102.08 594.75 102.23 594.5 102.36C594.45 102.38 594.47 102.39 594.5 102.4L594.57 102.43L594.71 102.49C594.81 102.53 594.9 102.57 594.99 102.6C595.09 102.64 595.18 102.67 595.26 102.7C595.38 102.74 595.5 102.77 595.61 102.81C595.83 102.88 596.03 102.93 596.2 102.97C596.38 103.01 596.47 103.02 596.7 103.05V103.04Z" fill="#DAF521"/>
<path d="M180.98 2.98006C179.16 2.72006 178.38 2.64006 178.42 2.70006C180.29 2.97006 181.36 3.10006 180.98 2.98006Z" fill="#DAF521"/>
<path d="M604.53 93.75C604.07 94.25 603.61 94.74 603.12 95.23C601.2 97.3 599.09 99.24 596.33 101.28C599.14 99.32 602.17 96.73 604.54 93.75H604.53Z" fill="#DAF521"/>
<path d="M325.36 74.8899C325.61 75.0699 325.92 75.2899 326.15 75.4599C326.24 75.4899 325.89 75.2399 325.36 74.8899Z" fill="#DAF521"/>
<path d="M438.12 126.25C436.9 126.08 434.91 125.72 433.04 125.37C433.95 125.54 435.47 125.88 438.12 126.25Z" fill="#DAF521"/>
<path d="M675.96 93.7299C678.42 92.4599 676.34 93.5099 675.96 93.7299Z" fill="#DAF521"/>
<path d="M688.09 87.7C687.61 88.04 687.24 88.31 687.21 88.39C687.37 88.22 687.68 87.98 688.09 87.7Z" fill="#DAF521"/>
<path d="M612.6 67.2C612.6 67.12 612.6 67.05 612.58 66.96C612.59 67.8 612.59 67.65 612.6 67.2Z" fill="#DAF521"/>
<path d="M679.72 91.9099C678.79 92.3899 677.7 92.8899 676.54 93.4799C677.05 93.2299 678.04 92.7799 679.72 91.9099Z" fill="#DAF521"/>
<path d="M679.17 92.09C680.01 91.64 680.66 91.26 681.29 90.91C681.57 90.7 681.3 90.85 679.17 92.09Z" fill="#DAF521"/>
<path d="M672.47 95.39C673.19 95.07 673.89 94.75 674.58 94.45C675.25 94.12 675.9 93.8 676.54 93.48C676.05 93.71 675.84 93.81 675.97 93.73C675.61 93.91 675.17 94.14 674.61 94.42C674.04 94.68 673.34 94.99 672.48 95.38L672.47 95.39Z" fill="#DAF521"/>
<path d="M108.48 15.0199C108.66 14.9899 108.88 14.9499 109.08 14.9199C111.85 14.2599 110.63 14.5299 108.48 15.0199Z" fill="#DAF521"/>
<path d="M496.01 118.39C496.14 118.38 496.21 118.37 496.33 118.36C496.2 118.36 496.03 118.37 495.91 118.38H496.01V118.39Z" fill="#DAF521"/>
<path d="M485.9 118.97C490.21 118.58 492.65 118.53 495.92 118.37L492.55 117.94C490.34 118.28 488.13 118.65 485.9 118.96V118.97Z" fill="#DAF521"/>
<path d="M120.76 3.71999L124.26 3.36999L127.77 3.15999C119.36 4.25999 113.31 5.16999 119.86 4.51999C120.08 4.31999 121.88 3.98999 124.48 3.62999C125.78 3.49999 127.28 3.34999 128.88 3.18999C129.68 3.11999 130.5 3.03999 131.34 2.96999C132.18 2.92999 133.03 2.88 133.88 2.83C135.58 2.75 137.29 2.63 138.89 2.58C140.5 2.54 142.01 2.50999 143.32 2.46999C145.94 2.34999 147.77 2.36999 148.02 2.18999L152.66 2.44999C151.33 2.42999 151.12 2.42999 149.8 2.40999C152.06 2.51999 153.6 2.59999 154.83 2.65999C156.06 2.70999 156.98 2.68999 157.99 2.67999C160 2.60999 162.34 2.65999 168.13 3.26999C172.15 3.82999 174.95 4.29999 172.19 4.01999C173.69 4.18999 175.19 4.33999 176.68 4.52999L181.16 5.16999C183.76 5.60999 183.1 5.61999 180.52 5.18999L183.93 5.72999C185.06 5.91999 186.19 6.14999 187.32 6.36999C189.58 6.81999 191.85 7.17999 194.09 7.70999H193.99C195.93 8.04999 200.34 8.80999 202.47 9.30999C205.85 10.27 200.74 8.94999 201.6 9.24999L209.06 10.98C212.03 11.94 205.85 10.51 200.73 9.18999C207.47 11.65 206.98 10.4 221.65 15.19L218.19 14.16L214.71 13.22C215.8 13.63 216.96 14.02 218.21 14.43C219.45 14.86 220.77 15.3 222.2 15.76C223.63 16.22 225.17 16.72 226.83 17.26C228.47 17.85 230.25 18.49 232.17 19.18C231.27 18.84 227.46 17.32 224.82 16.38C222.19 15.4 220.77 14.79 224.77 15.94C227 16.65 229.91 17.69 234.2 18.98C234.18 19.11 235.22 19.48 236.89 20.09C238.57 20.69 240.89 21.52 243.47 22.44L243.01 22.61C248.6 24.54 248.2 24.29 251.51 25.38C254.59 26.56 256.42 27.36 257.64 27.97C258.87 28.57 259.5 28.95 260.18 29.33C269.96 33.34 253.56 26.22 265.18 30.86C273.22 34.45 279.02 36.52 288.38 41.27C293.74 44.27 287.35 40.93 289.24 42.05C290.87 42.85 292.51 43.62 294.13 44.46C295.29 45.12 294.87 44.98 294.66 44.91C298.69 47.11 295.16 44.79 301.42 48.4C302.34 48.75 305.46 50.78 309.25 53.36C313.05 55.93 317.53 59.04 321.36 61.37C323.14 62.68 320.37 60.94 320.86 61.42C331.19 68.07 329.68 67.19 338.25 72.53L345.31 77.47C340.16 73.78 347.03 78.05 353.16 81.6C351.33 80.31 349.76 79.2 348.71 78.46C351.9 80.45 355.12 82.39 358.37 84.29C359.52 85.03 358.47 84.56 356.83 83.7C357.5 84.08 358.14 84.44 358.64 84.7C362.04 86.87 360.16 85.96 357.58 84.63C356.44 83.85 355.31 83.08 354.21 82.34C351.74 81.03 349.42 79.81 349.81 80.27C350.44 80.65 351.66 81.38 352.99 82.18C352.34 81.84 351.92 81.63 352.19 81.84C352.5 82.07 353.53 82.65 355.15 83.54L357.16 85.19L357.77 85.39C361.96 88 366.22 90.51 370.57 92.86C375.35 95.17 379.96 97.06 385.29 99.13C390.65 101.15 396.76 103.38 404.75 105.9C400.7 104.88 403.76 106.03 403.45 106.26C399.2 104.51 391.08 102.15 383.11 98.58C387.26 100.44 386.31 100.13 385.21 99.75C390.05 101.64 394.9 103.46 399.85 105.04C399.43 105.17 402.9 106.33 406.75 107.63C405.36 106.92 408.14 107.76 412.06 108.83C415.98 109.94 421.06 111.24 424.16 111.87C424.33 112 424.04 112.02 422.77 111.77C422.13 111.65 421.25 111.46 420.06 111.19C418.88 110.88 417.39 110.48 415.52 109.99C419.58 111.3 422.3 111.78 424.99 112.26C426.34 112.49 427.68 112.72 429.2 112.98C430.71 113.27 432.4 113.63 434.44 114.08C432.59 113.74 431.6 113.52 430.85 113.44C433.02 113.83 436.74 114.5 439.62 115.02C442.5 115.52 444.52 115.91 443.26 115.78L441.4 115.48C447.57 116.53 457.03 117.69 465.21 118.12C473.39 118.59 480.25 118.44 481.18 118.24C481.31 118.31 479.54 118.75 478.78 118.82C486.23 118.4 493.64 117.65 500.98 116.57C499.05 117.07 506.65 117.39 496.31 118.35C497.8 118.3 499.47 118.21 501.54 118.03C503.62 117.88 506.1 117.61 509.21 117.2C507.18 117.37 504.12 117.22 506.87 116.89C510.68 116.7 511.99 116.56 513.53 116.4C514.3 116.32 515.12 116.24 516.34 116.11C517.55 115.96 519.16 115.77 521.49 115.49C518.46 115.87 521.73 114.84 526.45 113.97C525.73 114.19 526.95 114.45 525.23 114.83L528.15 114.16L531.06 113.42C533 112.94 534.93 112.42 536.85 111.87C533.96 112.64 536.44 112.45 539.09 112C538.47 112.1 540.99 111.48 544.04 110.7C545.57 110.33 547.21 109.84 548.68 109.44C550.14 109.03 551.42 108.67 552.17 108.41C550.54 108.88 548.89 109.26 547.25 109.69C550.52 108.81 552.92 108.03 554.9 107.33C556.89 106.66 558.42 106 559.97 105.38C561.53 104.73 563.09 104.09 565.04 103.29C565.56 103.08 566.11 102.86 566.69 102.63C566.97 102.52 567.27 102.4 567.57 102.29C567.59 102.27 567.69 102.27 567.64 102.24L567.54 102.16L567.34 101.99C567.21 101.88 567.07 101.76 566.94 101.65C566.41 101.2 565.84 100.71 565.24 100.2C564.66 99.69 564.07 99.22 563.48 98.62C564.09 99.16 564.98 99.65 565.05 99.5C565.09 99.42 564.93 99.17 564.45 98.66C563.99 98.12 563.22 97.32 562.07 96.1C560.9 95.09 558.29 92.84 555.29 89.41C552.31 85.99 548.93 81.35 546.61 75.78C546.38 75.04 546.17 74.3 545.98 73.56C544.96 70.67 544.23 67.64 544.04 64.53C544.19 65.98 544.57 68.06 545.28 70.39C545.99 72.73 547.08 75.32 548.42 77.86C551.08 82.97 554.84 87.8 557.67 91C556.17 89.01 556.02 88.69 555.65 88.15C555.31 87.59 554.67 86.85 552.69 83.71C552.08 82.55 552.63 83.4 553.54 84.72C554.43 86.06 555.75 87.84 556.41 88.71C553 84.09 550.06 79.08 548.18 73.73C548.16 74.15 546.88 71.11 546.29 67.91C545.59 64.71 545.85 61.45 545.68 61.76C545.5 64.82 545.96 67.91 546.82 70.88C547.66 73.86 548.92 76.72 550.37 79.48C550.43 79.88 548.83 77.64 547.2 73.59C546.4 71.57 545.64 69.07 545.28 66.28C544.91 63.5 545 60.4 545.91 57.46C546.14 56.72 546.33 56.52 546.35 56.6C546.39 56.69 546.31 57.06 546.27 57.53C546.12 58.45 546.05 59.72 546.12 59.61C546.15 59.42 546.2 59.1 546.27 58.69C546.35 58.28 546.49 57.79 546.63 57.24C546.99 56.16 547.46 54.84 548.18 53.66C549.53 51.24 551.57 49.32 551.99 49C550.79 50.18 549.72 51.52 548.85 52.94C550.74 50.25 552.69 48.31 555.08 46.75C557.47 45.23 560.48 44.07 564.46 44.34C565.82 44.39 567.85 44.77 569.48 45.42C571.13 46.03 572.4 46.76 572.65 46.77C570.77 45.59 569.56 44.87 569.27 44.38C568.96 43.91 569.6 43.65 571.17 44.08C571.41 44.18 572.44 44.58 573.8 45.35C575.15 46.12 576.81 47.28 578.3 48.73C578.67 49.1 579.04 49.47 579.38 49.86C579.56 50.05 579.73 50.25 579.89 50.45L580.29 50.95L580.65 51.46L580.74 51.59C580.74 51.59 580.77 51.64 580.79 51.65L580.85 51.61L581.1 51.45C581.44 51.23 581.75 51.05 582.13 50.84C583.72 49.94 585.13 49.4 585.91 49.13C588.2 48.45 586.54 49.18 584.94 50.09C583.33 51.01 581.83 52.18 583.58 51.31C583.63 51.22 584.2 50.86 584.89 50.48C585.59 50.11 586.41 49.73 586.91 49.53C588.31 49.08 588.05 49.27 588.19 49.28C588.34 49.34 588.84 49.04 591.96 48.54C592.21 48.43 593.14 48.27 594.25 48.24C595.35 48.19 596.62 48.31 597.53 48.47C598.44 48.62 599 48.79 598.75 48.71C598.49 48.66 597.43 48.27 594.94 48.1C596.5 48.1 597.69 48.3 598.69 48.53C599.69 48.77 600.51 49.04 601.33 49.4C602.15 49.75 602.98 50.18 603.93 50.83C604.87 51.48 605.99 52.33 607.15 53.73C606.82 53.25 606.95 53.29 607.4 53.7C607.86 54.11 608.6 54.94 609.34 56.11C610.88 58.44 612.2 62.21 612.63 65.42C612.49 65.05 612.59 66.5 612.55 67.21C612.93 73.8 611.49 78.84 609.49 83.31C607.37 87.75 604.61 91.81 600.18 96.02C599.75 96.38 598.42 97.53 597.37 98.3C596.33 99.08 595.62 99.54 596.56 98.71C595.94 99.24 595.4 99.69 594.58 100.33C593.64 101.05 592.49 101.86 590.92 102.88L590.89 102.93C590.89 102.93 590.96 102.95 591 102.97C591.08 103 591.17 103.02 591.26 103.05C591.44 103.11 591.64 103.17 591.84 103.23C593.85 103.96 594.25 104.09 593.76 103.98C593.52 103.93 593.05 103.79 592.44 103.6C592.14 103.51 591.81 103.4 591.46 103.29C591.29 103.24 591.11 103.18 590.93 103.12L590.66 103.03L590.52 102.99C590.52 102.99 590.52 102.95 590.52 102.93C591.75 102.14 593.01 101.28 593.56 100.87C594.09 100.45 594.04 100.46 592.3 101.51C592.23 101.62 591.45 102.18 590.3 102.96C590.26 103.02 590.45 103.05 590.58 103.09C590.71 103.13 590.85 103.17 591 103.21C591.28 103.29 591.57 103.38 591.88 103.47C592.48 103.64 593.15 103.86 593.77 104.03C594.4 104.2 595.07 104.39 595.75 104.58C596.4 104.75 596.93 104.87 597.54 105.02C599.92 105.57 602.43 106.06 604.42 106.33C603.81 106.11 601.89 105.75 599.46 105.2C598.22 104.93 596.96 104.62 595.5 104.24C594.75 104.03 594 103.84 593.22 103.6C592.82 103.48 592.43 103.36 592.04 103.24L591.45 103.06L591.15 102.97L591 102.93C590.93 102.92 591 102.89 591 102.87C591.81 102.33 592.62 101.78 593.38 101.25C594.14 100.72 594.88 100.16 595.33 99.81C595.37 99.88 595.16 100.16 594.52 100.72C593.9 101.27 593.02 101.98 591.96 102.74L591.9 102.78C591.9 102.78 591.95 102.8 591.97 102.81L592.15 102.86C592.27 102.89 592.4 102.92 592.52 102.96C592.76 103.02 593.02 103.09 593.28 103.16C593.79 103.3 594.32 103.43 594.88 103.56C595.46 103.69 595.94 103.83 596.64 103.97C597.31 104.12 598.01 104.27 598.74 104.43C601.67 105.04 605.1 105.6 608.84 106.01C611.36 106.3 612.9 106.41 613.81 106.51C614.72 106.59 615.01 106.65 615.03 106.69C615.08 106.77 614.08 106.78 614.96 106.81C619.72 107.14 623.14 107.05 625.8 106.92C628.46 106.77 630.39 106.57 632.2 106.33C634.01 106.06 635.72 105.84 637.96 105.54C640.18 105.16 642.95 104.85 646.84 104.11C653.04 103.09 647.24 104.6 648.64 104.5C640.52 106.32 636.03 106.39 630.45 106.9C632.76 106.8 635.05 106.54 637.35 106.37C636.04 106.55 634.01 106.8 631.93 107.03C629.84 107.21 627.7 107.32 626.19 107.33C627.51 107.33 630.2 107.3 633.7 106.94C635.45 106.75 637.41 106.63 639.49 106.29C641.57 105.99 643.8 105.68 646.07 105.2C650.64 104.39 655.42 103.08 659.93 101.76C664.4 100.31 668.61 98.79 672.01 97.31C673.19 96.72 674.82 95.98 675.86 95.39C676.9 94.8 677.41 94.49 676.43 94.93C675.06 95.68 673.62 96.28 672.21 96.94C670.21 97.72 672.18 96.75 673.98 95.88C674.88 95.46 675.71 95.01 675.99 94.83C676.27 94.65 676.01 94.79 674.67 95.4C676.06 94.69 677.46 93.9 678.94 93.11C680.41 92.32 681.86 91.36 683.43 90.45C684.98 89.51 686.52 88.41 688.19 87.35C689 86.79 689.81 86.17 690.66 85.57C691.5 84.95 692.39 84.37 693.23 83.66L694.7 82.85C694.59 82.86 693.48 83.78 692.1 84.8C690.69 85.78 689.09 87 688.09 87.72C688.84 87.19 689.89 86.43 691.11 85.56C692.36 84.73 693.69 83.68 695.03 82.62C696.4 81.6 697.65 80.42 698.78 79.36C699.93 78.33 700.83 77.29 701.44 76.49C700.02 77.97 698.43 79.28 696.89 80.62C699.15 78.47 701.57 75.94 703.83 73.07C704.59 72.11 705.36 71.15 706.14 70.17L706.31 69.95C706.34 69.89 706.38 69.95 706.41 69.97L706.52 70.05L706.96 70.38L707.85 71.04C708.33 71.4 708.81 71.76 709.29 72.12C710.84 73.28 712.39 74.46 713.93 75.67C712.61 74.47 712.24 74.2 711.68 73.78C711.4 73.57 711.07 73.32 710.55 72.89C709.94 72.38 709.1 71.68 707.84 70.63C709.44 71.99 708.48 71.33 706.52 69.86L706.33 69.72C706.27 69.71 706.22 69.83 706.17 69.87C706.06 70 705.96 70.13 705.84 70.27C705.62 70.54 705.38 70.83 705.13 71.14C704.74 71.62 704.32 72.13 703.88 72.68C703.21 73.51 702.48 74.41 701.67 75.22C700.89 76.05 700.12 76.86 699.45 77.57C698.74 78.24 698.14 78.82 697.72 79.21C696.9 80.01 696.86 80.12 698.34 78.91C693.96 82.44 690.88 85.23 684.48 88.88C684.6 88.86 685.17 88.55 685.03 88.67C684.89 88.79 684.06 89.4 681.22 90.97C680.98 91.14 680.4 91.52 680.03 91.76C679.86 91.86 679.8 91.89 679.65 91.97C679.76 91.91 679.85 91.86 679.97 91.8C679.73 91.95 679.71 91.97 680.09 91.74C681.45 91.01 682.57 90.43 683.04 90.22C682.37 90.67 681.31 91.33 680.04 92.1C678.77 92.85 677.23 93.61 675.72 94.42C672.64 95.95 669.47 97.37 667.85 98.03C664.23 99.4 669.31 97.33 667.31 98L664.9 99.04L662.45 99.97C661.9 100.01 652.54 102.69 661.19 99.87C659.91 100.33 658.6 100.71 657.28 101.08C655.97 101.44 654.67 101.88 653.34 102.18C648.65 103.31 642.12 104.42 638.09 105.04C636.17 105.26 633.75 105.53 632.23 105.75C630.7 105.93 630.07 105.98 631.75 105.79C627.49 106.17 623.21 106.32 618.93 106.25L618.81 106.19C614.46 106.05 610.02 105.69 605.52 105.02C603.27 104.68 601.02 104.25 598.75 103.73C596.14 103.08 595.04 102.8 594.24 102.46C594.65 102.21 595.05 101.94 595.44 101.67L595.84 101.39L596.52 100.89L597.87 99.86C599.66 98.46 601.4 96.95 603.06 95.29C603.81 94.47 604.55 93.64 605.25 92.7C605.61 92.24 605.98 91.77 606.36 91.28C606.73 90.79 607.06 90.25 607.44 89.71C608.21 88.64 608.87 87.39 609.65 86.06C609.99 85.36 610.34 84.64 610.71 83.88C611.07 83.12 611.37 82.28 611.73 81.42C611.98 81 612.17 80.55 612.38 80.1C613.27 77.37 614.15 73.1 614.11 69.16C614.15 65.22 613.29 61.73 612.8 60.59C612.48 59.04 611.76 56.59 610.01 53.84C609.13 52.48 607.94 51.14 606.49 49.96C605.05 48.78 603.32 47.81 601.47 47.13C597.75 45.77 593.6 45.68 590.03 46.43C588.24 46.79 586.57 47.32 585.09 47.94C584.35 48.25 583.65 48.58 583 48.91C582.67 49.07 582.37 49.25 582.06 49.42C581.91 49.5 581.76 49.58 581.62 49.67C581.5 49.74 581.39 49.81 581.27 49.88C581.29 49.97 581.3 50.06 581.3 50.16C581.19 50.22 581.09 50.31 580.99 50.36C580.91 50.26 580.84 50.16 580.76 50.06L580.52 49.79C580.38 49.62 580.22 49.46 580.07 49.3C579.77 48.98 579.46 48.66 579.13 48.36C577.84 47.14 576.39 46.06 574.79 45.15C571.6 43.35 567.73 42.08 563.29 42.26C563.47 42.33 563.66 42.39 563.83 42.47C561.95 42.51 559.79 42.84 557.57 43.61C555.36 44.39 553.07 45.64 551.05 47.41C549.01 49.16 547.19 51.35 545.84 53.95C545.18 55.25 544.67 56.65 544.29 58.08C543.95 59.52 543.72 61 543.67 62.49C543.58 61.68 543.92 58.64 544.69 56.62C543.46 60 543.22 63.78 543.73 67.39C544.24 71.01 545.41 74.5 546.89 77.75C549.87 84.27 554.03 89.86 557.96 94.67C560.07 96.95 561.63 98.56 563.16 100.1C562.95 99.9 562.76 99.73 562.6 99.57C562.83 99.79 563.16 100.13 563.53 100.44L563.91 100.79L564.1 100.97L564.18 101.05L564.47 101.34L564.74 101.61L564.87 101.74C564.87 101.74 564.98 101.83 564.87 101.84C564.9 101.84 564.95 101.83 564.95 101.81L564.9 101.76L564.8 101.65L564.58 101.42C564.4 101.24 564.3 101.13 564.04 100.89C564.25 101.07 564.48 101.27 564.73 101.48C564.85 101.58 564.97 101.69 565.1 101.79C565.12 101.82 565.19 101.85 565.17 101.87L565.06 101.91L564.83 102C563.71 102.43 562.48 102.9 561.27 103.36L559.78 103.61C559.51 103.7 559.3 103.78 559.02 103.87C555.75 104.88 556.45 104.86 558.24 104.45C556.59 105.06 555.07 105.59 553.89 106.01C551.13 106.49 545.14 108.77 541.33 109.26C540.22 109.67 535.96 110.74 531.73 111.7C527.51 112.68 523.31 113.47 522.43 113.86C522.3 113.83 521.28 113.98 523.14 113.64C519.28 114.23 515.43 114.81 511.97 115.34L510.29 115.25C507.48 115.68 504.68 116.17 501.86 116.51C499.27 116.64 497.44 116.7 496.9 116.64C496.35 116.58 497.1 116.49 499.65 116.16C496.57 116.49 494.39 116.63 492.71 116.78C491.02 116.87 489.82 116.94 488.68 117C486.4 117.12 484.35 117.19 479.07 117.37L479.59 117.18C475.82 117.18 469.78 117.24 467.52 116.93C463.32 116.52 452.9 115.83 440.97 113.82C429.03 111.93 415.67 108.59 405.44 105.06C407.35 105.97 404.97 105.17 402.01 104.09C400.54 103.53 398.92 102.92 397.61 102.46C396.31 101.98 395.31 101.63 395.07 101.66C393.94 101.09 391.15 99.95 394.47 101.07C389.28 99.2 385.49 97.5 382.11 95.98C378.74 94.43 375.77 93.06 372.3 91.46C371.24 90.76 374.49 92.36 373.53 91.77C372.73 91.4 370.36 90.28 369.4 89.65C368.46 89.04 370.87 90.33 372.45 91.06C367.46 88.47 364.72 87.01 363.09 86.25C361.45 85.49 360.93 85.42 360.47 85.38C355.65 82.29 353.22 80.79 349.59 78.78C347.98 77.59 345.26 75.68 351.19 79.43C349.52 78.37 344.48 75.05 339.84 71.92C335.2 68.8 330.92 65.92 330.66 65.94C329.68 65.18 326.1 62.81 325.21 62.26C317.85 57.28 317.23 56.8 309.87 52.1L311.88 53.45C308.77 51.92 305.74 49.58 299.66 46.02L299.85 46.09C292.95 41.88 291.35 41.16 289.84 40.35C288.29 39.6 286.85 38.72 279.7 35.17L280.38 35.76C279.6 35.67 276.43 34.12 272.33 32.28C270.28 31.35 268.01 30.33 265.73 29.29C263.42 28.31 261.09 27.35 258.93 26.53L261.97 27.91C257.25 26.15 249.12 22.06 244.36 20.26C243.33 19.85 246.04 20.76 247.49 21.3C235.1 16.48 245.77 20.99 236.43 17.72C234.75 16.98 238.8 18.06 232.49 15.91C231.71 15.61 230.17 15.11 228.15 14.48C226.12 13.9 223.62 13.18 220.95 12.41C215.59 10.93 209.55 9.27 205.15 8.06C207.06 8.68 208.96 9.29999 204.48 8.25999C202.77 7.82999 200.77 7.28999 198.61 6.78999C196.45 6.27999 194.17 5.66999 191.88 5.16999C189.59 4.67999 187.32 4.20999 185.22 3.80999C183.12 3.43999 181.18 3.18999 179.6 3.02999C178.72 2.84999 178.39 2.75999 178.36 2.71999C177.03 2.50999 175.27 2.3 173.33 2.08C171.39 1.87 169.29 1.55999 167.24 1.40999C165.19 1.24999 163.21 1.09999 161.53 0.969995C159.86 0.849995 158.48 0.859992 157.67 0.849992C155.22 0.259992 146.81 -0.0900059 139.07 0.269994C131.32 0.589994 124.27 1.49 124.29 1.08C121.54 1.43 118.79 1.73999 116.05 2.17999C113.32 2.64999 110.58 3.05 107.87 3.65L108.28 3.49C97.8599 5.57 94.3199 6.94999 90.7899 8.12999C88.4299 8.79999 90.1199 8.20999 90.2999 8.10999C82.8499 10.27 78.8699 11.82 75.1799 13.22C73.3399 13.94 71.6099 14.71 69.5699 15.58C67.5599 16.5 65.2499 17.54 62.3399 18.97L61.0099 19.3C59.4299 20.08 54.3199 22.36 47.9899 25.47C46.4099 26.26 44.7599 27.1 43.0499 27.95C41.3399 28.83 39.6199 29.79 37.8999 30.8C34.4699 32.81 31.0999 35.06 28.0399 37.35C28.1499 37.24 28.3699 37.01 29.3399 36.28C22.4099 41.33 14.3799 47.89 8.7999 55C8.4499 55.44 8.0899 55.87 7.7499 56.3C7.4299 56.75 7.1099 57.2 6.7999 57.64C6.1899 58.53 5.5499 59.36 5.0099 60.23C3.9899 62 2.9299 63.59 2.2699 65.19C1.7599 66.28 1.2799 67.32 0.829903 68.29L0.649902 68.69C0.649902 68.69 0.649903 68.74 0.689903 68.75L0.789904 68.79L0.989902 68.87C1.2599 68.98 1.5199 69.08 1.7799 69.19C2.2899 69.39 2.7799 69.59 3.2499 69.77C3.4399 69.84 3.6299 69.91 3.8099 69.98C3.9499 70.03 4.0899 70.08 4.2299 70.13C4.5099 70.22 4.7699 70.31 5.0099 70.4C5.5099 70.56 5.9499 70.7 6.3299 70.8L11.9999 73.09L12.4399 73.27C12.4999 73.27 12.6099 73.38 12.6399 73.31L12.7399 73.09L13.1399 72.22L13.8499 70.65C14.2099 69.8 14.7099 69.02 15.1299 68.2C14.6899 68.98 14.2799 69.64 13.9699 70.23C13.6399 70.92 13.3499 71.49 13.1199 71.97C12.9899 72.24 12.8699 72.48 12.7599 72.7C12.7099 72.81 12.6599 72.91 12.6099 73C12.5899 73.04 12.5699 73.1 12.5399 73.13L12.3999 73.07C12.0499 72.91 11.7999 72.79 11.6299 72.71C10.9599 72.38 11.6099 72.6 12.4499 72.89C13.2599 70.94 14.2099 68.65 12.8699 71.29C13.4399 69.94 14.2899 68.56 15.0699 67.23C15.9599 65.97 16.7399 64.75 17.4399 63.96C18.7699 62.33 19.1399 61.99 17.0599 64.79C16.8399 65.08 16.6299 65.38 16.4099 65.67C15.8999 66.87 18.3299 63.1 21.5799 59.63C24.7799 56.12 28.6099 52.83 28.5799 53.09C33.9599 48.46 39.7999 44.42 45.8999 40.99C48.9499 39.28 52.0999 37.71 55.2299 36.15C58.3599 34.59 61.4999 33.09 64.6499 31.64C77.2299 25.83 90.0799 21.15 103.03 18.01C102.01 18.14 100.97 18.23 99.9599 18.4C101.46 17.98 102.98 17.67 104.48 17.29L106.75 16.75L109.03 16.29C111.45 15.9 112.29 15.89 105.8 17.26C107.52 16.95 110.24 16.4 112.55 15.83C114.87 15.35 116.79 14.93 116.87 14.87C118.47 14.61 119.61 14.47 120.36 14.41C121.11 14.34 121.49 14.31 121.59 14.32C121.79 14.34 120.89 14.51 119.71 14.7C117.35 15.12 113.9 15.81 115.86 15.48C117.63 15.17 119.41 14.86 121.2 14.65L119.99 14.76C122.15 14.39 123.33 14.19 124.95 13.92C126.58 13.71 128.66 13.46 132.64 13.17C137.69 12.99 135.24 13.26 137.22 13.17C137.22 13.18 137.38 13.18 137.84 13.17C138.3 13.14 139.07 13.13 140.26 13.1C142.21 13.1 144.17 13.04 146.12 13.06L151.98 13.22L147.3 12.81C152.51 12.72 158.33 13.32 152.93 12.65C153.92 12.77 155.35 12.91 157.09 13.06C157.96 13.13 158.92 13.21 159.93 13.29C160.95 13.4 162.03 13.52 163.16 13.64C165.43 13.88 167.9 14.12 170.45 14.5C171.73 14.67 173.02 14.84 174.33 15.02C175.64 15.19 176.94 15.44 178.25 15.65C188.69 17.33 198.62 19.68 200.96 20.39C202.74 20.8 204.51 21.22 206.3 21.63C208.09 22.07 209.88 22.59 211.73 23.09C215.43 24.07 219.27 25.33 223.53 26.66C222.48 26.3 221.66 25.95 222.02 25.97C222.38 26 223.94 26.37 227.58 27.64C226.14 27.52 229.47 28.68 233.85 30.25C236.03 31.06 238.48 31.98 240.74 32.82C243 33.67 245.04 34.57 246.46 35.23C243.91 34.11 249.06 35.98 253.78 37.85C258.5 39.72 262.86 41.43 258.9 39.58C264.83 42.07 259.17 39.94 263.61 41.98C267.15 43.43 270.89 44.93 274.65 46.69C278.42 48.44 282.25 50.44 286.12 52.6C293.86 56.91 301.72 61.93 309.62 67.11C309.91 67.2 307.34 65.34 310.8 67.47L318.85 73.41C321.97 75.47 321.98 74.92 327.47 79.01C326.71 78.41 325.58 77.51 327.68 78.89C342.9 89.46 358.92 99.9 376.42 107.64C393.88 115.37 412.24 121.14 430.73 125.15C425.74 123.95 429.08 124.67 432.93 125.37C430.44 124.86 433.03 125.17 432.56 124.96C437.71 126.08 442.92 126.96 448.13 127.77C448.85 127.79 450.27 127.89 452.02 128.07C453.76 128.25 455.83 128.47 457.87 128.63C461.94 129.03 465.87 129.2 466.7 129.11L461.7 128.85C465.04 128.85 462.72 128.56 459.72 128.06C458.22 127.82 456.54 127.56 455.31 127.33C454.08 127.08 453.28 126.87 453.54 126.78C446.09 126.44 434.23 123.68 422.27 121.48C419.68 120.76 424.53 121.86 423.16 121.42C421.64 121.16 419.97 120.82 417.84 120.34C415.73 119.8 413.15 119.15 409.85 118.15L410.61 118.32C401.29 115.67 394.75 113.35 388.04 110.69C384.7 109.33 381.29 107.91 377.53 106.18C373.76 104.48 369.63 102.45 364.85 99.87L366.16 100.83C362.04 98.61 361.23 98.04 359.35 96.93C356.93 95.75 359.77 97.4 362.7 99.02C365.63 100.63 368.66 102.18 366.4 101.24C365.08 100.42 362.6 99.03 359.61 97.31C356.62 95.58 353.12 93.52 349.72 91.41C342.91 87.19 336.47 82.86 334.88 81.46C328.89 77.44 336.48 82.87 330.5 78.84L329 77.64L327.38 76.78C323.48 74.09 321.61 72.6 321.53 72.39C322.47 73.05 324.25 74.2 325.28 74.88C320.31 71.27 310.89 65.22 309.14 64.04L314.88 67.96C306.64 62.53 297.44 56.53 287.89 51.25C283.12 48.61 278.26 46.15 273.43 44.01C271.02 42.92 268.63 41.97 266.3 40.99C263.97 40.03 261.7 39.07 259.47 38.23L260.77 38.88C253.98 36.24 251.29 35.11 248.41 33.99C246.97 33.42 245.49 32.83 243.44 32.02C241.38 31.23 238.72 30.29 234.96 28.95L235.52 29.12C232.48 28.12 228.39 26.86 224.25 25.46C228.15 26.55 217.07 22.95 222.17 24.4C214.6 22.12 212.68 21.72 211.43 21.42C210.8 21.28 210.34 21.18 209.39 20.98C208.45 20.76 207.02 20.44 204.47 19.91L202.18 19.13C198.7 18.4 198.38 18.43 190.58 16.73C193.79 17.36 192.56 17.02 191.43 16.68C190.87 16.5 190.32 16.37 190.37 16.33C190.42 16.29 191.07 16.37 192.87 16.73C190.84 16.19 188.91 15.82 187.11 15.44C185.3 15.08 183.62 14.7 182.01 14.46C178.8 13.97 176.01 13.47 173.47 13.21C170.93 12.93 168.69 12.62 166.59 12.4C164.49 12.18 162.55 11.93 160.65 11.6C156.78 11.59 160.41 11.87 164.44 12.32C165.45 12.42 166.48 12.52 167.44 12.62C168.39 12.74 169.25 12.85 169.93 12.94C171.27 13.12 171.85 13.2 170.78 13.09C172.56 13.41 170.97 13.3 168.29 13.01C165.6 12.78 161.81 12.45 159.19 12.22C157.85 12.13 156.62 12.02 155.31 11.87C154 11.72 152.61 11.55 150.97 11.45C149.32 11.34 147.42 11.18 145.09 11.1C143.92 11.1 142.64 11.09 141.24 11.08C139.83 11.08 138.3 11.08 136.61 11.19C137.95 11.14 138.04 11.05 139.38 11.05C136.85 11.05 134.37 11.26 131.76 11.42C130.45 11.55 129.11 11.67 127.71 11.81C126.31 11.93 124.84 12.03 123.3 12.2C121.59 12.59 119.59 12.8 117.91 13.08C116.23 13.37 114.86 13.61 114.4 13.89C118.46 13.14 122.55 12.57 126.66 12.12C124.91 12.27 123.21 12.59 121.44 12.86C120.56 13 119.66 13.14 118.74 13.29C117.83 13.47 116.89 13.65 115.91 13.84C114.94 14.02 113.93 14.21 112.87 14.41C111.82 14.63 110.73 14.86 109.58 15.11C108.43 15.36 107.22 15.58 105.95 15.87C104.68 16.16 103.35 16.46 101.94 16.78C102.8 16.52 106.1 15.53 108.42 15.05C106.75 15.31 105.17 15.71 103.58 16.12C101.99 16.52 100.38 16.92 98.6799 17.34C99.0999 16.99 102.75 16.03 107.22 15.02C111.7 14.05 117.02 13.11 120.74 12.5C118.92 12.6 115.41 13.31 112.82 13.76C110.24 14.3 108.57 14.66 110.38 14.07C105.15 15.61 97.3099 16.85 88.7299 20.12L89.2299 19.7C87.8699 20.2 85.0499 21.25 82.5599 22.17C84.0199 21.49 85.5299 20.91 87.0099 20.28C80.0799 22.91 73.5099 25.03 67.0699 28.06C73.8799 25.05 74.7099 24.88 74.5199 25.04C74.3299 25.22 73.1599 25.82 76.1099 24.72C67.6899 28.33 65.2899 29.41 62.5599 30.44C59.8699 31.55 56.8599 32.65 47.7799 37.45C49.0099 36.78 51.3399 35.63 52.8899 34.89C54.4499 34.17 55.2199 33.87 53.2999 34.89C51.5499 35.76 49.5199 36.76 47.6599 37.69C45.7799 38.63 44.1199 39.54 43.0299 40.09C31.4499 47.42 44.9199 39.14 40.0599 42.37C35.9999 44.66 34.4999 46.16 29.8699 49.94L29.6799 49.78C26.6499 52.24 25.0399 53.77 24.0999 54.72C23.1699 55.69 22.8799 56.06 22.6199 56.4C22.3599 56.73 22.1499 57.05 21.3999 57.91C20.6499 58.77 19.3199 60.15 17.1399 62.93L17.9699 61.69L18.8699 60.5C19.4699 59.7 20.0599 58.9 20.7099 58.15C19.0599 59.96 17.5399 61.9 16.0999 63.9L16.7999 62.52C15.5899 64.13 14.7399 65.58 13.9399 66.84C13.5799 67.5 13.2299 68.11 12.8999 68.71C12.7399 69.01 12.5599 69.29 12.4299 69.6C12.3099 69.86 12.1799 70.12 12.0599 70.38L11.8899 70.75C11.8199 70.84 11.8099 71.08 11.6599 70.95C11.3199 70.8 10.9799 70.65 10.6099 70.49C9.2899 69.91 7.8199 69.27 6.0499 68.5C6.8399 68.93 6.5699 68.93 5.3099 68.5C4.8499 68.33 4.2099 68.1 3.3899 67.81C3.3599 67.79 3.2799 67.79 3.2899 67.75L3.3399 67.63C3.3799 67.55 3.4099 67.46 3.4499 67.37C3.5299 67.19 3.6199 67 3.6999 66.81C3.9899 66.19 4.3099 65.51 4.6599 64.78C5.8699 62.82 5.6099 63.42 5.6199 63.45C5.6199 63.47 5.7099 63.35 6.0899 62.72C6.2799 62.4 6.5399 61.95 6.9099 61.33C7.2899 60.71 7.8399 59.96 8.5099 58.98C8.2299 59.44 7.9499 59.92 7.6499 60.42C7.4999 60.67 7.3399 60.93 7.1699 61.2C7.0199 61.48 6.8599 61.77 6.6999 62.07C6.0599 63.28 5.1299 64.62 4.1999 66.46C4.1799 66.54 4.0899 66.79 4.0499 66.9C4.0299 66.99 3.9999 67.09 3.9699 67.19C3.9399 67.29 3.9199 67.37 3.9099 67.44C3.8899 67.51 3.8899 67.56 3.9799 67.55C3.9099 67.54 3.9799 67.48 3.9999 67.43L4.0799 67.29C4.1299 67.2 4.1899 67.1 4.2399 67.01C4.5199 66.44 4.8199 65.85 5.1099 65.25C5.7999 63.99 6.5899 62.73 7.3099 61.47C8.1299 60.27 8.9199 59.11 9.6199 58.08C10.3699 57.07 11.0799 56.21 11.6099 55.54C10.7899 56.58 9.7399 57.77 9.2799 58.44C11.9099 54.68 14.9399 51.17 18.2199 47.89C19.9099 46.49 18.6399 47.68 17.4799 48.94C19.4899 46.98 20.8499 45.58 24.0299 42.92C23.6799 43.34 23.5899 43.55 23.0299 44.13C22.4699 44.71 21.4299 45.64 19.3199 47.66C22.4799 44.6 25.8799 41.8 29.4199 39.16C30.1499 38.66 35.1599 35.51 33.7699 36.53C36.8499 34.55 40.6499 32.14 44.8599 29.85C49.1199 27.55 53.6599 25.14 58.1299 23.13C58.5699 22.87 59.4799 22.39 61.3599 21.51C62.4099 21.04 63.4499 20.58 64.4699 20.12C65.5099 19.68 66.5399 19.25 67.5599 18.82C69.6099 17.94 71.6799 17.14 73.7999 16.31C75.8999 15.45 78.1099 14.7 80.3799 13.81C82.6699 12.99 85.0699 12.11 87.6399 11.22C89.6499 10.74 91.6299 10.19 93.6499 9.76999C101.85 7.44999 85.4599 11.53 99.1299 7.69999C104.01 6.47999 104.94 6.32999 105.09 6.41999C105.23 6.48999 104.58 6.75999 106.32 6.45999C111.15 5.19999 119.7 3.37999 128.94 2.91999C127.42 3.08999 126.06 3.21 124.73 3.33C123.4 3.46 122.1 3.64 120.68 3.83L120.76 3.71999ZM224.57 15.87C222.6 15.32 218.67 14.24 217.27 13.7C219.59 14.08 221.26 14.77 224.57 15.87ZM366.35 89.93C364.97 89.26 362.93 88.06 360.68 86.64C362.36 87.59 364.25 88.7 366.35 89.93ZM647.26 103.67C647.18 103.69 647.12 103.71 647.05 103.72C642.58 104.49 644.17 104.22 647.26 103.67ZM656.43 101.54C657.33 101.24 657.26 101.23 656.86 101.31C656.25 101.55 654.22 102.18 651.87 102.69C652.53 102.57 653.75 102.41 656.43 101.54ZM138.39 13.04L136.55 13.07C138.62 12.91 139.37 12.92 139.46 12.93C139.55 12.95 138.97 12.98 138.39 13.04Z" fill="#DAF521"/>
<path d="M350.48 80.8399C350.01 80.4899 349.9 80.3699 349.81 80.2599C349.11 79.8599 349.07 79.8899 350.48 80.8399Z" fill="#DAF521"/>
<path d="M58.51 22.8999L58.22 23.0399C58.07 23.1299 57.99 23.1799 57.95 23.2199L58.51 22.9099V22.8999Z" fill="#DAF521"/>
<path d="M586.98 49.8999C585.21 50.5399 584.26 51.0099 583.63 51.2999C583.58 51.4299 584.3 50.9299 586.98 49.8999Z" fill="#DAF521"/>
<path d="M699.27 77.3501L697.1 79.4101C696.38 80.1001 695.66 80.7901 694.88 81.4101C696.02 80.5101 696.7 79.8101 697.31 79.2801C697.91 78.7501 698.38 78.3401 698.93 77.8601C698.79 77.9101 697.9 78.6301 699.27 77.3501Z" fill="#DAF521"/>
<path d="M691.31 99.42C690.59 99.94 689.69 100.39 688.96 100.87L689.23 100.84C690.89 99.91 692.2 98.97 692.72 98.6C693.24 98.22 692.96 98.37 691.31 99.42Z" fill="#DAF521"/>
<path d="M703.63 73.8299C703.74 73.7699 703.98 73.5399 704.3 73.1799C704.46 72.9999 704.65 72.7799 704.86 72.5399C705.11 72.2299 705.4 71.8999 705.7 71.5299C705.86 71.3399 706.02 71.1399 706.19 70.9399L706.45 70.6299C706.49 70.5299 706.55 70.6599 706.6 70.6799L706.77 70.8099C707.22 71.1499 707.69 71.5099 708.18 71.8799C708.97 72.4699 709.81 73.0999 710.68 73.7499C710.48 73.5899 710.28 73.4499 710.08 73.2899C710.67 73.5599 710.04 73.0199 708.81 72.0799C708.42 71.7799 707.98 71.4499 707.51 71.0999C707.01 70.8099 706.4 69.8799 705.99 70.8699C705.24 71.8099 704.43 72.8299 703.63 73.8499V73.8299Z" fill="#DAF521"/>
<path d="M711.47 74.3201C712.57 75.1601 713.69 76.0101 714.76 76.8301C714.91 76.9101 714.89 76.8701 714.72 76.7401C714.56 76.6201 714.28 76.4001 713.91 76.1201C713.3 75.6701 712.41 75.0201 711.46 74.3201H711.47Z" fill="#DAF521"/>
<path d="M667.69 97.58C669.57 96.9 668.76 96.88 669.84 96.54C670.82 96 667.76 97.31 665.71 98.21C664.69 98.68 663.89 98.97 664.01 98.97C664.07 98.97 664.36 98.88 664.95 98.68C665.53 98.45 666.42 98.09 667.69 97.58Z" fill="#DAF521"/>
<path d="M706.33 71.6001C705.98 71.8901 705.59 72.2401 705.16 72.6201L703.8 74.5901L706.32 71.6001H706.33Z" fill="#DAF521"/>
<path d="M680.46 92.72C682.43 91.59 684.44 90.55 686.33 89.29C686.22 89.31 686.93 88.82 687.81 88.23C684.34 90.59 680.26 92.71 680.46 92.72Z" fill="#DAF521"/>
<path d="M687.82 88.23C688.75 87.66 689.6 87.01 690.36 86.45C691.11 85.88 691.77 85.39 692.25 85.02C691.77 85.37 691.03 85.92 690.22 86.51C689.42 87.11 688.56 87.75 687.82 88.22V88.23Z" fill="#DAF521"/>
<path d="M700.19 78.6001L698.68 79.9301L696.91 81.5601C696.3 82.0801 695.67 82.5801 695.05 83.0901C696.86 81.7101 698.49 80.1201 700.19 78.6001Z" fill="#DAF521"/>
<path d="M609.77 106.47C607.31 106.22 604.86 105.85 602.43 105.41C601.67 105.35 603.64 105.82 606.39 106.2C608.16 106.42 610.9 106.68 609.78 106.47H609.77Z" fill="#DAF521"/>
<path d="M632.23 107.47C630.21 107.57 630.07 107.52 628.94 107.51L628.73 107.83C629.9 107.73 631.07 107.61 632.23 107.47Z" fill="#DAF521"/>
<path d="M610.49 107.32C609.74 107.39 599.7 106.07 609.1 107.38C609.86 107.44 617.33 108.01 610.49 107.32Z" fill="#DAF521"/>
<path d="M577.39 48.6599C577.87 49.0599 578.32 49.4999 578.76 49.9399L578.93 49.3799C578.41 49.1199 577.91 48.8699 577.38 48.6499L577.39 48.6599Z" fill="#DAF521"/>
<path d="M561.27 105.84C562.33 105.51 563.14 105.21 563.78 104.98C564.55 104.69 565.1 104.48 565.52 104.33C566.68 103.88 567.01 103.72 567.29 103.58C567.57 103.44 567.8 103.31 568.72 102.96C568.95 102.87 569.22 102.77 569.55 102.65C569.7 102.63 569.54 102.55 569.49 102.5C569.42 102.44 569.34 102.37 569.27 102.3C569.12 102.16 568.95 102.02 568.77 101.86C568.06 101.23 567.15 100.42 565.97 99.37C565.62 99.08 565.63 99.11 565.62 99.12C565.62 99.14 565.66 99.17 565.71 99.22C565.79 99.3 565.91 99.4 566.04 99.53C566.59 100.03 567.52 100.86 568.45 101.7C568.68 101.91 568.91 102.11 569.14 102.31L569.31 102.46L569.39 102.53C569.39 102.53 569.45 102.58 569.39 102.59C569.25 102.64 569.11 102.69 568.97 102.74C568.43 102.93 567.96 103.09 567.61 103.21C566.91 103.45 566.7 103.5 567.41 103.21C565.82 103.82 564.41 104.36 563.25 104.8C562.34 105.14 561.61 105.41 561.11 105.6C560.12 105.98 560.05 106.07 561.27 105.83V105.84Z" fill="#DAF521"/>
<path d="M567.4 103.21C567.98 102.98 568.6 102.76 569.17 102.52C568.65 102.08 568.11 101.63 567.55 101.16C567.99 101.53 568.37 101.85 568.7 102.13C568.85 102.27 569.06 102.41 569.14 102.52C568.97 102.59 568.82 102.65 568.67 102.7C568.09 102.93 567.7 103.08 567.4 103.2V103.21Z" fill="#DAF521"/>
<path d="M458.76 129.13L461.59 129.43L464.43 129.66C463.21 129.52 461.99 129.41 460.78 129.24L458.76 129.13Z" fill="#DAF521"/>
<path d="M469.68 129.46L471.01 129.83L474.43 129.66C473.15 129.63 470.65 129.56 469.68 129.45V129.46Z" fill="#DAF521"/>
<path d="M239.23 21.4901L239.66 21.5601C238.86 21.1901 237.63 20.7101 235.13 19.8401C236.51 20.3501 237.86 20.9401 239.23 21.4801V21.4901Z" fill="#DAF521"/>
<path d="M165.12 3.52988L166.43 3.65988L164.01 3.12988L165.12 3.52988Z" fill="#DAF521"/>
<path d="M101.65 7.85006C104.18 7.22006 107.17 6.56006 109.74 6.06006C104.17 7.18006 100.89 7.68006 101.65 7.85006Z" fill="#DAF521"/>
</svg>
