<?xml version="1.0" encoding="UTF-8"?>
<svg id="Layer_1" data-name="Layer 1" xmlns="http://www.w3.org/2000/svg" viewBox="0 0 501.73 430.48">
  <defs>
    <style>
      .cls-1 {
        fill: #f3f3f3;
        stroke: #004cbc;
        stroke-miterlimit: 10;
      }

      .cls-2 {
        fill: #d5f300;
      }

      .cls-3 {
        fill: #fff;
      }
    </style>
  </defs>
  <path class="cls-3" d="M211.78,309.52c-10.52-6.91-21.99-16.62-29.34-26.83-8.54-11.86-13.09-25.45-15.42-39.89-3.42-21.24,7.95-42.23,22.23-58.32,17.87-20.14,41.28-35.79,67.42-42.24,26.15-6.44,55.01-3.17,77.87,11.06,22.87,14.22,38.9,39.77,39.49,66.69.64,29.13-16.56,56.85-40.44,73.54-13.82,9.65-29.65,15.16-45.78,19.54-13.48,3.66-6.01,19.69,13.75,34.07,2.86,2.08.68,6.61-2.71,5.59-30.04-9.03-53.21-24.54-57.25-26.75-15.12-8.28-20.4-10.28-29.83-16.47Z"/>
  <path class="cls-2" d="M335.32,150.8c18.01-23.88,24.07-57.92,10.2-84.41-15.09-28.8-48.67-42.43-80.44-49.34-56.18-12.22-115.34-10.45-170.69,5.1C57.32,32.57,17.7,54.1,9.44,91.7c-7.51,34.18,15.33,69.22,45.41,87.1,30.35,18.04,59.58,28.08,104.69,29.3,8.48.23,35.81,23.4,72.53,28.81,3.62.53,5.77-3.89,3.13-6.43-22.59-21.7-7.67-24.58,2.79-26.62,40.21-7.81,76.07-24.87,97.32-53.06Z"/>
  <g>
    <path class="cls-1" d="M425.88,308.79v-141.42c0-38.86-31.5-70.36-70.36-70.36h0c-38.86,0-70.36,31.5-70.36,70.36v2.32s-17.36,48.35-17.36,48.35c-2.09,5.82,2.23,11.96,8.41,11.96h0c4.94,0,8.94,4,8.94,8.94v22.81c0,14.92,12.09,27.01,27.01,27.01h2.37v20.03"/>
    <path class="cls-1" d="M310.88,239.79c-.88,8.53-13.64,13.33-25.72,10.39"/>
  </g>
  <g>
    <path class="cls-1" d="M494.41,412.91v-141.42c0-38.86-31.5-70.36-70.36-70.36h0c-38.86,0-70.36,31.5-70.36,70.36v2.32s-17.36,48.35-17.36,48.35c-2.09,5.82,2.23,11.96,8.41,11.96h0c4.94,0,8.94,4,8.94,8.94v22.81c0,14.92,12.09,27.01,27.01,27.01h2.37v20.03"/>
    <path class="cls-1" d="M379.41,342.86c-.88,8.53-13.64,13.33-25.72,10.39"/>
  </g>
</svg>