<?xml version="1.0" encoding="UTF-8"?>
<svg id="Layer_1" data-name="Layer 1" xmlns="http://www.w3.org/2000/svg" viewBox="0 0 775.6 215.24">
  <defs>
    <style>
      .cls-1 {
        fill: none;
      }

      .cls-2 {
        fill: #f3f3f3;
        stroke: #004cbc;
        stroke-miterlimit: 10;
      }

      .cls-3 {
        fill: #d5f300;
      }

      .cls-4 {
        fill: #daf521;
      }
    </style>
  </defs>
  <path class="cls-2" d="M600.05,48.11c1.25-.36,2.59-.36,3.84,0l48.94,13.98c3,.86,5.07,3.6,5.07,6.72v59.55c0,17.56-9.41,33.78-24.66,42.49l-27.8,15.89c-2.15,1.23-4.79,1.23-6.94,0l-27.8-15.89c-15.25-8.71-24.66-24.93-24.66-42.49v-59.55c0-3.12,2.07-5.86,5.07-6.72l48.94-13.98Z"/>
  <path class="cls-2" d="M628.6,162.73c12.3-7.03,19.94-20.2,19.94-34.37v-57.77s-46.57-13.31-46.57-13.31l-46.57,13.31v57.77c0,14.17,7.64,27.34,19.94,34.37l26.63,15.22,26.63-15.22Z"/>
  <g>
    <path class="cls-3" d="M499.45,166.79c-34.18-.85-68.3-8.58-98.66-22.34-18.55-8.41-35.54-19.96-51.98-31.12-16.74-11.38-34.05-23.14-52.61-31.21-53.04-23.06-95.18-33.24-132.61-32.06-36.54,1.15-64.68,13.36-89.65,26.38-13.73,7.16-30.54,19.85-36.54,33.99l-10.14-4.3c8.99-21.17,34.1-35.55,41.59-39.45,26.13-13.62,55.65-26.4,94.39-27.62,39.12-1.24,82.76,9.24,137.35,32.97,19.51,8.48,37.25,20.54,54.41,32.2,16.05,10.91,32.65,22.19,50.34,30.2,29.03,13.16,61.67,20.55,94.39,21.36,31.74.79,63.71-4.59,92.67-15.59-1.2-.96-2.36-1.97-3.45-3.01-14.29-13.6-25.21-34.29-15.42-47.6,4.43-6.03,10.95-8.98,17.87-8.07,5.71.75,11.04,4.01,14.38,8.57,4.87-3.45,10.91-5.14,16.4-4.4,5.54.74,9.99,3.8,12.51,8.6,4.79,9.09,4.79,23.89-5.99,36.45-3.47,4.03-7.56,7.32-11.9,10.07,11.48,3.87,25.37,5.41,40.18,4.24,31.07-2.46,59.66-16.15,74.61-35.73l8.75,6.69c-17.05,22.32-47.89,37.29-82.49,40.03-20.68,1.63-39.45-1.44-53.93-8.58-1.62.69-3.22,1.35-4.79,1.96-29.08,11.47-61.19,17.47-93.26,17.47-2.13,0-4.27-.03-6.4-.08ZM610.09,100.84c-1.71,1.83-4.21,2.65-6.68,2.18-2.51-.48-4.57-2.2-5.51-4.59-1.16-2.97-4.58-5.55-7.96-6-2.94-.39-5.49.85-7.56,3.67-5.32,7.24,3.01,22.51,14.14,33.1,2.29,2.18,4.91,4.15,7.82,5.92,5.96-2.93,11.71-6.61,15.97-11.57,5.17-6.02,8.81-16.14,4.6-24.14-.86-1.63-2.24-2.55-4.23-2.81-.37-.05-.76-.07-1.15-.07-3.24,0-6.98,1.68-9.45,4.33Z"/>
    <g>
      <path class="cls-1" d="M499.45,166.79c-34.18-.85-68.3-8.58-98.66-22.34-18.55-8.41-35.54-19.96-51.98-31.12-16.74-11.38-34.05-23.14-52.61-31.21-53.04-23.06-95.18-33.24-132.61-32.06-36.54,1.15-64.68,13.36-89.65,26.38-13.73,7.16-30.54,19.85-36.54,33.99l-10.14-4.3c8.99-21.17,34.1-35.55,41.59-39.45,26.13-13.62,55.65-26.4,94.39-27.62,39.12-1.24,82.76,9.24,137.35,32.97,19.51,8.48,37.25,20.54,54.41,32.2,16.05,10.91,32.65,22.19,50.34,30.2,29.03,13.16,61.67,20.55,94.39,21.36,31.74.79,63.71-4.59,92.67-15.59-1.2-.96-2.36-1.97-3.45-3.01-14.29-13.6-25.21-34.29-15.42-47.6,4.43-6.03,10.95-8.98,17.87-8.07,5.71.75,11.04,4.01,14.38,8.57,4.87-3.45,10.91-5.14,16.4-4.4,5.54.74,9.99,3.8,12.51,8.6,4.79,9.09,4.79,23.89-5.99,36.45-3.47,4.03-7.56,7.32-11.9,10.07,11.48,3.87,25.37,5.41,40.18,4.24,31.07-2.46,59.66-16.15,74.61-35.73l8.75,6.69c-17.05,22.32-47.89,37.29-82.49,40.03-20.68,1.63-39.45-1.44-53.93-8.58-1.62.69-3.22,1.35-4.79,1.96-29.08,11.47-61.19,17.47-93.26,17.47-2.13,0-4.27-.03-6.4-.08ZM610.09,100.84c-1.71,1.83-4.21,2.65-6.68,2.18-2.51-.48-4.57-2.2-5.51-4.59-1.16-2.97-4.58-5.55-7.96-6-2.94-.39-5.49.85-7.56,3.67-5.32,7.24,3.01,22.51,14.14,33.1,2.29,2.18,4.91,4.15,7.82,5.92,5.96-2.93,11.71-6.61,15.97-11.57,5.17-6.02,8.81-16.14,4.6-24.14-.86-1.63-2.24-2.55-4.23-2.81-.37-.05-.76-.07-1.15-.07-3.24,0-6.98,1.68-9.45,4.33Z"/>
      <g>
        <path class="cls-4" d="M611.09,101.57c-.15.13.05.22.06.27.19-.26-.1-.3-.06-.27Z"/>
        <polygon class="cls-4" points="613.35 99.15 613.35 99.26 613.66 98.82 613.35 99.15"/>
        <path class="cls-4" d="M616.19,97.84c-.4-.25-1.05.44-1.6.57l-.12-.03-.1.37c.57-.35,1.33-.85,1.82-.9Z"/>
        <path class="cls-4" d="M617.94,98.19c-.12-.12.31-.18-.36.03.04,0,.05.01.07.02.06-.01.15-.03.29-.05Z"/>
        <path class="cls-4" d="M617.65,98.24c-.3.07.22.07,0,0h0Z"/>
        <path class="cls-4" d="M619.02,97.96l-.38.16c.09.07.43.06.31.13.39-.09.31-.16.07-.29Z"/>
        <path class="cls-4" d="M619.39,97.69l-.21.06s.09.04.21-.06Z"/>
        <path class="cls-4" d="M618.75,97.89c.14-.05.29-.1.43-.14-.06-.06-.07-.17-.2.05.03-.11-.05,0-.23.09Z"/>
        <path class="cls-4" d="M618.49,97.86c-.23-.05-.54-.05-.15-.23-.78.17-.61.4.15.23Z"/>
        <path class="cls-4" d="M616.23,97.44h-.35s-.23.22-.23.22c.11-.11.64-.12.59-.22Z"/>
        <path class="cls-4" d="M621.31,98.37c.04-.07-.06-.22-.06-.33-.09,0-.19.01-.28.02.13.07.36.19.35.3Z"/>
        <path class="cls-4" d="M621.25,98.04c.14-.01.28,0,.43,0-.34-.13-.43-.08-.43,0Z"/>
        <path class="cls-4" d="M619.45,97.29c-.25.1-.5.19-.74.32.29-.13.59-.22.89-.32-.05,0-.1,0-.15,0Z"/>
        <path class="cls-4" d="M622.5,98.96l-.25.04c.14-.01.28-.02.43-.01l-.17-.03Z"/>
        <path class="cls-4" d="M623.13,99.55c-.2-.02-.08.31-.24.24.16.16.36.27.56.39-.16-.15-.24-.34-.32-.63Z"/>
        <path class="cls-4" d="M623.76,100.48c-.08-.1-.2-.19-.31-.29.09.11.18.21.31.29Z"/>
        <path class="cls-4" d="M622.27,98.34c0,.05,0,.19.14.33v-.26s-.09-.05-.14-.08Z"/>
        <path class="cls-4" d="M622.4,98.41h0c.14.1.23.17.26.2-.03-.03-.11-.09-.26-.2Z"/>
        <path class="cls-4" d="M622.24,98.32l.03.02s0-.04-.03-.02Z"/>
        <path class="cls-4" d="M620.63,97.56c.27-.09.86-.08.35-.38-.22.11.07.26-.35.38Z"/>
        <path class="cls-4" d="M622.18,97.99c-.12-.08-.26-.15-.4-.22-.01.06.04.16-.1.18.16,0,.33.02.49.04Z"/>
        <path class="cls-4" d="M622.41,98.03c-.07-.01-.15-.03-.22-.04.05.03.09.06.14.09l.09-.05Z"/>
        <path class="cls-4" d="M623.58,99.69c.18.1.28.27.4.52-.08-.29-.18-.52-.32-.72-.07,0-.23,0-.09.2Z"/>
        <path class="cls-4" d="M623.1,98.98l.04.02s-.01-.05-.04-.02Z"/>
        <polygon class="cls-4" points="624.95 102.64 624.97 102.59 624.93 102.59 624.95 102.64"/>
        <path class="cls-4" d="M623.68,99.43c-.07-.17-.18-.23-.3-.27.1.09.2.2.29.32.03,0,.05-.01.01-.06Z"/>
        <path class="cls-4" d="M624.15,101.08c0-.12-.02-.25-.05-.38-.02.13-.02.37.05.38Z"/>
        <path class="cls-4" d="M623.13,99.08h-.02c0,.06.02.04.02,0Z"/>
        <path class="cls-4" d="M623.13,99.08c.08.04.17.06.25.09-.08-.08-.17-.13-.25-.17,0,.03,0,.06,0,.08Z"/>
        <path class="cls-4" d="M626.47,103.1c-.21,0-.48-.54-.47-1.1-.31-.45-.81.09-1.03.59.07,0,.19-.04.41.42.1-.2-.09-1.15.22-.79.32.62.08.56.07.9.18-.34.54.77.87.56l-.26-.58c.05-.03.19.18.2,0Z"/>
        <path class="cls-4" d="M624.69,101.69l-.09-.18c.04.23.02.42-.03.75.2.28.29.33.36.33l-.29-.96.05.06Z"/>
        <path class="cls-4" d="M624.24,100.68c.26.05.56.47.64.1-.27-.56-.34-.32-.58-.61.45.86-.22-.2-.04.49-.11-.16-.19-.31-.27-.45.05.17.09.33.12.49v-.03s0,0,0,0h0s.02-.07.02-.02c0,0,0,.01.01.02.03,0,.06,0,.09,0,.08.27-.03.06-.09,0-.01,0-.02,0-.03,0h0c.16.28.36.54.49.84-.02-.21-.16-.43-.37-.83Z"/>
        <path class="cls-4" d="M621.61,96.85s.02.04.02.06c.07,0,.1-.02-.02-.06Z"/>
        <path class="cls-4" d="M621.97,97.1c-.08,0-.16.07-.38-.02-.18-.11.03-.1.04-.17-.16.02-.52.02-.12.24h.07c.37.16.7.61.63.61-.02-.22-.05-.39-.24-.66Z"/>
        <path class="cls-4" d="M623.61,98.62c.2.16.38.34.56.54-.02-.14-.05-.29-.09-.44l-.07.09c-.25-.38-.3-.2-.4-.18Z"/>
        <path class="cls-4" d="M624.87,102.76l-.25-.04c.16.11.29.23.43.36-.06-.11-.1-.22-.18-.32Z"/>
        <polygon class="cls-4" points="625.13 103.76 624.93 103.77 625.11 104.01 625.13 103.76"/>
        <path class="cls-4" d="M587.55,120.78l-.2-.18c.09.09.15.14.2.18Z"/>
        <path class="cls-4" d="M588.67,122.29l.1-.02c-.1-.04-.15-.04-.1.02Z"/>
        <path class="cls-4" d="M615.25,126.78c-.39.09-.89.11-.71.26l.22.1c.17-.19.34-.29.49-.36Z"/>
        <path class="cls-4" d="M600.14,132.33l.05.12c.12,0,.23-.01.33-.02-.11-.03-.24-.07-.37-.1Z"/>
        <path class="cls-4" d="M599.38,132.88l-.31-.42c.06.11.16.24.31.42Z"/>
        <path class="cls-4" d="M582.05,112.08l-.33-.19c.2.44.22.2.33.19Z"/>
        <path class="cls-4" d="M624.23,114.43c-.18.26-.28.48-.38.67.26-.29.52-.52.38-.67Z"/>
        <path class="cls-4" d="M589.83,120c-.13-.1-.2-.13-.23-.09.12.11.21.15.23.09Z"/>
        <path class="cls-4" d="M623.51,115.91s.07-.08.11-.13c.05-.22.11-.44.23-.68-.19.22-.36.48-.34.81Z"/>
        <path class="cls-4" d="M599.46,98.81s.01.05.01.07c.03,0,.01-.04-.01-.07Z"/>
        <path class="cls-4" d="M607.94,103.47c-.1.06-.29.13-.46.19.09-.02.23-.06.46-.19Z"/>
        <path class="cls-4" d="M625.37,107.94c0-.22-.02-.04,0,0h0Z"/>
        <path class="cls-4" d="M626.24,106.85s.06.09.11.09c-.05-.02-.09-.05-.11-.09Z"/>
        <path class="cls-4" d="M623.72,118.59v.02c.06-.04.05-.04,0-.02Z"/>
        <path class="cls-4" d="M625.48,107.61c-.03.08-.06.18-.08.28.02-.05.04-.13.08-.28Z"/>
        <path class="cls-4" d="M625.38,107.65c.01-.08.02-.14.03-.19-.03-.03-.06,0-.03.19Z"/>
        <path class="cls-4" d="M625.36,108.25c0-.13.02-.25.04-.36-.02.04-.03.06-.04.05,0,.07,0,.16,0,.31Z"/>
        <path class="cls-4" d="M582.38,95.05s.03-.02.05-.03c.1-.25.04-.16-.05.03Z"/>
        <polygon class="cls-4" points="611.58 132.24 611.59 132.21 611.56 132.22 611.58 132.24"/>
        <path class="cls-4" d="M610.92,132.83c.17-.43.37-.5.64-.61l-.58-.37-.06.98Z"/>
        <path class="cls-4" d="M584.98,117.09l.16.63c-.67-.46-.86-.98-.79-.34.61-.28,1.36,1.99,1.98,1.68l.11.41c-.06-.1-.1-.09-.16-.19.19.83.73.21,1.24,1.08.16.31.23.57.02.43l.6.53c.13.19,0,.22-.13.03l.77.92h-.02c.19.08.56.27.73.38.11.3-.15-.07-.17.04l.54.41c.03.32-.44,0-.71-.37-.14.9.46.33,1.02,1.61l-.47-.43c-.04.55.38.85.66,1.55-.02-.21-.46-1.48.14-1.04.09.19.24.41.6.61-.18.16.11.41.44.76l-.26.19c.41.32.51.18.82.31.36.44.26.7.2.94.59.7-.14-.73.65.02.43.64.9.94,1.67,1.44.3.46-.2.07-.13.27l.52.15c.08.08,0,.11-.04.13.35.21.25-.2.75.17.35-.14.57,1.27,1.43,1.48.08.2-.2.09-.24.22.98.5.82.46,1.72.74l.45.63c-.28-.53.44-.31,1.06-.14-.08-.21-.15-.39-.2-.49l.86.44c.06.11-.08.14-.29.16.07.02.13.03.19.04.2.3-.05.34-.35.34-.05-.12-.11-.24-.16-.37-.31.01-.61.05-.69.22.07,0,.19.06.31.13-.08,0-.14.02-.14.06,0,.05.13.05.31.08l-.04.42.13-.08.91.93c.97.23,1.89.22,3.21.86-.37.08-.16.4-.22.73-.2-.32-.5-.46-.91-.64-.32-.12-.68-.23-.97-.47.31.25.16.32.04.31l.64.24c.1.03.22.08.38.15l.43.18c-.12.22.29.42.73.78-.08-.18-.03-.2.08-.33.11-.12.28-.24.49-.36.39-.24.96-.52,1.12-.69.05.07.07.15,0,.26-.04.09-.28.24-.7.43.25-.02.46-.11.61-.23.11-.09.17-.21.24-.34.14-.24.27-.49.66-.52-.14.08-.23.1-.25.2.27-.3,1.13-.64,1.01-.41l-.14.08c.98-.44,2.84-1.61,2.75-2.06.04.04.15.51.14.62.3-.75.59-1.48.85-2.22.06.4,1.08.77.44,1.43.24-.1.54-.22.93-.62-.18.05-.66-.2-.48-.36.77-.02.49-.07,1.36-.24-.26.08-.34-.55,0-.77,0,.11.36.44.27.58l.51-1.06c-.15.23.25.41.53.4-.15-.02.72-.53.91-.75l-.43.16c.97-.66.42-1.32,1.3-2.04-.03.18.2.77.7.44.02-.4-.02-1.82.52-2.66h.25c.14-.24.28-.46.4-.68,0,.64-.35,2.23-.68,3.01.41-.2.22.06.7-.39.28-.05-.11.42-.25.55.41-.32.81-.65,1.2-.99-.28-.19.6-1.07.35-1.23-.29.49-.62.95-.94,1.43-.28-.21.04-1.34.81-2.08.29-.11.29.56.39.62.02-.18.54-.91.67-.93l-.17.47c.5-.38.33-1.02,1.03-1.39.17-.18.82-.32.69-.48-.57.09-1.54-.6-1.6-.97.09-.03,1.04-.79,1.36-.91.49-.16.23.91.64.77-.07-.07-.03-.32,0-.41.21-.17.18.26.46-.25-.23-.27.65-.97-.1-.39.21-.52.38-.46.71-1.03-.29.07-.36-.89-.19-1.4.06.07.22.02.29-.01.53-.98.95-1.45,1.35-2.43.11-.06.4-.49.46-.24,0-.17-.04-.33.05-.64.49-.5-.21.7.29.38-.17-.11.02-.9.06-1.38-.34.04-.39.99-.46,1.47-.38-.15-.53-1.06-.37-2.12.12-.84.36-.28.34-.44.51-1.53-.39-1.48.19-2.69.34-.47.53.06.74-.02-.02.71-.38,1.02-.46,1.49l.24-.54c.04.23.03.72-.12.94.18-.19.32-.86.49-1.63.11-.78.27-1.66.39-2.29-.08-.23-.15-.62-.27-.44l.02.4c-.23.35-.26-.75-.39-.26-.06-.26-.14-.54-.2-.84-.07-.3-.11-.62-.07-.98l.3-.15c-.09.02-.17.48-.07.69-.16-.29.4-1.15-.07-1.45-.05.18-.09.35-.16.52-.19-.51-.6-1.08-.59-1.71-.25.33.06.14-.24.63.39-.44.17,1.57.56.92-.39.48-.15.81-.48,1.4.1-.02.2-.21.14.31.03.02.06.08.08.12,0,.02,0,.02,0,.04v-.03s.03.03.02-.01c.05-.12.11-.22.17-.27.22.26.17,1.11.28,1.41-.06.31-.11-.14-.23.02.06.15.09.3.14.44-.23.02-.48.79-.51.04l-.09.65c-.16.37-.32.88-.29,1.22-.11.29.08.83-.03.52-.01.35-.08.7-.12,1.05h-.06c-.14.49-.21,1.03-.36,1.56-.13.54-.34,1.08-.76,1.55-.08.35-.15.71-.48,1.21l-.23.02c-.12.44-.78,1.1-.7,1.36-.67.17-1.19,1.8-1.74,2.38l.19.17c-.32.44-.57.89-.93,1.47l.2.11c-.22.58-1.1,1.06-1.73,1.73-.02-.11.16-.26.31-.35-1.11.46-1.41,1.93-2.42,2.34-.14.23-.3.32-.47.4.02-.02.03-.03.04-.05-.02.02-.05.04-.08.07-.11.04-.23.09-.34.14.12-.03.22-.06.3-.1-.15.13-.35.35-.54.57l-.25-.11s-.03.03-.05.05c-.28.11-.11.23.13.28-.09.12-.16.24-.21.36-.42-.16-.53.57-1.03.44-.03.29-1.09.99-.98,1.43-.04-.04-.13-.01,0-.1-.3.15-.6.29-.77.56l-.29-.18-.37.74c-.47.08-.68.09-.44-.34-.68.87-.64.56-1.21,1.34l-.07-.19c-.27.17-.57.66-.82.61-.4.02-1.17.45-2.07.92-.45.24-.94.48-1.42.71-.23.11-.32.13-.48.18-.07.02-.13.04-.2.05h-.09s-.05-.03-.07-.06c.05.38-.05.24-.16.07-.11-.16-.17-.32-.31-.14-.01-.17-.19-.37.13-.32-.85-.38-1.03-.94-1.77-.98,0-.17.28-.05.25-.17-.08-.02-.31-.07-.34-.19-.03-.12.18-.02.33.02-.78-.52-1.1-.24-1.39.05-.27-.44-.48-.56-.91-.56-.05-.21-.19-.48.3-.16-.26-.21-1.45-1.4-1.68-1.19-.03-.13-.34-.32-.43-.35-.55-.5-.58-.57-1.13-1.04l.11.18c-.47.09-.5-.35-.96-.73l.04-.02c-.78-1.14-.52-.32-1.23-1.49l-.12.22c-.46.27-.6-1.07-1.28-1.5l.09.3c-.42-.2-.28-1.35-.51-1.71-.03-.1.15.06.26.13-.5-1.03-.33.1-.93-.47.03-.23.45-.13.11-.57-.07-.29-1.46-.87-1.68-1.68,0,.21,0,.42-.31.18-.41-.43-.59-1.56-1.24-1.73-.02-.08,0-.13.02-.15-.35-.3-1.01-1.08-1.34-1.18.43-.8-1.91-2.11-1.25-2.52-.26-.38-.51-.76-.76-1.16h.09c-.41-.79-.71-.97-1.03-1.16-.05-.2.08-.11.12-.11-.48-1.21-.57-1.29-1.38-2.1l.17-.21c-.27-.2-.43-1.84-1.13-2.89.03,0,.08,0,.15.09-.8-1.24-.36-3.34-1.31-3.63-.15-.28-.27-.57-.39-.86.13,1.2-.42-.11-.48.41-.14-.47.08-1.27.21-.69l-.03.1c.48.14-.02-1.5.33-1.49-.08-1.15.05-2.28.38-3.3.33-1.03.83-1.89,1.46-2.68l-.44-.03c.16-.19.31-.4.48-.58.19-.09.38-.01.04.38.33-.08.44-.77.4-.84.81-.63.03.58.26.36l.27-.32-.1.04c.14-.33.04-.49.54-.87.35-.18.29.06.42-.02.01.02.06,0,.19-.12.25-.15.5-.29.76-.41l-.45-.09c.28-.32.77-.36.24-.48.4.09,1.17-.2,1.96-.3.79-.12,1.58-.08,1.76.02.58-.13,1.16-.02,1.82.24-.15-.1-.15-.47.43-.2-.45.52.95.71,1.12,1.4-.1-.25.27-.05.63.14.34.2.68.37.53-.01.38.35-.12.22.09.58,1.12.54,1.81,1.93,2.44,3.12.09-.01.11-.29.36-.06-.04.26-.05.64-.04.99.21.31.58.06.66.77.01-.12.04-.29.19-.11.75,1.59,2.31,2.77,4,3.32,1.7.58,3.5.65,5.38.48-.53-.03-.21-.12.14-.25-.24.04-.06-.21-.15-.3.5-.05.99-.16,1.49-.31.09-.39,1.33-.92,1.22-1.29-.1.12-.2.24-.32.34.12-.33-.18-.36-.52-.37-.34-.01-.72-.05-.82-.27-.13.34-.56.41-1,.44-.45.05-.88.08-1.28.47-.22-.05.14-.19,0-.27-.18.25-.47.35-1,.29l.06-.05c-.73.06-1.26-.05-1.78-.22-.52-.18-1.03-.43-1.69-.87v.26c-.3-.2-.33-.3-.43-.44-.54.1.83.52.32.68-.1-.32-.63-.63-1.08-1.04-.45-.4-.81-.87-.68-1.16-.31-.42-.14.3-.44-.15l.04-.2h-.23c-.16-.34-.07-.58.04-.65.02.08.13.19.19.26-.03-.23-.18-.49-.31-.73-.14-.25-.34-.6-.35-.69l.19.65c-.79-1.75-2.24-3.62-3.85-4.4l.04.17c-1.2-.57-.79-.73-2.14-1.3h.06c-.31-.03-.69-.12-1.05-.27.4,0-.58-.46-.07-.44-1.48-.19-.76-.06-1.77.18l-.19-.22c-.34.14-.37.2-1.09.23.6-.14-.47-.3.21-.49-.79-.22-1.41-.04-1.86.14-.46.18-.79.34-1.24.2-.25.37.1.31.46.21.37-.1.77-.22.58-.12.35.08-.46.51-.9.64-.42.18-1.06-.3-2.12.46.1-.07.09-.11.19-.18-.47.18-.64.69-1.19.93-.02.44-.53.52-.31.85.23-.29.47-.58.73-.85-.41.52-.47,1.23-1.26,1.88-.01-.11.08-.42.18-.61-.29.16-.3.5-.58.68-.27-.32.74-1.13,1.04-1.81-.37.12-.67,1.16-.77.62.04.37-.16.59-.4.84-.23.25-.51.59-.55,1.06l-.18-.17c-.03.14-.06.45-.18.67l-.06-.55c-.1.75-.81,1.18-.87,1.9.44-1.38.37-.22.73-.72-.17.85-.32,1.04-.59,1.27-.22.22-.53.49-.58,1.47-.02-.27.28-.96.32-.54-.1.35-.23.83-.38,1.05.01,1.28.25-.18.38.36-.29.42.09.62.21,1.14h-.24c-.07,1.43.52.34.45,1.59l-.39-.48c.05.21.1.43.16.64l-.29-.09c.32.67.28.9.37,1.59.13-.19.44,0,.59.58-.03.43-.28-.17-.03.65-.19-.15-.44-.31-.31-.72-.08-.02-.19-.15-.27-.17-.07.48.25,1.1.33,1.41-.02-.12-.05-.26-.04-.34.21.38.45.73.68,1.09-.03.21-.14.09-.26-.03.1.23.26.36.4.7-.21-.03-.41.07-.66-.41.19.36.4.7.6,1.05-.06.11,0,.65-.12.54.13.66.96,1.35,1.19,2.19.05.02.13.09.23.24.31.75.42,1.5,1.12,2.22l-.04.65c.43.62.03-.86.75.16.54.7-.09.43-.02.75.37.29,1.08.75,1.27,1.58-.2-.19-.27-.4-.42-.59ZM590.51,124.39c-.15-.1-.5-.28-.47-.47.34-.02.34.18.47.47ZM600.94,133.49c-.15-.01-.29-.16-.43-.37.15.08.29.2.43.37ZM625.32,110.41v.02c-.16.35-.1.22,0-.02ZM625.52,109.66c-.02-.08-.06-.08-.09-.05.05.06.04.23,0,.42.07-.04.13-.14.1-.37ZM585.3,94.51l-.15.03c.22-.24.18-.14.15-.03Z"/>
        <path class="cls-4" d="M599.47,132.82c-.02-.06,0-.11.02-.15-.08-.01-.11.03-.02.15Z"/>
        <path class="cls-4" d="M582.11,112.11v-.03s-.05,0-.06,0l.06.03Z"/>
        <path class="cls-4" d="M622.83,121.88c-.13.12-.22.17-.29.2.04.04.13,0,.29-.2Z"/>
        <path class="cls-4" d="M625.22,105.66c.05.15.07.31.09.47-.02-.23.04-.32.05-.44-.05.02-.12.11-.15-.03Z"/>
        <path class="cls-4" d="M625.72,101.16c-.05-.06-.05-.15-.11-.21l-.1.06c.11.3.26.48.2.15Z"/>
        <path class="cls-4" d="M625.96,105.13c.2-.06.09-.37,0-.71,0,.02,0,.04,0,.06-.29-.06-.16.29-.02.65Z"/>
        <path class="cls-4" d="M625.95,104.35l-.06-.32c-.12-.02.02.13.06.32Z"/>
        <path class="cls-4" d="M625.5,108.68c.06-.16-.25-.12-.17-.21-.23-.2.23,1.1.17.21Z"/>
        <polygon class="cls-4" points="626.59 104.77 626.36 104.93 626.58 105.1 626.59 104.77"/>
        <path class="cls-4" d="M626.56,107.61c.04-.19.06-.38.07-.57-.04,0-.07-.06-.09-.15.02.35-.05.74.02.73Z"/>
        <path class="cls-4" d="M626.55,106.89c0-.18-.01-.36-.06-.46,0,.1.02.31.06.46Z"/>
        <path class="cls-4" d="M626.76,105.54l-.03.17v.41c0-.19.04-.39.03-.58Z"/>
        <path class="cls-4" d="M625.5,113.66c-.04.21-.09.41-.13.62.06.09.17-.06.21-.29,0-.16.03-.39-.08-.33Z"/>
        <path class="cls-4" d="M626.65,111.99c-.09.16-.14.16-.24.23l.3.09-.06-.33Z"/>
        <path class="cls-4" d="M626.24,113.82c.08.09-.06.97.19.18-.06-.09.04-.73-.19-.18Z"/>
        <polygon class="cls-4" points="621.56 122.19 621.65 122.06 621.23 121.78 621.56 122.19"/>
        <path class="cls-4" d="M616.46,129.14c.68-.39-.06-.35.57-.69.06-.21-.51.27-.44.07-.28.39-.51.49-.14.61Z"/>
        <path class="cls-4" d="M616.59,128.53c.04-.06.09-.13.13-.21-.08.11-.11.17-.13.21Z"/>
        <path class="cls-4" d="M609.83,102.71c.17-.09.34-.17.51-.27-.13.04-.26.07-.39.1l-.12.17Z"/>
        <path class="cls-4" d="M610.39,101.74l.32.14.02-.44c-.07.1-.22.28-.34.3Z"/>
        <path class="cls-4" d="M590.9,125.85l.08-.02c.01-.11-.06-.2-.2-.39l.12.41Z"/>
        <polygon class="cls-4" points="586.93 120.47 586.99 120.56 587.11 120.22 586.93 120.47"/>
        <path class="cls-4" d="M583.55,115.94c.11.21.3.41.41.61-.3-.41-.13-.85-.41-.61Z"/>
      </g>
      <g>
        <path class="cls-4" d="M501.42,168.04c-2.54-.05-1.63.17-2.01.2,4.25,0,1.91-.26,2.01-.2Z"/>
        <path class="cls-4" d="M543.08,164.92l-.72.2c2.02-.38,4.04-.74,6.05-1.14-1.77.34-3.56.63-5.34.95Z"/>
        <path class="cls-4" d="M581.18,156.43c-3.61.8-13.59,3.96-20.45,5.25l-1.14.17-3.02.9c1.04-.22,2.11-.44,3.21-.67,1.09-.25,2.21-.52,3.34-.78,2.26-.5,4.53-1.12,6.73-1.68,4.4-1.16,8.46-2.36,11.32-3.18Z"/>
        <path class="cls-4" d="M601.11,150.22c-.62.18.41-.28.52-.32.1-.07-.7.37-5.08,2.05.45-.15.58-.19.84-.28.79-.31,1.89-.69,3.72-1.45Z"/>
        <path class="cls-4" d="M597.39,151.67c-3.86,1.48,2.57-.85,0,0h0Z"/>
        <path class="cls-4" d="M613.99,153.02c-1.76-.51-3.49-1.11-5.22-1.73.52.25,1.93.79,3,1.21,1.07.39,1.8.64.93.39,1.35.42,2.29.73,2.91.87.62.16.89.22.91.2.03-.05-1.02-.36-2.51-.94Z"/>
        <path class="cls-4" d="M619.05,154.23c-.93-.2-1.83-.47-2.75-.71.47.16,1.18.41,2.75.71Z"/>
        <path class="cls-4" d="M610.55,151.73c.95.34,1.9.66,2.86.95.96.3,1.92.6,2.89.84-.75-.28-.8-.39-2.65-.78.51.03-.68-.16-3.1-1.01Z"/>
        <path class="cls-4" d="M607.39,150.42c-.71-.31-1.46-.65-2.1-.98-.62-.31-1.3-.65-1.27-.65-.12-.07-.15-.11-.01-.07-.04-.04.82.33,2.05.87-.6-.27-1.15-.53-1.66-.76-.15-.07-.29-.13-.43-.19-.1-.09-.21,0-.3.04-.77.34-1.4.61-1.88.81-1.06.47-1.47.67-1.28.63s.98-.34,2.32-.87c.26-.11.56-.22.88-.35.15-.09.23-.01.47.09.93.43,1.99.95,3.21,1.43Z"/>
        <path class="cls-4" d="M582.97,155.5l-3.92,1.07c-1.11.37-2.22.76-3.34,1.09,1.68-.51,7.53-2.12,7.25-2.17Z"/>
        <path class="cls-4" d="M647.61,158.05c.34-.07-1.84-.19-2.24-.31-1.34,0-2.69.02-4.04-.03,2.07.17,6,.25,6.28.34Z"/>
        <path class="cls-4" d="M645.37,157.74c1.01.01,2.01-.03,3.02-.06,1-.03,2.01-.06,3.01-.13-5.38.12-6.37.09-6.03.19Z"/>
        <path class="cls-4" d="M620.09,154.08c-3.22-.69-6.42-1.57-9.55-2.65,3.73,1.29,7.55,2.31,11.4,3.1-.62-.14-1.23-.3-1.85-.45Z"/>
        <path class="cls-4" d="M670.58,156.07l-3.36.67c2-.38,4-.75,5.98-1.26-.87.19-1.74.41-2.61.58Z"/>
        <path class="cls-4" d="M685.49,152.66c-2.4.85,3.41-.74.86.1,1-.3,1.96-.6,2.89-.88.92-.31,1.79-.65,2.64-.96,1.69-.65,3.29-1.2,4.75-1.88-1.56.69-3.24,1.21-5.05,1.84-1.81.65-3.82,1.18-6.08,1.78Z"/>
        <path class="cls-4" d="M701.54,146.87c-1.53.73-3.17,1.39-4.92,2.17,1.66-.71,3.32-1.36,4.92-2.17Z"/>
        <path class="cls-4" d="M661.63,156.86c.23,0,.58,0,1.28-.02.71-.02,1.78-.09,3.45-.33-.79.04-1.58.11-2.37.11-.72.07-1.53.15-2.36.24Z"/>
        <path class="cls-4" d="M663.91,156.62h.08c2.55-.33,4.31-.62,5.07-.72-.65.08-2.2.34-5.15.72Z"/>
        <path class="cls-4" d="M661.03,156.92c.22-.02.38-.04.59-.06-.23,0-.37,0-.59.06Z"/>
        <path class="cls-4" d="M635.61,156.88c.88.04,2.01.1,3.08.15,1.08.04,2.11.05,2.8.05,1.39,0,1.45-.08-2.09-.34-2.54-.03,1.53.38-3.79.14Z"/>
        <path class="cls-4" d="M658.09,156.95c-2.12.13-4.25.27-6.38.31.13.05,1.28.09-.47.22,2.29-.11,4.57-.31,6.84-.52Z"/>
        <polygon class="cls-4" points="661.19 156.57 658.09 156.95 660.44 156.73 661.19 156.57"/>
        <path class="cls-4" d="M691.2,150.59c1.3-.48,2.66-.98,4.09-1.51,1.42-.57,2.91-1.18,4.5-1.82-1.71.65-3.44,1.35-5.18,1.98-1.75.6-3.5,1.19-5.2,1.77-.23.12-.72.3-.68.33.04.03.62-.1,2.47-.75Z"/>
        <path class="cls-4" d="M678.08,154.2c.18-.05.42-.11.59-.16-.37.07-.67.14-.59.16Z"/>
        <path class="cls-4" d="M728.54,129.96c-.15.11-.29.21-.44.32-.02.04-.04.06-.07.11l.51-.43Z"/>
        <path class="cls-4" d="M688.81,151.16c-2.65.73-4.21,1.24-5.7,1.74,1.97-.59,4.06-1.21,6.3-1.88.2-.11.25-.12-.6.14Z"/>
        <path class="cls-4" d="M709.97,142.7c-1.3.61-2.75,1.36-4.31,2.06,1.3-.53,3.88-1.79,4.31-2.06Z"/>
        <path class="cls-4" d="M679.59,153.88c-.13.04-.25.07-.4.11.89-.17.77-.16.4-.11Z"/>
        <path class="cls-4" d="M679.59,153.88c1.37-.36,2.44-.68,3.51-.98-1.62.42-3.12.81-4.43,1.14.33-.06.67-.12.92-.16Z"/>
        <path class="cls-4" d="M734.95,121.97c-.12.52-5.03,5.82-10.07,9.45-2.4,1.87-2.71,2.35-1.85,2,.43-.18,1.15-.56,2.06-1.09.91-.51,1.91-1.28,3.01-2.06.05-.09.06-.16.65-.71.3-.28.74-.68,1.4-1.28.64-.63,1.48-1.46,2.61-2.57-.42.37-1.28,1.14-2.28,2.02-.98.91-2.21,1.8-3.2,2.61-2,1.6-3.34,2.5-1.31.78,1.59-1.35,2.71-2.3,3.55-3,.81-.74,1.34-1.22,1.78-1.61.87-.79,1.42-1.13,2.88-2.55-1.27,1.17.49-.83,2.36-2.98.48-.53.92-1.1,1.32-1.65.4-.54.77-1.04,1.07-1.45.61-.85.85-1.27.48-.95l-2.23,2.82c-.77.94-1.61,1.81-2.42,2.72-.13.06,1.6-1.93.18-.49Z"/>
        <path class="cls-4" d="M718.38,137.43c-.73.48-1.44.98-2.17,1.44,1.26-.79,2.34-1.46,3.53-2.2.59-.37,1.23-.73,1.89-1.17.66-.45,1.38-.94,2.19-1.5.86-.67,1.54-1.21,2.1-1.64.52-.47.92-.82,1.22-1.09.6-.55.8-.77.9-.89-.83.68-1.64,1.39-2.49,2.04l-2.59,1.91c-1.69,1.32-3.52,2.43-5.31,3.62l.73-.52Z"/>
        <path class="cls-4" d="M705.95,144.49c1.73-1.11,7.21-4.07,3.71-2.51-1.68.89-2.82,1.49-3.64,1.92-.83.41-1.34.66-1.76.89-.84.44-1.33.74-3.39,1.72,11.18-5.14-3.17,1.58,4.98-2-2.2,1.02-4.15,1.99-6.06,2.77,2.07-.81,4.01-1.73,5.87-2.51-.1.04-.18.07-.26.11l-.05.02h0c-.5.19-.66.25-.11.01.04-.02.17-.08.23-.11.06-.06.26-.18.47-.3,3.2-1.6.54-.17-.47.3-.03.03-.12.08-.12.09.01,0,.03-.01.04-.02,1.86-.88,3.66-1.91,5.49-2.85,1.8-1,3.55-2.1,5.33-3.14-1.13.66-2.41,1.39-4.03,2.33-1.62.94-3.66,1.94-6.23,3.28Z"/>
        <path class="cls-4" d="M645.96,156.51c.38.03.36.04.39.06.79-.04,1.09-.04-.39-.06Z"/>
        <path class="cls-4" d="M651,156.58c-.89.08-1.63.15-4.53.16-2.51-.11.01-.1-.12-.17-1.74.02-6.12.03-.64.25l.87-.02c1.23.01,2.56.03,3.84.04,1.28,0,2.51-.01,3.56-.01,2.1-.06,3.48-.07,3.05-.03-1.46-.1-2.73-.13-6.02-.21Z"/>
        <path class="cls-4" d="M679.38,153.25c3.32-.78,6.58-1.8,9.84-2.8l-5.05,1.29.28.03c-1.39.42-2.38.63-3.07.81-.69.17-1.08.29-1.32.37-.48.16-.34.18-.68.31Z"/>
        <path class="cls-4" d="M729.52,129.28l-.9,1.05c1.49-1.32,2.85-2.79,4.22-4.24-1.11,1.06-2.15,2.19-3.32,3.18Z"/>
        <polygon class="cls-4" points="738.92 119.7 738.76 120.21 739.84 118.8 741.46 116.73 738.92 119.7"/>
        <path class="cls-4" d="M197.21,42.02l-2.96-.33c1.4.16,2.3.25,2.96.33Z"/>
        <path class="cls-4" d="M218.47,45.68l.54.02c-.99-.17-1.4-.22-.54-.02Z"/>
        <path class="cls-4" d="M589.91,139.77l-.62.15-.27.06-.12.02s-.02,0-.08.02l-.19.06c-1.01.31-1.95.63-2.77.86-1.62.48-2.65.8-2.36.83l1.33-.22c1.43-.49,2.69-.96,3.82-1.37.15-.05.29-.1.43-.15.09-.03.18-.06.27-.09.19-.06.38-.12.55-.17Z"/>
        <path class="cls-4" d="M378.16,119.59c.34.24.69.49,1.05.73.94.49,1.83.95,2.62,1.36-1.1-.63-2.35-1.35-3.67-2.1Z"/>
        <path class="cls-4" d="M375.07,118.71l-4.76-3.24c1.06.75,2.58,1.8,4.76,3.24Z"/>
        <path class="cls-4" d="M82.95,61.21l-3.04,1.7c4.9-2.35,2.7-1.42,3.04-1.7Z"/>
        <path class="cls-4" d="M621.7,141.04c-.26-.07-.3-.09-.42-.13l-.32-.11c-.2-.07-.39-.13-.58-.19-.23-.1-.55-.18-.65-.27.24-.15.47-.29.69-.43.1-.07.2-.13.29-.2.21-.15.41-.3.61-.44l-.51.35-.17.1c-.12.07-.25.14-.36.21-.27.15-.53.3-.78.43-.05.02-.03.03,0,.04l.07.03.14.06c.1.04.19.08.28.11.1.04.19.07.27.1.12.04.24.07.35.11.22.07.42.12.59.16.18.04.27.05.5.08Z"/>
        <path class="cls-4" d="M205.98,40.98c-1.82-.26-2.6-.34-2.56-.28,1.87.27,2.94.4,2.56.28Z"/>
        <path class="cls-4" d="M629.53,131.75c-.46.5-.92.99-1.41,1.48-1.92,2.07-4.03,4.01-6.79,6.05,2.81-1.96,5.84-4.55,8.21-7.53Z"/>
        <path class="cls-4" d="M350.36,112.89c.25.18.56.4.79.57.09.03-.26-.22-.79-.57Z"/>
        <path class="cls-4" d="M463.12,164.25c-1.22-.17-3.21-.53-5.08-.88.91.17,2.43.51,5.08.88Z"/>
        <path class="cls-4" d="M700.96,131.73c2.46-1.27.38-.22,0,0h0Z"/>
        <path class="cls-4" d="M713.09,125.7c-.48.34-.85.61-.88.69.16-.17.47-.41.88-.69Z"/>
        <path class="cls-4" d="M637.6,105.2c0-.08,0-.15-.02-.24.01.84.01.69.02.24Z"/>
        <path class="cls-4" d="M704.72,129.91c-.93.48-2.02.98-3.18,1.57.51-.25,1.5-.7,3.18-1.57Z"/>
        <path class="cls-4" d="M704.17,130.09c.84-.45,1.49-.83,2.12-1.18.28-.21.01-.06-2.12,1.18Z"/>
        <path class="cls-4" d="M697.47,133.39c.72-.32,1.42-.64,2.11-.94.67-.33,1.32-.65,1.96-.97-.49.23-.7.33-.57.25-.36.18-.8.41-1.36.69-.57.26-1.27.57-2.13.96Z"/>
        <path class="cls-4" d="M133.48,53.02c.18-.03.4-.07.6-.1,2.77-.66,1.55-.39-.6.1Z"/>
        <path class="cls-4" d="M521.01,156.39c.13-.01.2-.02.32-.03-.13,0-.3.01-.42.02h.1Z"/>
        <path class="cls-4" d="M510.9,156.97c4.31-.39,6.75-.44,10.02-.6l-3.37-.43c-2.21.34-4.42.71-6.65,1.02Z"/>
        <path class="cls-4" d="M145.76,41.72l3.5-.35,3.51-.21c-8.41,1.1-14.46,2.01-7.91,1.36.22-.2,2.02-.53,4.62-.89,1.3-.13,2.8-.28,4.4-.44.8-.07,1.62-.15,2.46-.22.84-.04,1.69-.09,2.54-.14,1.7-.08,3.41-.2,5.01-.25,1.61-.04,3.12-.07,4.43-.11,2.62-.12,4.45-.1,4.7-.28l4.64.26c-1.33-.02-1.54-.02-2.86-.04,2.26.11,3.8.19,5.03.25,1.23.05,2.15.03,3.16.02,2.01-.07,4.35-.02,10.14.59,4.02.56,6.82,1.03,4.06.75,1.5.17,3,.32,4.49.51l4.48.64c2.6.44,1.94.45-.64.02l3.41.54c1.13.19,2.26.42,3.39.64,2.26.45,4.53.81,6.77,1.34h-.1c1.94.34,6.35,1.1,8.48,1.6,3.38.96-1.73-.36-.87-.06l7.46,1.73c2.97.96-3.21-.47-8.33-1.79,6.74,2.46,6.25,1.21,20.92,6l-3.46-1.03-3.48-.94c1.09.41,2.25.8,3.5,1.21,1.24.43,2.56.87,3.99,1.33,1.43.46,2.97.96,4.63,1.5,1.64.59,3.42,1.23,5.34,1.92-.9-.34-4.71-1.86-7.35-2.8-2.63-.98-4.05-1.59-.05-.44,2.23.71,5.14,1.75,9.43,3.04-.02.13,1.02.5,2.69,1.11,1.68.6,4,1.43,6.58,2.35l-.46.17c5.59,1.93,5.19,1.68,8.5,2.77,3.08,1.18,4.91,1.98,6.13,2.59,1.23.6,1.86.98,2.54,1.36,9.78,4.01-6.62-3.11,5,1.53,8.04,3.59,13.84,5.66,23.2,10.41,5.36,3-1.03-.34.86.78,1.63.8,3.27,1.57,4.89,2.41,1.16.66.74.52.53.45,4.03,2.2.5-.12,6.76,3.49.92.35,4.04,2.38,7.83,4.96,3.8,2.57,8.28,5.68,12.11,8.01,1.78,1.31-.99-.43-.5.05,10.33,6.65,8.82,5.77,17.39,11.11l7.06,4.94c-5.15-3.69,1.72.58,7.85,4.13-1.83-1.29-3.4-2.4-4.45-3.14,3.19,1.99,6.41,3.93,9.66,5.83,1.15.74.1.27-1.54-.59.67.38,1.31.74,1.81,1,3.4,2.17,1.52,1.26-1.06-.07-1.14-.78-2.27-1.55-3.37-2.29-2.47-1.31-4.79-2.53-4.4-2.07.63.38,1.85,1.11,3.18,1.91-.65-.34-1.07-.55-.8-.34.31.23,1.34.81,2.96,1.7l2.01,1.65.61.2c4.19,2.61,8.45,5.12,12.8,7.47,4.78,2.31,9.39,4.2,14.72,6.27,5.36,2.02,11.47,4.25,19.46,6.77-4.05-1.02-.99.13-1.3.36-4.25-1.75-12.37-4.11-20.34-7.68,4.15,1.86,3.2,1.55,2.1,1.17,4.84,1.89,9.69,3.71,14.64,5.29-.42.13,3.05,1.29,6.9,2.59-1.39-.71,1.39.13,5.31,1.2,3.92,1.11,9,2.41,12.1,3.04.17.13-.12.15-1.39-.1-.64-.12-1.52-.31-2.71-.58-1.18-.31-2.67-.71-4.54-1.2,4.06,1.31,6.78,1.79,9.47,2.27,1.35.23,2.69.46,4.21.72,1.51.29,3.2.65,5.24,1.1-1.85-.34-2.84-.56-3.59-.64,2.17.39,5.89,1.06,8.77,1.58,2.88.5,4.9.89,3.64.76l-1.86-.3c6.17,1.05,15.63,2.21,23.81,2.64,8.18.47,15.04.32,15.97.12.13.07-1.64.51-2.4.58,7.45-.42,14.86-1.17,22.2-2.25-1.93.5,5.67.82-4.67,1.78,1.49-.05,3.16-.14,5.23-.32,2.08-.15,4.56-.42,7.67-.83-2.03.17-5.09.02-2.34-.31,3.81-.19,5.12-.33,6.66-.49.77-.08,1.59-.16,2.81-.29,1.21-.15,2.82-.34,5.15-.62-3.03.38.24-.65,4.96-1.52-.72.22.5.48-1.22.86l2.92-.67,2.91-.74c1.94-.48,3.87-1,5.79-1.55-2.89.77-.41.58,2.24.13-.62.1,1.9-.52,4.95-1.3,1.53-.37,3.17-.86,4.64-1.26,1.46-.41,2.74-.77,3.49-1.03-1.63.47-3.28.85-4.92,1.28,3.27-.88,5.67-1.66,7.65-2.36,1.99-.67,3.52-1.33,5.07-1.95,1.56-.65,3.12-1.29,5.07-2.09.52-.21,1.07-.43,1.65-.66.28-.11.58-.23.88-.34.02-.02.12-.02.07-.05l-.1-.08-.2-.17c-.13-.11-.27-.23-.4-.34-.53-.45-1.1-.94-1.7-1.45-.58-.51-1.17-.98-1.76-1.58.61.54,1.5,1.03,1.57.88.04-.08-.12-.33-.6-.84-.46-.54-1.23-1.34-2.38-2.56-1.17-1.01-3.78-3.26-6.78-6.69-2.98-3.42-6.36-8.06-8.68-13.63-.23-.74-.44-1.48-.63-2.22-1.02-2.89-1.75-5.92-1.94-9.03.15,1.45.53,3.53,1.24,5.86.71,2.34,1.8,4.93,3.14,7.47,2.66,5.11,6.42,9.94,9.25,13.14-1.5-1.99-1.65-2.31-2.02-2.85-.34-.56-.98-1.3-2.96-4.44-.61-1.16-.06-.31.85,1.01.89,1.34,2.21,3.12,2.87,3.99-3.41-4.62-6.35-9.63-8.23-14.98-.02.42-1.3-2.62-1.89-5.82-.7-3.2-.44-6.46-.61-6.15-.18,3.06.28,6.15,1.14,9.12.84,2.98,2.1,5.84,3.55,8.6.06.4-1.54-1.84-3.17-5.89-.8-2.02-1.56-4.52-1.92-7.31-.37-2.78-.28-5.88.63-8.82.23-.74.42-.94.44-.86.04.09-.04.46-.08.93-.15.92-.22,2.19-.15,2.08.03-.19.08-.51.15-.92.08-.41.22-.9.36-1.45.36-1.08.83-2.4,1.55-3.58,1.35-2.42,3.39-4.34,3.81-4.66-1.2,1.18-2.27,2.52-3.14,3.94,1.89-2.69,3.84-4.63,6.23-6.19,2.39-1.52,5.4-2.68,9.38-2.41,1.36.05,3.39.43,5.02,1.08,1.65.61,2.92,1.34,3.17,1.35-1.88-1.18-3.09-1.9-3.38-2.39-.31-.47.33-.73,1.9-.3.24.1,1.27.5,2.63,1.27,1.35.77,3.01,1.93,4.5,3.38.37.37.74.74,1.08,1.13.18.19.35.39.51.59l.4.5.36.51.09.13s.03.05.05.06l.06-.04.25-.16c.34-.22.65-.4,1.03-.61,1.59-.9,3-1.44,3.78-1.71,2.29-.68.63.05-.97.96-1.61.92-3.11,2.09-1.36,1.22.05-.09.62-.45,1.31-.83.7-.37,1.52-.75,2.02-.95,1.4-.45,1.14-.26,1.28-.25.15.06.65-.24,3.77-.74.25-.11,1.18-.27,2.29-.3,1.1-.05,2.37.07,3.28.23.91.15,1.47.32,1.22.24-.26-.05-1.32-.44-3.81-.61,1.56,0,2.75.2,3.75.43,1,.24,1.82.51,2.64.87.82.35,1.65.78,2.6,1.43.94.65,2.06,1.5,3.22,2.9-.33-.48-.2-.44.25-.03.46.41,1.2,1.24,1.94,2.41,1.54,2.33,2.86,6.1,3.29,9.31-.14-.37-.04,1.08-.08,1.79.38,6.59-1.06,11.63-3.06,16.1-2.12,4.44-4.88,8.5-9.31,12.71-.43.36-1.76,1.51-2.81,2.28-1.04.78-1.75,1.24-.81.41-.62.53-1.16.98-1.98,1.62-.94.72-2.09,1.53-3.66,2.55l-.03.05s.07.02.11.04c.08.03.17.05.26.08.18.06.38.12.58.18,2.01.73,2.41.86,1.92.75-.24-.05-.71-.19-1.32-.38-.3-.09-.63-.2-.98-.31-.17-.05-.35-.11-.53-.17l-.27-.09-.14-.04s0-.04,0-.06c1.23-.79,2.49-1.65,3.04-2.06.53-.42.48-.41-1.26.64-.07.11-.85.67-2,1.45-.04.06.15.09.28.13.13.04.27.08.42.12.28.08.57.17.88.26.6.17,1.27.39,1.89.56.63.17,1.3.36,1.98.55.65.17,1.18.29,1.79.44,2.38.55,4.89,1.04,6.88,1.31-.61-.22-2.53-.58-4.96-1.13-1.24-.27-2.5-.58-3.96-.96-.75-.21-1.5-.4-2.28-.64-.4-.12-.79-.24-1.18-.36l-.59-.18-.3-.09-.15-.04c-.07-.01,0-.04,0-.06.81-.54,1.62-1.09,2.38-1.62.76-.53,1.5-1.09,1.95-1.44.04.07-.17.35-.81.91-.62.55-1.5,1.26-2.56,2.02l-.06.04s.05.02.07.03l.18.05c.12.03.25.06.37.1.24.06.5.13.76.2.51.14,1.04.27,1.6.4.58.13,1.06.27,1.76.41.67.15,1.37.3,2.1.46,2.93.61,6.36,1.17,10.1,1.58,2.52.29,4.06.4,4.97.5.91.08,1.2.14,1.22.18.05.08-.95.09-.07.12,4.76.33,8.18.24,10.84.11,2.66-.15,4.59-.35,6.4-.59,1.81-.27,3.52-.49,5.76-.79,2.22-.38,4.99-.69,8.88-1.43,6.2-1.02.4.49,1.8.39-8.12,1.82-12.61,1.89-18.19,2.4,2.31-.1,4.6-.36,6.9-.53-1.31.18-3.34.43-5.42.66-2.09.18-4.23.29-5.74.3,1.32,0,4.01-.03,7.51-.39,1.75-.19,3.71-.31,5.79-.65,2.08-.3,4.31-.61,6.58-1.09,4.57-.81,9.35-2.12,13.86-3.44,4.47-1.45,8.68-2.97,12.08-4.45,1.18-.59,2.81-1.33,3.85-1.92,1.04-.59,1.55-.9.57-.46-1.37.75-2.81,1.35-4.22,2.01-2,.78-.03-.19,1.77-1.06.9-.42,1.73-.87,2.01-1.05.28-.18.02-.04-1.32.57,1.39-.71,2.79-1.5,4.27-2.29,1.47-.79,2.92-1.75,4.49-2.66,1.55-.94,3.09-2.04,4.76-3.1.81-.56,1.62-1.18,2.47-1.78.84-.62,1.73-1.2,2.57-1.91l1.47-.81c-.11.01-1.22.93-2.6,1.95-1.41.98-3.01,2.2-4.01,2.92.75-.53,1.8-1.29,3.02-2.16,1.25-.83,2.58-1.88,3.92-2.94,1.37-1.02,2.62-2.2,3.75-3.26,1.15-1.03,2.05-2.07,2.66-2.87-1.42,1.48-3.01,2.79-4.55,4.13,2.26-2.15,4.68-4.68,6.94-7.55.76-.96,1.53-1.92,2.31-2.9l.17-.22c.03-.06.07,0,.1.02l.11.08.44.33.89.66c.48.36.96.72,1.44,1.08,1.55,1.16,3.1,2.34,4.64,3.55-1.32-1.2-1.69-1.47-2.25-1.89-.28-.21-.61-.46-1.13-.89-.61-.51-1.45-1.21-2.71-2.26,1.6,1.36.64.7-1.32-.77l-.19-.14c-.06-.01-.11.11-.16.15-.11.13-.21.26-.33.4-.22.27-.46.56-.71.87-.39.48-.81.99-1.25,1.54-.67.83-1.4,1.73-2.21,2.54-.78.83-1.55,1.64-2.22,2.35-.71.67-1.31,1.25-1.73,1.64-.82.8-.86.91.62-.3-4.38,3.53-7.46,6.32-13.86,9.97.12-.02.69-.33.55-.21-.14.12-.97.73-3.81,2.3-.24.17-.82.55-1.19.79-.17.1-.23.13-.38.21.11-.06.2-.11.32-.17-.24.15-.26.17.12-.06,1.36-.73,2.48-1.31,2.95-1.52-.67.45-1.73,1.11-3,1.88-1.27.75-2.81,1.51-4.32,2.32-3.08,1.53-6.25,2.95-7.87,3.61-3.62,1.37,1.46-.7-.54-.03l-2.41,1.04-2.45.93c-.55.04-9.91,2.72-1.26-.1-1.28.46-2.59.84-3.91,1.21-1.31.36-2.61.8-3.94,1.1-4.69,1.13-11.22,2.24-15.25,2.86-1.92.22-4.34.49-5.86.71-1.53.18-2.16.23-.48.04-4.26.38-8.54.53-12.82.46l-.12-.06c-4.35-.14-8.79-.5-13.29-1.17-2.25-.34-4.5-.77-6.77-1.29-2.61-.65-3.71-.93-4.51-1.27.41-.25.81-.52,1.2-.79l.4-.28.68-.5,1.35-1.03c1.79-1.4,3.53-2.91,5.19-4.57.75-.82,1.49-1.65,2.19-2.59.36-.46.73-.93,1.11-1.42.37-.49.7-1.03,1.08-1.57.77-1.07,1.43-2.32,2.21-3.65.34-.7.69-1.42,1.06-2.18.36-.76.66-1.6,1.02-2.46.25-.42.44-.87.65-1.32.89-2.73,1.77-7,1.73-10.94.04-3.94-.82-7.43-1.31-8.57-.32-1.55-1.04-4-2.79-6.75-.88-1.36-2.07-2.7-3.52-3.88-1.44-1.18-3.17-2.15-5.02-2.83-3.72-1.36-7.87-1.45-11.44-.7-1.79.36-3.46.89-4.94,1.51-.74.31-1.44.64-2.09.97-.33.16-.63.34-.94.51-.15.08-.3.16-.44.25-.12.07-.23.14-.35.21.02.09.03.18.03.28-.11.06-.21.15-.31.2-.08-.1-.15-.2-.23-.3l-.24-.27c-.14-.17-.3-.33-.45-.49-.3-.32-.61-.64-.94-.94-1.29-1.22-2.74-2.3-4.34-3.21-3.19-1.8-7.06-3.07-11.5-2.89.18.07.37.13.54.21-1.88.04-4.04.37-6.26,1.14-2.21.78-4.5,2.03-6.52,3.8-2.04,1.75-3.86,3.94-5.21,6.54-.66,1.3-1.17,2.7-1.55,4.13-.34,1.44-.57,2.92-.62,4.41-.09-.81.25-3.85,1.02-5.87-1.23,3.38-1.47,7.16-.96,10.77.51,3.62,1.68,7.11,3.16,10.36,2.98,6.52,7.14,12.11,11.07,16.92,2.11,2.28,3.67,3.89,5.2,5.43-.21-.2-.4-.37-.56-.53.23.22.56.56.93.87l.38.35.19.18.08.08.29.29.27.27.13.13s.11.09,0,.1c.03,0,.08-.01.08-.03l-.05-.05-.1-.11-.22-.23c-.18-.18-.28-.29-.54-.53.21.18.44.38.69.59.12.1.24.21.37.31.02.03.09.06.07.08l-.11.04-.23.09c-1.12.43-2.35.9-3.56,1.36l-1.49.25c-.27.09-.48.17-.76.26-3.27,1.01-2.57.99-.78.58-1.65.61-3.17,1.14-4.35,1.56-2.76.48-8.75,2.76-12.56,3.25-1.11.41-5.37,1.48-9.6,2.44-4.22.98-8.42,1.77-9.3,2.16-.13-.03-1.15.12.71-.22-3.86.59-7.71,1.17-11.17,1.7l-1.68-.09c-2.81.43-5.61.92-8.43,1.26-2.59.13-4.42.19-4.96.13-.55-.06.2-.15,2.75-.48-3.08.33-5.26.47-6.94.62-1.69.09-2.89.16-4.03.22-2.28.12-4.33.19-9.61.37l.52-.19c-3.77,0-9.81.06-12.07-.25-4.2-.41-14.62-1.1-26.55-3.11-11.94-1.89-25.3-5.23-35.53-8.76,1.91.91-.47.11-3.43-.97-1.47-.56-3.09-1.17-4.4-1.63-1.3-.48-2.3-.83-2.54-.8-1.13-.57-3.92-1.71-.6-.59-5.19-1.87-8.98-3.57-12.36-5.09-3.37-1.55-6.34-2.92-9.81-4.52-1.06-.7,2.19.9,1.23.31-.8-.37-3.17-1.49-4.13-2.12-.94-.61,1.47.68,3.05,1.41-4.99-2.59-7.73-4.05-9.36-4.81-1.64-.76-2.16-.83-2.62-.87-4.82-3.09-7.25-4.59-10.88-6.6-1.61-1.19-4.33-3.1,1.6.65-1.67-1.06-6.71-4.38-11.35-7.51-4.64-3.12-8.92-6-9.18-5.98-.98-.76-4.56-3.13-5.45-3.68-7.36-4.98-7.98-5.46-15.34-10.16l2.01,1.35c-3.11-1.53-6.14-3.87-12.22-7.43l.19.07c-6.9-4.21-8.5-4.93-10.01-5.74-1.55-.75-2.99-1.63-10.14-5.18l.68.59c-.78-.09-3.95-1.64-8.05-3.48-2.05-.93-4.32-1.95-6.6-2.99-2.31-.98-4.64-1.94-6.8-2.76l3.04,1.38c-4.72-1.76-12.85-5.85-17.61-7.65-1.03-.41,1.68.5,3.13,1.04-12.39-4.82-1.72-.31-11.06-3.58-1.68-.74,2.37.34-3.94-1.81-.78-.3-2.32-.8-4.34-1.43-2.03-.58-4.53-1.3-7.2-2.07-5.36-1.48-11.4-3.14-15.8-4.35,1.91.62,3.81,1.24-.67.2-1.71-.43-3.71-.97-5.87-1.47-2.16-.51-4.44-1.12-6.73-1.62-2.29-.49-4.56-.96-6.66-1.36-2.1-.37-4.04-.62-5.62-.78-.88-.18-1.21-.27-1.24-.31-1.33-.21-3.09-.42-5.03-.64-1.94-.21-4.04-.52-6.09-.67-2.05-.16-4.03-.31-5.71-.44-1.67-.12-3.05-.11-3.86-.12-2.45-.59-10.86-.94-18.6-.58-7.75.32-14.8,1.22-14.78.81-2.75.35-5.5.66-8.24,1.1-2.73.47-5.47.87-8.18,1.47l.41-.16c-10.42,2.08-13.96,3.46-17.49,4.64-2.36.67-.67.08-.49-.02-7.45,2.16-11.43,3.71-15.12,5.11-1.84.72-3.57,1.49-5.61,2.36-2.01.92-4.32,1.96-7.23,3.39l-1.33.33c-1.58.78-6.69,3.06-13.02,6.17-1.58.79-3.23,1.63-4.94,2.48-1.71.88-3.43,1.84-5.15,2.85-3.43,2.01-6.8,4.26-9.86,6.55.11-.11.33-.34,1.3-1.07-6.93,5.05-14.96,11.61-20.54,18.72-.35.44-.71.87-1.05,1.3-.32.45-.64.9-.95,1.34-.61.89-1.25,1.72-1.79,2.59-1.02,1.77-2.08,3.36-2.74,4.96-.51,1.09-.99,2.13-1.44,3.1l-.18.4s0,.05.04.06l.1.04.2.08c.27.11.53.21.79.32.51.2,1,.4,1.47.58.19.07.38.14.56.21.14.05.28.1.42.15.28.09.54.18.78.27.5.16.94.3,1.32.4l5.67,2.29.44.18c.06,0,.17.11.2.04l.1-.22.4-.87.71-1.57c.36-.85.86-1.63,1.28-2.45-.44.78-.85,1.44-1.16,2.03-.33.69-.62,1.26-.85,1.74-.13.27-.25.51-.36.73-.05.11-.1.21-.15.3-.02.04-.04.1-.07.13l-.14-.06c-.35-.16-.6-.28-.77-.36-.67-.33-.02-.11.82.18.81-1.95,1.76-4.24.42-1.6.57-1.35,1.42-2.73,2.2-4.06.89-1.26,1.67-2.48,2.37-3.27,1.33-1.63,1.7-1.97-.38.83-.22.29-.43.59-.65.88-.51,1.2,1.92-2.57,5.17-6.04,3.2-3.51,7.03-6.8,7-6.54,5.38-4.63,11.22-8.67,17.32-12.1,3.05-1.71,6.2-3.28,9.33-4.84,3.13-1.56,6.27-3.06,9.42-4.51,12.58-5.81,25.43-10.49,38.38-13.63-1.02.13-2.06.22-3.07.39,1.5-.42,3.02-.73,4.52-1.11l2.27-.54,2.28-.46c2.42-.39,3.26-.4-3.23.97,1.72-.31,4.44-.86,6.75-1.43,2.32-.48,4.24-.9,4.32-.96,1.6-.26,2.74-.4,3.49-.46.75-.07,1.13-.1,1.23-.09.2.02-.7.19-1.88.38-2.36.42-5.81,1.11-3.85.78,1.77-.31,3.55-.62,5.34-.83l-1.21.11c2.16-.37,3.34-.57,4.96-.84,1.63-.21,3.71-.46,7.69-.75,5.05-.18,2.6.09,4.58,0,0,.01.16.01.62,0,.46-.03,1.23-.04,2.42-.07,1.95,0,3.91-.06,5.86-.04l5.86.16-4.68-.41c5.21-.09,11.03.51,5.63-.16.99.12,2.42.26,4.16.41.87.07,1.83.15,2.84.23,1.02.11,2.1.23,3.23.35,2.27.24,4.74.48,7.29.86,1.28.17,2.57.34,3.88.52,1.31.17,2.61.42,3.92.63,10.44,1.68,20.37,4.03,22.71,4.74,1.78.41,3.55.83,5.34,1.24,1.79.44,3.58.96,5.43,1.46,3.7.98,7.54,2.24,11.8,3.57-1.05-.36-1.87-.71-1.51-.69.36.03,1.92.4,5.56,1.67-1.44-.12,1.89,1.04,6.27,2.61,2.18.81,4.63,1.73,6.89,2.57,2.26.85,4.3,1.75,5.72,2.41-2.55-1.12,2.6.75,7.32,2.62,4.72,1.87,9.08,3.58,5.12,1.73,5.93,2.49.27.36,4.71,2.4,3.54,1.45,7.28,2.95,11.04,4.71,3.77,1.75,7.6,3.75,11.47,5.91,7.74,4.31,15.6,9.33,23.5,14.51.29.09-2.28-1.77,1.18.36l8.05,5.94c3.12,2.06,3.13,1.51,8.62,5.6-.76-.6-1.89-1.5.21-.12,15.22,10.57,31.24,21.01,48.74,28.75,17.46,7.73,35.82,13.5,54.31,17.51-4.99-1.2-1.65-.48,2.2.22-2.49-.51.1-.2-.37-.41,5.15,1.12,10.36,2,15.57,2.81.72.02,2.14.12,3.89.3,1.74.18,3.81.4,5.85.56,4.07.4,8,.57,8.83.48l-5-.26c3.34,0,1.02-.29-1.98-.79-1.5-.24-3.18-.5-4.41-.73-1.23-.25-2.03-.46-1.77-.55-7.45-.34-19.31-3.1-31.27-5.3-2.59-.72,2.26.38.89-.06-1.52-.26-3.19-.6-5.32-1.08-2.11-.54-4.69-1.19-7.99-2.19l.76.17c-9.32-2.65-15.86-4.97-22.57-7.63-3.34-1.36-6.75-2.78-10.51-4.51-3.77-1.7-7.9-3.73-12.68-6.31l1.31.96c-4.12-2.22-4.93-2.79-6.81-3.9-2.42-1.18.42.47,3.35,2.09,2.93,1.61,5.96,3.16,3.7,2.22-1.32-.82-3.8-2.21-6.79-3.93-2.99-1.73-6.49-3.79-9.89-5.9-6.81-4.22-13.25-8.55-14.84-9.95-5.99-4.02,1.6,1.41-4.38-2.62l-1.5-1.2-1.62-.86c-3.9-2.69-5.77-4.18-5.85-4.39.94.66,2.72,1.81,3.75,2.49-4.97-3.61-14.39-9.66-16.14-10.84l5.74,3.92c-8.24-5.43-17.44-11.43-26.99-16.71-4.77-2.64-9.63-5.1-14.46-7.24-2.41-1.09-4.8-2.04-7.13-3.02-2.33-.96-4.6-1.92-6.83-2.76l1.3.65c-6.79-2.64-9.48-3.77-12.36-4.89-1.44-.57-2.92-1.16-4.97-1.97-2.06-.79-4.72-1.73-8.48-3.07l.56.17c-3.04-1-7.13-2.26-11.27-3.66,3.9,1.09-7.18-2.51-2.08-1.06-7.57-2.28-9.49-2.68-10.74-2.98-.63-.14-1.09-.24-2.04-.44-.94-.22-2.37-.54-4.92-1.07l-2.29-.78c-3.48-.73-3.8-.7-11.6-2.4,3.21.63,1.98.29.85-.05-.56-.18-1.11-.31-1.06-.35.05-.04.7.04,2.5.4-2.03-.54-3.96-.91-5.76-1.29-1.81-.36-3.49-.74-5.1-.98-3.21-.49-6-.99-8.54-1.25-2.54-.28-4.78-.59-6.88-.81-2.1-.22-4.04-.47-5.94-.8-3.87-.01-.24.27,3.79.72,1.01.1,2.04.2,3,.3.95.12,1.81.23,2.49.32,1.34.18,1.92.26.85.15,1.78.32.19.21-2.49-.08-2.69-.23-6.48-.56-9.1-.79-1.34-.09-2.57-.2-3.88-.35-1.31-.15-2.7-.32-4.34-.42-1.65-.11-3.55-.27-5.88-.35-1.17,0-2.45-.01-3.85-.02-1.41,0-2.94,0-4.63.11,1.34-.05,1.43-.14,2.77-.14-2.53,0-5.01.21-7.62.37-1.31.13-2.65.25-4.05.39-1.4.12-2.87.22-4.41.39-1.71.39-3.71.6-5.39.88-1.68.29-3.05.53-3.51.81,4.06-.75,8.15-1.32,12.26-1.77-1.75.15-3.45.47-5.22.74-.88.14-1.78.28-2.7.43-.91.18-1.85.36-2.83.55-.97.18-1.98.37-3.04.57-1.05.22-2.14.45-3.29.7-1.15.25-2.36.47-3.63.76-1.27.29-2.6.59-4.01.91.86-.26,4.16-1.25,6.48-1.73-1.67.26-3.25.66-4.84,1.07-1.59.4-3.2.8-4.9,1.22.42-.35,4.07-1.31,8.54-2.32,4.48-.97,9.8-1.91,13.52-2.52-1.82.1-5.33.81-7.92,1.26-2.58.54-4.25.9-2.44.31-5.23,1.54-13.07,2.78-21.65,6.05l.5-.42c-1.36.5-4.18,1.55-6.67,2.47,1.46-.68,2.97-1.26,4.45-1.89-6.93,2.63-13.5,4.75-19.94,7.78,6.81-3.01,7.64-3.18,7.45-3.02-.19.18-1.36.78,1.59-.32-8.42,3.61-10.82,4.69-13.55,5.72-2.69,1.11-5.7,2.21-14.78,7.01,1.23-.67,3.56-1.82,5.11-2.56,1.56-.72,2.33-1.02.41,0-1.75.87-3.78,1.87-5.64,2.8-1.88.94-3.54,1.85-4.63,2.4-11.58,7.33,1.89-.95-2.97,2.28-4.06,2.29-5.56,3.79-10.19,7.57l-.19-.16c-3.03,2.46-4.64,3.99-5.58,4.94-.93.97-1.22,1.34-1.48,1.68-.26.33-.47.65-1.22,1.51-.75.86-2.08,2.24-4.26,5.02l.83-1.24.9-1.19c.6-.8,1.19-1.6,1.84-2.35-1.65,1.81-3.17,3.75-4.61,5.75l.7-1.38c-1.21,1.61-2.06,3.06-2.86,4.32-.36.66-.71,1.27-1.04,1.87-.16.3-.34.58-.47.89-.12.26-.25.52-.37.78l-.17.37c-.07.09-.08.33-.23.2-.34-.15-.68-.3-1.05-.46-1.32-.58-2.79-1.22-4.56-1.99.79.43.52.43-.74,0-.46-.17-1.1-.4-1.92-.69-.03-.02-.11-.02-.1-.06l.05-.12c.04-.08.07-.17.11-.26.08-.18.17-.37.25-.56.29-.62.61-1.3.96-2.03,1.21-1.96.95-1.36.96-1.33,0,.02.09-.1.47-.73.19-.32.45-.77.82-1.39.38-.62.93-1.37,1.6-2.35-.28.46-.56.94-.86,1.44-.15.25-.31.51-.48.78-.15.28-.31.57-.47.87-.64,1.21-1.57,2.55-2.5,4.39-.02.08-.11.33-.15.44-.02.09-.05.19-.08.29-.03.1-.05.18-.06.25-.02.07-.02.12.07.11-.07-.01,0-.07.02-.12l.08-.14c.05-.09.11-.19.16-.28.28-.57.58-1.16.87-1.76.69-1.26,1.48-2.52,2.2-3.78.82-1.2,1.61-2.36,2.31-3.39.75-1.01,1.46-1.87,1.99-2.54-.82,1.04-1.87,2.23-2.33,2.9,2.63-3.76,5.66-7.27,8.94-10.55,1.69-1.4.42-.21-.74,1.05,2.01-1.96,3.37-3.36,6.55-6.02-.35.42-.44.63-1,1.21-.56.58-1.6,1.51-3.71,3.53,3.16-3.06,6.56-5.86,10.1-8.5.73-.5,5.74-3.65,4.35-2.63,3.08-1.98,6.88-4.39,11.09-6.68,4.26-2.3,8.8-4.71,13.27-6.72.44-.26,1.35-.74,3.23-1.62,1.05-.47,2.09-.93,3.11-1.39,1.04-.44,2.07-.87,3.09-1.3,2.05-.88,4.12-1.68,6.24-2.51,2.1-.86,4.31-1.61,6.58-2.5,2.29-.82,4.69-1.7,7.26-2.59,2.01-.48,3.99-1.03,6.01-1.45,8.2-2.32-8.19,1.76,5.48-2.07,4.88-1.22,5.81-1.37,5.96-1.28.14.07-.51.34,1.23.04,4.83-1.26,13.38-3.08,22.62-3.54-1.52.17-2.88.29-4.21.41-1.33.13-2.63.31-4.05.5ZM249.57,53.87c-1.97-.55-5.9-1.63-7.3-2.17,2.32.38,3.99,1.07,7.3,2.17ZM391.35,127.93c-1.38-.67-3.42-1.87-5.67-3.29,1.68.95,3.57,2.06,5.67,3.29ZM672.26,141.67c-.08.02-.14.04-.21.05-4.47.77-2.88.5.21-.05ZM681.43,139.54c.9-.3.83-.31.43-.23-.61.24-2.64.87-4.99,1.38.66-.12,1.88-.28,4.56-1.15ZM163.39,51.04l-1.84.03c2.07-.16,2.82-.15,2.91-.14.09.02-.49.05-1.07.11Z"/>
        <path class="cls-4" d="M375.48,118.84c-.47-.35-.58-.47-.67-.58-.7-.4-.74-.37.67.58Z"/>
        <path class="cls-4" d="M83.51,60.9l-.29.14c-.15.09-.23.14-.27.18l.56-.31Z"/>
        <path class="cls-4" d="M611.98,87.9c-1.77.64-2.72,1.11-3.35,1.4-.05.13.67-.37,3.35-1.4Z"/>
        <path class="cls-4" d="M724.27,115.35l-2.17,2.06c-.72.69-1.44,1.38-2.22,2,1.14-.9,1.82-1.6,2.43-2.13.6-.53,1.07-.94,1.62-1.42-.14.05-1.03.77.34-.51Z"/>
        <path class="cls-4" d="M716.31,137.42c-.72.52-1.62.97-2.35,1.45l.27-.03c1.66-.93,2.97-1.87,3.49-2.24.52-.38.24-.23-1.41.82Z"/>
        <path class="cls-4" d="M728.63,111.83c.11-.06.35-.29.67-.65.16-.18.35-.4.56-.64.25-.31.54-.64.84-1.01.16-.19.32-.39.49-.59l.26-.31c.04-.1.1.03.15.05l.17.13c.45.34.92.7,1.41,1.07.79.59,1.63,1.22,2.5,1.87-.2-.16-.4-.3-.6-.46.59.27-.04-.27-1.27-1.21-.39-.3-.83-.63-1.3-.98-.5-.29-1.11-1.22-1.52-.23-.75.94-1.56,1.96-2.36,2.98Z"/>
        <path class="cls-4" d="M736.47,112.32c1.1.84,2.22,1.69,3.29,2.51.15.08.13.04-.04-.09-.16-.12-.44-.34-.81-.62-.61-.45-1.5-1.1-2.45-1.8Z"/>
        <path class="cls-4" d="M692.69,135.58c1.88-.68,1.07-.7,2.15-1.04.98-.54-2.08.77-4.13,1.67-1.02.47-1.82.76-1.7.76.06,0,.35-.09.94-.29.58-.23,1.47-.59,2.74-1.1Z"/>
        <path class="cls-4" d="M731.33,109.6c-.35.29-.74.64-1.17,1.02l-1.36,1.97,2.52-2.99Z"/>
        <path class="cls-4" d="M705.46,130.72c1.97-1.13,3.98-2.17,5.87-3.43-.11.02.6-.47,1.48-1.06-3.47,2.36-7.55,4.48-7.35,4.49Z"/>
        <path class="cls-4" d="M712.82,126.23c.93-.57,1.78-1.22,2.54-1.78.75-.57,1.41-1.06,1.89-1.43-.48.35-1.22.9-2.03,1.49-.8.6-1.66,1.24-2.4,1.71Z"/>
        <path class="cls-4" d="M725.19,116.6l-1.51,1.33-1.77,1.63c-.61.52-1.24,1.02-1.86,1.53,1.81-1.38,3.44-2.97,5.14-4.49Z"/>
        <path class="cls-4" d="M634.77,144.47c-2.46-.25-4.91-.62-7.34-1.06-.76-.06,1.21.41,3.96.79,1.77.22,4.51.48,3.39.27Z"/>
        <path class="cls-4" d="M657.23,145.47c-2.02.1-2.16.05-3.29.04l-.21.32c1.17-.1,2.34-.22,3.5-.36Z"/>
        <path class="cls-4" d="M635.49,145.32c-.75.07-10.79-1.25-1.39.06.76.06,8.23.63,1.39-.06Z"/>
        <path class="cls-4" d="M602.39,86.66c.48.4.93.84,1.37,1.28l.17-.56c-.52-.26-1.02-.51-1.55-.73Z"/>
        <path class="cls-4" d="M586.27,143.84c1.06-.33,1.87-.63,2.51-.86.77-.29,1.32-.5,1.74-.65,1.16-.45,1.49-.61,1.77-.75.28-.14.51-.27,1.43-.62.23-.09.5-.19.83-.31.15-.02-.01-.1-.06-.15-.07-.06-.15-.13-.22-.2-.15-.14-.32-.28-.5-.44-.71-.63-1.62-1.44-2.8-2.49-.35-.29-.34-.26-.35-.25,0,.02.04.05.09.1.08.08.2.18.33.31.55.5,1.48,1.33,2.41,2.17.23.21.46.41.69.61l.17.15.08.07s.06.05,0,.06c-.14.05-.28.1-.42.15-.54.19-1.01.35-1.36.47-.7.24-.91.29-.2,0-1.59.61-3,1.15-4.16,1.59-.91.34-1.64.61-2.14.8-.99.38-1.06.47.16.23Z"/>
        <path class="cls-4" d="M592.4,141.21c.58-.23,1.2-.45,1.77-.69-.52-.44-1.06-.89-1.62-1.36.44.37.82.69,1.15.97.15.14.36.28.44.39-.17.07-.32.13-.47.18-.58.23-.97.38-1.27.5Z"/>
        <path class="cls-4" d="M483.76,167.13l2.83.3,2.84.23c-1.22-.14-2.44-.25-3.65-.42l-2.02-.11Z"/>
        <path class="cls-4" d="M494.68,167.46l1.33.37,3.42-.17c-1.28-.03-3.78-.1-4.75-.21Z"/>
        <path class="cls-4" d="M264.23,59.49l.43.07c-.8-.37-2.03-.85-4.53-1.72,1.38.51,2.73,1.1,4.1,1.64Z"/>
        <polygon class="cls-4" points="190.12 41.53 191.43 41.66 189.01 41.13 190.12 41.53"/>
        <path class="cls-4" d="M126.65,45.85c2.53-.63,5.52-1.29,8.09-1.79-5.57,1.12-8.85,1.62-8.09,1.79Z"/>
      </g>
    </g>
  </g>
</svg>