<svg width="487" height="404" viewBox="0 0 487 404" fill="none" xmlns="http://www.w3.org/2000/svg">
<path d="M203.78 300.52C193.26 293.61 181.79 283.9 174.44 273.69C165.9 261.83 161.35 248.24 159.02 233.8C155.6 212.56 166.97 191.57 181.25 175.48C199.12 155.34 222.53 139.69 248.67 133.24C274.82 126.8 303.68 130.07 326.54 144.3C349.41 158.52 365.44 184.07 366.03 210.99C366.67 240.12 349.47 267.84 325.59 284.53C311.77 294.18 295.94 299.69 279.81 304.07C266.33 307.73 273.8 323.76 293.56 338.14C296.42 340.22 294.24 344.75 290.85 343.73C260.81 334.7 237.64 319.19 233.6 316.98C218.48 308.7 213.2 306.7 203.77 300.51L203.78 300.52Z" fill="white"/>
<path d="M327.32 141.8C345.33 117.92 351.39 83.8799 337.52 57.3899C322.43 28.5899 288.85 14.9599 257.08 8.04989C200.9 -4.17011 141.74 -2.40011 86.39 13.1499C49.32 23.5699 9.69995 45.0999 1.43995 82.6999C-6.07005 116.88 16.77 151.92 46.85 169.8C77.2 187.84 106.43 197.88 151.54 199.1C160.02 199.33 187.35 222.5 224.07 227.91C227.69 228.44 229.84 224.02 227.2 221.48C204.61 199.78 219.53 196.9 229.99 194.86C270.2 187.05 306.06 169.99 327.31 141.8H327.32Z" fill="#D5F300"/>
<path d="M417.88 299.79V158.37C417.88 119.51 386.38 88.01 347.52 88.01C308.66 88.01 277.16 119.51 277.16 158.37V160.69L259.8 209.04C257.71 214.86 262.03 221 268.21 221C273.15 221 277.15 225 277.15 229.94V252.75C277.15 267.67 289.24 279.76 304.16 279.76H306.53V299.79" fill="#F3F3F3"/>
<path d="M417.88 299.79V158.37C417.88 119.51 386.38 88.01 347.52 88.01C308.66 88.01 277.16 119.51 277.16 158.37V160.69L259.8 209.04C257.71 214.86 262.03 221 268.21 221C273.15 221 277.15 225 277.15 229.94V252.75C277.15 267.67 289.24 279.76 304.16 279.76H306.53V299.79" stroke="#004CBC" stroke-miterlimit="10"/>
<path d="M302.88 230.79C302 239.32 289.24 244.12 277.16 241.18Z" fill="#F3F3F3"/>
<path d="M302.88 230.79C302 239.32 289.24 244.12 277.16 241.18" stroke="#004CBC" stroke-miterlimit="10"/>
<path d="M486.41 403.91V262.49C486.41 223.63 454.91 192.13 416.05 192.13C377.19 192.13 345.69 223.63 345.69 262.49V264.81L328.33 313.16C326.24 318.98 330.56 325.12 336.74 325.12C341.68 325.12 345.68 329.12 345.68 334.06V356.87C345.68 371.79 357.77 383.88 372.69 383.88H375.06V403.91" fill="#F3F3F3"/>
<path d="M486.41 403.91V262.49C486.41 223.63 454.91 192.13 416.05 192.13C377.19 192.13 345.69 223.63 345.69 262.49V264.81L328.33 313.16C326.24 318.98 330.56 325.12 336.74 325.12C341.68 325.12 345.68 329.12 345.68 334.06V356.87C345.68 371.79 357.77 383.88 372.69 383.88H375.06V403.91" stroke="#004CBC" stroke-miterlimit="10"/>
<path d="M371.41 333.86C370.53 342.39 357.77 347.19 345.69 344.25Z" fill="#F3F3F3"/>
<path d="M371.41 333.86C370.53 342.39 357.77 347.19 345.69 344.25" stroke="#004CBC" stroke-miterlimit="10"/>
</svg>
