<svg width="150" height="150" viewBox="0 0 150 150" fill="none" xmlns="http://www.w3.org/2000/svg">
<path d="M95.9598 76.8502C92.8398 73.0802 89.7198 69.3202 86.5898 65.5502C81.7698 59.7302 76.6998 53.7202 69.8198 50.6102C65.1398 48.4902 59.6798 47.8802 54.7998 49.5002C49.9198 51.1202 45.7598 55.1202 44.5098 60.1002C43.2498 65.0802 45.2398 70.8702 49.5998 73.5802C52.1298 75.1602 55.2098 75.6702 57.7798 77.1902C62.8398 80.1902 64.8998 86.3502 68.4798 91.0102C73.2798 97.2702 81.3298 100.88 89.1998 100.32C92.2198 100.1 95.2898 99.2602 97.5798 97.2802C103.88 91.8402 100.33 82.1302 95.9598 76.8502Z" fill="#D5F300"/>
<path d="M91.2398 65.5499C87.4898 65.5499 84.4498 62.5099 84.4498 58.7599C84.4498 55.0099 87.4898 51.9699 91.2398 51.9699C94.9898 51.9699 98.0298 55.0099 98.0298 58.7599C98.0298 62.5099 94.9898 65.5499 91.2398 65.5499ZM110.47 63.8599L106.52 61.5799C106.12 61.3499 105.88 60.8999 105.94 60.4299C106.02 59.8099 106.06 59.1799 106.06 58.5399C106.06 58.0399 106.03 57.5399 105.99 57.0499C105.94 56.5899 106.17 56.1499 106.57 55.9299L110.47 53.6799C111.03 53.3599 111.22 52.6399 110.9 52.0799L106.87 45.0899C106.55 44.5299 105.83 44.3399 105.27 44.6599L101.51 46.8299C101.11 47.0599 100.6 47.0399 100.23 46.7499C99.2798 46.0299 98.2498 45.4199 97.1398 44.9399C96.7198 44.7599 96.4498 44.3299 96.4498 43.8699V39.5699C96.4498 38.9199 95.9198 38.3999 95.2798 38.3999H87.2098C86.5598 38.3999 86.0398 38.9299 86.0398 39.5699V43.8699C86.0398 44.3299 85.7698 44.7499 85.3498 44.9399C84.2398 45.4199 83.2098 46.0299 82.2598 46.7499C81.8898 47.0299 81.3798 47.0599 80.9798 46.8299L77.2198 44.6599C76.6598 44.3399 75.9398 44.5299 75.6198 45.0899L71.5898 52.0799C71.2698 52.6399 71.4598 53.3599 72.0198 53.6799L75.9198 55.9299C76.3198 56.1599 76.5398 56.5999 76.4998 57.0499C76.4498 57.5399 76.4298 58.0399 76.4298 58.5399C76.4298 59.1799 76.4698 59.8099 76.5498 60.4299C76.6098 60.8899 76.3798 61.3399 75.9698 61.5799L72.0198 63.8599C71.4598 64.1799 71.2698 64.8999 71.5898 65.4599L75.6198 72.4499C75.9398 73.0099 76.6598 73.1999 77.2198 72.8799L81.3198 70.5099C81.7098 70.2799 82.2098 70.2999 82.5798 70.5599C83.4398 71.1799 84.3698 71.7099 85.3598 72.1399C85.7798 72.3199 86.0498 72.7499 86.0498 73.2099V77.9599C86.0498 78.6099 86.5698 79.1299 87.2198 79.1299H95.2898C95.9398 79.1299 96.4598 78.6099 96.4598 77.9599V73.2099C96.4598 72.7499 96.7198 72.3299 97.1498 72.1399C98.1398 71.7099 99.0698 71.1799 99.9298 70.5599C100.3 70.2899 100.79 70.2799 101.19 70.5099L105.29 72.8799C105.85 73.1999 106.57 73.0099 106.89 72.4499L110.92 65.4599C111.24 64.8999 111.05 64.1799 110.49 63.8599" fill="white"/>
<path d="M110.47 63.8599L106.52 61.5799C106.12 61.3499 105.88 60.8999 105.94 60.4299C106.02 59.8099 106.06 59.1799 106.06 58.5399C106.06 58.0399 106.03 57.5399 105.99 57.0499C105.94 56.5899 106.17 56.1499 106.57 55.9299L110.47 53.6799C111.03 53.3599 111.22 52.6399 110.9 52.0799L106.87 45.0899C106.55 44.5299 105.83 44.3399 105.27 44.6599L101.51 46.8299C101.11 47.0599 100.6 47.0399 100.23 46.7499C99.2798 46.0299 98.2498 45.4199 97.1398 44.9399C96.7198 44.7599 96.4498 44.3299 96.4498 43.8699V39.5699C96.4498 38.9199 95.9198 38.3999 95.2798 38.3999H87.2098C86.5598 38.3999 86.0398 38.9299 86.0398 39.5699V43.8699C86.0398 44.3299 85.7698 44.7499 85.3498 44.9399C84.2398 45.4199 83.2098 46.0299 82.2598 46.7499C81.8898 47.0299 81.3798 47.0599 80.9798 46.8299L77.2198 44.6599C76.6598 44.3399 75.9398 44.5299 75.6198 45.0899L71.5898 52.0799C71.2698 52.6399 71.4598 53.3599 72.0198 53.6799L75.9198 55.9299C76.3198 56.1599 76.5398 56.5999 76.4998 57.0499C76.4498 57.5399 76.4298 58.0399 76.4298 58.5399C76.4298 59.1799 76.4698 59.8099 76.5498 60.4299C76.6098 60.8899 76.3798 61.3399 75.9698 61.5799L72.0198 63.8599C71.4598 64.1799 71.2698 64.8999 71.5898 65.4599L75.6198 72.4499C75.9398 73.0099 76.6598 73.1999 77.2198 72.8799L81.3198 70.5099C81.7098 70.2799 82.2098 70.2999 82.5798 70.5599C83.4398 71.1799 84.3698 71.7099 85.3598 72.1399C85.7798 72.3199 86.0498 72.7499 86.0498 73.2099V77.9599C86.0498 78.6099 86.5698 79.1299 87.2198 79.1299H95.2898C95.9398 79.1299 96.4598 78.6099 96.4598 77.9599V73.2099C96.4598 72.7499 96.7198 72.3299 97.1498 72.1399C98.1398 71.7099 99.0698 71.1799 99.9298 70.5599C100.3 70.2899 100.79 70.2799 101.19 70.5099L105.29 72.8799C105.85 73.1999 106.57 73.0099 106.89 72.4499L110.92 65.4599C111.24 64.8999 111.05 64.1799 110.49 63.8599M91.2398 65.5499C87.4898 65.5499 84.4498 62.5099 84.4498 58.7599C84.4498 55.0099 87.4898 51.9699 91.2398 51.9699C94.9898 51.9699 98.0298 55.0099 98.0298 58.7599C98.0298 62.5099 94.9898 65.5499 91.2398 65.5499Z" stroke="#004CBC" stroke-width="2" stroke-miterlimit="10"/>
<path d="M58.76 98.7702C54.66 98.7702 51.23 95.3302 51.22 91.2302C51.22 87.1302 54.66 83.7002 58.76 83.6902C62.87 83.6902 66.29 87.1302 66.3 91.2302C66.3 95.3302 62.87 98.7602 58.76 98.7702ZM79.99 96.4102C78.57 95.7002 77.14 94.9602 75.7 94.1902C75.26 93.9502 75.01 93.4802 75.08 92.9902C75.18 92.3402 75.23 91.6702 75.23 91.0002C75.23 90.4702 75.2 89.9502 75.14 89.4302C75.08 88.9502 75.33 88.4902 75.76 88.2602C77.18 87.5002 78.6 86.7702 80 86.0702C80.6 85.7702 80.78 85.0602 80.38 84.4702C78.75 82.0202 77.08 79.4902 75.41 76.9002C75.01 76.2802 74.23 75.9902 73.66 76.2802C72.4 76.9202 71.12 77.6002 69.81 78.3002C69.39 78.5302 68.84 78.4702 68.42 78.1402C67.37 77.3002 66.23 76.5802 65.03 76.0002C64.57 75.7802 64.28 75.3002 64.26 74.8002C64.21 73.2202 64.15 71.6402 64.08 70.0502C64.04 69.3302 63.49 68.7302 62.84 68.7002C60.12 68.5902 57.41 68.5902 54.69 68.7002C54.04 68.7302 53.48 69.3402 53.45 70.0502C53.38 71.6302 53.32 73.2102 53.27 74.8002C53.26 75.3102 52.96 75.7802 52.5 76.0002C51.31 76.5802 50.17 77.3002 49.11 78.1402C48.69 78.4702 48.15 78.5302 47.72 78.3002C46.42 77.6002 45.13 76.9202 43.87 76.2802C43.31 75.9902 42.53 76.2802 42.12 76.9002C40.45 79.4902 38.78 82.0202 37.15 84.4702C36.76 85.0602 36.93 85.7602 37.53 86.0702C38.93 86.7702 40.34 87.5002 41.77 88.2602C42.2 88.4902 42.45 88.9502 42.39 89.4302C42.33 89.9502 42.29 90.4702 42.3 91.0002C42.3 91.6802 42.35 92.3402 42.45 92.9902C42.52 93.4802 42.27 93.9502 41.83 94.1902C40.39 94.9602 38.95 95.7002 37.54 96.4102C36.94 96.7102 36.76 97.4202 37.16 98.0102C38.79 100.46 40.46 102.99 42.13 105.58C42.53 106.2 43.32 106.49 43.88 106.2C45.26 105.5 46.66 104.76 48.09 103.98C48.5 103.76 49.04 103.8 49.44 104.11C50.4 104.83 51.42 105.46 52.49 105.97C52.95 106.19 53.24 106.66 53.26 107.17C53.32 108.92 53.38 110.67 53.46 112.42C53.49 113.13 54.05 113.74 54.7 113.77C57.42 113.88 60.13 113.88 62.85 113.77C63.5 113.74 64.06 113.13 64.09 112.42C64.17 110.67 64.23 108.92 64.29 107.17C64.31 106.66 64.6 106.19 65.06 105.97C66.13 105.46 67.15 104.83 68.11 104.11C68.52 103.8 69.05 103.76 69.46 103.98C70.89 104.75 72.29 105.5 73.67 106.2C74.23 106.49 75.01 106.2 75.42 105.58C77.09 102.99 78.76 100.46 80.39 98.0102C80.79 97.4202 80.61 96.7102 80.01 96.4102" fill="white"/>
<path d="M79.99 96.4102C78.57 95.7002 77.14 94.9602 75.7 94.1902C75.26 93.9502 75.01 93.4802 75.08 92.9902C75.18 92.3402 75.23 91.6702 75.23 91.0002C75.23 90.4702 75.2 89.9502 75.14 89.4302C75.08 88.9502 75.33 88.4902 75.76 88.2602C77.18 87.5002 78.6 86.7702 80 86.0702C80.6 85.7702 80.78 85.0602 80.38 84.4702C78.75 82.0202 77.08 79.4902 75.41 76.9002C75.01 76.2802 74.23 75.9902 73.66 76.2802C72.4 76.9202 71.12 77.6002 69.81 78.3002C69.39 78.5302 68.84 78.4702 68.42 78.1402C67.37 77.3002 66.23 76.5802 65.03 76.0002C64.57 75.7802 64.28 75.3002 64.26 74.8002C64.21 73.2202 64.15 71.6402 64.08 70.0502C64.04 69.3302 63.49 68.7302 62.84 68.7002C60.12 68.5902 57.41 68.5902 54.69 68.7002C54.04 68.7302 53.48 69.3402 53.45 70.0502C53.38 71.6302 53.32 73.2102 53.27 74.8002C53.26 75.3102 52.96 75.7802 52.5 76.0002C51.31 76.5802 50.17 77.3002 49.11 78.1402C48.69 78.4702 48.15 78.5302 47.72 78.3002C46.42 77.6002 45.13 76.9202 43.87 76.2802C43.31 75.9902 42.53 76.2802 42.12 76.9002C40.45 79.4902 38.78 82.0202 37.15 84.4702C36.76 85.0602 36.93 85.7602 37.53 86.0702C38.93 86.7702 40.34 87.5002 41.77 88.2602C42.2 88.4902 42.45 88.9502 42.39 89.4302C42.33 89.9502 42.29 90.4702 42.3 91.0002C42.3 91.6802 42.35 92.3402 42.45 92.9902C42.52 93.4802 42.27 93.9502 41.83 94.1902C40.39 94.9602 38.95 95.7002 37.54 96.4102C36.94 96.7102 36.76 97.4202 37.16 98.0102C38.79 100.46 40.46 102.99 42.13 105.58C42.53 106.2 43.32 106.49 43.88 106.2C45.26 105.5 46.66 104.76 48.09 103.98C48.5 103.76 49.04 103.8 49.44 104.11C50.4 104.83 51.42 105.46 52.49 105.97C52.95 106.19 53.24 106.66 53.26 107.17C53.32 108.92 53.38 110.67 53.46 112.42C53.49 113.13 54.05 113.74 54.7 113.77C57.42 113.88 60.13 113.88 62.85 113.77C63.5 113.74 64.06 113.13 64.09 112.42C64.17 110.67 64.23 108.92 64.29 107.17C64.31 106.66 64.6 106.19 65.06 105.97C66.13 105.46 67.15 104.83 68.11 104.11C68.52 103.8 69.05 103.76 69.46 103.98C70.89 104.75 72.29 105.5 73.67 106.2C74.23 106.49 75.01 106.2 75.42 105.58C77.09 102.99 78.76 100.46 80.39 98.0102C80.79 97.4202 80.61 96.7102 80.01 96.4102M58.76 98.7702C54.66 98.7702 51.23 95.3302 51.22 91.2302C51.22 87.1302 54.66 83.7002 58.76 83.6902C62.87 83.6902 66.29 87.1302 66.3 91.2302C66.3 95.3302 62.87 98.7602 58.76 98.7702Z" stroke="#004CBC" stroke-width="2" stroke-miterlimit="10"/>
</svg>
