<svg width="150" height="150" viewBox="0 0 150 150" fill="none" xmlns="http://www.w3.org/2000/svg">
<path d="M118.06 87.9999C124.53 74.8999 118.54 57.0799 105.45 50.6099C93.5098 44.7099 79.2798 48.0099 66.4098 51.4299C59.4598 53.2799 52.2698 55.2399 46.7598 59.8599C41.2498 64.4799 37.9498 72.5599 41.0198 79.0499C44.7098 86.8499 55.6898 92.8099 62.4898 97.6499C67.5898 101.28 72.9398 104.74 79.2998 105.43C93.0198 106.93 111.62 100.86 118.05 87.9899L118.06 87.9999Z" fill="#D5F300"/>
<path d="M66.2502 67.2896C66.1902 64.5896 67.9202 58.5196 67.9202 58.5196L58.7902 55.1196L54.8302 58.5196L47.2202 59.1096L51.1402 62.5496L55.6902 59.1096C59.3602 62.4096 61.3702 66.7196 62.8402 71.4296C62.9802 71.8696 63.1102 72.3296 63.4002 72.6996C63.6902 73.0696 64.1702 73.3196 64.6202 73.1896C65.1802 73.0296 65.7902 72.3696 66.0202 71.3796C66.2502 70.3896 66.3802 68.7896 66.2502 67.2896Z" fill="white" stroke="#004CBC" stroke-width="1.5" stroke-miterlimit="10"/>
<path d="M67.7902 59.98C70.6702 63.74 72.9802 69.04 72.1002 73.69C72.0502 73.97 71.9602 74.29 71.7102 74.43C71.2402 74.69 70.7502 74.14 70.4902 73.68C67.2202 67.89 62.8702 62.73 57.7202 58.52" fill="white"/>
<path d="M67.7902 59.98C70.6702 63.74 72.9802 69.04 72.1002 73.69C72.0502 73.97 71.9602 74.29 71.7102 74.43C71.2402 74.69 70.7502 74.14 70.4902 73.68C67.2202 67.89 62.8702 62.73 57.7202 58.52" stroke="#004CBC" stroke-width="1.5" stroke-miterlimit="10"/>
<path d="M50.64 60.44C50.1 63.21 49.56 65.98 49.02 68.75C48.85 69.65 48.75 70.77 49.51 71.28C50.09 71.68 50.87 71.49 51.52 71.22C53.55 70.37 55.25 68.78 56.24 66.81C57.23 64.84 57.48 62.52 56.95 60.39L56.33 57.98L50.64 60.43V60.44Z" fill="white" stroke="#004CBC" stroke-width="1.5" stroke-miterlimit="10"/>
<path d="M19.1602 45.4898C50.0902 40.6498 75.7302 51.9598 82.9202 63.4798C83.5002 64.4098 82.6502 65.5798 81.5802 65.3198C76.1002 63.9498 69.4102 60.5498 64.1302 58.4398C62.9002 57.9498 61.5502 57.8998 60.2902 58.3098C55.7302 59.7798 43.9802 60.4398 41.3602 60.6098C34.3902 61.0598 31.8702 62.4398 21.0802 65.3698" fill="white"/>
<path d="M19.1602 45.4898C50.0902 40.6498 75.7302 51.9598 82.9202 63.4798C83.5002 64.4098 82.6502 65.5798 81.5802 65.3198C76.1002 63.9498 69.4102 60.5498 64.1302 58.4398C62.9002 57.9498 61.5502 57.8998 60.2902 58.3098C55.7302 59.7798 43.9802 60.4398 41.3602 60.6098C34.3902 61.0598 31.8702 62.4398 21.0802 65.3698" stroke="#004CBC" stroke-width="1.5" stroke-miterlimit="10"/>
<path d="M49.0104 56.1196C52.4704 58.2696 55.3804 61.2996 57.3904 64.8396C58.1904 66.2496 58.7704 68.2496 57.5604 69.3396C56.2704 70.4896 54.2704 69.5296 52.8504 68.5396C48.2804 65.3796 43.7104 62.2196 39.1304 59.0596" fill="white"/>
<path d="M49.0104 56.1196C52.4704 58.2696 55.3804 61.2996 57.3904 64.8396C58.1904 66.2496 58.7704 68.2496 57.5604 69.3396C56.2704 70.4896 54.2704 69.5296 52.8504 68.5396C48.2804 65.3796 43.7104 62.2196 39.1304 59.0596" stroke="#004CBC" stroke-width="1.5" stroke-miterlimit="10"/>
<path d="M116.23 94.29C111.49 95.66 106.38 95.77 101.59 94.6L102.13 102.48C102.22 103.87 100.36 104.43 99.6799 103.21L97.6499 99.58L96.7099 97.09L91.4599 94.73L89.0799 99.04C88.3099 100.44 86.1599 99.64 86.4999 98.07L87.4299 93.75C87.4299 93.75 92.8399 80.94 93.4399 80.08C94.0399 79.22 94.9999 78.68 94.9999 78.68C90.5399 76.23 86.4999 72.48 84.6099 68.17C84.2899 67.45 84.0399 66.52 84.7799 66C85.2799 65.64 85.9699 65.69 86.4999 66.01C90.0299 68.18 93.6999 70.11 97.4899 71.79C107.33 76.16 117.84 78.78 128.29 81.39L130.86 101.84C130.86 101.84 124.15 100.43 120.8 98.59C117.45 96.75 111.96 93.33 111.96 93.33" fill="white"/>
<path d="M101.59 87.9502C99.7999 90.9802 98.0799 91.0502 93.7499 101.75C93.5599 102.22 93.1499 102.68 92.6399 102.72C91.9999 102.77 91.5699 102.08 91.3799 101.46C90.8199 99.7002 90.8999 96.0002 91.5999 94.2902" fill="white"/>
<path d="M101.59 87.9502C99.7999 90.9802 98.0799 91.0502 93.7499 101.75C93.5599 102.22 93.1499 102.68 92.6399 102.72C91.9999 102.77 91.5699 102.08 91.3799 101.46C90.8199 99.7002 90.8999 96.0002 91.5999 94.2902" stroke="#004CBC" stroke-width="1.5" stroke-miterlimit="10"/>
<path d="M128.27 81.3999C117.82 78.7899 107.31 76.1699 97.4699 71.7999C93.9299 70.2299 90.4799 68.4299 87.1599 66.4299C86.3199 65.9299 85.0999 65.4699 84.5099 66.2399C84.0899 66.7799 84.3199 67.5499 84.5899 68.1799C87.2099 74.1799 94.0199 79.0899 100.3 80.9299" fill="white"/>
<path d="M128.27 81.3999C117.82 78.7899 107.31 76.1699 97.4699 71.7999C93.9299 70.2299 90.4799 68.4299 87.1599 66.4299C86.3199 65.9299 85.0999 65.4699 84.5099 66.2399C84.0899 66.7799 84.3199 67.5499 84.5899 68.1799C87.2099 74.1799 94.0199 79.0899 100.3 80.9299" stroke="#004CBC" stroke-width="1.5" stroke-miterlimit="10"/>
<path d="M96.9598 86.9601C94.3798 89.3301 90.9598 95.2301 89.3298 98.3301C89.0998 98.7701 88.8698 99.2301 88.4798 99.5401C88.0898 99.8501 87.4898 99.9501 87.1098 99.6401C86.7398 99.3401 86.6998 98.7901 86.7098 98.3101C86.8098 93.2401 90.1798 85.2801 92.8298 80.9601C94.3898 78.4101 95.4598 78.9601 95.4598 78.9601" stroke="#004CBC" stroke-width="1.5" stroke-miterlimit="10"/>
<path d="M101.89 89.6802C101.89 92.1602 101.93 100.02 101.93 102.5C101.93 103.02 101.87 103.65 101.4 103.88C100.92 104.12 100.36 103.76 99.9701 103.38C98.4001 101.89 96.8601 97.9802 96.3501 95.8802" stroke="#004CBC" stroke-width="1.5" stroke-miterlimit="10"/>
<path d="M114.51 94.73C119.78 98.7 124.27 100.28 129.9 101.85Z" fill="white"/>
<path d="M114.51 94.73C119.78 98.7 124.27 100.28 129.9 101.85" stroke="#004CBC" stroke-width="1.5" stroke-miterlimit="10"/>
<path d="M106.98 79.8901C103.18 80.8901 99.1998 81.2001 95.2898 80.8001C93.9598 80.6601 92.3698 80.5501 91.5598 81.6101C90.8998 82.4901 91.1698 83.8101 91.8998 84.6401C92.6298 85.4701 93.6898 85.9001 94.7298 86.2601C100.44 88.2401 106.62 88.8401 112.6 88.0001" fill="white"/>
<path d="M106.98 79.8901C103.18 80.8901 99.1998 81.2001 95.2898 80.8001C93.9598 80.6601 92.3698 80.5501 91.5598 81.6101C90.8998 82.4901 91.1698 83.8101 91.8998 84.6401C92.6298 85.4701 93.6898 85.9001 94.7298 86.2601C100.44 88.2401 106.62 88.8401 112.6 88.0001" stroke="#004CBC" stroke-width="1.5" stroke-miterlimit="10"/>
<path d="M101.59 94.5998C104.88 95.3898 110.61 95.9198 117 94.3398Z" fill="white"/>
<path d="M101.59 94.5998C104.88 95.3898 110.61 95.9198 117 94.3398" stroke="#004CBC" stroke-width="1.5" stroke-miterlimit="10"/>
</svg>
