<svg width="142" height="143" viewBox="0 0 142 143" fill="none" xmlns="http://www.w3.org/2000/svg">
<path d="M47.7301 37.6499C43.0801 37.2099 38.4501 36.1299 33.7901 36.4199C29.1301 36.7099 24.2101 38.6999 22.0001 42.8199C19.4601 47.5599 21.4601 53.8199 25.5701 57.2899C29.6801 60.7599 35.3501 61.8299 40.7201 61.5799C46.0901 61.3299 51.3201 59.8999 56.6001 58.9199C70.0101 56.4299 83.9501 56.8799 97.1701 60.2199C101.5 61.3099 105.86 62.7199 110.31 62.4399C114.76 62.1499 119.44 59.6599 120.7 55.3799C122.23 50.1799 118.28 44.9799 114.04 41.5999C105.11 34.4799 92.7401 30.1299 81.2301 31.0299C76.3101 31.4099 72.0001 34.2199 67.3401 35.6399C61.0201 37.5699 54.3101 38.2799 47.7301 37.6599V37.6499Z" fill="#D5F300"/>
<path d="M35.7501 101.87C34.2501 93.9298 40.2001 85.5298 52.0801 81.3498C63.9601 77.1598 79.9701 77.3598 91.8401 81.5598C102.13 85.1998 103.19 93.6398 101.52 100.5C99.8501 107.36 84.1801 114.97 68.1301 114.97C46.2801 114.97 36.7601 107.26 35.7501 101.88V101.87Z" fill="#D5F300" stroke="#004CBC" stroke-width="2" stroke-miterlimit="10"/>
<path d="M53.9699 90.48C50.3199 93.73 49.9099 98.11 53.0599 101.53C56.2099 104.95 62.8599 107.23 69.6099 107.13C76.3599 107.03 82.8499 104.49 85.3299 100.9C87.1599 98.25 86.7999 95.13 84.3899 92.64C78.3399 86.4 61.5599 83.72 53.9799 90.48H53.9699Z" fill="white" stroke="#004CBC" stroke-width="2" stroke-miterlimit="10"/>
<path d="M66.07 94.3098C64.17 94.6898 62.75 95.7498 62.63 96.8998C62.51 98.0498 63.68 99.2098 65.49 99.7198C67.01 100.15 68.83 100.12 70.42 99.7898C72.29 99.3998 73.97 98.5298 74.35 97.4198C75.14 95.1298 69.26 93.6898 66.07 94.3198V94.3098Z" fill="#D5F300" stroke="#004CBC" stroke-width="2" stroke-miterlimit="10"/>
<path d="M61.1899 68.4402V74.4002H75.5699V68.4102" fill="white"/>
<path d="M61.1899 68.4402V74.4002H75.5699V68.4102" stroke="#004CBC" stroke-width="2" stroke-miterlimit="10"/>
<path d="M79.2998 47.95C84.4798 53.5 85.5398 56.31 85.5398 56.31L86.2398 65.68C86.2398 65.68 82.2198 63.34 80.9498 63.45" fill="white"/>
<path d="M79.2998 47.95C84.4798 53.5 85.5398 56.31 85.5398 56.31L86.2398 65.68C86.2398 65.68 82.2198 63.34 80.9498 63.45" stroke="#004CBC" stroke-width="2" stroke-miterlimit="10"/>
<path d="M57.7398 47.95C52.5598 53.5 51.4998 56.31 51.4998 56.31L50.7998 65.68C50.7998 65.68 55.2898 63.37 56.5598 63.49" fill="white"/>
<path d="M57.7398 47.95C52.5598 53.5 51.4998 56.31 51.4998 56.31L50.7998 65.68C50.7998 65.68 55.2898 63.37 56.5598 63.49" stroke="#004CBC" stroke-width="2" stroke-miterlimit="10"/>
<path d="M77.83 41.97C76.95 39.08 74.87 34.49 72.85 30.34C70.95 26.44 65.35 26.52 63.59 30.49C61.8 34.51 59.98 38.95 59.18 41.97C56.5 52.22 56.65 58.56 56.5 68.45C64.28 68.45 72.84 68.38 81.05 68.45C81.03 58.03 80.01 49.14 77.84 41.97H77.83Z" fill="white" stroke="#004CBC" stroke-width="2" stroke-miterlimit="10"/>
<path d="M65.1899 78.4199V89.2799" stroke="#004CBC" stroke-width="2" stroke-miterlimit="10"/>
<path d="M71.3799 78.4199V85.2799" stroke="#004CBC" stroke-width="2" stroke-miterlimit="10"/>
<path d="M68.5198 50.99C70.5964 50.99 72.2798 49.3066 72.2798 47.23C72.2798 45.1534 70.5964 43.47 68.5198 43.47C66.4432 43.47 64.7598 45.1534 64.7598 47.23C64.7598 49.3066 66.4432 50.99 68.5198 50.99Z" fill="#D5F300" stroke="#004CBC" stroke-width="2" stroke-miterlimit="10"/>
</svg>
