<svg width="142" height="143" viewBox="0 0 142 143" fill="none" xmlns="http://www.w3.org/2000/svg">
<path d="M131.41 17.8901C127.57 27.0601 122.07 35.5301 115.27 42.7701C110.54 47.8001 105.01 52.3501 98.4296 54.4701C91.8596 56.5901 84.0896 55.9301 78.8096 51.4701C65.0996 39.8601 80.6896 25.8701 91.3696 20.3401C97.4896 17.1701 104.29 15.2801 111.16 14.8201C112.82 14.7101 132.04 16.3701 131.41 17.8801V17.8901Z" fill="#D5F300"/>
<path d="M117.63 24.23C96.8596 32.04 78.6496 46.52 66.3696 65" stroke="#004CBC" stroke-miterlimit="10"/>
<path d="M105.41 23.3701C104.68 25.8801 103.95 28.3901 103.22 30.9001C107.87 30.5201 112.52 30.1301 117.17 29.7501" stroke="#004CBC" stroke-miterlimit="10"/>
<path d="M95.3496 24.23C94.1296 29.53 92.3596 33.61 91.1396 38.91C93.9796 38.51 97.3597 39.34 100.19 38.94" stroke="#004CBC" stroke-miterlimit="10"/>
<path d="M82.4195 39.98C82.1695 42.41 81.5296 44.75 81.2896 47.18C84.7396 46.8 88.5896 46.52 92.0496 46.14" stroke="#004CBC" stroke-miterlimit="10"/>
<path d="M59.4698 21.92C57.4098 26.95 56.2598 32.36 56.0898 37.8C55.9698 41.58 56.3598 45.48 58.0798 48.84C59.7998 52.21 63.0598 54.96 66.8298 55.27C76.6298 56.08 76.0098 44.64 74.0198 38.36C72.8798 34.76 70.9798 31.4 68.4898 28.56C67.8898 27.88 59.8098 21.08 59.4698 21.91V21.92Z" fill="#D5F300"/>
<path d="M62.3496 29.71C67.3696 40.77 68.8096 53.42 66.4096 65.33" stroke="#004CBC" stroke-miterlimit="10"/>
<path d="M67.4099 34.0998C66.7199 35.3498 66.0299 36.6098 65.3399 37.8598C63.6899 35.9098 62.0399 33.9598 60.3799 32.0098" stroke="#004CBC" stroke-miterlimit="10"/>
<path d="M70.9697 38.3301C69.3897 40.8501 68.4997 43.1201 66.9197 45.6401C65.9797 44.3901 64.3497 43.4001 63.4097 42.1501" stroke="#004CBC" stroke-miterlimit="10"/>
<path d="M69.88 49.4298C69.03 50.4698 68.38 51.6198 67.53 52.6598C66.34 51.1798 64.96 49.5798 63.77 48.0898" stroke="#004CBC" stroke-miterlimit="10"/>
<path d="M66.5398 119.48C81.584 119.48 93.7798 107.284 93.7798 92.24C93.7798 77.1958 81.584 65 66.5398 65C51.4956 65 39.2998 77.1958 39.2998 92.24C39.2998 107.284 51.4956 119.48 66.5398 119.48Z" stroke="#004CBC" stroke-miterlimit="10"/>
<path d="M93.7798 92.2402H39.2998" stroke="#004CBC" stroke-miterlimit="10"/>
<path d="M66.54 65V119.49" stroke="#004CBC" stroke-miterlimit="10"/>
<path d="M66.54 65C66.54 65 81.07 68.92 81.07 92.24C81.07 115.56 66.54 119.48 66.54 119.48" stroke="#004CBC" stroke-miterlimit="10"/>
<path d="M66.4997 65C66.4997 65 51.9697 68.92 51.9697 92.24C51.9697 115.56 66.4997 119.48 66.4997 119.48" stroke="#004CBC" stroke-miterlimit="10"/>
</svg>
