<svg width="150" height="150" viewBox="0 0 150 150" fill="none" xmlns="http://www.w3.org/2000/svg">
<path d="M96.03 71.5101C95.87 61.8701 90.21 53.6301 80.79 51.5901C70.76 49.4101 62.22 51.0201 56.08 57.9701C51.71 62.9301 50.45 66.3901 49.73 70.8301C48.67 77.3601 50.22 84.9901 54.28 90.2101C60.25 97.8801 76.8 100.54 86.22 92.6201C93.47 86.5201 96.19 80.6801 96.04 71.5101H96.03Z" fill="#DCF343"/>
<path d="M66.5502 97.8899C66.4502 97.1299 66.0802 93.9499 65.9802 93.1899C57.5602 92.3699 53.6302 84.6799 53.0202 78.9799C52.1102 70.5699 55.7202 61.6699 62.9302 57.2399C70.1402 52.7999 79.8502 53.0099 87.0402 57.4599C93.2802 61.3199 93.9202 70.2599 92.9102 77.5199C91.9002 84.7899 82.0902 93.9099 74.8902 92.4699" stroke="#074BB6" stroke-width="2" stroke-miterlimit="10"/>
<path d="M84.1499 89.8501L84.8399 95.7901" stroke="#074BB6" stroke-miterlimit="10"/>
<path d="M88.3798 96.23L64.7598 100.9" stroke="#074BB6" stroke-width="2" stroke-miterlimit="10"/>
<path d="M87.6498 103.42L68.0898 107.75" stroke="#074BB6" stroke-width="2" stroke-miterlimit="10"/>
<path d="M72.0801 111.79L87.1001 108.11" stroke="#074BB6" stroke-width="2" stroke-miterlimit="10"/>
<path d="M75.6499 114.22C75.8499 115.04 76.5699 115.67 77.3699 115.92C78.1699 116.17 79.0499 116.08 79.8599 115.83C82.6199 114.97 84.5699 112.04 84.3099 109.17C84.9999 109.12 85.2799 108.28 85.3899 107.6C85.5599 106.55 85.7399 105.5 85.9099 104.45C86.0499 103.58 86.1999 102.71 86.2199 101.83C86.2599 100.15 85.8599 98.4799 85.3999 96.8599" stroke="#074BB6" stroke-width="2" stroke-miterlimit="10"/>
<path d="M67.2402 103.79C67.2402 104.63 67.4502 106.32 68.0902 106.86C68.7302 107.4 69.3102 107.44 70.1402 107.29C70.3302 109.43 72.0402 111.03 74.1702 111.27" stroke="#074BB6" stroke-miterlimit="10"/>
<path d="M49.7399 92.6201C47.2299 93.8101 45.2899 96.1601 44.6099 98.8601" stroke="#074BB6" stroke-width="2" stroke-miterlimit="10"/>
<path d="M45.9402 68.4102C43.4202 66.5602 40.3302 65.5002 37.2002 65.4302" stroke="#074BB6" stroke-width="2" stroke-miterlimit="10"/>
<path d="M65.6201 41.6699C66.2801 44.2499 66.9301 46.8299 67.5901 49.4099" stroke="#074BB6" stroke-width="2" stroke-miterlimit="10"/>
<path d="M100.73 51.4999C98.9099 51.3099 97.0899 52.0999 95.6799 53.2699C94.2699 54.4399 93.1999 55.9599 92.1499 57.4599" stroke="#074BB6" stroke-width="2" stroke-miterlimit="10"/>
<path d="M105.44 88.04C103.01 87.28 100.57 86.52 98.1401 85.77" stroke="#074BB6" stroke-width="2" stroke-miterlimit="10"/>
<path d="M76.9401 72.8599C79.4001 73.8099 81.3801 72.7399 84.1001 72.5399C84.4601 72.5099 84.6801 72.9299 84.4601 73.2099C82.4701 75.7699 80.4001 76.1599 80.3701 78.7199C80.3701 79.3699 82.1001 84.7499 82.5401 87.6799L74.5001 82.3999C72.6901 84.7099 69.5201 87.2999 67.3701 89.2999C67.0701 84.8099 68.1201 82.4099 66.7301 80.9199C64.9301 79.0099 61.1801 79.0899 60.5601 77.0199C63.0401 75.8899 63.8101 76.6999 66.8401 74.1199C68.2201 72.9499 69.3601 64.8499 72.0101 64.7199C73.7201 64.6399 75.3101 72.2199 76.9401 72.8499V72.8599Z" stroke="#074BB6" stroke-width="2" stroke-miterlimit="10"/>
<path d="M72.2302 79.7201C74.6702 80.3701 75.3402 76.7701 73.1402 75.9301C70.5902 74.9601 69.8002 79.0701 72.2302 79.7201Z" stroke="#074BB6" stroke-width="2" stroke-miterlimit="10"/>
</svg>
