<svg width="807" height="465" viewBox="0 0 807 465" fill="none" xmlns="http://www.w3.org/2000/svg">
<g clip-path="url(#clip0_2021_580)">
<path d="M16.1201 396.42C41.5601 429.58 82.8301 447.07 123.91 454.74C194.7 467.95 270.04 455.24 332.58 419.54C395.12 383.84 444.37 325.42 468.99 257.75C484.53 215.03 490.28 167.28 476.14 124.07C455.2 60.08 391.35 15.26 324.44 7.76999C257.53 0.279991 49.3501 -12.24 -2.47986 30.73C-43.9899 65.14 -25.7099 192.3 -23.0999 235.62C-21.5999 260.58 -6.30986 295.1 -7.12986 320.7C-7.98986 347.58 -0.349863 374.95 16.1201 396.42Z" fill="#D5F300"/>
<path d="M707.81 165.04C686.83 115.87 638.07 82.8701 587.42 73.8701C499.73 58.2901 421.2 104.65 390.62 190.68C360.04 276.71 390.57 379.24 464.07 432.61C537.57 485.97 642.86 467.48 710.61 409.45C778.36 351.42 792.62 273.44 759.05 187.13C747.71 157.99 729.64 130.38 703.51 114.56C677.38 98.7401 642.35 97.0501 618.92 115.92" stroke="#004CBC" stroke-miterlimit="10"/>
</g>
<defs>
<clipPath id="clip0_2021_580">
<rect width="807" height="465" fill="white"/>
</clipPath>
</defs>
</svg>
