<?xml version="1.0" encoding="UTF-8"?>
<svg id="Layer_1" data-name="Layer 1" xmlns="http://www.w3.org/2000/svg" xmlns:xlink="http://www.w3.org/1999/xlink" viewBox="0 0 50 50">
  <defs>
    <style>
      .cls-1 {
        fill: #dcf343;
      }

      .cls-2 {
        clip-path: url(#clippath);
      }

      .cls-3 {
        fill: #074bb6;
      }
    </style>
    <clipPath id="clippath">
      <circle class="cls-3" cx="23.95" cy="23.99" r="4.71"/>
    </clipPath>
  </defs>
  <path class="cls-1" d="M22.94,46.3c-2.63,0-5.01-1.81-5.62-4.47l-5.08-22.01c-.71-3.1,1.22-6.2,4.32-6.92l8.49-1.96c1.5-.35,3.05-.09,4.35.73,1.31.82,2.22,2.09,2.56,3.59l5.08,22.01c.35,1.5.09,3.05-.73,4.35-.82,1.31-2.09,2.22-3.59,2.56l-8.48,1.96c-.43.1-.87.15-1.3.15ZM26.35,12.08c-.34,0-.68.04-1.02.12l-8.49,1.96c-2.41.56-3.92,2.97-3.36,5.38l5.08,22.01c.56,2.41,2.97,3.92,5.38,3.36l8.48-1.96c1.17-.27,2.16-.98,2.8-1.99.63-1.02.84-2.22.57-3.39l-5.08-22.01c-.27-1.17-.98-2.16-1.99-2.79-.72-.45-1.54-.68-2.37-.68Z"/>
  <rect class="cls-3" x="16.97" y="14.3" width="9.29" height="2.33" rx="1.09" ry="1.09" transform="translate(-2.92 5.26) rotate(-13)"/>
  <rect class="cls-3" x="20.91" y="30.08" width="9.29" height="2.33" rx="1.09" ry="1.09" transform="translate(-6.37 6.55) rotate(-13)"/>
  <rect class="cls-3" x="20.64" y="33.29" width="11.32" height="2.33" rx="1.09" ry="1.09" transform="translate(-7.07 6.8) rotate(-13)"/>
  <circle class="cls-3" cx="23.95" cy="23.99" r="4.71"/>
  <g>
    <circle class="cls-3" cx="23.95" cy="23.99" r="4.71"/>
    <g class="cls-2">
      <path class="cls-1" d="M23.73,25.07c-1.09,0-2.07-.75-2.33-1.85-.14-.62-.04-1.26.3-1.8s.87-.92,1.49-1.06c.62-.14,1.26-.04,1.8.3s.92.87,1.06,1.49c.14.62.04,1.26-.3,1.8-.34.54-.87.92-1.49,1.06-.18.04-.36.06-.54.06ZM23.74,21.57c-.08,0-.17,0-.25.03-.29.07-.53.24-.69.49-.16.25-.21.55-.14.83.14.59.73.96,1.33.83.29-.07.53-.24.69-.49.16-.25.21-.55.14-.83-.07-.29-.24-.53-.49-.69-.18-.11-.38-.17-.58-.17Z"/>
      <path class="cls-1" d="M27.7,27.53c-.32-1.37-1.58-3.08-2.68-3.15l.08-1.28c1.89.12,3.47,2.53,3.85,4.14l-1.25.29Z"/>
      <path class="cls-1" d="M20.81,29.12c-.37-1.62,0-4.47,1.64-5.41l.63,1.11c-.96.54-1.34,2.64-1.03,4.01l-1.25.29Z"/>
    </g>
  </g>
  <rect class="cls-1" x="23.49" y="3.13" width="1.28" height="6.4" transform="translate(-.68 3.75) rotate(-8.75)"/>
  <rect class="cls-1" x="27.84" y="5.1" width="7.82" height="1.28" transform="translate(9.2 28.82) rotate(-55.91)"/>
  <rect class="cls-1" x="31.52" y="9.28" width="6.35" height="1.28" transform="translate(-1.37 11.16) rotate(-17.92)"/>
  <circle class="cls-1" cx="27.35" cy="39.03" r="1.94"/>
</svg>