<svg version="1.2" xmlns="http://www.w3.org/2000/svg" viewBox="0 0 112 70" width="112" height="70">
	<title>2e-solutions-seamless-integration</title>
	<style>
		.s0 { fill: #dcf343 } 
		.s1 { fill: none;stroke: #074bb6;stroke-miterlimit:10;stroke-width: 2 } 
	</style>
	<path class="s0" d="m51.9 32.9c6.7-2 12.8-6.5 14.1-12.4 2-8.4-6.7-16.5-16.5-18.8-12.1-2.8-25.5 1.3-34.3 9-8.8 7.6-13.3 18.4-14.4 29.1-0.7 6.4-0.1 13 3.2 18.8 3.3 5.8 9.8 10.5 17.2 11.1 9.3 0.7 17.6-4.8 23.8-10.7 6.1-6 11.3-12.9 19.3-17 5-2.6 11.6-3.8 16.6-1.2 5 2.6 6.2 9.9 1.2 12.4-6.9 3.4-15.5-4.6-22.9-2.2-5.4 1.8-6.4 8.6-3 12.6 3.4 3.9 9.5 5.5 15.2 5.9 11.6 0.8 23.8-2.5 31.7-9.8 7.9-7.2 10.8-18.5 6-27.6-4.8-9-17.7-17.6-28.8-14.6-7.9 2.2-13.6 7.9-18.9 13.4-5.3 5.5-11.1 14.3-19 16.4-5.8 1.6-15 0.4-19.2-7.8-2.7-5.4-0.4-12 5.2-14.1 9.1-3.3 15.2 10 23.5 7.5z"/>
	<path class="s1" d="m52.5 19.8c-2.9-4.1-7.9-6.9-13-7.1-8.2-0.3-15.9 5-19.8 12.2-3.4 6.2-4.3 13.9-1.5 20.5 2.8 6.5 9.5 11.3 16.6 11.1 8.9-0.3 15.8-7.7 20.6-15.2 4.9-7.4 9.2-15.8 16.9-20.3 7.6-4.3 17.9-3.6 24.8 1.9 6.9 5.4 9.8 15.4 7 23.7-2.9 8.3-11.4 14.4-20.2 14.2-5.7-0.1-11-2.6-15.5-6.2"/>
	<path fill-rule="evenodd" class="s1" d="m55.4 26.6c-2.4 0-4.3-1.9-4.3-4.3 0-2.4 1.9-4.3 4.3-4.3 2.3 0 4.3 1.9 4.3 4.3 0 2.4-2 4.3-4.3 4.3z"/>
	<path fill-rule="evenodd" class="s1" d="m65.1 55.3c-2.4 0-4.3-1.9-4.3-4.2 0-2.4 1.9-4.3 4.3-4.3 2.3 0 4.2 1.9 4.2 4.3 0 2.3-1.9 4.2-4.2 4.2z"/>
</svg>