<svg width="56" height="58" viewBox="0 0 56 58" fill="none" xmlns="http://www.w3.org/2000/svg">
<g clip-path="url(#clip0_2254_45)">
<path d="M13.4 0.73999C20.58 0.73999 42.13 2.33999 42.13 2.33999C49.23 2.33999 54.98 8.08999 54.98 15.19C54.98 15.19 57.14 37.07 54.98 43.92C52.67 51.27 49.23 56.77 42.13 56.77C42.13 56.77 22.24 57.88 13.4 56.77C6.36005 55.88 1.69005 51.27 0.550046 43.92C-0.549954 36.82 0.550046 15.19 0.550046 15.19C0.550046 8.08999 6.30005 0.73999 13.4 0.73999Z" fill="#DCF343"/>
<path d="M42.03 20.02H46.2C46.77 20.02 47.24 19.55 47.24 18.98V10.65C47.24 10.08 46.77 9.60999 46.2 9.60999H39.95C33.63 9.60999 28.49 14.75 28.49 21.07V26.36H21.2C20.63 26.36 20.16 26.83 20.16 27.4V35.65C20.16 36.22 20.63 36.69 21.2 36.69H27.77V52.32C27.77 52.89 28.24 53.36 28.81 53.36H37.51C38.08 53.36 38.55 52.89 38.55 52.32V36.69H44.03C44.5 36.69 44.92 36.37 45.04 35.91L47.21 27.58C47.29 27.27 47.23 26.94 47.03 26.68C46.83 26.43 46.53 26.27 46.21 26.27H38.92V23.14C38.92 21.42 40.32 20.01 42.05 20.01L42.03 20.02ZM37.87 28.35H44.85L43.22 34.6H37.5C36.93 34.6 36.46 35.07 36.46 35.64V51.27H29.85V35.64C29.85 35.07 29.38 34.6 28.81 34.6H22.24V28.43H29.53C30.1 28.43 30.57 27.96 30.57 27.39V21.06C30.57 15.89 34.77 11.68 39.95 11.68H45.16V17.93H42.03C39.16 17.93 36.82 20.27 36.82 23.14V27.31C36.82 27.88 37.29 28.35 37.86 28.35H37.87Z" fill="#074BB6"/>
</g>
<defs>
<clipPath id="clip0_2254_45">
<rect width="56" height="58" fill="white"/>
</clipPath>
</defs>
</svg>
