<svg width="58" height="58" viewBox="0 0 58 58" fill="none" xmlns="http://www.w3.org/2000/svg">
<g clip-path="url(#clip0_2253_20)">
<path d="M57.13 25.4639C57.0271 19.5235 55.6894 14.0229 54.3984 10.0471C53.1074 6.07129 49.8239 3.47064 45.8481 2.9187C37.9994 1.83354 24.7997 0.149673 20.1223 0.364834C11.9368 0.748383 5.22003 6.98806 4.16293 15.1081C3.66712 18.9529 3.16196 22.6387 2.8439 24.6219C1.56228 32.5361 3.43325 41.7881 8.3539 48.1119C12.9658 54.0335 29.29 54.361 40.5532 53.8184C47.5787 53.4816 53.6968 48.851 55.8484 42.1529C57.5323 36.8955 57.2142 30.609 57.13 25.4545V25.4639Z" fill="#074BB6"/>
<path d="M1.87099 16.4178C1.71196 17.1755 1.62777 17.7742 1.53422 18.4384C1.44067 19.0839 1.36583 19.7387 1.28164 20.3842C0.692283 25.5949 0.636155 30.8616 1.1039 36.0816C1.22551 37.382 1.37519 38.6916 1.55293 39.9826L1.85228 41.9191C1.98325 42.5645 2.10486 43.341 2.32002 44.0239C3.09648 46.8397 4.62132 49.431 6.64196 51.5265C8.77486 53.6968 11.4597 55.3526 14.3971 56.1665C15.1081 56.391 15.9126 56.522 16.5955 56.6529C17.2691 56.7652 17.952 56.8681 18.6255 56.9523C19.982 57.1394 21.3384 57.2797 22.7042 57.392C28.1581 57.8223 33.6587 57.6913 39.0845 56.9523C39.7581 56.8681 40.441 56.7558 41.1145 56.6529C41.7974 56.522 42.602 56.391 43.3129 56.1665C44.7816 55.7549 46.2036 55.1562 47.5039 54.361C50.1139 52.7894 52.331 50.5442 53.7997 47.8687C54.5387 46.5403 55.1187 45.1184 55.4929 43.6403C55.8578 42.0874 56.0168 40.8245 56.2039 39.4494C56.5594 36.7365 56.7558 34.0049 56.812 31.2732C56.8494 29.4771 56.971 27.2226 56.7184 25.4171C56.4752 23.6116 55.9045 22.2739 54.7258 22.2832C53.4536 22.2926 53.1355 23.6116 53.0981 25.3329C53.07 27.0449 53.2852 29.1778 53.2384 30.8149C53.1729 33.3687 52.9858 35.9039 52.6678 38.4297C52.4994 39.6739 52.3216 41.0023 52.0784 42.1623C51.8258 43.3129 51.461 44.4449 50.9184 45.4926C49.8613 47.5974 48.271 49.4403 46.3158 50.7594C45.3429 51.4236 44.2952 51.9755 43.182 52.3684C42.05 52.7707 40.9742 52.9952 39.6645 53.1823C34.6316 53.9494 29.5145 54.1739 24.4349 53.8745C21.8997 53.7155 19.3458 53.4349 16.8574 53.0139C14.5374 52.5929 12.3016 51.62 10.4868 50.1045C9.57938 49.3562 8.75615 48.4955 8.05454 47.5507C7.37164 46.5965 6.80099 45.5487 6.37067 44.4542C6.14615 43.9023 5.97777 43.3503 5.82809 42.7797C5.69712 42.1997 5.57551 41.6478 5.49132 41.0023C5.30422 39.7487 5.14519 38.4858 5.02357 37.2136C4.53712 32.1432 4.59325 27.0355 5.22003 21.9932C5.3697 20.7303 5.56615 19.4768 5.79067 18.2326C6.01519 17.0258 6.30519 15.9594 6.78228 14.9023C7.72712 12.8068 9.17712 10.9545 11.0107 9.62615C12.8255 8.26035 14.9771 7.43712 17.2036 7.15647C19.692 6.83841 22.2084 6.65131 24.7155 6.61389C27.0636 6.56712 29.8981 6.66067 32.1713 6.47357C34.4352 6.26776 36.1845 5.73454 36.2781 4.13486C36.3529 2.82518 34.6878 2.06744 32.3865 1.69325C30.0945 1.31905 27.1945 1.40325 24.8932 1.52486C22.2645 1.65583 19.6545 1.93647 17.0633 2.33873C16.4458 2.43228 15.6974 2.59131 14.9678 2.74099C14.2568 2.9468 13.5365 3.13389 12.8536 3.42389C11.4784 3.96647 10.1407 4.64938 8.9526 5.52873C6.53906 7.25938 4.57454 9.57938 3.30228 12.2549C2.64744 13.5832 2.18906 15.0052 1.89906 16.4458H1.90841L1.87099 16.4178Z" fill="#DCF343"/>
<path d="M25.1739 23.0317C25.9316 22.723 26.839 22.5265 27.5406 22.0962C27.7184 21.9933 27.8961 21.8623 28.0458 21.6939C28.2048 21.5443 28.3452 21.3759 28.4668 21.1514C28.71 20.721 28.8784 20.1223 28.869 19.3272C28.8597 18.6817 28.6445 18.2139 28.261 17.8865C27.8774 17.5497 27.3348 17.4001 26.7174 17.372C25.4732 17.3252 24.0045 17.8865 22.9287 18.4665C20.4684 19.7762 18.4384 21.9091 17.3345 24.4817C16.2026 27.0449 15.9781 29.9543 16.689 32.6297C17.3626 35.3239 18.9997 37.7094 21.1513 39.3839C23.3029 41.0678 26.0345 41.9939 28.7474 42.022C31.5913 42.0407 34.4539 41.0678 36.6616 39.253C38.8694 37.4568 40.441 34.8843 41.0023 32.0872C41.5542 29.2901 41.1239 26.3152 39.7674 23.7894C38.4016 21.2823 36.1752 19.2804 33.5371 18.2046C32.6671 17.8678 31.5726 17.372 30.5997 17.4001C29.6361 17.4001 28.9158 17.8491 28.8784 19.0091C28.841 20.2814 29.3555 20.7397 29.9823 20.9549C30.609 21.1794 31.451 21.2075 32.0403 21.4694C33.8552 22.2272 35.4361 23.5743 36.3903 25.2955C37.3632 26.9888 37.7561 29.0094 37.4568 30.9552C36.9703 34.8655 33.4248 38.1678 29.4677 38.3362C27.4939 38.4952 25.52 37.8778 23.939 36.7459C22.3487 35.6139 21.2168 33.8926 20.749 32.0497C20.2813 30.2068 20.5152 28.2049 21.3384 26.5678C22.171 24.9401 23.5742 23.6304 25.1832 22.9943V23.013L25.1739 23.0317Z" fill="#DCF343"/>
<path d="M47.1671 7.36234C46.7181 11.8059 53.9307 11.2352 52.6678 7.15653C52.1159 3.97589 47.3823 4.0975 47.1671 7.36234Z" fill="#DCF343"/>
</g>
<defs>
<clipPath id="clip0_2253_20">
<rect width="58" height="58" fill="white"/>
</clipPath>
</defs>
</svg>
