<svg width="56" height="58" viewBox="0 0 56 58" fill="none" xmlns="http://www.w3.org/2000/svg">
<g clip-path="url(#clip0_2253_26)">
<path d="M42.6001 57.26C35.4201 57.26 13.8701 55.66 13.8701 55.66C6.77006 55.66 1.02006 49.91 1.02006 42.81C1.02006 42.81 -1.13994 20.93 1.02006 14.08C3.33006 6.73003 6.77006 1.23003 13.8701 1.23003C13.8701 1.23003 33.7601 0.120028 42.6001 1.23003C49.6401 2.12003 54.3101 6.73003 55.4501 14.08C56.5901 21.43 55.4501 42.81 55.4501 42.81C55.4501 49.91 49.7001 57.26 42.6001 57.26Z" fill="#074BB6"/>
<path d="M48.79 48.78H40.24V33.82C40.2 30.04 38.15 27.62 34.19 28.72C31.8 29.38 31.15 31.7 30.93 33.92V48.79H22.48V21.72H30.55V25.42C31.38 24.22 32.29 23.16 33.56 22.4C35.76 21.09 38.23 20.83 40.75 21.16C46.38 21.89 48.25 25.88 48.69 31.07C48.9 36.96 48.73 42.88 48.79 48.78Z" fill="#DCF343"/>
<path d="M17.2601 21.71H8.81006V48.78H17.2601V21.71Z" fill="#DCF343"/>
<path d="M13.04 18.11C15.7627 18.11 17.97 15.9028 17.97 13.18C17.97 10.4572 15.7627 8.25 13.04 8.25C10.3172 8.25 8.10999 10.4572 8.10999 13.18C8.10999 15.9028 10.3172 18.11 13.04 18.11Z" fill="#DCF343"/>
</g>
<defs>
<clipPath id="clip0_2253_26">
<rect width="56" height="58" fill="white"/>
</clipPath>
</defs>
</svg>
