<svg version="1.2" xmlns="http://www.w3.org/2000/svg" viewBox="0 0 55 54" width="55" height="54">
	<title>open-link</title>
	<style>
		.s0 { fill: #074bb6 } 
		.s1 { fill: none;stroke: #dcf343;stroke-linecap: round;stroke-miterlimit:10;stroke-width: 4 } 
		.s2 { fill: none;stroke: #dcf343;stroke-linecap: round;stroke-linejoin: round;stroke-width: 4 } 
	</style>
	<path fill-rule="evenodd" class="s0" d="m10.8 0h34c5.5 0 10 4.5 10 10v34c0 5.5-4.5 10-10 10h-34c-5.6 0-10-4.5-10-10v-34c0-5.5 4.4-10 10-10z"/>
	<g>
		<g>
			<path fill-rule="evenodd" class="s1" d="m47.6 7.5v16.3"/>
			<path fill-rule="evenodd" class="s1" d="m47.6 7.5h-16.3"/>
		</g>
		<path fill-rule="evenodd" class="s1" d="m47.5 7.5l-23 23"/>
	</g>
	<path class="s2" d="m24.5 11.4h-9.5c-2.2 0-4 1.8-4 4v23.2c0 2.2 1.8 4 4 4h24.8c2.2 0 4-1.8 4-4v-8.1"/>
</svg>