<?xml version="1.0" encoding="UTF-8"?>
<svg id="Layer_1" data-name="Layer 1" xmlns="http://www.w3.org/2000/svg" viewBox="0 0 100.15 89.51">
  <path d="M26.85,11.19c-4.65-.44-9.28-1.52-13.94-1.23-4.66.29-9.58,2.28-11.79,6.4-2.54,4.74-.54,11,3.57,14.47s9.78,4.54,15.15,4.29c5.37-.25,10.6-1.68,15.88-2.66,13.41-2.49,27.35-2.04,40.57,1.3,4.33,1.09,8.69,2.5,13.14,2.22,4.45-.29,9.13-2.78,10.39-7.06,1.53-5.2-2.42-10.4-6.66-13.78-8.93-7.12-21.3-11.47-32.81-10.57-4.92.38-9.23,3.19-13.89,4.61-6.32,1.93-13.03,2.64-19.61,2.02Z" fill="#d5f300"/>
  <g>
    <path d="M14.87,75.42c-1.5-7.94,4.45-16.34,16.33-20.52,11.88-4.19,27.89-3.99,39.76.21,10.29,3.64,11.35,12.08,9.68,18.94-1.67,6.86-17.34,14.47-33.39,14.47-21.85,0-31.37-7.71-32.38-13.09Z" fill="#d5f300" stroke="#004cbc" stroke-miterlimit="10" stroke-width="2"/>
    <path d="M33.09,64.02c-3.65,3.25-4.06,7.63-.91,11.05,3.15,3.42,9.8,5.7,16.55,5.6,6.75-.1,13.24-2.64,15.72-6.23,1.83-2.65,1.47-5.77-.94-8.26-6.05-6.24-22.83-8.92-30.41-2.16Z" fill="#fff" stroke="#004cbc" stroke-miterlimit="10" stroke-width="2"/>
    <path d="M45.19,67.85c-1.9.38-3.32,1.44-3.44,2.59-.12,1.15,1.05,2.31,2.86,2.82,1.52.43,3.34.4,4.93.07,1.87-.39,3.55-1.26,3.93-2.37.79-2.29-5.09-3.73-8.28-3.1Z" fill="#d5f300" stroke="#004cbc" stroke-miterlimit="10" stroke-width="2"/>
  </g>
  <g>
    <polyline points="40.31 41.99 40.31 47.94 54.69 47.94 54.69 41.96" fill="#fff" stroke="#004cbc" stroke-miterlimit="10" stroke-width="2"/>
    <path d="M58.42,21.49c5.18,5.55,6.24,8.36,6.24,8.36l.7,9.37s-4.02-2.34-5.29-2.23" fill="#fff" stroke="#004cbc" stroke-miterlimit="10" stroke-width="2"/>
    <path d="M36.86,21.49c-5.18,5.55-6.24,8.36-6.24,8.36l-.7,9.37s4.49-2.31,5.76-2.19" fill="#fff" stroke="#004cbc" stroke-miterlimit="10" stroke-width="2"/>
    <path d="M56.95,15.51c-.88-2.89-2.96-7.48-4.98-11.63-1.9-3.9-7.5-3.82-9.26.15-1.79,4.02-3.61,8.46-4.41,11.48-2.68,10.25-2.53,16.59-2.68,26.48,7.78,0,16.34-.07,24.55,0-.02-10.42-1.04-19.31-3.21-26.48Z" fill="#fff" stroke="#004cbc" stroke-miterlimit="10" stroke-width="2"/>
    <line x1="44.31" y1="51.96" x2="44.31" y2="62.82" fill="#fff" stroke="#004cbc" stroke-miterlimit="10" stroke-width="2"/>
    <line x1="50.5" y1="51.96" x2="50.5" y2="58.82" fill="#fff" stroke="#004cbc" stroke-miterlimit="10" stroke-width="2"/>
  </g>
  <circle cx="47.64" cy="20.77" r="3.76" fill="#d5f300" stroke="#004cbc" stroke-miterlimit="10" stroke-width="2"/>
</svg>