<?xml version="1.0" encoding="UTF-8"?>
<svg id="Layer_1" data-name="Layer 1" xmlns="http://www.w3.org/2000/svg" viewBox="0 0 85.48 92.05">
  <g>
    <path d="M42.74,2.65C18.5,4.76,2.37,20.83,2.52,42.55c-.08,15.27,7.43,28.45,22.26,35.22.21.1.46.12.7.05.23-.07.42-.22.53-.42.11-.2.13-.42.06-.63-.08-.21-.23-.38-.45-.49-4.98-2.33-9.15-5.38-12.42-9.01,4.4-12.02,15.74-20.76,29.41-20.62,13.68.04,24.91,9.99,29.47,24.37-3.2,3.71-7.31,6.43-12.26,8.09h0c-.44.16-.6.66-.37,1.13.11.23.31.43.54.54.23.11.49.14.7.07,14.77-4.48,21.86-19.48,21.76-37.95C82.65,16.14,67.06-.09,42.74,2.65h0ZM42.72,4.36c23.11-2.5,38.19,13.17,38.03,38.51.05,10.35-2.42,19.93-7.43,26.6-4.35-12.49-13.4-21.63-24.71-23.89,6.1-2.31,10.38-8.57,10.52-15.92.22-9.65-6.99-16.57-16.46-15.89-9.47.64-16.79,7.93-16.6,16.73.11,6.75,4.41,12.52,10.53,14.95-11.32,2.06-20.44,9.9-24.66,20.32-5.13-6.41-7.74-14.54-7.7-23.23-.13-20.73,15.44-36.24,38.48-38.18,0,0,0,0,0,0ZM42.67,15.48c8.46-.57,14.94,5.65,14.76,14.25-.14,8.6-6.64,15.36-14.81,15.21-8.17-.12-14.72-6.55-14.82-14.46-.14-7.91,6.42-14.47,14.88-15Z" fill="#074bb6"/>
    <path d="M42.74,2.65C18.5,4.76,2.37,20.83,2.52,42.55c-.08,15.27,7.43,28.45,22.26,35.22.21.1.46.12.7.05.23-.07.42-.22.53-.42.11-.2.13-.42.06-.63-.08-.21-.23-.38-.45-.49-4.98-2.33-9.15-5.38-12.42-9.01,4.4-12.02,15.74-20.76,29.41-20.62,13.68.04,24.91,9.99,29.47,24.37-3.2,3.71-7.31,6.43-12.26,8.09h0c-.44.16-.6.66-.37,1.13.11.23.31.43.54.54.23.11.49.14.7.07,14.77-4.48,21.86-19.48,21.76-37.95C82.65,16.14,67.06-.09,42.74,2.65h0ZM42.72,4.36c23.11-2.5,38.19,13.17,38.03,38.51.05,10.35-2.42,19.93-7.43,26.6-4.35-12.49-13.4-21.63-24.71-23.89,6.1-2.31,10.38-8.57,10.52-15.92.22-9.65-6.99-16.57-16.46-15.89-9.47.64-16.79,7.93-16.6,16.73.11,6.75,4.41,12.52,10.53,14.95-11.32,2.06-20.44,9.9-24.66,20.32-5.13-6.41-7.74-14.54-7.7-23.23-.13-20.73,15.44-36.24,38.48-38.18,0,0,0,0,0,0ZM42.67,15.48c8.46-.57,14.94,5.65,14.76,14.25-.14,8.6-6.64,15.36-14.81,15.21-8.17-.12-14.72-6.55-14.82-14.46-.14-7.91,6.42-14.47,14.88-15Z" fill="none" stroke="#004cbc" stroke-miterlimit="10" stroke-width=".75"/>
  </g>
  <path d="M44.18,54.41c-1.3,0-2.6.66-3.24,1.99l-4.03,8.43-9.27,1.21c-2.92.38-4.14,4.11-2,6.14l6.78,6.44-1.71,9.19c-.54,2.9,2.63,5.2,5.22,3.8l8.22-4.45,8.21,4.47c2.59,1.41,5.77-.89,5.24-3.79l-1.7-9.19,6.79-6.43c2.14-2.03.93-5.76-1.99-6.15l-9.27-1.23-4.02-8.43c-.64-1.33-1.93-1.99-3.23-1.99h0Z" fill="#dcf343"/>
</svg>