<?xml version="1.0" encoding="UTF-8"?>
<svg id="Layer_1" data-name="Layer 1" xmlns="http://www.w3.org/2000/svg" viewBox="0 0 77.29 77.47">
  <path d="M77.28,34.53c-.27-15.97-9.65-29.64-25.26-33.03C35.39-2.11,21.23.55,11.06,12.08,3.81,20.3,1.73,26.04.54,33.4c-1.75,10.82.8,23.47,7.53,32.12,9.9,12.72,37.33,17.13,52.94,4,12.01-10.11,16.53-19.78,16.27-34.99Z" fill="#dcf343"/>
  <g>
    <path d="M11.31,50.28c.02,6.13,4.73,11.36,10.08,14.36,7.76,4.35,17.4,5.19,25.8,2.26,8.4-2.93,15.42-9.6,18.78-17.83" fill="none" stroke="#074bb6" stroke-miterlimit="10" stroke-width="2"/>
    <path d="M49.16,53.94c5.6-1.47,11.21-2.94,16.81-4.41-.29,4.12-.59,8.25-.88,12.37" fill="none" stroke="#074bb6" stroke-miterlimit="10" stroke-width="2"/>
  </g>
  <g>
    <path d="M65.97,30.6c-.02-6.13-4.73-11.36-10.08-14.36-7.76-4.35-17.4-5.19-25.8-2.26-8.4,2.93-15.42,9.6-18.78,17.83" fill="none" stroke="#074bb6" stroke-miterlimit="10" stroke-width="2"/>
    <path d="M28.13,26.94c-5.6,1.47-11.21,2.94-16.81,4.41.29-4.12.59-8.25.88-12.37" fill="none" stroke="#074bb6" stroke-miterlimit="10" stroke-width="2"/>
  </g>
</svg>