<?xml version="1.0" encoding="UTF-8"?>
<svg id="Layer_1" data-name="Layer 1" xmlns="http://www.w3.org/2000/svg" viewBox="0 0 93.13 105.66">
  <g>
    <path d="M93.12,3.07c-3.84,9.17-9.34,17.64-16.14,24.88-4.73,5.03-10.26,9.58-16.84,11.7-6.57,2.12-14.34,1.46-19.62-3-13.71-11.61,1.88-25.6,12.56-31.13C59.19,2.35,65.99.46,72.86,0c1.66-.11,20.88,1.55,20.25,3.06Z" fill="#d5f300"/>
    <path d="M79.33,9.41c-20.77,7.81-38.98,22.29-51.26,40.77" fill="none" stroke="#004cbc" stroke-miterlimit="10" stroke-width="2"/>
    <path d="M67.11,8.54c-.73,2.51-1.46,5.02-2.19,7.53,4.65-.38,9.3-.77,13.95-1.15" fill="none" stroke="#004cbc" stroke-miterlimit="10" stroke-width="2"/>
    <path d="M57.05,9.41c-1.22,5.3-2.99,9.38-4.21,14.68,2.84-.4,6.22.43,9.05.03" fill="none" stroke="#004cbc" stroke-miterlimit="10" stroke-width="2"/>
    <path d="M44.12,25.16c-.25,2.43-.89,4.77-1.13,7.2,3.45-.38,7.3-.66,10.76-1.04" fill="none" stroke="#004cbc" stroke-miterlimit="10" stroke-width="2"/>
    <g>
      <path d="M21.17,7.09c-2.06,5.03-3.21,10.44-3.38,15.88-.12,3.78.27,7.68,1.99,11.04,1.72,3.37,4.98,6.12,8.75,6.43,9.8.81,9.18-10.63,7.19-16.91-1.14-3.6-3.04-6.96-5.53-9.8-.6-.68-8.68-7.48-9.02-6.65Z" fill="#d5f300"/>
      <path d="M24.05,14.88c5.02,11.06,6.46,23.71,4.06,35.62" fill="none" stroke="#004cbc" stroke-miterlimit="10" stroke-width="2"/>
      <path d="M29.11,19.28c-.69,1.25-1.38,2.51-2.07,3.76-1.65-1.95-3.3-3.9-4.96-5.85" fill="none" stroke="#004cbc" stroke-miterlimit="10" stroke-width="2"/>
      <path d="M32.67,23.5c-1.58,2.52-2.47,4.79-4.05,7.31-.94-1.25-2.57-2.24-3.51-3.49" fill="none" stroke="#004cbc" stroke-miterlimit="10" stroke-width="2"/>
      <path d="M31.58,34.6c-.85,1.04-1.5,2.19-2.35,3.23-1.19-1.48-2.57-3.08-3.76-4.57" fill="none" stroke="#004cbc" stroke-miterlimit="10" stroke-width="2"/>
    </g>
  </g>
  <g>
    <circle cx="28.24" cy="77.42" r="27.24" fill="none" stroke="#004cbc" stroke-miterlimit="10" stroke-width="2"/>
    <line x1="55.48" y1="77.42" x2="1" y2="77.42" fill="none" stroke="#004cbc" stroke-miterlimit="10" stroke-width="2"/>
    <line x1="28.24" y1="50.18" x2="28.24" y2="104.66" fill="none" stroke="#004cbc" stroke-miterlimit="10" stroke-width="2"/>
    <path d="M28.24,50.18s14.53,3.92,14.53,27.24c0,22.64-14.53,27.24-14.53,27.24" fill="none" fill-rule="evenodd" stroke="#004cbc" stroke-miterlimit="10" stroke-width="2"/>
    <path d="M28.21,50.18s-14.53,3.92-14.53,27.24,14.53,27.24,14.53,27.24" fill="none" fill-rule="evenodd" stroke="#004cbc" stroke-miterlimit="10" stroke-width="2"/>
  </g>
</svg>