<?xml version="1.0" encoding="UTF-8"?>
<svg id="Layer_1" data-name="Layer 1" xmlns="http://www.w3.org/2000/svg" viewBox="0 0 79.92 99.39">
  <path d="M38.62,1.19c.87-.25,1.8-.25,2.68,0l34.09,9.74c2.09.6,3.53,2.51,3.53,4.68v41.48c0,12.23-6.55,23.53-17.18,29.6l-19.37,11.07c-1.5.86-3.33.86-4.83,0l-19.37-11.07C7.55,80.62,1,69.32,1,57.09V15.61c0-2.17,1.44-4.09,3.53-4.68L38.62,1.19Z" fill="none" stroke="#074bb6" stroke-miterlimit="10" stroke-width="2"/>
  <path d="M58.51,81.03c8.57-4.9,13.89-14.07,13.89-23.94V16.85S39.96,7.58,39.96,7.58L7.52,16.85v40.24c0,9.87,5.32,19.04,13.89,23.94l18.55,10.6,18.55-10.6Z" fill="none" stroke="#074bb6" stroke-miterlimit="10" stroke-width="2"/>
  <path d="M31.69,68.47c-.88-.69-1.72-1.43-2.51-2.19-10.4-9.89-18.34-24.95-11.22-34.64,3.23-4.39,7.97-6.53,13-5.87,4.16.55,8.03,2.92,10.47,6.23,3.54-2.51,7.94-3.74,11.93-3.2,4.03.54,7.27,2.76,9.11,6.26,3.48,6.62,3.48,17.39-4.36,26.52-2.52,2.94-5.68,5.07-8.66,7.33-1.16.88-6.47,4.82-9.37,4.84-2.58.01-5.82-3.26-8.37-5.27Z" fill="#d5f300"/>
</svg>