<?xml version="1.0" encoding="UTF-8"?>
<svg id="Layer_1" data-name="Layer 1" xmlns="http://www.w3.org/2000/svg" viewBox="0 0 99.42 101.26">
  <path d="M21.85,96.63c7.69-2.61,11.51-11.33,18.39-15.65,9.94-6.24,23.08-1.8,34.51-4.45,9.9-2.3,18.07-10.13,21.87-19.56s3.52-20.21.38-29.88c-2.92-9-8.48-17.4-16.57-22.31-11.37-6.9-26.35-5.88-38.19.18-11.84,6.06-20.88,16.53-27.92,27.81C6.19,45.83-.49,61.76.03,77.45c.34,10.35,10.44,23.04,21.82,19.18Z" fill="#d5f300"/>
  <path d="M76.79,35.56c-2.09-1.36-4.7-1.61-7.2-1.66-.53-.01-1.1,0-1.69.04l.03-.06c.33-5.65-1.38-12.94-4.73-17.5-1.31-1.79-3.64-3.54-5.55-2.4-1.21.72-1.58,2.27-1.79,3.66-.67,4.44-.8,8.95-.4,13.42-.19-2.01-.39-4.08-1.32-5.88s-2.76-3.28-4.78-3.18c-2.6.13-4.45,2.85-4.57,5.45-.03.74.14,1.71.43,2.78-.38-.83-.77-1.54-1.17-2.02-1.55-1.88-4.23-3.06-6.48-2.15-3.09,1.25-5.1,6.41-4.21,9.62.89,3.22,1.7,6.15,2.84,9.56-1.33-3.83-2.3-7.51-3.92-10.53-1.79-3.35-6.11-4.72-8.62-1.87-.98,1.12-1.43,2.61-1.72,4.07-1.32,6.5-.28,13.07,1.74,19.46l-.09.04c.1.42.28.81.49,1.18,1.27,3.78,2.85,7.5,4.47,11.1,4.51,10.04,9.45,20.51,8.62,31.49l32.47-2.19c-3.26-6.97-1.01-22.26,2.29-29.22s7.69-13.62,8.79-21.24c.64-4.4-.22-9.55-3.95-11.98Z" fill="#fff" stroke="#004cbc" stroke-miterlimit="10" stroke-width="2"/>
  <g>
    <path d="M69.65,97.99c-3.26-6.97-1.01-22.26,2.29-29.22,3.3-6.95,7.69-13.62,8.79-21.24.64-4.4-.22-9.55-3.95-11.98-2.09-1.36-4.7-1.61-7.2-1.66-5.9-.13-15.28,2.77-22.54,4.92-1.76.52-2.18,2.86-.7,3.94,5.36,3.9,16.39,4.63,22.23,4.07-4.67.23-9.85,1.51-12.76,5.38-2.9,3.87-3.54,9.32-1.6,13.75" fill="none" stroke="#074bb6" stroke-miterlimit="10" stroke-width="2"/>
    <path d="M67.93,33.88c.33-5.65-1.38-12.94-4.73-17.5-1.31-1.79-3.64-3.54-5.55-2.4-1.21.72-1.58,2.27-1.79,3.66-.67,4.44-.8,8.95-.4,13.42-.19-2.01-.39-4.08-1.32-5.88s-2.76-3.28-4.78-3.18c-2.6.13-4.45,2.85-4.57,5.45s2.3,8.13,3.43,10.48c-1.12-2.35-2.61-7.83-4.16-9.71s-4.23-3.06-6.49-2.15c-3.09,1.25-5.1,6.41-4.21,9.62.89,3.22,1.7,6.15,2.84,9.56-1.33-3.83-2.3-7.51-3.92-10.53-1.79-3.35-6.11-4.72-8.62-1.87-.98,1.12-1.43,2.61-1.72,4.07-2.19,10.78,2.1,21.74,6.61,31.78,4.51,10.04,9.45,20.51,8.62,31.49" fill="none" stroke="#074bb6" stroke-miterlimit="10" stroke-width="2"/>
    <path d="M23.6,56.42c.54,2.21,2.7,3.85,4.97,4s4.52-1.11,5.77-3.01,2.44-9.96,1.87-12.16c1.16,2.27,5.56,11.34,10.38,9.42,4.43-1.76,2.9-7.34,2.74-10.68" fill="none" stroke="#074bb6" stroke-miterlimit="10" stroke-width="2"/>
  </g>
</svg>